<?xml version="1.0" encoding="UTF-8"?>
<svg id="Layer" xmlns="http://www.w3.org/2000/svg" viewBox="0 0 420 514.7">
  <defs/>
  <path d="m210,420C94.25,420,0,325.75,0,210S94.25,0,210,0s210,94.25,210,210-94.25,210-210,210" style="stroke-width:0px;fill:#c8102e"/>
  <path d="m210,410.37c-110.45,0-200.37-89.92-200.37-200.37S99.55,9.63,210,9.63s200.37,89.92,200.37,200.37-89.92,200.37-200.37,200.37" style="fill:#fff;stroke-width:0px"/>
  <path d="m210,400.59c-105.14,0-190.59-85.45-190.59-190.59S104.86,19.41,210,19.41s190.59,85.45,190.59,190.59-85.45,190.59-190.59,190.59" style="stroke-width:0px;fill:#c8102e"/>
  <path d="m340.27,210c0,71.91-58.22,130.27-130.27,130.27s-130.27-58.36-130.27-130.27,58.22-130.27,130.27-130.27c71.91,0,130.27,58.36,130.27,130.27" style="fill:#fff;stroke-width:0px"/>
  <path d="m210,89.22c-39.93,0-75.26,19.13-97.32,48.87,3.21.98,9.36,2.65,16.89,4.89h0c11.87,3.49,51.38,15.08,58.78,17.45,21.5,6.98,27.23,9.63,33.23,16.06,6,6.56,15.22,13.96,24.3,20.25,9.08,6.28,13.4,13.12,13.4,24.02s-8.38,20.11-13.54,23.18c0,0,1.82-5.17-.7-7.54s-10.47-6.7-30.72-5.31c-20.25,1.54-47.47,11.31-65.9,21.22,0,0,8.8-13.82,21.92-20.11,0,0-10.89,0-71.63,26.53,18.71,43.01,61.58,73.16,111.42,73.16,67.02,0,121.48-54.32,121.48-121.48-.14-66.74-54.45-121.2-121.62-121.2m0,216.14c-26.53,0-50.41-10.89-67.58-28.48,49.01-25.27,79.59-18.71,79.59-13.82s-7.54,16.76-7.54,16.76c39.93-5.59,69.12-29.74,69.12-62.13s-30.44-48.17-38.12-52.92c-8.24-5.17-4.33-12.15-31.56-22.34-16.62-6.28-39.79-12.43-48.87-14.66,13.4-7.26,28.76-11.45,45.1-11.45,52.22,0,94.67,42.45,94.67,94.67-.14,51.94-42.45,94.39-94.81,94.39" style="stroke-width:0px;fill:#c8102e"/>
  <path d="m209.02,179.14s-6.98.56-14.1-2.93-18.01-11.45-27.37-2.79c0,0,7.96-.98,7.26,1.12s-1.4,14.24,9.36,18.85c11.03,4.61,23.6,1.12,24.85-14.24" style="stroke-width:0px;fill:#c8102e"/>
  <path d="m67.3,307.04l1.26,1.68,17.45-13.4-1.26-1.68,3.91-3.07,5.59,7.26c4.19,5.45,3.77,9.49-.42,12.71-2.93,2.23-5.59,2.37-8.24.98,1.12,3.63.14,6-3.35,8.66-4.61,3.49-9.22,2.09-13.13-2.79l-5.72-7.4,3.91-2.93Zm6,7.82c1.54,1.95,3.63,2.37,6.14.42,2.51-1.95,2.51-3.91.84-5.86l-1.12-1.4-6.98,5.45,1.12,1.4Zm10.47-8.66c1.54,1.95,3.49,2.09,5.72.42,2.23-1.68,2.51-3.63.84-5.72l-.84-1.12-6.7,5.17.98,1.26Z" style="fill:#fff;stroke-width:0px"/>
  <path d="m88.11,332.17l1.26,1.12,22.9-16.06,4.61,4.05-12.85,24.85,1.12.98-3.21,3.63-7.82-6.84,3.07-3.49,1.95,1.68,1.68-3.07-4.61-4.05-2.79,2.09,1.95,1.68-3.07,3.49-7.54-6.56,3.35-3.49Zm15.08,3.21l5.31-9.36-8.66,6.42,3.35,2.93Z" style="fill:#fff;stroke-width:0px"/>
  <path d="m118.4,358.84l-1.12,2.09-3.63-2.09,5.31-9.22,4.05,2.37c-1.95,3.77-1.54,6,.7,7.26,2.09,1.26,3.63.84,4.75-1.12,2.65-4.61-7.54-11.59-2.65-19.69,2.65-4.61,7.26-5.45,11.03-3.21,2.23,1.26,3.49,2.93,3.21,5.03l1.12-2.09,3.63,2.09-5.03,8.8-4.19-2.37c1.54-3.07,1.54-5.03-.42-6.14-1.95-1.12-3.35-.56-4.33.98-2.51,4.33,7.4,11.45,2.65,19.55-2.93,5.03-7.54,5.45-11.73,3.07-1.95-1.4-3.49-3.07-3.35-5.31" style="fill:#fff;stroke-width:0px"/>
  <polygon points="146.75 370.71 148.7 371.41 155.55 350.47 153.59 349.77 154.99 345.16 164.34 348.09 162.95 352.7 161.13 352.14 158.06 361.91 166.44 353.82 165.32 353.4 166.72 348.79 175.23 351.58 173.7 356.33 171.74 355.63 165.04 361.78 166.02 376.99 167.69 377.41 166.16 382.02 157.08 379.09 158.48 374.62 160.15 375.18 159.45 365.96 155.55 369.73 154.43 373.36 156.1 373.78 154.71 378.25 145.35 375.32 146.75 370.71" style="fill:#fff;stroke-width:0px"/>
  <polygon points="185.01 380.76 187.1 381.04 189.06 359.12 186.96 358.98 187.38 353.96 206.51 355.63 205.53 365.68 200.09 365.27 200.51 359.82 195.06 359.26 194.36 367.78 199.25 368.34 198.83 373.22 193.94 372.81 193.11 381.74 198.69 382.3 199.11 376.16 204.69 376.72 203.86 387.33 184.59 385.65 185.01 380.76" style="fill:#fff;stroke-width:0px"/>
  <polygon points="227.17 381.6 229.83 381.18 226.89 359.12 223.54 359.54 224.24 364.99 219.63 365.68 218.24 355.63 240.16 352.7 241.56 362.75 236.95 363.31 236.25 357.87 232.9 358.28 235.83 380.49 238.48 380.07 239.04 384.81 227.73 386.35 227.17 381.6" style="fill:#fff;stroke-width:0px"/>
  <path d="m261.8,374.76l1.95-.7-7.82-20.53-1.95.7-1.82-4.61,8.66-3.21c6.42-2.51,10.19-.84,12.01,4.05,1.26,3.35.7,6-1.4,8.1,3.77-.14,5.86,1.68,7.4,5.72,2.09,5.45-.7,9.49-6.56,11.73l-8.8,3.35-1.68-4.61Zm3.91-16.06c2.37-.84,3.07-2.79,2.09-5.31-.98-2.65-2.65-3.35-5.17-2.51l-1.26.42,2.93,7.82,1.4-.42Zm5.17,12.57c2.37-.84,3.35-2.79,2.23-5.72-1.12-2.93-2.93-3.49-5.45-2.51l-1.68.7,3.21,8.24,1.68-.7Z" style="fill:#fff;stroke-width:0px"/>
  <path d="m290.43,362.89l1.4-.84-8.52-26.53,5.31-3.21,19.97,19.55,1.26-.84,2.51,4.05-8.8,5.45-2.51-3.91,2.23-1.4-2.37-2.51-5.31,3.21,1.12,3.35,2.23-1.4,2.51,3.91-8.52,5.17-2.51-4.05Zm7.4-13.54l-7.4-7.82,3.49,10.19,3.91-2.37Z" style="fill:#fff;stroke-width:0px"/>
  <polygon points="320.59 342.51 322.12 341.11 307.04 325.05 305.51 326.45 302.15 322.82 309.83 315.7 313.18 319.33 311.51 320.86 326.59 337.06 330.36 333.57 326.17 329.24 330.22 325.33 337.48 333.15 323.8 346 320.59 342.51" style="fill:#fff;stroke-width:0px"/>
  <polygon points="342.93 320.03 344.04 318.35 326.45 305.37 325.19 306.9 321.28 303.97 327.43 295.59 331.48 298.52 330.08 300.48 347.95 313.6 350.88 309.55 346 305.92 349.35 301.46 357.87 307.88 346.7 322.96 342.93 320.03" style="fill:#fff;stroke-width:0px"/>
  <path d="m64.09,171.46l.56-1.68-23.46-15.22,2.09-5.86,27.79,2.65.56-1.4,4.47,1.54-3.35,9.77-4.47-1.54.84-2.37-3.49-.42-2.09,5.86,2.93,1.82.84-2.51,4.47,1.54-3.21,9.36-4.47-1.54Zm-2.65-15.22l-10.61-1.4,9.08,5.59,1.54-4.19Z" style="fill:#fff;stroke-width:0px"/>
  <polygon points="77.63 138.09 79.03 135.86 59.9 124.41 58.09 127.34 62.83 130.13 60.46 134.18 51.8 129.02 63.11 109.89 71.77 115.05 69.39 119.1 64.65 116.31 62.97 119.24 82.1 130.69 83.5 128.32 87.69 130.83 81.82 140.61 77.63 138.09" style="fill:#fff;stroke-width:0px"/>
  <polygon points="93.27 114.63 94.67 113.1 78.61 98.16 77.21 99.55 73.58 96.2 80.7 88.52 84.34 92.01 82.8 93.69 99 108.77 102.49 105.14 98.02 100.95 101.79 96.9 109.61 104.16 96.9 117.85 93.27 114.63" style="fill:#fff;stroke-width:0px"/>
  <path d="m113.94,93.69l1.4-.98-10.19-25.97,5.03-3.63,21.08,18.29,1.26-.84,2.79,3.91-8.38,6-2.65-3.77,2.09-1.54-2.51-2.37-5.03,3.49,1.4,3.21,2.09-1.54,2.65,3.77-8.1,5.72-2.93-3.77Zm6.7-13.96l-7.82-7.4,4.19,9.91,3.63-2.51Z" style="fill:#fff;stroke-width:0px"/>
  <polygon points="142.56 74.98 144.37 74.28 136.14 53.9 134.18 54.59 132.37 49.99 139.91 46.91 153.59 60.46 148.7 48.73 147.03 49.43 145.07 44.82 153.87 41.19 155.82 45.8 153.87 46.64 164.06 71.35 159.04 73.44 144.37 59.34 149.68 72.05 151.36 71.35 153.17 75.82 144.37 79.45 142.56 74.98" style="fill:#fff;stroke-width:0px"/>
  <polygon points="178.03 62.83 180.68 62.41 176.77 40.35 173.42 40.91 174.39 46.36 169.79 47.19 167.97 37.28 189.89 33.37 191.57 43.28 186.96 44.12 185.98 38.68 182.63 39.24 186.54 61.3 189.2 60.88 190.03 65.49 178.86 67.58 178.03 62.83" style="fill:#fff;stroke-width:0px"/>
  <path d="m201.62,59.34h1.68l7.12-26.95,6.14.14,6.14,27.23h1.54l-.14,4.75-10.33-.14.14-4.61h2.51l-.56-3.49-6.14-.14-.84,3.35h2.65l-.14,4.61-9.91-.14.14-4.61Zm13.54-7.26l-1.95-10.61-2.51,10.47,4.47.14Z" style="fill:#fff;stroke-width:0px"/>
  <polygon points="247.28 63.81 249.24 64.37 256.36 43.56 254.4 43.01 256.08 38.26 265.85 41.61 264.18 46.08 262.22 45.38 259.57 53.06 265.99 55.29 268.64 47.61 266.55 46.91 268.09 42.31 277.86 45.66 276.32 50.41 274.23 49.71 267.25 70.51 269.2 71.21 267.67 75.68 257.89 72.33 259.43 68 261.52 68.7 264.32 60.32 257.89 58.09 254.96 66.46 257.05 67.16 255.52 71.63 245.74 68.28 247.28 63.81" style="fill:#fff;stroke-width:0px"/>
  <path d="m279.53,76.1l1.4.84,19.97-19.55,5.31,3.21-8.66,26.53,1.26.84-2.51,4.05-8.8-5.45,2.51-3.91,2.23,1.4,1.26-3.21-5.31-3.21-2.51,2.51,2.23,1.4-2.51,3.91-8.52-5.31,2.65-4.05Zm15.36.7l3.77-10.05-7.54,7.68,3.77,2.37Z" style="fill:#fff;stroke-width:0px"/>
  <polygon points="321.28 77.63 319.89 76.24 323.38 72.75 330.36 79.59 327.01 83.08 325.61 81.68 317.09 93.27 332.87 82.1 336.5 85.73 325.61 101.79 337.06 92.99 335.8 91.74 339.16 88.24 345.72 94.81 342.23 98.3 340.83 96.9 318.63 112.82 314.72 108.91 326.03 92.29 309.55 103.88 305.64 99.97 321.28 77.63" style="fill:#fff;stroke-width:0px"/>
  <polygon points="331.2 120.22 332.31 121.89 350.88 110.17 349.77 108.49 353.96 105.7 359.26 114.08 355.07 116.59 354.1 115.05 345.44 120.64 357.03 119.8 356.47 118.68 360.52 116.17 365.27 123.71 361.08 126.36 359.96 124.55 350.88 124.97 342.09 137.25 342.93 138.79 338.88 141.3 333.71 133.2 337.62 130.69 338.6 132.23 344.04 124.55 338.6 125.11 335.39 127.06 336.36 128.6 332.45 131.11 327.15 122.73 331.2 120.22" style="fill:#fff;stroke-width:0px"/>
  <path d="m346.42,152.47l-2.23.84-1.54-3.91,9.91-3.77,1.68,4.33c-3.91,1.68-4.89,3.77-4.05,6.14.84,2.23,2.37,2.93,4.33,2.09,5.03-1.95,1.4-13.68,10.19-17.03,4.89-1.95,9.08.28,10.61,4.33.84,2.37.98,4.47-.56,5.86l2.23-.84,1.54,3.91-9.49,3.63-1.68-4.47c3.07-1.4,4.33-2.93,3.49-5.17-.84-2.09-2.37-2.51-3.91-1.95-4.61,1.82-1.4,13.54-10.05,16.89-5.45,2.09-9.36-.56-11.03-5.03-.7-1.95-.84-4.33.56-5.86" style="fill:#fff;stroke-width:0px"/>
</svg>
