<?xml version="1.0" encoding="UTF-8"?>
<svg id="Layer" xmlns="http://www.w3.org/2000/svg" viewBox="0 0 420 538.09">
  <defs/>
  <g id="Layer_3" data-name="Layer 3">
    <path d="m420,219.31c0-56.03-21.83-108.71-61.56-148.3-34.05-34.2-78-55.3-125.74-60.25-1.16-1.16-2.47-2.18-3.64-2.91-16.74-10.91-30.71-2.77-40.46,1.89-.58.29-1.6.58-2.47,1.31-18.19,2.18-35.95,6.69-52.54,12.95-1.89-2.91-4.22-5.68-6.84-8.3C116.72,5.68,103.18,0,88.63,0c-29.54,0-53.7,24.01-53.7,53.7,0,12.37,4.22,24.3,11.93,33.62C17.61,123.26,0,169.25,0,219.46c0,56.03,21.83,108.71,61.56,148.3,19.36,19.36,41.77,34.49,66.36,44.97-1.46,11.06.44,18.48,2.47,21.68-3.06,2.62-4.37,4.22-4.95,7.13-4.95,6.69,6.99,15.14,11.93,18.92,9.9,7.71,15.14,6.4,23.14,5.97,9.6-.44,18.77-11.64,23.72-19.06,10.48-1.46,12.37.15,12.66,1.46,3.2-.44,7.86-1.31,13.97-3.93,14.12-5.82,9.9-12.95,8.59-14.26-.44-.29-.58-.87-1.02-1.46,33.18-1.31,65.2-10.19,93.58-26.2,1.02,1.16,2.18,2.47,3.06,3.93,3.06,4.51,4.66,19.36,5.38,26.78.58,7.71,1.89,12.81,5.68,24.74,3.78,12.08,5.24,3.2,5.38,0s.87-14.99.29-23.43c-.44-8.44-.58-20.52,1.02-25.76s-1.31-6.55-2.18-7.42c-.87-1.02,0-1.31-2.18-7.86-.15-.44-.29-.58-.29-1.16,10.77-7.28,20.67-15.57,30.12-25.03,39.88-39.73,61.7-92.41,61.7-148.44" style="stroke-width:0px"/>
  </g>
  <g id="Layer_5" data-name="Layer 5">
    <g>
      <path d="m190.5,419.27c-2.47-2.18-6.4-4.95-6.99-5.38-.44-.44-1.89.15-3.06.58,0,0,1.02.44,1.75,1.46,1.16,1.16,4.37,3.64,5.68,4.95,1.31,1.16.87,2.62.44,3.64-.15,1.02,1.46-.15,3.35-1.31,2.04-1.16,1.31-1.89-1.16-3.93Z" style="stroke-width:0px;fill:#bb9753"/>
      <path d="m182.2,427.42c-1.31.44-2.77,0-3.64-.87-1.02-1.02-6.4-5.53-7.28-6.55-1.02-1.02-.87-2.33,0-2.91-1.75.15-2.91.15-4.22.15-1.16.15-3.06.15-1.6,1.6,1.31,1.31,8.59,8.15,9.9,9.46,1.31,1.31,2.62,1.31,3.93,1.02,1.31-.15,4.37-2.33,2.91-1.89Z" style="stroke-width:0px;fill:#bb9753"/>
      <path d="m209.13,155.43c.58-1.6,1.89-4.95,2.91-7.42-2.33,0-5.53.29-7.42.29-1.75,0-1.16,2.62-1.46,4.22-.29,1.89,3.06.29,2.62,2.77-.15,1.02,2.77,1.75,3.35.15Z" style="stroke-width:0px;fill:#bb9753"/>
      <path d="m162.7,385.07c-.44,0-1.6-.15-2.18-.44h-.29l-1.16-.15c.58.44,1.02,1.46.15,1.89-1.31.87-5.53,1.46-9.9,1.16-4.37-.15-5.38-2.62-5.53-4.22,0-1.02.15-1.89.15-3.64s-.44-3.06.44-3.78c1.02-.58.87,1.02,1.46,1.02,2.77,0,12.37,1.02,14.7,1.31,2.33.15,2.18-1.02,1.6-2.62-.15-.44-.58-.29-.29,0-.29.87-2.47.44-2.47.44,0,0-4.22-.29-6.99-.44-2.91-.15-5.09-.44-6.69-.87-1.6-.29-3.78-.29-3.64.44.15.87.44,10.91.58,12.37,0,1.46.15,1.89.87,1.89,1.75,0,14.26.15,17.17.15s2.62-.29,2.77-1.89c.29-1.31-.15-2.62-.73-2.62Z" style="stroke-width:0px;fill:#bb9753"/>
      <path d="m176.96,70.29c.87,1.02,1.75,1.75,2.91,2.62,1.89-2.18,3.78-3.93,5.68-5.68v-.15l3.93-3.93c4.22-3.93,8.3-7.13,12.95-10.19,2.62-1.6,4.66-3.2,7.13-4.66v-.29c2.77-1.6,4.66-2.62,4.66-2.62,0,0,2.77-1.16,6.4-2.77,4.07-1.46,8.88-2.77,15.14-4.07.44-1.46.44-4.95.15-6.11-.15-4.51-5.09-8.88-5.09-8.88.44-.29-.29-2.62-.58-4.66-5.68,1.6-12.95,4.66-19.36,7.86q-1.02.44-3.35,1.75v-.15c-1.16.44-2.47,1.31-3.35,1.75-1.89,1.02-4.95,2.77-8,5.09-4.51,3.06-10.04,7.13-15.14,11.64-2.91,2.47-8,8.59-8,8.59-.87,1.16-1.6,2.18-2.18,3.2.44,1.16.58,2.18,1.02,3.06.44,1.31,2.18,6.11,5.09,8.59Z" style="stroke-width:0px;fill:#bb9753"/>
    </g>
    <path d="m199.96,148.3c-3.64-1.6-6.84-5.53-9.17-9.9,0,0,.15-.58-.87-.58s-4.51-.29-10.62-2.47-6.84-.87-7.71,1.75-1.46,7.28-1.6,15.14,3.2,12.66,5.38,11.93c1.02-.44,3.64-1.6,6.55-3.06l8-3.35c3.35-1.16,7.28-3.35,8.59-4.22l2.18.15c.29-3.06.15-4.8-.73-5.38Z" style="stroke-width:0px;fill:#bb9753"/>
    <path d="m245.8,135.63c-5.38-.29-11.64.58-17.61,3.06l-2.91.87c-1.6.87-3.64,1.6-5.09,2.62-8.3,5.09-8.59,9.46-6.69,10.91,1.6,1.46,5.38,2.18,11.35,5.97l2.33,2.18.15.15c8.88,6.55,11.06,2.91,12.52-.15,1.31-3.06,4.22-12.22,5.09-17.03.44-3.2,1.16-6.11.87-8.59Z" style="stroke-width:0px;fill:#bb9753"/>
    <path d="m187.73,183.95c-1.31-2.91-1.6-.58-5.38,5.09-1.75,2.91-11.21,13.39-11.93,14.12-8.3,10.19-24.3,22.99-24.3,22.99-7.13,6.55-11.06,11.35-13.53,15.28l9.31,29.25c4.07,5.68,9.9,13.83,12.08,17.17,3.2,5.38,3.2,11.93,4.51,10.91s4.37-3.93,5.38-4.66c1.02-.87,1.89-1.75,1.46-3.64-.44-1.75-2.47-11.35-1.75-18.05.58-7.71,4.22-16.01,6.84-20.67s9.9-19.36,11.93-23.28c1.75-3.93,5.09-8.44,5.82-12.08s3.93-11.93,5.24-15.72c0-2.33-2.18-8.88-5.68-16.74Z" style="stroke-width:0px;fill:#bb9753"/>
    <path d="m265.01,269.67c0-3.78-2.18-6.69-6.4-13.68-4.22-6.84-5.09-9.75-5.68-16.88-.44-4.51,0-10.48.44-16.15l-12.22-12.22-.29-10.77-.44-2.33c-3.35-16.15,4.37-35.36,6.55-40.6,2.33-5.68,10.91-21.68,14.12-26.49-1.6-.87-5.82-2.91-8.3-4.22s-3.64-1.75-4.22-.87c-.58.87-1.46,1.46-2.62,2.91-2.33,3.2-.29,2.77.29,2.77s3.35,3.64,3.93,4.37c.44.87,0,1.46-1.16,4.07-1.6,3.35-2.47,11.21-3.64,16.01-3.93,14.12-9.9,12.81-12.81,10.91-2.77-1.75-3.64,1.02-6.4,4.95-.58,1.02-2.18,3.06-4.37,5.38l-2.47,3.78-15.28,14.7s-5.24,5.38-6.84,6.11c-2.18,3.64-3.93,8-6.55,15.72-3.64,10.91-11.64,25.47-15.14,31.14-8.73,14.12-10.19,27.36-8.88,35.65,1.31,8.15,2.47,7.71,4.22,7.71s6.11,5.53,8.88,8.88c2.91,3.35,4.07,1.89,5.53.87,4.66-3.64,14.12-9.75,27.51-16.15,5.68-2.62,13.24-5.68,20.52-7.86l7.42-2.33c6.99-1.89,13.24-3.06,16.44-2.77,4.8.29,8.15,1.6,7.86-2.62Z" style="stroke-width:0px;fill:#bb9753"/>
  </g>
  <g id="Layer_2" data-name="Layer 2">
    <g id="Layer_2-2" data-name="Layer 2">
      <path d="m160.52,415.2c7.86-.29,18.77-2.77,23.58-4.95.58.15,1.6.87,3.35,1.46.58-5.24-2.62-16.15-4.51-20.96-1.31-3.2-2.47-5.53-3.93-8.88-4.37-.87-9.9-3.2-13.68-4.66,0,3.06.44,11.06,1.31,16.44-1.6.15-3.93.29-6.69.29.44,5.68.87,16.3.58,21.25" style="stroke-width:0px;fill:#008348"/>
      <path d="m307.21,397.88c-1.46-1.46,1.75-5.97,3.2-14.26,1.46-8.44,1.6-22.41-4.51-30.56-2.91-3.78-4.51-6.4-4.95-8-19.21,13.97-41.19,23.28-64.62,27.21-.29.44-.44,1.02-.87,1.31-3.35,4.37-9.9,10.77-14.99,13.24-4.95,2.62-10.62,4.51-13.68,5.53-.58,5.24-1.6,16.74-.15,20.67.44,1.46,6.55,5.09,8.59,8.88.29.44.44.87.44,1.16,33.04-1.02,64.32-9.9,91.54-24.74.44-.29.29-.44,0-.44" style="stroke-width:0px;fill:#008348"/>
      <path d="m354.22,75.09c-31.87-31.87-72.62-52.1-116.57-57.92,3.64,6.99,4.07,15.14,4.37,20.23,6.4-2.77,11.06-4.22,13.83-8.44,2.62-4.22,6.11-3.35,8.44-.29s2.33,6.84-3.64,10.77c-5.97,3.78-10.48,5.53-11.64,6.11-1.31.58-.15,1.75,1.31,4.22,1.46,2.47,5.24,8.44,5.68,21.1v.44c23.72,7.28,45.7,20.37,63.74,38.57,29.25,29.25,45.41,68.25,45.41,109.58,0,23.72-5.38,46.72-15.28,67.53,1.46.58,3.06,5.38,3.78,11.5.29,3.2.15,6.84-.87,8.88-1.02,2.33-8.59,13.83-12.52,17.17-1.46,1.31-4.95,1.16-6.4-1.02s-1.6-1.02-2.77.15c-1.16,1.16-5.09,6.84-5.97,8.3-1.02,1.46-4.22,2.91-2.18,8.73,2.18,5.82,4.51,10.19,3.78,13.53-.87,3.2-1.16,4.22,3.2,7.86s4.22,8.3,2.33,11.06c-1.31,1.75-3.06,6.84-3.93,11.64,51.66-37.11,85.57-97.65,85.57-165.9.29-53.99-21.1-105.22-59.67-143.78" style="stroke-width:0px;fill:#008348"/>
      <path d="m120.21,369.79c-.44-5.53-1.46-15.43,2.47-22.41-7.86-5.38-15.14-11.5-22.12-18.34-29.4-29.4-45.41-68.4-45.41-109.73,0-44.39,18.77-84.26,48.61-112.64.29-.44.58-1.16,1.16-1.6-5.09,1.6-10.48,2.47-16.01,2.47-14.12,0-27.65-5.53-37.84-15.57C22.12,127.92,6.11,172.6,6.11,219.46c0,54.43,21.25,105.8,59.67,144.07,18.34,18.34,39.88,32.89,63.16,43.08.87-4.37,2.33-9.17,4.22-14.12,1.75-4.66-1.02-15.57-5.53-21.25-2.18-.87-5.38-1.31-7.42-1.46" style="stroke-width:0px;fill:#008348"/>
      <path d="m174.2,18.77c-12.81,2.33-25.47,5.68-37.4,10.48,3.93,7.42,5.82,16.01,5.82,24.59,0,11.5-3.64,22.41-10.19,31.73,11.21-6.55,23.43-11.64,35.95-15.28.87-.87,1.6-1.6,2.62-2.33-4.66-7.86-10.91-20.37-5.53-37.11,1.46-4.95,4.95-8.88,8.73-12.08" style="stroke-width:0px;fill:#008348"/>
      <path d="m104.05,152.37c-2.18-.58-3.78,1.75-4.66,3.78-1.02,1.89-2.18,4.07,1.02,8.44,3.06,4.37,4.95,6.99,10.48,6.69,2.62-.15,4.95-2.18,5.68-3.2s1.02.87-.29,2.77c-1.31,1.89-2.33,6.55.15,9.6,2.47,3.06,7.42,5.68,14.12,1.75,6.69-3.93,9.46-8.59,10.62-10.77s1.16-3.06,0-4.37-4.95-7.42-5.68-19.5c-.44-7.28.87-12.08-3.64-14.7s-14.99-8.73-16.15-20.67c-.44-4.51-.15-11.5-4.66-7.86-4.51,3.78-4.51,6.4-5.09,8.88-.44,2.77,1.75,6.55,3.64,8.88,1.89,2.62,4.22,8.3,5.97,9.75,1.75,1.46,2.91,2.62,4.37,2.77,1.46.15,7.28.15,8.73.58,1.46.44,2.33,2.33-1.31,2.33s-8.88,1.02-11.5,1.31c-2.47.29-4.66.44-5.68,5.38-1.16,4.95-2.77,10.62-2.91,12.37s-1.16,2.77-1.16,3.78,1.89,5.68,6.4,1.02,6.11-9.46,6.99-11.64c.87-2.33,1.75-1.89,1.02,1.6-.87,3.64-1.02,12.52.58,15.57,1.75,3.35,5.53,6.84,10.19,4.37,1.02-.44,2.62-1.31,3.93-1.16,1.31.15-.29,2.47-1.46,3.35-1.16,1.02-4.95,5.09-11.35-.87-1.6-1.46-3.93-4.66-4.37-8.73-.15-1.31-1.89-1.75-2.77-.58-.87,1.16-5.24,5.24-8.3,2.33-3.06-2.91-4.37-4.51-2.62-10.77-.15-1.02.44-2.18-.29-2.47" style="stroke-width:0px;fill:#f9a980"/>
      <path d="m107.4,143.35c-.58,2.18-1.31,4.95-1.6,5.68-.29,1.02-1.75,3.06-3.06.29-1.31-2.77-1.31-4.95.87-6.99.58-.58,1.6-1.89,2.33-1.31.29,1.02,1.46,1.75,1.46,2.33" style="stroke-width:0px;fill:#f9a980"/>
      <path d="m114.68,135.78c-1.31.58-4.22.58-5.24,2.91-.58,1.46-3.2-.15-1.89-1.89s2.33-1.6,3.06-2.18c.87-.44,1.16-1.89,2.77-1.16,1.46,1.02,1.75,2.18,1.31,2.33" style="stroke-width:0px;fill:#f9a980"/>
      <path d="m202.29,106.38c-.87,1.89-3.35,3.93-8.88,3.35-2.77-.29-5.68-.44-5.97,1.75-.29,1.6-1.6,1.46-3.35,1.46-1.75-.15-3.93-.44-3.93.15-.15.58,7.86,5.53,10.62,6.69,2.62,1.31,6.69,4.07,9.75,3.78,4.22-.44,7.86-2.62,14.12-9.17,2.62-2.62,4.66-4.07,2.33-5.24-1.6-.58-3.35-1.02-5.53-1.02-2.62,0-7.13-.29-9.17-1.75" style="stroke-width:0px;fill:#f9a980"/>
      <path d="m172.02,106.53c-2.33-.15-2.47-1.6-1.02-4.07,1.46-2.47,2.77-4.66,4.66-6.11.29,1.02,1.02,2.47,1.89,2.91-1.31,1.46-2.91,3.06-2.62,6.55l-2.91.73Z" style="stroke-width:0px;fill:#f9a980"/>
      <path d="m259.92,88.05c-3.35-6.11-9.17-3.06-11.93,1.46s-5.82,9.6-5.97,17.17c-1.89-.58-3.93,0-4.95,1.6-.44.87-7.71-.15-9.9.44-2.47.58-3.2-.87-.58-4.22s11.64-15.72,11.06-24.89c-.15-2.77.15-3.2.58-5.38.44-2.62.87-2.62-2.62-4.51-2.18-1.16-2.33-4.51-2.62-7.13-.44-2.77-1.02-2.77-4.07-2.18-1.89.29-5.82-2.18-7.71-4.95-4.51.44-8.73,3.2-12.95,6.11s-19.21,16.01-22.99,18.48c3.64,1.89,4.66,5.68,3.35,12.37-.29,1.46,0,1.89,1.02,1.02,1.02-1.02,5.53-5.68,5.38-9.75-.15-3.93-1.89-6.11-2.33-6.69-.29-.44,1.31-2.47,3.06,1.6,1.75,4.07,1.31,9.75-4.07,16.15s-9.6,6.11-11.93,7.28c-2.33,1.16-4.51,2.91-2.47,6.4s6.11,2.18,7.86,1.02c1.6-1.16,3.93-2.47,8.88-1.89,5.24.44,6.84-2.77,3.35-6.4-1.16-1.16-4.07-3.64-.44-3.64,2.18,0,4.66,4.66,6.11,5.97s4.66,1.75,8.88,2.18c4.37.29,11.06,1.89,11.06,6.11,0,2.62-1.46,3.35-3.2,1.31-.58-.87-1.75.44-2.62,1.31-2.77,2.77-9.9,10.19-14.84,11.5-5.09,1.31-6.84-.15-13.53-3.64-6.69-3.64-12.81-7.13-14.7-8.3-1.75-1.16-5.53-3.78-3.78,1.46,1.75,5.24,6.11,10.62,14.99,13.53,8.73,2.91,9.9,3.93,12.08,4.95,1.89,1.02.87,1.89-1.75,1.6-2.33-.29-4.66-2.33-2.77,2.18,1.89,4.37,4.95,9.17,13.83,7.86,8.88-1.16,9.17-2.91,14.84-12.37,1.02-1.6,1.89-.44,1.31,3.78,4.37-2.18,6.84-2.77,9.46-3.35,2.62-.58,9.31-2.91,13.83-11.21,2.33-4.22,3.64-5.68,3.06-9.9-.15-1.6,2.33-4.95,4.66-7.13,2.91-2.62,9.31-11.21,6.11-17.32Zm-39,8.15q.87.15.58.15c-2.77,0-6.84-.87-9.9-2.91-3.06-2.18-3.93-3.06-3.64-5.97.29-1.75.44-2.77.44-3.64.15-.44.15-.87.15-1.31.29-1.46.15-2.47-.29-2.77-.29-.29-.44-.44-1.02-.44-.44,0-1.46.44-2.62,1.31-1.6-1.31-3.35-2.62-4.51-3.78-1.02-.87-1.6-1.46-1.89-1.6-.29-.29-.58-.44-.87-1.02,0-.29.15-.58.44-1.16.29-.29.44-.29,1.02-.29h.29c.29,0,.87,0,1.16-.44s.44-1.16.29-2.18c0,0,.15-.15.87-.15h.87c.44,0,.58,0,.87-.15.44-.15.44-.44.44-.87q.15-.44.58-.44c.29,0,.58,0,1.31.15h.29c.44,0,.87-.44,1.02-.58l.15-.15c.15-.29.44-.44.87-.44h.44c.44.15.87.15,1.16.29.44.15.87.29,1.31.29,1.02,0,1.31-.58,1.46-1.31.29-1.16.44-1.46,1.02-1.46.44,0,1.02.29,1.6.58.58.44,1.31.44,1.6.44.58,0,1.31-.44,1.46-1.31,0,0,0-.15.29-.15.44,0,1.31.29,2.33.87l.44.29c1.6.87,4.66,2.62,8.3,6.84.87,1.02,1.16,1.6,1.02,1.75h-.29c-.44.15-1.46.29-1.6,1.6-.15.58-.29,1.31-.44,1.31,0,0-.15-.15-.29-.44-.29-.44-.44-.87-1.02-.87h-.29s-.15-.15-.15-.44c-.15-.29-.29-.87-1.02-.87-.29,0-.44.15-.58.29h-.15c-.15-.29-.29-.87-1.02-.87h-.58s0-.15-.15-.29c-.15-.29-.29-.44-.58-.44s-.44.15-.58.15c-.29.15-.44.15-.58.15s-.15,0-.15-.15c-.29-.44-.44-.44-.58-.44-.29,0-.44.15-.87.29-.15.15-.44.29-.44.29,0,0-.15,0-.29-.15-.15-.15-.44-.44-.58-.44-.44,0-.44.29-.87.44l-.15.15c-.15.29-.29.29-.44.29h-.29c-.15-.15-.44-.15-.44-.15-.44,0-.87.44-1.02.44l-.15.29s-.15,0-.29-.15c-.15-.15-.44-.15-.44-.15-.58,0-1.02.44-1.16,1.02-.15.44-.29.44-.44.44h-.15c-.29,0-.44-.15-.58-.15-.87,0-1.02.87-1.16,1.6,0,.15,0,.29-.15.44-.29,1.31-.87,6.84-.58,8.15.15,1.31,1.75,1.31,2.47,1.31,1.31,0,2.77-.29,4.95-.44,3.93-.44,11.35-2.77,15.14-5.82,1.02-.87,1.6-.87,1.89-.87s.29,0,.44.15c0,.15-.44,1.31-1.46,1.89q-.15.15-.29.29c-1.16,1.02-3.93,3.64-9.6,4.51-5.38,1.02-10.19,1.89-12.08,1.89h-.73c-.29,0-.44.15-.44.44-.15.29,0,.58.44,1.02.44.44,1.31.58,1.89.58h.58c.15,0,.87.44,1.31,1.02,1.16,1.16,2.91,2.62,5.24,2.62,2.91,0,6.99-3.06,8.3-4.07.44-.44,1.75-1.16,2.62-1.31-.15.15-.29.44-.44.58l-.15.29c-3.35,3.2-6.11,6.11-8.88,6.11Zm34.78-3.49c-1.75,1.31-2.91,1.75-3.06,4.07-.15,2.33-.44,6.11-1.46,6.55-1.16.44-1.02-2.18-1.31-1.31-.44,1.16-1.75.58-2.33-.44-.15-.44-4.22-.44-1.02-5.09,2.91-4.22,5.24-6.55,7.28-7.42,2.18-1.02,5.97.87,1.89,3.64Z" style="stroke-width:0px;fill:#f9a980"/>
      <path d="m335.16,285.53c-.58-1.89.44-5.09,4.66-2.77,4.07,2.33,7.13,4.22,4.22,12.95-2.91,8.88-5.09,14.12-6.11,17.9s-5.53,8.44-4.07,2.18c1.46-6.4,2.33-13.97,1.6-17.9-1.16-7.13,1.16-6.84.44-9.9-.29-1.02-.44-1.89-.73-2.47" style="stroke-width:0px;fill:#f9a980"/>
      <path d="m350.58,293.1c1.16,3.64,2.47,11.5.44,14.84-1.89,3.2-8,12.08-10.19,14.41-2.33,2.33-4.07,1.31-2.62-1.16,1.46-2.47,3.35-5.68,3.35-6.84s-.15-2.47,1.75-6.11c1.89-3.64,5.38-16.15,5.68-17.17.44-1.02,1.31,1.16,1.6,2.04" style="stroke-width:0px;fill:#f9a980"/>
      <path d="m308.67,323.08c-1.02-2.91-1.46-7.13-3.06-9.6,1.31-3.64,5.68-12.95,12.81-16.15.87-.29,1.31-1.16,1.02-1.75-.29-.58,1.02-1.16,1.6,1.16s1.75,8.73,1.75,8.73c.29,1.46-.29,2.62-.58,4.51-.29,1.89-1.16,6.4-.58,8.59.44,2.33,1.31,3.93,5.68,2.91,2.33-.44,2.18-1.16,2.77-3.06.58-1.89,2.47-7.42,3.06-10.62.58-3.06.15-10.62-.44-12.52s.29-8.59-.29-9.9c-.44-1.31-.87-3.2-4.95-4.51-4.07-1.31-5.24-1.6-7.86,1.16-2.77,2.77-3.64,3.93-5.09,5.24-1.31,1.31-4.51.15-1.75-2.47s5.38-5.24,6.11-5.97l-.87-2.18h-1.46c-4.37,4.37-10.19,6.99-14.12,7.86-1.46.29-4.22.44-2.33,3.06.44.58.58,2.47,1.75,1.75,1.16-.58,2.91-3.64,4.51-2.33s-.29,4.37-2.33,5.82c-1.89,1.46-4.07,2.91-5.53,3.64-1.46.87-2.33,1.6-2.18,4.22s.29,7.28-1.16,10.91-.58,4.51.58,6.84c1.31,2.47,3.35,4.51,4.07,8.44.58,3.93,1.02,4.95,3.64,4.51,2.62-.29,3.64-1.46,4.51-3.06l.73-5.24Z" style="stroke-width:0px;fill:#f9a980"/>
      <path d="m214.51,41.48c2.33.29,4.66.15,5.24-1.46.44-1.6.15-2.62-.58-2.77-.58-.29-1.16-.29-.58-1.6.29-1.46,1.46-1.31,1.31-3.64s-1.75-2.47-3.35-1.75c-1.6.44-2.18,1.31-3.64,3.06-1.46,1.89-.87-1.31-.44-1.75s.87-4.22-1.16-4.95c-1.16.44-2.33,1.16-3.35,1.6-.29.58-.44,1.6-1.02,2.47-.87,2.18-1.75.44-2.62-.44h0c-2.18,1.16-4.07,2.33-5.53,3.2-.15.15-.29.29-.44.29.15,1.31,1.6,2.91,2.62,3.64,1.16.58.44,2.18-.87,2.18s-2.91-.87-4.51,1.16c-1.6,1.89-.44,3.78,1.02,3.78,1.6,0,2.77.44,3.35,2.47.44,1.75,1.02,2.62,3.06,2.77,2.18.15,3.35-1.46,3.93-2.47.44-1.02,1.31-2.47,2.33-1.89,1.31.44,1.16,1.75.58,3.35,1.6-.87,3.06-1.6,4.66-2.62-.29-1.46-1.16-2.62-1.6-3.2-.87-1.31-.58-1.6,1.6-1.46" style="stroke-width:0px;fill:#008348"/>
      <path d="m232.56,17.9c-.58.15-1.6.44-2.47.44.44,1.75,1.16,4.22.58,4.66-.44.44-2.47.58-3.78,1.16-1.46.44-4.95,3.64-3.06,5.97,1.75,2.47,2.47,3.78,2.62,4.95.29,1.31,3.2,2.62,5.24.29,1.89-2.47,3.64-5.09,4.07-3.35.44,1.46.29,4.95,0,6.84.44-.15.87-.15,1.31-.29,1.02-9.17-1.31-15.57-4.51-20.67" style="stroke-width:0px;fill:#008348"/>
      <path d="m188.02,61.7c-1.16-.87-1.46-2.33-.15-2.62,1.46-.44,3.2-.58,6.69-2.33,3.35-1.46,1.6-3.93.15-4.66-1.6-.58-1.6-2.18-1.6-3.64.15-1.6-.29-3.78-3.2-2.62-2.91,1.16-1.89,4.07-2.77,5.09-.87,1.02-1.46.58-1.31-.87s-1.16-2.47-1.75-2.77c-.44-.29-1.75-.44-2.77-.44-3.06,2.77-5.82,5.68-8,8.59.44,1.02,1.6,2.18,2.33,2.33.87.29,1.89.87,1.89,2.47,0,1.46-3.06,1.46-5.24,1.6,1.46,3.93,2.91,6.69,4.95,8.88.44-.15,1.16-.29,1.75-.58,2.62-1.16,3.35-4.95,3.64-5.97.44-1.16,1.46-.87,2.33.44.44,1.02.58,1.89.58,2.91,1.46-1.46,2.77-2.77,4.22-4.07-.44-.87-1.02-1.31-1.75-1.75" style="stroke-width:0px;fill:#008348"/>
      <path d="m231.1,158.48c.44-.15-.87-5.68.29-5.97,1.02-.29,1.6,3.06,3.78,2.77,2.33-.44,2.77-2.62,2.62-5.24-.29-2.62,1.16-1.16,2.33-2.91s-1.31-4.22-4.07-2.62c-2.77,1.6-2.33-.44-.87-1.46s.44-4.07-2.62-3.06c-2.33.58-3.35-.58-4.37-1.31-.87.29-1.6.58-2.47,1.02-.15.44,0,1.46.15,2.33.29,1.02.58,3.64-1.02,2.62-1.6-1.02-3.64-1.6-4.07.29-.44,1.75.44,1.89.44,3.06s-3.06,1.46-1.6,3.64c1.46,2.47,3.35,1.16,4.66.15,1.46-.87,2.62.15,2.33,1.46-.44,1.02-1.16,4.07-1.31,6.11.58.44,1.31.87,1.89,1.46.87-.73,2.33-2.04,3.93-2.33" style="stroke-width:0px;fill:#008348"/>
      <path d="m186.86,152.81c1.31-.29,3.64,2.33,5.68.58,2.18-1.46-.87-2.91-.44-4.07.29-1.16,1.46-3.64-.15-4.66-1.46-1.16-2.91-.15-4.51,1.6-1.6,1.6-1.02-1.6-.15-2.91,1.16-1.75,0-2.91-1.75-3.35-1.75-.29-2.47,2.33-3.64,1.16-1.89-1.75-4.95-1.16-4.22,1.46.58,2.62,1.6,3.35,0,3.64s-2.91-3.64-4.66-.44,1.16,4.22.87,6.69c-.29,2.47.58,5.09,2.33,5.24,1.46.29,2.91-1.46,3.78-2.47s2.77-1.6,2.62.15c-.15,1.31-.29,3.93-.29,5.53,2.91-1.46,6.11-2.91,7.86-3.64q.15,0,.29-.15c-.87-.29-1.89-.87-3.06-1.6-1.89-1.02-1.89-2.33-.58-2.77" style="stroke-width:0px;fill:#008348"/>
      <path d="m151.06,226.59c3.64-1.16,3.93,1.75,3.35,4.22s-.44,7.71-.29,10.19l6.11.29c-.29-1.6,0-6.4.15-9.17.15-2.77,2.91-6.99,3.93-2.77s5.24,4.37,8.15,2.62,5.09-5.68,8.15-11.21-1.02-6.99-3.35-6.69-4.95.58.58-3.93c5.09-4.22-3.64-6.4-7.42-7.13-6.55,6.84-14.41,14.7-21.68,20.67-.87.87-1.75,1.6-2.62,2.33.73.73,2.33,1.46,4.95.58" style="stroke-width:0px;fill:#008348"/>
      <path d="m144.66,267.48c3.06-1.02,5.09,5.68,9.6,1.75s1.31-7.13,1.16-10.48,3.64-4.51,2.47-8.59c-1.6-6.11-7.42-.29-10.91,3.06-3.64,3.35-3.64.58-.15-4.95,3.64-5.53-2.33-7.28-5.82-5.82-3.2,1.31-5.97,0-7.86-1.6-1.46,2.33-2.47,4.22-3.35,6.4-3.06,6.4-1.02,6.55,1.31,6.55s7.13,9.6,7.86,11.35c.29.44,1.75,3.06,4.07,6.11-.73-1.46-.44-3.06,1.6-3.78" style="stroke-width:0px;fill:#008348"/>
      <path d="m233.28,203.74c-2.91-.58-6.84-1.16-7.13,4.95-.15,2.33,2.18,4.07,4.22,4.95,2.18.87,1.75,2.33-.44,1.46-2.33-.87-4.07-1.31-5.68,3.35-1.6,4.66,1.31,5.38,2.77,5.68s2.62.58,2.33,2.62c-.29,1.89-1.31,7.71,2.47,8.15,3.64.44,6.99-4.07,8.15-6.4s2.47-4.51,2.77-1.89-.15,3.93-1.46,6.84-1.31,4.22.58,4.07c1.89-.15,5.24,0,6.11-2.33s2.47-6.69,2.62-9.75c.15-1.89,1.75-2.18,3.06-1.89.44-3.2.87-6.55,1.31-9.31-6.4,1.02-11.93-6.84-13.68-13.53-2.33,1.89-5.53,3.64-8,3.06" style="stroke-width:0px;fill:#008348"/>
      <path d="m203.01,202.58c-1.16,1.89-4.37,7.42-2.91,9.31s3.06-1.75,4.37-.44,4.22,2.77,4.22,1.75.29-2.91.87-5.53c.44-2.62,1.6-4.07,2.77-1.89s2.77,3.93,6.84,2.91,3.64-5.24,2.77-8.3c-.87-3.06,2.18-4.51,3.64-5.38,1.46-.87,5.24-3.78,2.47-6.4-2.77-2.62-5.24,1.16-7.71,1.6s-1.46-1.6,3.64-5.53c4.37-3.35.58-6.84-1.89-7.86-6.99,6.99-19.36,18.34-22.12,20.96-1.02,1.02-1.75,1.89-2.62,3.35,6.11-2.91,6.69-.58,5.68,1.46" style="stroke-width:0px;fill:#008348"/>
      <path d="m243.04,267.78c2.18,1.89,7.13,4.66,10.77,1.46s-.87-6.84-1.31-9.46c-.44-2.62,2.62-4.22,1.02-8.44-2.77-7.28-6.99,1.46-9.46,3.93s-1.89-1.6.15-3.93c1.16-1.16,6.11-4.22,3.2-7.71-2.91-3.35-7.13-1.46-9.31,0s-3.64,3.2-6.99,2.33c-3.2-1.02-5.97-1.31-7.86,3.35-1.89,4.66,1.75,3.35,4.66,6.84,3.06,3.35,1.16,3.64-1.31,2.77s-3.64-3.93-7.13-3.35c-3.64.44-3.64,6.11-2.47,7.71,1.16,1.46,3.35,2.33,1.75,5.09s.87,5.97,3.64,7.28c2.91,1.31,7.28-3.93,8.88-5.97,1.6-2.18,3.2-1.6,2.91,0-.29,1.46-1.02,5.09-1.16,8.15,2.62-.87,4.95-1.6,7.28-2.18,0-1.6-.44-4.51-1.16-6.99-.29-3.78,1.75-2.77,3.93-.87" style="stroke-width:0px;fill:#008348"/>
      <path d="m200.98,284.95c-3.93,1.16-4.51-.58-7.13-1.6s-2.77,1.31-1.02,4.07c1.75,2.77,3.78,5.38,1.6,5.38s-3.78.29-4.07,1.89-3.78-.29-4.51-3.64c-.87-3.35-1.6-9.9-3.35-6.69s-3.35,8.59-7.86,6.11c-4.51-2.47-1.46-5.68-3.78-7.86-2.33-2.33-4.37-5.24-2.18-9.31s4.22-.58,6.4-.58,2.47-1.89.44-3.35c-1.89-1.46-4.37-8.44,4.51-7.86,3.35.15,7.13-1.02,9.9-3.06,2.91-2.18,10.62-1.02,7.42,4.37-3.06,5.38-2.18,6.55-.29,4.51,1.75-1.89,4.07-5.53,7.42-4.51s1.89,3.64-.15,6.55c-2.18,2.91-.87,4.95.87,5.97,1.75,1.02,4.8,7.13-4.22,9.6" style="stroke-width:0px;fill:#008348"/>
      <path d="m217.42,246.82c-2.91.15-6.55-.58-6.55-.58-.29,3.06-3.35,7.42-6.4,12.08-.29.44-2.18.44-2.91-.15-.87-.58-3.06-1.75-1.31-3.64,1.75-1.89,4.66-5.97,4.22-7.86-.44-1.75-1.75-3.35-3.78-1.02-1.89,2.47-5.09,7.42-8.44,7.71s-6.84-2.91-5.24-5.97c1.6-3.06,2.18-4.66-.15-7.42-2.33-2.77-1.46-6.4,3.35-8.44,1.46-.58,4.07,0,5.68,1.46,1.75,1.46,2.77,0,.29-1.46s-4.37-3.2-4.66-6.55c-.29-3.06,1.6-6.4,5.68-4.51,4.22,1.75,6.84.29,8.59-1.16s9.46-3.2,8.3,3.35c-.87,4.95-3.06,5.09-3.64,7.71s1.31,1.02,2.47-1.02c1.16-1.89,3.64-9.9,8.88-3.93,1.31,1.46.87,3.93-.87,6.69-1.6,2.77-.29,4.37.58,5.68,1.89,1.31,4.07,8.59-4.07,9.02" style="stroke-width:0px;fill:#008348"/>
      <path d="m206.8,30.42c.29-.87.44-1.6.87-2.47-1.16.44-2.47,1.31-3.35,1.75.58,1.46,1.6,2.91,2.47.73" style="stroke-width:0px;fill:#bb9753"/>
    </g>
  </g>
  <g id="Layer_6" data-name="Layer 6">
    <g>
      <path d="m75.09,44.24c1.16,1.6,2.33,1.31,2.77.15,1.02-2.47,2.91-10.19,2.91-16.15,0-13.68,1.75-19.06,5.24-25.32-15.72.87-29.98,8.88-38.57,21.1,13.24,3.49,23.28,14.26,27.65,20.23Z" style="fill:#a73832;stroke-width:0px"/>
      <path d="m73.78,51.95c1.6-2.18-.29-3.35-1.16-4.51-4.22-5.97-13.97-16.74-27.21-20.23-4.66,7.86-7.42,16.59-7.42,26.34,0,4.37.44,8.44,1.46,12.22,24.89,2.18,32.89-11.79,34.35-13.83Z" style="fill:#a73832;stroke-width:0px"/>
      <path d="m91.39,2.47c-3.64,5.68-5.68,10.04-7.13,25.03-1.46,14.84-2.77,25.18-13.53,34.2-8.3,6.69-24.59,8.59-29.83,8.3,2.47,7.13,6.4,13.53,11.5,18.92,15.43-5.24,26.63-11.93,41.48-25.76,14.84-13.83,22.27-27.94,24.59-33.18,1.46-3.35,4.22-7.86,2.33-.29-1.89,7.42-8.88,23.43-23.43,37.11-14.26,13.68-27.36,20.67-42.49,24.59,8.88,8.15,20.96,13.24,34.2,13.24h1.16c2.91-18.34,7.42-24.45,16.44-32.16,8.73-7.86,21.25-11.93,31.87-7.42.87-3.35,1.16-7.28,1.31-11.5,0-27.65-21.39-49.77-48.46-51.08Z" style="fill:#a73832;stroke-width:0px"/>
      <path d="m112.2,73.49c-1.31.87-2.33,1.46-.58,2.91,2.91,2.91,7.28,8.44,10.48,16.01,6.99-5.82,12.22-13.68,15.14-22.41-2.62-3.49-11.21-5.09-25.03,3.49Z" style="fill:#a73832;stroke-width:0px"/>
      <path d="m105.22,79.17c-7.71,6.84-10.62,17.03-12.22,25.03,9.17-.58,17.75-3.93,24.89-8.73-2.91-7.13-5.38-12.37-8.15-16.01-1.6-1.89-1.75-2.62-4.51-.29Z" style="fill:#a73832;stroke-width:0px"/>
      <path d="m324.53,381.58c2.91-9.46,7.71-9.31,6.11-12.95s-4.07-6.4-5.97-8.44c-1.89-2.18-.44-7.13-.44-9.31-.15-3.93-3.2-4.51-3.64-8.88s-.58-7.86,2.62-12.37c3.2-4.37-1.16-4.22-2.62-6.99s-2.33-6.55-1.02-12.08c.58-2.91.29-3.64-.44-4.07-.87-.29-4.22-1.02-4.22-1.02l-5.09,9.9c.87,1.89,1.16,4.95,1.16,6.84l-1.31,8.3c-1.16,1.89-3.06,5.09-3.06,7.86s-2.77,5.68-2.47,6.99c.29,1.31,3.93,4.66,5.97,8.3,2.18,3.64,4.66,8.88,4.66,17.9s-2.91,21.1-3.2,22.56c-.29,1.6-1.16,2.91,1.31,5.24,2.47,2.33,6.4,6.55,7.86,16.15s2.47,14.7,3.06,15.14.44,1.31.44,3.06,1.6,12.08,2.77,13.97,1.02-10.91.87-14.84c-.15-3.64.15-21.54.87-24.3.58-2.62,1.31-5.53-1.02-8.73-2.18-3.2-6.11-8.88-3.2-18.19Z" style="fill:#a73832;stroke-width:0px"/>
    </g>
  </g>
  <g id="Layer_4" data-name="Layer 4">
    <g>
      <path d="m147.57,112.64c-4.22.87-4.07,1.6.44,1.16,1.46,0,21.83-3.06,24.45-3.64,2.62-.44,3.2,1.31,3.93.87.87-.29-.29-.29-.87-3.64l-3.78.44c-4.51,1.16-19.94,3.93-24.16,4.8Z" style="stroke-width:0px;fill:#fff"/>
      <path d="m317.26,112.2c-17.46-17.46-38.42-30.12-61.12-37.26-.15,2.33-.29,4.37-.29,5.24,4.51,2.33,9.6,7.13,7.71,16.3-.87,3.78-3.93,7.28-4.22,8.73-.44,2.47-5.68,6.69-7.13,9.9s-1.75,5.82-1.46,7.28c2.62,2.47,8.44,5.68,11.64,6.84,2.47.87,2.47,1.46,1.46,2.91-.29.29-.87.58-.87,1.02-3.93,5.38-10.19,18.92-12.95,27.36-2.91,8.44-9.6,28.67-4.66,41.77,4.66,13.24,13.97,4.95,16.15-.15,2.18-5.09,5.38-13.68,6.4-16.01s1.46-3.64,3.2,1.75,4.37,18.19,4.37,19.36-1.75,4.37-3.64,9.46-3.06,8.59-1.16,11.64,9.6,16.15,12.08,21.83c1.46,3.35,2.77,4.07,6.69,3.06s13.39-4.22,16.15-5.53c2.77-1.31,1.46-3.64.58-6.4-1.31-4.22-6.11-27.65-6.11-30.71s.87-7.13-3.2-2.62c-1.46,1.6-3.35,0-2.91-2.33s5.38-34.05,5.68-37.69c-2.77-5.97-10.91-24.89-12.95-28.52-2.33-3.35-3.06-3.64-6.55-1.75s-10.91,4.51-13.83-1.89c-.29-.58-.58-1.75-.44-2.62.87.44,1.46,1.31,2.47,2.47,1.75,2.18,6.55.87,9.46-.58s6.69-1.89,9.6,1.6c2.91,3.64,7.28,10.19,9.46,16.3s4.37,11.06,5.09,12.08c.58,1.02-2.33,18.92-3.06,25.9-.87,7.13-1.46,10.19-1.6,11.35s4.51-4.07,4.66,2.18c.15,4.95,2.47,20.67,5.09,32.31.58,2.91,1.46,5.68,2.18,7.86,1.89.29,3.64,4.22,4.66,10.19,1.16,5.97,3.64,9.75,3.64,12.66.15,2.91,1.02,3.35,1.89,3.93,1.02.44.58,1.89-2.33,5.38.58.44,1.6,1.46,2.33,2.18.87-.87,3.06-3.35,3.06-3.35,0,0,8.88,3.64,10.91,4.22,1.89.58,4.22-4.07,9.9-1.6,1.6.58,3.35,2.91,4.66,5.09,8.88-19.36,14.12-41.19,14.12-63.89-.44-40.46-16.3-78.73-44.82-107.26Z" style="stroke-width:0px;fill:#fff"/>
      <path d="m302.56,335.16c-2.33-1.16-3.78.44-4.95-8.44-.29-2.62-2.47-5.97-4.07-7.71-1.6-1.6-1.75-4.66-1.02-7.28,1.31-4.07,1.6-7.86,1.46-10.91-.15-3.2.44-7.28,5.09-9.31-1.6-1.75-2.47-4.07-2.91-5.68-6.69-2.33-8-2.47-9.31-5.68-2.33-5.38-3.64-13.24-4.37-17.61-.29-2.18-.44-4.07-.44-5.82-2.18-4.07-6.84-12.95-10.62-19.65-1.46-2.62-2.62-4.66-3.35-6.11-3.2-5.68,0-12.95,1.6-17.46,1.6-4.37,2.91-8.3,1.46-12.66s-1.46-5.38-1.75-7.13-1.75-4.07-3.64,2.18c-1.89,6.11-5.68,15.14-7.86,24.59-1.31,5.38-1.89,11.06-1.6,16.74.29,4.22,1.16,8.44,2.91,12.22,4.22,8.73,9.31,16.88,8.59,21.68-.58,4.95-1.6,5.09-1.75,5.82-.87,9.46-4.95,27.51-6.99,32.74-2.18,5.24-10.48,23.87-12.08,31.87-1.46,5.97-5.09,19.21-8.3,26.78,24.3-4.66,46.57-14.99,65.2-29.83.29-1.31.15-2.62-1.31-3.35Z" style="stroke-width:0px;fill:#fff"/>
      <path d="m122.54,122.39c1.75,2.47,4.07,4.51,7.13,5.97,7.86,4.07,9.6,6.84,9.6,13.97s1.31,21.25,3.64,23.58c1.46-1.46,3.06-3.64,3.35-4.22,2.33,4.22,6.84,12.08,14.12,16.88.15,0,.15.15.15.29s-.15.15-.15.29c-.58,1.31-1.89.87-2.77.58-1.75-.44-7.86-6.99-9.9-10.62s-2.47-3.2-3.2-.58c-.87,2.62-3.93,8.3-5.97,10.91-2.18,2.77-7.71,9.9-9.17,11.5-1.46,1.6,0,2.33,1.31,3.64s7.86,9.46,9.46,11.06c1.46,1.75,3.06,5.09,6.99,1.46s8.59-9.9,10.77-16.74c1.89-5.97,2.33-9.46,3.64-9.75.15.15.29.15.44.29,2.47.58,18.19,3.06,18.48,6.4,3.2-3.2,8.44-11.35,9.46-14.12s6.69-11.5,10.91-16.3c0-1.89,0-3.06.15-3.64-1.16,1.02-2.91,3.35-5.53,4.51s-11.64,5.09-18.19,8.3c-2.33,1.16-6.4,2.47-7.86-9.46-1.6-11.93,0-18.05,1.16-20.67,1.16-2.77,3.2-5.24,7.28-4.07s10.62,3.64,12.37,3.64c.29-1.31,1.46-3.64-2.91-4.22-3.06-.29-11.21-2.62-16.01-8.88-1.75-2.62-3.06-5.68-3.2-9.75-9.31,1.46-30.56,4.22-35.07,5.38-4.66,1.16-8.73,2.18-10.19-8.59-.58-4.51-1.75-10.91,1.46-8.59,2.62-1.89,6.11-4.22,12.52-3.2,1.16.15,2.62,1.16,3.06,2.18.29,1.6-.29,4.07-1.16,6.69-1.46,4.37-4.07,7.42,4.66,5.53,9.31-2.18,20.96-3.93,24.01-4.51.44-3.06,2.91-8,5.97-11.5,3.06-3.64,3.64-6.55,3.78-7.71s-.87-1.46-2.47,0c-1.75,1.6-7.13,4.95-12.08,3.64-1.89-.44-4.37-4.22-5.68-6.4,1.16-2.33,3.78-5.97,6.99-9.9-17.17,5.53-33.33,14.12-47.88,25.47-.15,1.75.15,5.82,1.31,10.62.73,2.77,2.18,6.99,5.24,10.62Z" style="stroke-width:0px;fill:#fff"/>
      <path d="m133.74,343.89c6.69-2.62,11.93-2.62,17.03,4.37,1.46,1.89,2.62,7.71,15.14,2.62-6.69-7.86-10.77-17.17-14.12-29.98-5.68-19.94-18.77-42.64-13.97-52.97-2.77-2.62-5.97-12.66-9.46-11.5-2.33.58-5.53.87-2.91-6.84,1.16-3.35,3.06-7.71,6.84-12.52,4.51-5.97,11.35-13.39,22.7-22.12,1.02-.87,1.16-1.46.44-2.18-1.16-1.16-2.33-2.47-3.35-3.06-1.16-.58-2.33-.29-3.2.58-1.02,1.02-2.62,2.18-3.64,2.77s-8.73-6.99-12.81-12.52-8.3-7.28-9.6-7.86c1.6-1.75,5.38-5.68,3.93-5.24-2.47.87-6.84,1.46-10.91-3.2-5.38-5.68-3.2-8.59-4.37-9.46s-6.99.44-11.35-6.4c-4.37-6.84-6.11-9.75-2.62-14.7,1.75-2.47,2.47-3.64,1.89-6.69-.44-3.06,0-5.09,4.07-8.88,4.07-3.93,6.55-7.42,8.3-7.13,1.46.29-2.62-4.95-5.24-8.73-.58-1.02-1.16-1.89-1.6-2.62-.58-1.6-1.6-4.22-1.75-7.13-28.52,28.67-44.24,66.51-44.24,106.82s15.72,78.59,44.39,107.11c6.84,6.84,13.97,12.66,21.54,18.05,3.2-3.64,6.99-2.18,8.88-.58Z" style="stroke-width:0px;fill:#fff"/>
      <path d="m296.44,281.31c5.24-.15,13.97-2.47,20.37-8.3-1.75-2.18-4.95-12.22-5.68-16.44-1.16-4.51-1.16-9.31-5.82-6.69-2.91,1.6-13.24,6.11-17.46,6.84-4.37.58-3.2,1.75-2.47,5.09.73,3.35,3.2,12.95,4.51,16.3s3.06,3.35,6.55,3.2Z" style="stroke-width:0px;fill:#fff"/>
      <path d="m225.57,163.72c-2.18-1.46-9.9-6.4-11.06-7.13-1.31-1.02-1.75-1.02-2.33-.15-.29.58-1.46,2.62-4.07,2.62s-4.66-.87-6.4,1.46c-1.6,2.33-10.62,12.95-12.52,19.79,1.89,4.07,4.51,11.35,6.55,16.44,6.4-5.38,26.49-25.03,30.27-28.81,1.6-1.46,1.75-2.77-.44-4.22Z" style="stroke-width:0px;fill:#fff"/>
      <path d="m176.82,187.59c-1.46.29-7.42-2.18-13.24-3.2-1.75-.15-2.18-.15-2.47.44-1.31,5.09-3.64,13.83-7.86,20.52,1.6,2.62,2.91,4.95,4.95,5.68,4.51-3.2,12.95-11.21,15.57-14.12,2.47-2.91,5.53-7.28,5.53-8.3.15-1.02-1.02-1.31-2.47-1.02Z" style="stroke-width:0px;fill:#fff"/>
      <path d="m261.66,30.27c-1.89-2.18-3.06-1.6-4.95.44-4.37,5.24-12.95,9.75-27.8,13.53-14.84,3.78-28.81,14.12-34.93,19.21-5.97,5.09-21.1,17.46-28.52,20.37-1.89.87-5.97,3.64-.87,4.22,3.93.44,6.69-1.75,15.14-7.86,8.44-6.11,14.99-10.62,21.54-16.88,5.97-5.82,16.88-11.35,28.67-14.7,11.79-3.35,27.07-8.3,31.43-12.95,2.18-2.33,2.33-3.49.29-5.38Z" style="stroke-width:0px;fill:#fff"/>
      <path d="m186.86,86.15c.87-.44-.15-3.93-2.91-3.35-.87.29.15-1.89-1.46-1.02-1.31.58-1.75,1.46-3.2,6.11s-1.31,7.42-.15,8.59c.87.87,2.18.87,2.77.87.44,0,1.02.15.87-1.31-.29-1.31-.29-7.28,4.07-9.9Z" style="stroke-width:0px;fill:#fff"/>
      <path d="m135.93,103.04c0-2.62-1.31-2.62-3.64-2.62-2.77,0-5.68,1.02-7.86,1.89.29,1.02.15,5.09.58,7.71,1.6,8.3,4.51,7.13,6.55,6.84,1.89-.29,5.53-1.75,4.07-1.75s-1.46-1.02-1.31-3.35c.29-2.62,1.46-6.26,1.6-8.73Z" style="stroke-width:0px;fill:#fff"/>
      <path d="m185.11,376.92c2.77-3.2,2.62-11.21,1.16-17.46-1.31-6.11-10.91-8.59-19.5-5.09-8.59,3.64-13.68,2.18-15.72.87,0,0-1.16-.87-1.89-1.31-.87-.44-.87,1.46-1.75,3.35s-1.16,7.28.29,10.48c3.78,0,8.88,1.6,12.08,3.06,3.06,1.31,13.97,6.4,18.77,7.86,2.18.87,4.22,1.16,6.55-1.75Z" style="stroke-width:0px;fill:#fff"/>
      <path d="m204.32,413.45c-.29-1.16-.87-8-.87-9.9s.44-6.84.58-8.44c.15-1.6.58-3.06-2.18-2.91-2.62.29-8.88-.44-9.9-3.64-1.31-3.93-5.09-4.66-7.13-4.66-3.78,0,0,4.07,1.16,7.13,1.31,3.2,5.97,21.54,3.93,21.68-2.18.15,0,1.89,1.75,3.2,3.35,2.47,8.73.87,10.19.15,1.6-.58,2.77-1.31,2.47-2.62Z" style="stroke-width:0px;fill:#fff"/>
      <path d="m130.98,351.16c1.02-1.16.87-2.18.15-3.2-.58-1.16-1.16-1.89-1.89-2.33-1.89-.58-3.64.29-5.24,4.07-1.6,3.35-1.89,14.7-1.46,18.19,1.31-.29,3.78.15,4.95.44-.44-6.26,1.6-15.14,3.49-17.17Z" style="stroke-width:0px;fill:#fff"/>
      <path d="m161.25,461.33c-5.09.44-8.73-.29-14.41-2.77-5.53-2.47-13.24-9.46-17.17-13.97-1.31-1.46-2.47.29-1.31,1.89,4.95,6.99,12.52,11.93,17.46,14.41,4.95,2.62,12.37,2.62,15.57,2.18,3.06-.44,3.93-2.18-.15-1.75Z" style="stroke-width:0px;fill:#fff"/>
      <path d="m213.93,433.24c-3.2,1.6-9.46,4.51-15.14,5.97.58,2.91.87,4.22.87,5.09,3.64,0,10.48-2.62,16.15-5.97,1.31-.87,1.75-1.75,1.31-2.91-.73-1.02-1.31-3.06-3.2-2.18Z" style="stroke-width:0px;fill:#fff"/>
      <path d="m180.17,418.11c-1.02,0-5.53,1.02-4.66,1.75.44.44,2.47,2.62,3.64,3.93,1.31,0,4.22-.87,4.66-1.16.58-.29.87-.58.29-1.16-.58-.73-2.77-2.77-3.93-3.35Z" style="stroke-width:0px;fill:#fff"/>
      <path d="m215.09,323.22c-1.46.15-12.08.15-19.5-.87-13.24-1.6-26.34-9.17-30.56-14.12-.58-.87-4.51-.44-1.31,2.18,3.2,2.62,11.5,10.19,23.58,12.52,2.77.44,7.13,1.31,7.86,11.35.58,9.9-.29,16.44-.29,17.46s-.58,1.31-1.46.15-3.64-4.95-5.09-5.68-2.47-.58-3.64.29c-1.31,1.02-3.2,2.91-4.07,3.93l3.64,2.18c-1.31-1.02-1.16-1.46-.44-2.47.58-1.02,1.31-1.6,1.89-1.89.58-.29,1.6-.44,2.77,1.16,1.16,1.6,7.28,11.93,8.59,14.7s2.91,1.02,2.33-.58-1.89-4.37-2.47-5.24c1.75-5.53,3.64-13.97,3.64-19.36s-1.31-10.91-2.33-12.95c4.37.15,13.97,0,17.75-1.16,3.64-1.46.58-1.75-.87-1.6Z" style="stroke-width:0px;fill:#fff"/>
      <path d="m136.8,394.39c-.44,1.16-2.18,5.68-2.62,8.88-.44,3.35-1.31,8.44,0,15.72s1.89,9.6,2.33,10.91l3.93-1.31c-2.18-1.31-4.51-7.28-5.09-19.36-.15-4.07,1.46-10.91,2.77-14.12s-.87-1.89-1.31-.73Z" style="stroke-width:0px;fill:#fff"/>
      <polygon points="354.8 137.09 360.91 132.58 351.31 117.88 356.26 114.39 367.03 130.25 373.28 125.74 362.08 110.17 367.03 106.67 378.67 123.12 385.07 118.75 367.61 94.16 338.94 114.68 354.8 137.09" style="stroke-width:0px;fill:#fff"/>
      <polygon points="371.98 173.18 381.43 168.81 374.89 154.7 396.86 145.53 392.93 136.8 361.93 150.33 371.98 173.18" style="stroke-width:0px;fill:#fff"/>
      <polygon points="377.65 188.02 378.67 196.61 399.48 194.28 400.35 203.31 409.67 202.58 407.05 172.31 397.59 173.04 398.46 185.55 377.65 188.02" style="stroke-width:0px;fill:#fff"/>
      <polygon points="378.67 217.71 378.67 227.9 409.38 227.75 409.23 217.57 378.67 217.71" style="stroke-width:0px;fill:#fff"/>
      <path d="m393.22,242.6c-5.24-1.02-11.21-.15-15.43,3.06-3.78,2.91-5.68,5.68-6.69,11.06-.58,3.35-.15,7.86,1.02,11.64l8.15-2.62c-.87-1.75-1.16-4.66-.29-7.71,1.6-5.53,6.11-8,11.64-7.13,5.68.87,9.17,6.11,8.15,12.52-.44,2.62-1.6,4.66-4.51,6.55l5.09,5.97c4.07-2.62,7.13-7.42,7.86-10.91,1.16-5.68-.29-9.9-2.91-14.7-3.06-4.51-7.57-6.99-12.08-7.71Z" style="stroke-width:0px;fill:#fff"/>
      <path d="m387.4,285.38c-4.22-1.16-10.04,3.64-12.95,6.4-1.6,1.6-7.28,7.28-9.9,6.4-2.47-.87-1.6-4.37-.87-6.84,1.16-3.35,2.91-6.4,5.68-8.15l-5.09-2.33c-2.47,2.18-5.24,5.38-6.4,8.73-1.31,3.78-1.75,8.44-1.31,11.21.58,3.64,1.89,5.97,6.11,5.68,3.2-.29,11.35-5.68,16.15-9.9,2.47-2.33,4.37-2.62,5.53-1.75,1.6,1.02,1.6,3.78,1.02,5.68-.87,2.47-1.89,6.11-3.93,7.71l6.84,4.66c2.77-2.77,4.37-7.13,5.09-11.06,2.04-9.9-3.2-15.86-5.97-16.44Z" style="stroke-width:0px;fill:#fff"/>
      <path d="m319.73,99.4c2.77,1.89,6.99,3.2,10.91,3.93l.87-8.44c-1.89,0-4.66-1.02-6.99-2.77-4.37-3.78-4.66-9.75-1.75-13.68,3.64-4.66,9.6-5.68,14.99-2.33,2.18,1.46,2.91,3.64,3.35,6.99l7.86-1.31c-.44-4.66-3.2-10.19-5.82-12.52-4.07-3.64-8.88-4.51-14.12-3.78-5.24.58-10.04,4.07-12.95,8-2.91,4.22-4.66,10.04-3.64,15.28,1.02,4.8,2.77,7.57,7.28,10.62Z" style="stroke-width:0px;fill:#fff"/>
      <path d="m35.22,258.46c.29-2.33.15-6.69,2.62-6.99,2.47-.44,4.07,1.75,4.51,4.22.58,3.64,1.6,6.11.29,9.31l6.55-.58c1.16-3.06.58-6.99,0-10.62-.87-3.93-2.18-6.84-5.09-9.46-2.77-2.62-4.95-3.2-9.17-2.33-2.62.44-6.99,5.09-7.13,14.12,0,1.6-.44,5.09-1.89,5.09-1.89.15-3.35-2.33-3.78-4.07-.44-2.62.15-8,1.16-10.19h-6.84c-1.02,3.93-1.46,9.31-.44,13.39,1.75,8.88,7.13,11.64,11.5,11.21,4.66-.73,6.99-5.53,7.71-13.1Z" style="stroke-width:0px;fill:#fff"/>
      <polygon points="21.68 221.35 45.7 221.06 45.7 213.49 21.68 213.78 21.39 203.45 13.68 203.74 13.97 232.41 21.83 232.27 21.68 221.35" style="stroke-width:0px;fill:#fff"/>
      <polygon points="65.34 145.24 46.72 134.76 46.86 134.47 71.46 134.03 77.28 125.16 46.86 107.55 42.2 114.53 63.16 127.48 34.64 128.36 30.71 135.93 60.69 153.39 65.34 145.24" style="stroke-width:0px;fill:#fff"/>
      <path d="m35.07,191.66c10.48,0,18.77-8.44,18.77-18.77s-8.44-18.77-18.77-18.77-18.77,8.44-18.77,18.77c.15,10.33,8.44,18.77,18.77,18.77Zm0-28.67c5.38,0,9.75,4.37,9.75,9.75s-4.37,9.75-9.75,9.75-9.75-4.37-9.75-9.75,4.37-9.75,9.75-9.75Z" style="stroke-width:0px;fill:#fff"/>
      <path d="m65.93,296.3c0-10.48-8.44-18.77-18.77-18.77s-18.77,8.44-18.77,18.77,8.44,18.77,18.77,18.77,18.77-8.59,18.77-18.77Zm-18.77,9.6c-5.38,0-9.75-4.37-9.75-9.75s4.37-9.75,9.75-9.75,9.75,4.37,9.75,9.75-4.37,9.75-9.75,9.75Z" style="stroke-width:0px;fill:#fff"/>
      <path d="m69.71,317.55c-2.77,2.62-4.22,8.59-1.6,12.66-2.91-1.46-8.88-1.89-11.64.44-6.84,5.82,1.46,14.26,8.15,20.96l9.46,9.31,24.74-20.37-10.04-11.64c-3.35-4.66-13.24-16.59-19.06-11.35Zm1.02,32.74c-2.62-2.91-9.9-8.73-6.84-11.64,2.91-2.77,10.48,6.11,11.21,7.28l-4.37,4.37Zm11.5-10.48l-.58-.87c-2.18-2.62-8.88-9.9-6.11-12.52,2.62-2.62,9.31,5.82,11.06,8.15l.87,1.02-5.24,4.22Z" style="stroke-width:0px;fill:#fff"/>
      <path d="m152.95,381.43c-2.62,0-5.09-1.16-6.4-.29-1.16.58-.15,2.62,1.46,3.06,1.31.44,8.59,0,9.9,0l2.33.29c0-3.06-1.02-2.91-1.6-3.35-.58-.29-3.2.29-5.68.29Z" style="stroke-width:0px;fill:#fff"/>
    </g>
  </g>
</svg>
