<?xml version="1.0" encoding="UTF-8"?>
<svg id="Layer" xmlns="http://www.w3.org/2000/svg" viewBox="0 0 420 516.36">
  <defs/>
  <path d="m382.91,162.77c-1.45-25.61-12.94-48.44-19.67-62.17l-.79-1.58-3.04-5.94.66,6.6c.79,9.11,2.9,40.39-6.47,58.21-11.62,24.02-45.54,21.65-56.76,20.99h-.79c-18.35-1.19-78.01-3.3-96.35-3.3-24.15.13-50.82,2.11-72.33,3.7-10.56.79-19.53,1.45-25.74,1.72-.53,0-1.19.13-2.24.13-30.09,2.77-49.1-6.07-56.49-26.4-4.49-12.41-4.49-37.09-4.36-48.84v-8.58l-2.38,4.36c-5.68,10.43-16.1,29.96-19.67,62.17-1.98,38.01,17.82,51.74,32.87,58.6,15.71,7.26,31.81,8.32,37.09,8.71h.4-.13c1.06.26,2.38.26,3.56.26,1.58.13,3.43.13,5.15.53-2.9.53-6.6,1.19-9.9,1.72-3.56.66-6.86,1.19-8.58,1.58-3.56.79-18.74,4.22-26.79,7.13-6.86,2.38-14.39,5.94-14.52,5.94l-1.32.66.92,1.19c.13.13,2.64,3.56,5.15,6.2,5.28,5.28,20.19,14.65,38.01,12.41,14.26-1.72,22.04-5.15,24.95-6.6.92,3.04,3.17,10.16,5.41,15.71,6.47,15.97,21.12,46.59,26.66,57.15,4.49,8.58,8.84,16.24,11.88,21.25l1.06,1.85c-.92,3.3-3.3,5.28-5.02,6.86-.53.4-.79.79-1.19,1.06l-.26.4v.53c-.13,2.9-.79,29.57,17.29,48.97l.13.26.26.13c8.98,3.43,20.72,7,39.6,7s35.51-4.62,41.18-7.39l.26-.13.13-.13c12.54-14.92,18.35-37.35,18.48-45.41v-.53l-.4-.4c-.26-.26-.66-.66-.92-.92-1.98-1.85-4.36-4.22-5.81-9.77,1.58-2.64,4.49-8.98,7-13.99,1.32-2.9,2.51-5.28,3.17-6.6,5.28-10.43,20.85-43.82,27.06-59.53,3.96-10.03,6.07-14.92,7-17.03,2.77,1.45,10.16,4.75,24.02,6.2,18.08,1.85,35.24-10.16,39.99-16.76.79-1.06,2.11-2.64,2.24-2.77l1.06-1.32-1.45-.66c-.13,0-.66-.26-3.43-1.19l-10.03-3.3-9.9-3.3c-2.77-.92-14.92-3.56-23.76-5.54l-6.73-1.45,2.24-.4c20.72-4.36,75.5-13.99,72.33-68.24" style="stroke-width:0px;fill:#fff"/>
  <path d="m382.91,162.77c-1.45-25.61-12.94-48.44-19.67-62.17l-.79-1.58-3.04-5.94.66,6.6c.79,9.11,2.9,40.39-6.47,58.21-11.62,24.02-45.54,21.65-56.76,20.99h-.79c-18.35-1.19-78.01-3.3-96.35-3.3-24.15.13-50.82,2.11-72.33,3.7-10.56.79-19.53,1.45-25.74,1.72-.53,0-1.19.13-2.24.13-30.09,2.77-49.1-6.07-56.49-26.4-4.49-12.41-4.49-37.09-4.36-48.84v-8.58l-2.38,4.36c-5.68,10.43-16.1,29.96-19.67,62.17-1.98,38.01,17.82,51.74,32.87,58.6,15.71,7.26,31.81,8.32,37.09,8.71h.4-.13c1.06.26,2.38.26,3.56.26,1.58.13,3.43.13,5.15.53-2.9.53-6.6,1.19-9.9,1.72-3.56.66-6.86,1.19-8.58,1.58-3.56.79-18.74,4.22-26.79,7.13-6.86,2.38-14.39,5.94-14.52,5.94l-1.32.66.92,1.19c.13.13,2.64,3.56,5.15,6.2,5.28,5.28,20.19,14.65,38.01,12.41,14.26-1.72,22.04-5.15,24.95-6.6.92,3.04,3.17,10.16,5.41,15.71,6.47,15.97,21.12,46.59,26.66,57.15,4.49,8.58,8.84,16.24,11.88,21.25l1.06,1.85c-.92,3.3-3.3,5.28-5.02,6.86-.53.4-.79.79-1.19,1.06l-.26.4v.53c-.13,2.9-.79,29.57,17.29,48.97l.13.26.26.13c8.98,3.43,20.72,7,39.6,7s35.51-4.62,41.18-7.39l.26-.13.13-.13c12.54-14.92,18.35-37.35,18.48-45.41v-.53l-.4-.4c-.26-.26-.66-.66-.92-.92-1.98-1.85-4.36-4.22-5.81-9.77,1.58-2.64,4.49-8.98,7-13.99,1.32-2.9,2.51-5.28,3.17-6.6,5.28-10.43,20.85-43.82,27.06-59.53,3.96-10.03,6.07-14.92,7-17.03,2.77,1.45,10.16,4.75,24.02,6.2,18.08,1.85,35.24-10.16,39.99-16.76.79-1.06,2.11-2.64,2.24-2.77l1.06-1.32-1.45-.66c-.13,0-.66-.26-3.43-1.19l-10.03-3.3-9.9-3.3c-2.77-.92-14.92-3.56-23.76-5.54l-6.73-1.45,2.24-.4c20.72-4.36,75.5-13.99,72.33-68.24Z" style="fill:none;stroke:#fff;stroke-miterlimit:40;stroke-width:1.77px"/>
  <path d="m382.91,162.77c-1.45-25.61-12.94-48.44-19.67-62.17l-.79-1.58-3.04-5.94.66,6.6c.79,9.11,2.9,40.39-6.47,58.21-11.62,24.02-45.54,21.65-56.76,20.99h-.79c-18.35-1.19-78.01-3.3-96.35-3.3-24.15.13-50.82,2.11-72.33,3.7-10.56.79-19.53,1.45-25.74,1.72-.53,0-1.19.13-2.24.13-30.09,2.77-49.1-6.07-56.49-26.4-4.49-12.41-4.49-37.09-4.36-48.84v-8.58l-2.38,4.36c-5.68,10.43-16.1,29.96-19.67,62.17-1.98,38.01,17.82,51.74,32.87,58.6,15.71,7.26,31.81,8.32,37.09,8.71h.4-.13c1.06.26,2.38.26,3.56.26,1.58.13,3.43.13,5.15.53-2.9.53-6.6,1.19-9.9,1.72-3.56.66-6.86,1.19-8.58,1.58-3.56.79-18.74,4.22-26.79,7.13-6.86,2.38-14.39,5.94-14.52,5.94l-1.32.66.92,1.19c.13.13,2.64,3.56,5.15,6.2,5.28,5.28,20.19,14.65,38.01,12.41,14.26-1.72,22.04-5.15,24.95-6.6.92,3.04,3.17,10.16,5.41,15.71,6.47,15.97,21.12,46.59,26.66,57.15,4.49,8.58,8.84,16.24,11.88,21.25l1.06,1.85c-.92,3.3-3.3,5.28-5.02,6.86-.53.4-.79.79-1.19,1.06l-.26.4v.53c-.13,2.9-.79,29.57,17.29,48.97l.13.26.26.13c8.98,3.43,20.72,7,39.6,7s35.51-4.62,41.18-7.39l.26-.13.13-.13c12.54-14.92,18.35-37.35,18.48-45.41v-.53l-.4-.4c-.26-.26-.66-.66-.92-.92-1.98-1.85-4.36-4.22-5.81-9.77,1.58-2.64,4.49-8.98,7-13.99,1.32-2.9,2.51-5.28,3.17-6.6,5.28-10.43,20.85-43.82,27.06-59.53,3.96-10.03,6.07-14.92,7-17.03,2.77,1.45,10.16,4.75,24.02,6.2,18.08,1.85,35.24-10.16,39.99-16.76.79-1.06,2.11-2.64,2.24-2.77l1.06-1.32-1.45-.66c-.13,0-.66-.26-3.43-1.19l-10.03-3.3-9.9-3.3c-2.77-.92-14.92-3.56-23.76-5.54l-6.73-1.45,2.24-.4c20.72-4.36,75.5-13.99,72.33-68.24" style="stroke-width:0px"/>
  <path d="m36.43,107.86c-.66,14.12-.53,29.57,2.77,43.03-3.04-2.77-6.07-5.94-9.24-8.58-2.77,3.17-5.41,6.47-8.32,9.5,3.04-15.58,7.92-29.96,14.78-43.95h0Z" style="fill:#ce1141;stroke-width:0px"/>
  <path d="m36.43,107.86c-.66,14.12-.53,29.57,2.77,43.03-3.04-2.77-6.07-5.94-9.24-8.58-2.77,3.17-5.41,6.47-8.32,9.5,3.04-15.58,7.92-29.96,14.78-43.95h0Z" style="stroke:#ce1141;stroke-width:.44px;fill:none"/>
  <path d="m377.37,145.48l.92,3.83-7.39-5.28c-3.3,1.45-6.47,3.56-9.64,5.02,2.24-13.46,2.9-27.59,1.98-41.97,6.6,12.01,10.16,25.21,14.12,38.41" style="fill:#ce1141;stroke-width:0px"/>
  <path d="m377.37,145.48l.92,3.83-7.39-5.28c-3.3,1.45-6.47,3.56-9.64,5.02,2.24-13.46,2.9-27.59,1.98-41.97,6.6,12.01,10.16,25.21,14.12,38.41Z" style="stroke:#ce1141;stroke-width:.44px;fill:none"/>
  <path d="m199.97,279.32c7.79,11.88,21.78,15.18,34.85,11.88,4.88-.92,9.5-2.9,13.99-4.88-4.09,12.41-7,26.13-6.6,40.13,0,12.28,2.11,23.89,5.81,34.98-1.85-.53-3.7-1.98-5.81-2.9-25.87-13.07-62.43-12.54-87.91.92,1.19-4.09,2.51-8.58,3.43-12.8,3.96-19.67,1.06-40.26-5.68-58.21,13.86,5.81,33.92,7,45.01-5.68,1.06-1.19,1.85-2.51,2.9-3.43" style="fill:#ce1141;stroke-width:0px"/>
  <path d="m199.97,279.32c7.79,11.88,21.78,15.18,34.85,11.88,4.88-.92,9.5-2.9,13.99-4.88-4.09,12.41-7,26.13-6.6,40.13,0,12.28,2.11,23.89,5.81,34.98-1.85-.53-3.7-1.98-5.81-2.9-25.87-13.07-62.43-12.54-87.91.92,1.19-4.09,2.51-8.58,3.43-12.8,3.96-19.67,1.06-40.26-5.68-58.21,13.86,5.81,33.92,7,45.01-5.68,1.06-1.19,1.85-2.51,2.9-3.43Z" style="stroke:#ce1141;stroke-width:.44px;fill:none"/>
  <path d="m142.16,289.09c-.53,5.54-2.51,11.75-8.32,13.86-4.88,1.32-9.24-1.32-12.41-4.75-1.32-1.72-2.51-3.56-2.9-5.68,7.39,4.75,17.03.92,23.49-3.56l.13.13Z" style="fill:#ce1141;stroke-width:0px"/>
  <path d="m142.16,289.09c-.53,5.54-2.51,11.75-8.32,13.86-4.88,1.32-9.24-1.32-12.41-4.75-1.32-1.72-2.51-3.56-2.9-5.68,7.39,4.75,17.03.92,23.49-3.56l.13.13Z" style="stroke:#ce1141;stroke-width:.44px;fill:none"/>
  <path d="m281.41,289.75c-1.72,5.02-6.07,10.03-11.22,11.22-3.96.53-7.52-1.32-9.77-4.75-1.19-1.85-1.98-3.83-2.38-6.2,6.73,5.15,16.9,3.96,23.36-.26" style="fill:#ce1141;stroke-width:0px"/>
  <path d="m281.41,289.75c-1.72,5.02-6.07,10.03-11.22,11.22-3.96.53-7.52-1.32-9.77-4.75-1.19-1.85-1.98-3.83-2.38-6.2,6.73,5.15,16.9,3.96,23.36-.26Z" style="stroke:#ce1141;stroke-width:.44px;fill:none"/>
  <path d="m267.02,304c2.77.53,5.54-.13,8.18-.92-7.39,18.35-16.24,36.17-25.34,53.72-3.17-8.71-2.38-18.35-1.85-28.11,1.32-11.88,4.22-23.23,7.66-34.19,2.38,4.36,6.47,8.84,11.35,9.5" style="fill:#ce1141;stroke-width:0px"/>
  <path d="m267.02,304c2.77.53,5.54-.13,8.18-.92-7.39,18.35-16.24,36.17-25.34,53.72-3.17-8.71-2.38-18.35-1.85-28.11,1.32-11.88,4.22-23.23,7.66-34.19,2.38,4.36,6.47,8.84,11.35,9.5Z" style="stroke:#ce1141;stroke-width:.44px;fill:none"/>
  <path d="m151.53,356.67l-.13.13c-11.09-16.9-19.53-34.71-27.59-52.8,3.7,1.98,9.64,3.3,13.46.66,3.7-2.51,5.81-6.47,7.13-10.56,8.98,18.21,11.09,41.97,7.13,62.56" style="fill:#ce1141;stroke-width:0px"/>
  <path d="m151.53,356.67l-.13.13c-11.09-16.9-19.53-34.71-27.59-52.8,3.7,1.98,9.64,3.3,13.46.66,3.7-2.51,5.81-6.47,7.13-10.56,8.98,18.21,11.09,41.97,7.13,62.56Z" style="stroke:#ce1141;stroke-width:.44px;fill:none"/>
  <path d="m255.67,371.06c-1.85,15.84-7.52,29.83-17.56,42.11-23.1,8.98-54.12,9.9-77.22.13-11.22-12.28-15.44-28.11-16.1-45.01,24.42-17.82,62.7-21.78,90.68-8.98,7.13,3.3,13.99,6.73,20.19,11.75" style="fill:#ce1141;stroke-width:0px"/>
  <path d="m255.67,371.06c-1.85,15.84-7.52,29.83-17.56,42.11-23.1,8.98-54.12,9.9-77.22.13-11.22-12.28-15.44-28.11-16.1-45.01,24.42-17.82,62.7-21.78,90.68-8.98,7.13,3.3,13.99,6.73,20.19,11.75Z" style="stroke:#ce1141;stroke-width:.44px;fill:none"/>
  <path d="m350.44,243.95c-19.14-7.26-43.82-11.62-64.81-12.14-1.98-23.36-4.62-38.01-9.24-51.21-10.82-.66-58.6-2.51-77.08-2.51s-65.47,2.9-76.16,3.56c-4.36,12.54-9.24,28.25-11.62,51.35-21.12,1.19-49.63,7.26-68.9,14.52-2.9,1.06-4.09,2.11-4.22,1.98,2.9,3.3,13.6,16.1,33.53,16.63,6.34.13,18.21-1.06,25.87-4.49,2.11-.92,6.47-2.77,6.47-2.77,0,0,1.45,2.64,2.11,4.49,2.11,5.94,4.75,14.52,6.6,18.21,2.77,5.54,7.26,9.9,14.39,10.03,6.6.13,11.35-5.28,12.01-6.34-18.61-.92-26.4-10.96-27.59-25.87-4.36-.79-5.68-1.19-6.2-3.56-.53-2.38.13-4.88,1.98-7.79,2.11-2.77,5.68-5.54,14.52-2.77,5.81,1.85,10.43,5.54,13.73,8.45,3.83,3.43,15.05,15.05,21.78,19.01,7.13,4.22,20.85,8.05,29.7-.66,8.58-8.45,9.5-15.58,10.69-20.06-14.92-.4-28.91-1.85-41.84-3.7-3.83-.53-2.11-4.09.79-3.3,0,0,24.42,3.17,41.58,3.3.13-1.98.13-5.54.26-9.37-10.16-.26-27.19-1.32-43.43-4.62-3.3-.66-2.64-4.36.4-3.56,2.38.66,28.91,4.36,43.03,4.36,0-3.04.13-7.39.13-11.48-9.37,0-22.97-.79-42.63-3.83-3.43-.53-2.77-3.7,0-3.43,0,0,24.29,3.56,42.63,3.43v-9.37c0-3.7,3.17-3.83,3.17-.26,0,1.32.13,4.88.13,9.5,17.56-.53,33-2.64,40.13-3.83,4.22-.79,3.83,2.64,1.85,3.04-2.38.4-22.7,4.36-42.11,4.75,0,3.43.13,7.79.13,11.48,12.94-.53,27.98-.92,40.92-3.83,4.88-1.06,5.28,2.64,1.19,3.3-12.67,2.11-30.89,4.22-41.97,4.36.13,3.17.13,7,.26,9.5,20.72-.53,40.39-3.43,43.69-3.96,3.43-.53,4.09,3.04.53,3.56-3.7.53-27.98,3.7-43.56,4.09,1.58,5.28,1.85,12.94,9.37,19.4,7.26,6.34,19.67,5.68,28.38.66,6.73-3.96,17.56-15.71,21.38-19.14,3.17-2.77,10.69-9.77,20.85-9.64,10.03.26,10.16,5.41,10.69,6.86.53,1.58.92,4.36-1.32,5.81-1.85,1.06-3.43.79-5.15,1.58-1.32,8.18-3.83,17.42-10.3,22.31-7,5.28-17.82,5.94-17.82,5.94,0,0,1.45,1.72,1.98,2.11,1.19,1.06,4.88,2.9,9.64,2.51,4.49-.4,9.77-3.83,11.88-6.07,3.3-4.36,6.47-13.46,8.84-19.4.92-2.24,2.9-6.2,3.56-7.92,2.11.92,3.04,1.58,6.86,3.04,7.79,3.17,17.95,4.49,24.29,4.22,10.3-.26,22.04-6.47,29.04-13.07,1.19-1.19,3.56-3.96,3.56-3.96,0,0-6.73-2.77-8.58-3.43" style="fill:#ce1141;stroke-width:0px"/>
  <path d="m350.44,243.95c-19.14-7.26-43.82-11.62-64.81-12.14-1.98-23.36-4.62-38.01-9.24-51.21-10.82-.66-58.6-2.51-77.08-2.51s-65.47,2.9-76.16,3.56c-4.36,12.54-9.24,28.25-11.62,51.35-21.12,1.19-49.63,7.26-68.9,14.52-2.9,1.06-4.09,2.11-4.22,1.98,2.9,3.3,13.6,16.1,33.53,16.63,6.34.13,18.21-1.06,25.87-4.49,2.11-.92,6.47-2.77,6.47-2.77,0,0,1.45,2.64,2.11,4.49,2.11,5.94,4.75,14.52,6.6,18.21,2.77,5.54,7.26,9.9,14.39,10.03,6.6.13,11.35-5.28,12.01-6.34-18.61-.92-26.4-10.96-27.59-25.87-4.36-.79-5.68-1.19-6.2-3.56-.53-2.38.13-4.88,1.98-7.79,2.11-2.77,5.68-5.54,14.52-2.77,5.81,1.85,10.43,5.54,13.73,8.45,3.83,3.43,15.05,15.05,21.78,19.01,7.13,4.22,20.85,8.05,29.7-.66,8.58-8.45,9.5-15.58,10.69-20.06-14.92-.4-28.91-1.85-41.84-3.7-3.83-.53-2.11-4.09.79-3.3,0,0,24.42,3.17,41.58,3.3.13-1.98.13-5.54.26-9.37-10.16-.26-27.19-1.32-43.43-4.62-3.3-.66-2.64-4.36.4-3.56,2.38.66,28.91,4.36,43.03,4.36,0-3.04.13-7.39.13-11.48-9.37,0-22.97-.79-42.63-3.83-3.43-.53-2.77-3.7,0-3.43,0,0,24.29,3.56,42.63,3.43v-9.37c0-3.7,3.17-3.83,3.17-.26,0,1.32.13,4.88.13,9.5,17.56-.53,33-2.64,40.13-3.83,4.22-.79,3.83,2.64,1.85,3.04-2.38.4-22.7,4.36-42.11,4.75,0,3.43.13,7.79.13,11.48,12.94-.53,27.98-.92,40.92-3.83,4.88-1.06,5.28,2.64,1.19,3.3-12.67,2.11-30.89,4.22-41.97,4.36.13,3.17.13,7,.26,9.5,20.72-.53,40.39-3.43,43.69-3.96,3.43-.53,4.09,3.04.53,3.56-3.7.53-27.98,3.7-43.56,4.09,1.58,5.28,1.85,12.94,9.37,19.4,7.26,6.34,19.67,5.68,28.38.66,6.73-3.96,17.56-15.71,21.38-19.14,3.17-2.77,10.69-9.77,20.85-9.64,10.03.26,10.16,5.41,10.69,6.86.53,1.58.92,4.36-1.32,5.81-1.85,1.06-3.43.79-5.15,1.58-1.32,8.18-3.83,17.42-10.3,22.31-7,5.28-17.82,5.94-17.82,5.94,0,0,1.45,1.72,1.98,2.11,1.19,1.06,4.88,2.9,9.64,2.51,4.49-.4,9.77-3.83,11.88-6.07,3.3-4.36,6.47-13.46,8.84-19.4.92-2.24,2.9-6.2,3.56-7.92,2.11.92,3.04,1.58,6.86,3.04,7.79,3.17,17.95,4.49,24.29,4.22,10.3-.26,22.04-6.47,29.04-13.07,1.19-1.19,3.56-3.96,3.56-3.96,0,0-6.73-2.77-8.58-3.43Z" style="stroke:#ce1141;stroke-width:.44px;fill:none"/>
  <path d="m239.17,373.56c1.85,3.56.4,7.66-1.72,10.69-3.96,4.88-9.9,6.86-16.1,5.28-3.43-1.19-6.86-3.3-8.84-6.73-.92,3.04,1.19,5.15,1.06,7.92-.4.53-1.32.66-1.72.13-3.3-4.36-4.62-11.09-1.72-16.1,3.56-6.73,10.69-9.5,17.95-8.71,4.49.79,8.98,3.17,11.09,7.52" style="stroke-width:0px"/>
  <path d="m239.17,373.56c1.85,3.56.4,7.66-1.72,10.69-3.96,4.88-9.9,6.86-16.1,5.28-3.43-1.19-6.86-3.3-8.84-6.73-.92,3.04,1.19,5.15,1.06,7.92-.4.53-1.32.66-1.72.13-3.3-4.36-4.62-11.09-1.72-16.1,3.56-6.73,10.69-9.5,17.95-8.71,4.49.79,8.98,3.17,11.09,7.52Z" style="stroke:#ce1141;stroke-width:.44px;fill:none"/>
  <path d="m188.22,375.81c2.9,4.88,1.58,11.35-1.19,15.84-.4.66-1.06,1.45-1.98.79-1.19-1.58.53-2.9.66-4.36.13-1.19.53-2.51.13-3.7-3.96,5.41-9.77,8.05-16.37,6.86-4.62-.92-8.84-4.49-10.56-8.98-.92-2.9-.53-6.34,1.32-8.71,4.36-5.81,12.28-7.26,19.01-5.02,3.56,1.19,7.13,3.83,8.98,7.26" style="stroke-width:0px"/>
  <path d="m188.22,375.81c2.9,4.88,1.58,11.35-1.19,15.84-.4.66-1.06,1.45-1.98.79-1.19-1.58.53-2.9.66-4.36.13-1.19.53-2.51.13-3.7-3.96,5.41-9.77,8.05-16.37,6.86-4.62-.92-8.84-4.49-10.56-8.98-.92-2.9-.53-6.34,1.32-8.71,4.36-5.81,12.28-7.26,19.01-5.02,3.56,1.19,7.13,3.83,8.98,7.26Z" style="stroke:#ce1141;stroke-width:.44px;fill:none"/>
  <path d="m238.77,407.88c-.53,1.06-.79,1.06-1.58,2.11-2.38-.66-4.88-1.58-7.26-2.51-21.12-8.05-48.05-5.81-67.98,2.51-.53-.53-.92-1.06-1.19-1.98,23.1-10.43,54.78-11.62,78.01-.13" style="stroke-width:0px"/>
  <path d="m238.77,407.88c-.53,1.06-.79,1.06-1.58,2.11-2.38-.66-4.88-1.58-7.26-2.51-21.12-8.05-48.05-5.81-67.98,2.51-.53-.53-.92-1.06-1.19-1.98,23.1-10.43,54.78-11.62,78.01-.13Z" style="stroke:#ce1141;stroke-width:.44px;fill:none"/>
  <path d="m242.6,295.69c-3.56,16.63-14.12,35.77-31.68,40.65-13.99,3.7-29.7.79-39.07-10.82-6.86-8.45-10.16-18.21-11.22-29.17.66-.53,1.32-.53,2.11-.53,1.45,15.84,9.64,33.26,25.47,38.15,13.6,4.36,29.83.4,39.73-11.62,6.2-8.05,10.3-17.69,12.54-27.59.79.13,1.32.26,2.11.92" style="stroke-width:0px"/>
  <path d="m242.6,295.69c-3.56,16.63-14.12,35.77-31.68,40.65-13.99,3.7-29.7.79-39.07-10.82-6.86-8.45-10.16-18.21-11.22-29.17.66-.53,1.32-.53,2.11-.53,1.45,15.84,9.64,33.26,25.47,38.15,13.6,4.36,29.83.4,39.73-11.62,6.2-8.05,10.3-17.69,12.54-27.59.79.13,1.32.26,2.11.92Z" style="stroke:#ce1141;stroke-width:.44px;fill:none"/>
  <path d="m34.85,4.25C31.81,1.61,27.45-.24,22.83.03,18.08.16,0,6.23,0,33.02s16.24,35.37,26,35.37,19.67-7.39,22.83-20.46c.53-1.85.13-2.11-1.72-3.04l-6.34-2.38c-1.45-.53-1.58-.53-2.51,2.11-.66,1.72-3.43,9.5-9.9,9.5s-9.37-9.64-9.37-19.67,1.72-19.53,9.77-19.53,9.77,8.58,10.3,11.75c.26,1.32.4,1.45,1.98,1.45h5.94c1.19,0,1.19-.13,1.19-2.9V3.46c0-1.45-.26-1.45-2.64-1.45h-5.28c-1.06,0-1.06.26-1.85,1.72-.53.92-1.72,2.11-3.56.53" style="stroke-width:0px"/>
  <path d="m275.86,14.94l12.28,38.67c.66,1.72.66,1.85,1.58,1.85h1.85c1.98,0,1.98.13,1.98,1.72v7.39c0,2.51-.13,2.51-1.45,2.51h-24.29c-1.98,0-1.98-.13-1.98-1.58v-7.66c-.13-2.24.13-2.38,1.72-2.38h2.38c1.32,0,1.32-.26.79-1.85l-1.85-5.81c-.53-1.19-.79-1.19-2.24-1.19h-14.78l3.17-8.84h8.98c1.58,0,1.72-.13,1.32-1.32l-5.41-17.03c-.26-1.06-.66-1.06-.92-.13l-5.54,17.16c-.4,1.32-.26,1.32,1.72,1.32l-3.17,8.84q-1.72,0-2.11,1.19l-1.85,5.81c-.53,1.72-.53,1.85.53,1.85h2.51c1.72,0,1.72.26,1.72,2.38v7.66c0,1.45-.13,1.58-1.98,1.58h-16.76c-1.45,0-1.45-.13-1.45-2.51v-7.26c0-1.58.13-1.72,1.98-1.72h1.58c1.06,0,1.45-.53,1.72-1.32l12.54-39.07c.4-1.06.4-1.32-1.58-1.32h-2.24c-1.85,0-1.98-.13-1.98-1.72v-7.79c0-2.24.13-2.24,2.77-2.24h32.34c1.85,0,1.98.26,1.98,2.38v7.26c0,1.72-.13,1.72-2.51,1.72h-2.51c-1.19-.13-1.19.26-.79,1.45" style="stroke-width:0px"/>
  <path d="m334.34,44.24h4.22c1.98,0,1.98.26,1.98,1.45,0,3.7-2.77,8.45-9.77,8.45-6.47,0-9.37-9.64-9.37-19.67s1.72-19.53,9.77-19.53c6.73,0,9.5,4.88,10.3,7.92.26,1.32.26,1.45,1.98,1.45h5.94c1.19,0,1.19-.13,1.19-2.9V3.46c0-1.45-.13-1.45-2.64-1.45h-5.28c-1.06,0-1.19.13-1.85,1.72-.4.92-1.72,2.11-3.56.53-3.04-2.64-7.52-4.49-12.01-4.22-4.75.13-22.83,6.2-22.83,33s16.1,35.37,26,35.37c14.78,0,26.27-11.09,26.27-32.34,0-2.11-.26-2.24-3.17-2.24h-17.55c-1.72,0-1.85.13-1.85,2.11v7c0,1.32.13,1.32,2.24,1.32" style="stroke-width:0px"/>
  <path d="m391.09,1.74c-15.97,0-28.91,15.05-28.91,33.53s12.94,33.39,28.91,33.39,28.91-14.92,28.91-33.39S407.06,1.74,391.09,1.74l-.13,12.01c5.94,0,10.82,9.64,10.82,21.51s-4.75,21.51-10.82,21.51-10.82-9.64-10.82-21.51,4.88-21.51,10.82-21.51l.13-12.01Z" style="stroke-width:0px"/>
  <path d="m66.92,54.01V15.34c0-1.32-.13-1.58-1.58-1.58h-1.85c-1.98,0-1.98-.26-1.98-1.45V3.72c0-1.45.13-1.72,2.38-1.72h22.7c1.72,0,1.98.13,1.98,1.85v7.79c0,1.72-.26,1.72-1.98,1.72h-1.19c-1.06,0-1.19,0-1.06,1.45v11.09c0,2.77,0,3.04,2.38,3.04h12.14c2.38,0,2.38-.13,2.38-3.04v-11.09c0-1.45-.13-1.45-1.06-1.45h-1.19c-1.98,0-2.11-.13-2.11-1.72V3.85c0-1.72.26-1.85,1.98-1.85h22.7c2.38,0,2.38.13,2.38,1.72v8.58c0,1.32-.13,1.45-1.98,1.45h-1.98c-1.45,0-1.45.13-1.45,1.58v38.67c0,1.45.13,1.45,1.85,1.45h1.98c1.58,0,1.58.13,1.58,2.38v7.66c0,1.32,0,1.58-1.98,1.58h-24.02q-1.58,0-1.58-2.51v-7.39c-.13-1.72,0-1.72,1.98-1.72h1.19c1.45,0,1.45-.13,1.45-1.72v-11.88c0-2.9-.13-3.04-2.11-3.04h-12.14c-1.98,0-2.11.26-2.11,3.04v11.88q0,1.72,1.45,1.72h1.19c1.98,0,1.98.13,1.98,1.72v7.39q0,2.51-1.58,2.51h-24.15q-1.98,0-1.98-1.58v-7.66c0-2.24.13-2.38,1.58-2.38h1.98q1.85,0,1.85-1.45" style="stroke-width:0px"/>
  <path d="m140.97,14.94c0-1.45-.13-1.45-1.06-1.45h-2.24c-1.98,0-2.11-.13-2.11-1.72V3.85c0-1.72.26-1.85,1.98-1.85h22.7c2.38,0,2.38.13,2.38,1.72v8.58c0,1.32-.13,1.45-1.98,1.45h-1.06c-1.45,0-1.45.13-1.45,1.58v38.67c0,1.45.13,1.45,1.85,1.45h1.58c1.58,0,1.58.13,1.58,2.38v7.66c0,1.32,0,1.58-1.98,1.58h-24.02q-1.58,0-1.58-2.51v-7.39c-.13-1.72,0-1.72,1.98-1.72h1.85c1.45,0,1.58,0,1.58-1.58V14.94h0Z" style="stroke-width:0px"/>
  <path d="m206.96,4.25c-3.04-2.64-7.52-4.49-12.01-4.22-4.75.13-22.83,6.2-22.83,33s16.1,35.37,26,35.37,19.67-7.39,22.83-20.46c.53-1.85.13-2.11-1.72-3.04l-6.34-2.38c-1.45-.53-1.58-.53-2.51,2.11-.66,1.72-3.43,9.5-9.9,9.5s-9.37-9.64-9.37-19.67,1.72-19.53,9.77-19.53,9.77,8.58,10.3,11.75c.26,1.32.4,1.45,1.98,1.45h5.94c1.19,0,1.19-.13,1.19-2.9V3.46c0-1.45-.26-1.45-2.64-1.45h-5.28c-1.06,0-1.06.26-1.85,1.72-.53.92-1.72,2.11-3.56.53" style="stroke-width:0px"/>
  <path d="m63.22,97.83v38.28c0,1.32-.26,1.45-1.58,1.45h-2.11c-1.58,0-1.85.26-1.72,2.11v7.92c0,1.45.26,1.58,1.98,1.58h35.37l-12.01-12.28c-2.51,0-2.64,0-2.64-2.51v-11.09c0-2.11.13-2.24,2.64-2.24v-10.03c-2.64,0-2.64-.13-2.64-2.24v-11.22c0-2.24.13-2.38,2.38-2.38,2.38,0,11.62.26,11.62,8.32s-8.58,7.66-11.35,7.66v10.03c2.38,0,11.35.26,11.35,8.32s-8.58,7.66-11.35,7.66l12.01,12.28c8.84,0,15.44-7.92,15.44-17.03s-5.81-12.67-10.43-15.97c3.3-2.64,9.11-6.34,9.11-15.58,0-10.03-10.03-16.5-16.1-16.5h-32.6c-2.64,0-2.77.13-2.77,2.11v8.32c0,1.32.13,1.45,1.98,1.45h2.11c1.32-.4,1.32-.13,1.32,1.58" style="stroke-width:0px"/>
  <path d="m171.06,97.17v33.13c0,8.45-4.36,20.85-21.12,20.85s-24.81-12.41-24.81-20.85v-33.13c0-1.45-.26-1.45-1.45-1.45h-1.98c-1.98,0-1.98-.13-1.98-1.72v-7.52c0-2.51.26-2.51,2.51-2.51h22.57c1.72,0,1.98.13,1.98,2.11v7.52c0,1.72-.13,1.72-2.51,1.72h-1.85c-1.06,0-1.19.13-1.19,1.45v32.21c0,3.7,2.77,9.5,9.77,9.5,8.05,0,9.77-6.2,9.77-9.5v-31.94c0-1.72-.13-1.72-1.72-1.72h-1.58c-1.98,0-2.24-.13-2.24-1.72v-7.52c0-1.85,0-2.11,1.98-2.11h16.76q2.77,0,2.77,2.24v7.79q0,1.72-1.98,1.72h-2.24c-1.32.13-1.45.13-1.45,1.45" style="stroke-width:0px"/>
  <path d="m249.86,137.56h-2.24c-1.58,0-1.72.26-1.72,2.38v7.66c0,1.58.13,1.58,1.98,1.58h41.58c1.85,0,1.98,0,1.98-2.51v-18.74c0-1.72-.13-1.72-1.98-1.72h-6.07c-1.85,0-1.98.13-1.98,2.38v6.6c0,2.51-.26,2.64-1.98,2.64h-9.24c-2.77,0-2.9-.26-2.9-1.98v-37.62c0-2.51,0-2.64,1.45-2.64h2.24c1.85,0,1.85-.13,1.85-1.72v-7.26c0-2.24,0-2.38-1.98-2.38h-22.31c-2.77,0-2.77.13-2.77,2.24v7.79c0,1.58.13,1.72,1.98,1.72h1.85c1.58,0,1.58.13,1.58,2.38v37.49c.13,1.58,0,1.72-1.32,1.72" style="stroke-width:0px"/>
  <path d="m346.35,131.09c0,13.86-12.94,19.67-18.48,19.67-4.09,0-8.84-1.72-12.01-4.22-1.85-1.58-3.7.26-4.22,1.06-.92,1.58-1.06,1.72-1.85,1.72h-2.64c-2.77,0-2.64,0-2.64-1.45v-17.95c0-2.9.13-2.9,1.19-2.9h4.09c1.58,0,1.58.13,1.98,1.45,1.06,3.56,5.02,8.84,11.75,8.84,3.17,0,5.81-.79,5.81-3.7,0-6.07-3.56-7.52-9.9-10.82-6.34-3.3-15.97-7.13-15.97-20.99s12.54-19.53,18.21-19.53c4.09,0,8.45,1.72,11.48,4.36,1.85,1.58,3.7-.26,4.22-1.06q1.06-1.72,1.85-1.72h2.77c2.51,0,2.64,0,2.64,1.45v17.95c0,2.77,0,2.9-1.19,2.9h-4.09c-1.58,0-1.58-.13-1.98-1.45-1.06-3.56-5.68-8.84-12.41-8.84-2.77,0-4.36,1.72-4.36,4.22,0,3.83,4.22,7.13,11.48,10.69,7.13,3.43,14.26,8.84,14.26,20.33" style="stroke-width:0px"/>
  <path d="m192.05,137.56h-2.24c-1.58,0-1.72.26-1.72,2.38v7.66c0,1.58.13,1.58,1.98,1.58h41.58c1.85,0,1.98,0,1.98-2.51v-18.74c0-1.72-.13-1.72-1.98-1.72h-6.07c-1.85,0-1.98.13-1.98,2.38v6.6c0,2.51-.26,2.64-1.98,2.64h-9.24c-2.77,0-2.9-.26-2.9-1.98v-37.62c0-2.51,0-2.64,1.45-2.64h2.24c1.85,0,1.85-.13,1.85-1.72v-7.26c0-2.24,0-2.38-1.98-2.38h-22.31c-2.77,0-2.77.13-2.77,2.24v7.79c0,1.58.13,1.72,1.98,1.72h1.85c1.58,0,1.58.13,1.58,2.38v37.49c.13,1.58,0,1.72-1.32,1.72" style="stroke-width:0px"/>
  <path d="m42.77,161.72c9.11,17.56,27.45,23.23,46.2,22.31,10.43-.13,20.46-1.19,30.75-1.85v.66c-5.28,14.78-8.71,29.83-10.82,45.41-27.06,1.06-54.78-1.19-74.71-19.27-13.6-13.73-17.03-32.6-13.99-51.35,3.17-3.83,6.6-7,9.9-10.82,4.49,4.75,11.48,8.58,12.67,14.92" style="stroke-width:0px;fill:#fff"/>
  <path d="m379.08,153.93c.66,2.77.79,5.28,1.06,8.18,1.32,20.85-7.66,39.99-25.47,50.55-19.4,11.75-41.84,15.71-65.73,16.37-.4-2.11-.66-4.88-.92-7.26-1.85-13.73-4.49-27.45-8.32-40.65,25.47-.26,56.49,6.47,73.39-17.03,2.24-3.3,4.49-6.2,6.47-9.77,3.83-1.72,7.39-4.09,11.09-6.07,3.17,1.45,5.41,3.96,8.45,5.68" style="stroke-width:0px;fill:#fff"/>
  <path d="m282.2,259.26c.13,8.05-2.51,16.24-9.64,20.06-3.3,1.85-7.26,2.51-10.96,2.38-.13-.66-.4-1.58-.13-2.38,5.81.13,11.48-1.98,14.52-6.73,2.11-3.56,2.9-7.52,3.04-12.01.92-.66,1.98-1.06,3.17-1.32" style="stroke-width:0px;fill:#fff"/>
  <path d="m138.2,280.91c-1.06.13-1.58.4-3.56,0-9.37,0-19.27-7.52-18.61-20.19,1.06-.4,2.38-.26,3.56.13,0,7.26,2.9,17.16,18.21,17.16,1.06,1.58,0,1.72.4,2.9" style="stroke-width:0px;fill:#fff"/>
</svg>
