<?xml version="1.0" encoding="UTF-8"?>
<svg id="Layer" xmlns="http://www.w3.org/2000/svg" viewBox="0 0 420 507.04">
  <defs/>
  <g id="Layer_2" data-name="Layer 2">
    <path d="m102.32,184.6h-29.8v32.21l-17.86,8.81,17.86,9.29v28.72l19.79,12.19c7.24-.97,16.53-2.17,27.39-3.26l76.37,44.04,13.88,64.07c.12-.12,14-64.07,14-64.07l76.25-44.04c10.74,1.09,20.03,2.17,27.39,3.26l19.67-12.19v-28.72l17.86-9.17-17.86-9.05v-32.21h-29.68s4.58-4.46,10.5-14.48c2.41-4.22,4.83-9.41,7.6-15.56,21.72-6.52,37.76-20.51,44.52-33.9,18.58-34.02,32.58-75.53,32.58-75.53,0,0-7.96,3.86-17.74,8.69,7.84-23.89,12.55-44.28,12.55-44.28,0,0-85.67,56.59-152.27,109.92l-5.79-3.5c0-.6.24-5.43.24-5.79,0,0,.72-5.67-9.29-9.05-.72-.24-1.21-.48-1.81-.6,4.83-3.62,12.31-9.17,17.86-12.91,8.69-6.03,7.72-12.55,7.72-12.55l-31.61,23.53c-24.49-7.84-44.88,0-44.88,0l-31.61-23.53s-.97,6.52,7.72,12.55c5.43,3.74,13.03,9.29,17.86,12.91-.6.24-1.09.48-1.81.6-10.01,3.38-9.29,9.05-9.29,9.05,0,.48.12,5.19.24,5.79l-5.79,3.5C97.97,66.24,12.43,9.53,12.43,9.53c0,0,4.71,20.15,12.55,44.16-10.38-5.07-17.74-8.69-17.74-8.69,0,0,14,41.63,32.58,75.53,6.88,13.51,22.8,27.39,44.52,33.9,0,0,3.62,8.33,6.76,14.48,3.86,7.48,11.22,15.69,11.22,15.69" style="stroke-width:0px;fill:#1d1160"/>
    <path d="m245.89,136.22c-.36.84-.72,1.93-.84,2.78,29.92-19.55,82.29-53.69,141.05-91.94,0,0,.12,1.21,5.19-13.75-62.14,37.4-116.91,79.87-145.39,102.92" style="stroke-width:0px;fill:#00788c"/>
    <path d="m173.98,136.22c-28.47-23.05-83.37-65.52-145.39-102.92,5.19,15.2,5.19,13.88,5.19,13.88,58.76,38.13,111,72.27,141.05,91.94-.12-.97-.48-1.93-.84-2.9" style="stroke-width:0px;fill:#00788c"/>
    <path d="m209.94,166.5c-5.07-2.05-17.98-8.45-25.82-25.22,6.39,5.43,14.48,7.24,20.99.84-7.84-3.5-8.93-17.62-10.5-21.24-3.14-7.6-7.96-11.34-11.94-12.91,1.93-.72,3.62-1.21,5.43-1.81,3.62,2.05,9.89,6.64,11.94,15.93,0,0,.72-10.62-4.46-17.86,10.14-2.41,20.39-2.17,28.72,0-5.19,7.36-4.46,17.86-4.46,17.86,2.05-9.29,8.08-13.88,11.94-15.93,1.69.6,3.5,1.09,5.43,1.81-3.86,1.57-8.81,5.43-11.94,12.91-1.57,3.62-2.53,17.86-10.5,21.24,1.81,10.86-.36,20.87-4.83,24.37m-90.37,19.79s-14.72-10.62-23.05-29.8l5.91,1.81c19.18,5.07,55.86,10.14,55.86,10.14-17.74.48-32.58,1.81-41.14,2.65-1.81-2.17-3.74-4.95-4.58-7.12,0,0,.72,6.64,2.17,10.86,1.93,6.39,4.83,11.46,4.83,11.46" style="stroke-width:0px;fill:#00788c"/>
    <path d="m305.02,174.95h0c1.57-4.22,2.17-10.86,2.17-10.86-.72,2.17-2.78,4.95-4.58,7.12-8.57-.97-23.53-2.29-41.14-2.78,0,0,36.68-4.95,55.86-10.14l5.91-1.81c-8.33,19.3-23.05,29.68-23.05,29.8.12,0,3.02-5.07,4.83-11.34" style="stroke-width:0px;fill:#00788c"/>
    <path d="m164.21,277.39l-37.4-21.6c-2.65.24-5.31.6-7.84.72l51.88,29.92c-2.53-2.65-4.71-5.79-6.64-9.05" style="stroke-width:0px;fill:#00788c"/>
    <path d="m255.67,277.39l37.4-21.6c2.65.24,5.31.6,7.84.72l-51.88,29.92c2.53-2.65,4.71-5.79,6.64-9.05" style="stroke-width:0px;fill:#00788c"/>
    <path d="m193.41,282.45c-16.41-3.62-23.41-11.7-23.41-11.7,3.38,6.88,8.45,12.79,14.84,17.13-.12-.12,6.88-2.05,8.57-5.43" style="stroke-width:0px;fill:#00788c"/>
    <path d="m183.27,264.72l-3.62-3.62c-5.19,1.81-8.2,3.86-9.77,5.19,3.62,3.5,10.62,8.08,23.17,10.74-1.57-3.98-5.43-7.96-9.77-12.31" style="stroke-width:0px;fill:#00788c"/>
    <path d="m209.58,303.69c-5.43.12-9.29,2.17-10.74,2.65-1.33-2.53-3.02-5.19-4.46-7.6,4.71.6,8.81-.36,8.81-.36-2.05-.72-7-2.29-13.63-6.76h0c.6-.24,1.09-.6,1.81-.72h0c1.81-.84,3.62-2.05,4.95-3.5,1.69-1.69,2.78-3.86,2.78-6.39,0-8.2-5.55-10.98-11.7-17.13-1.21-1.21-2.53-2.41-3.86-3.74,5.67-1.57,13.51-2.65,23.77-2.9l2.41,34.87h.36l2.53-34.87c10.5.24,18.1,1.33,23.77,2.9-1.33,1.33-2.65,2.53-3.86,3.74-6.27,6.15-11.7,8.93-11.7,17.13,0,2.65,1.09,4.83,2.78,6.39,1.45,1.45,3.14,2.53,4.95,3.5h0c.6.36,1.21.6,1.81.72h0c-6.64,4.46-11.82,6.15-13.63,6.76,0,0,4.1.84,8.81.36-1.57,2.29-3.14,4.95-4.46,7.6-1.33-.48-5.19-2.53-10.74-2.65h-.72Z" style="stroke-width:0px;fill:#00788c"/>
    <path d="m235.04,287.76c6.27-4.34,11.34-10.26,14.84-17.13,0,0-6.76,8.08-23.41,11.7,1.69,3.5,8.57,5.43,8.57,5.43" style="stroke-width:0px;fill:#00788c"/>
    <path d="m226.83,277.27c12.43-2.53,19.43-7.24,23.17-10.74-1.57-1.45-4.58-3.5-9.77-5.19-1.09,1.21-2.29,2.41-3.62,3.62-4.34,4.1-8.2,8.08-9.77,12.31" style="stroke-width:0px;fill:#00788c"/>
    <path d="m198.72,143.1s-6.03-3.98-7-12.43c0,0-7.84,13.15,7,12.43" style="stroke-width:0px;fill:#fff"/>
    <path d="m221.52,143.1s6.03-3.98,7-12.43c.12,0,7.84,13.15-7,12.43" style="stroke-width:0px;fill:#fff"/>
    <path d="m217.06,316.48c-1.09-1.09-2.65-2.41-7.48-2.41s-6.15,1.09-7.48,2.17l7.84,30.65,7.12-30.41Z" style="stroke-width:0px;fill:#fff"/>
    <polygon points="268.58 181.34 268.58 192.57 264.84 192.57 264.84 181.34 261.7 181.34 261.7 178.09 271.72 178.09 271.72 181.34 268.58 181.34" style="stroke-width:0px;fill:#fff"/>
    <polygon points="250.84 181.34 250.84 192.57 247.1 192.57 247.1 181.34 243.96 181.34 243.96 178.09 254.1 178.09 254.1 181.34 250.84 181.34" style="stroke-width:0px;fill:#fff"/>
    <path d="m197.75,187.38h1.33v-7.84l-1.57-1.57h-9.53v14.48h3.62v-5.07h2.65l2.17,5.07h3.62l-2.29-5.07Zm-2.29-3.14h-3.98v-2.9h3.98v2.9Z" style="stroke-width:0px;fill:#fff"/>
    <polygon points="290.42 181.34 290.42 178.09 279.68 178.09 279.68 192.57 290.42 192.57 290.42 189.31 283.42 189.31 283.42 187.02 290.42 187.02 290.42 183.76 283.42 183.76 283.42 181.34 290.42 181.34" style="stroke-width:0px;fill:#fff"/>
    <polygon points="211.99 189.31 211.99 178.09 208.13 178.09 208.13 192.57 217.3 192.57 217.3 189.31 211.99 189.31" style="stroke-width:0px;fill:#fff"/>
    <path d="m233.83,178.09h-9.53v12.91l1.69,1.69h9.53v-12.91l-1.69-1.69Zm-1.81,11.22h-4.1v-7.96h4.1v7.96Z" style="stroke-width:0px;fill:#fff"/>
    <path d="m179.29,192.57v-12.91l-1.57-1.69h-9.77v14.48h3.62v-4.71h4.1v4.71l3.62.12h0Zm-7.72-11.22h4.1v3.38h-4.1v-3.38Z" style="stroke-width:0px;fill:#fff"/>
    <polygon points="156.37 178.09 156.37 184.6 152.27 184.6 152.27 178.09 148.65 178.09 148.65 192.57 152.27 192.57 152.27 187.86 156.37 187.86 156.37 192.57 159.99 192.57 159.99 178.09 156.37 178.09" style="stroke-width:0px;fill:#fff"/>
    <path d="m373.55,75.41c7-16.53,12.31-28.23,12.31-28.23-58.76,38.13-111,72.27-141.05,91.94-1.09,3.26-2.41,6.15-3.86,8.81l118.24-64.43-92.3,66.6,4.22-.72,48.74-4.71s32.94-3.26,51.28-27.87c8.69-13.27,23.41-52,23.41-52l-20.99,10.62Z" style="stroke-width:0px;fill:#fff"/>
    <path d="m91.09,229.61l11.34-4.95v25.82c3.26-.48,6.52-.84,10.01-1.21v-56.59h-10.01c0-.12,0,20.39,0,20.39l-11.34,4.83v-25.1h-10.01v29.32l-8.2,3.98,8.2,4.1v23.77c3.26-.6,6.64-1.09,10.01-1.69v-22.68Z" style="stroke-width:0px;fill:#fff"/>
    <path d="m169.16,229.49c2.41-.12,4.95-.12,7.48-.24,1.93,4.83,3.74,10.26,5.55,14.96,3.38-.12,6.64-.24,10.01-.24-1.93-4.83-3.62-10.26-5.55-14.96,1.21,0,2.53,0,3.74-.12v-23.17l-4.46-4.34h-30.65l3.74,4.58v39.33c3.38-.24,6.64-.36,10.01-.6l.12-15.2h0Zm0-18.94h11.34v8.93c-3.74,0-7.6.12-11.34.24v-9.17Z" style="stroke-width:0px;fill:#fff"/>
    <path d="m208.13,210.54h11.46v33.3c3.5,0,7,.12,10.5.12v-38.01l-4.58-4.58h-31.37l3.74,4.58v38.01c3.5,0,6.76-.12,10.26-.12v-33.3h0Z" style="stroke-width:0px;fill:#fff"/>
    <path d="m267.61,235.88c-6.39-.36-12.91-.72-19.3-.84v-7.12c6.39.24,12.91.48,19.3.72v-10.01c-6.39-.24-12.91-.36-19.3-.48v-7.6h19.3v-9.29h-33.66l3.74,4.46v38.37c10.26.36,20.27.72,29.92,1.33v-9.53h0Z" style="stroke-width:0px;fill:#fff"/>
    <path d="m292.83,210.54h8.69v-9.29h-28.23v9.29h8.81v36.08c3.62.36,7.36.6,10.86.84l-.12-36.92h0Z" style="stroke-width:0px;fill:#fff"/>
    <path d="m151.66,205.96l-4.58-4.58h-30.77l3.62,4.34v37.4l3.98,4.83c8.81-.84,18.1-1.69,27.75-2.17v-39.82Zm-10.01,30.41c-3.86.24-7.72.48-11.46.72v-26.54h11.46v25.82Z" style="stroke-width:0px;fill:#fff"/>
    <path d="m337.71,229.97c3.14-1.33,6.27-2.78,9.29-4.22-10.01-4.71-20.03-8.81-29.92-12.67v-11.34h10.62v4.1h10.14v-13.15h-34.51l3.74,4.46v23.41l20.63,8.93v13.15s-4.83-.6-10.62-1.33v-4.22l-10.01-1.21v13.39c10.86,1.21,21.24,2.78,30.65,4.46,0-7.36,0-18.58,0-23.77" style="stroke-width:0px;fill:#fff"/>
    <polygon points="136.82 188.1 136.82 189.31 133.57 189.31 133.57 181.34 136.82 181.34 136.82 182.55 140.56 182.55 140.56 178.09 130.07 178.09 130.07 191 131.76 192.57 140.56 192.57 140.56 188.1 136.82 188.1" style="stroke-width:0px;fill:#fff"/>
    <path d="m46.33,75.41c-7-16.53-12.31-28.23-12.31-28.23,58.76,38.13,111,72.27,141.05,91.94,1.09,3.26,2.41,6.15,3.86,8.81L60.69,83.37l92.3,66.6-4.22-.72-48.74-4.71s-32.94-3.26-51.28-27.87c-8.69-13.27-23.41-52-23.41-52l20.99,10.74Z" style="stroke-width:0px;fill:#fff"/>
    <path d="m410.35,63.95c-9.29,24.98-21.84,50.8-27.99,61.53-10.5,17.86-31.37,28.6-43.56,32.58,0,0-5.91,14.36-12.19,22.2h24.98v34.02l23.77,11.34-23.77,12.07v28.47l-23.05,14.12s-18.34-2.17-27.39-3.26l-73.12,42.23c-14.72,66.24-18.1,85.42-18.1,85.42,0,0-3.5-18.1-18.1-85.42l-73.12-42.11c-8.93.84-27.39,3.26-27.39,3.26l-23.05-14.12v-28.47l-23.77-12.07,23.65-11.34v-34.02h24.98c-6.03-7.6-12.19-22.2-12.19-22.2-7.36-2.41-14.36-5.79-20.63-9.77-9.89-6.39-17.86-14.24-23.05-22.8-9.89-17.62-21.72-43.92-27.99-61.53C5.19,53.21,0,36.92,0,36.92c0,0,13.51,6.39,17.86,8.57C11.34,26.06,5.79,0,5.79,0,5.79,0,99.3,61.53,165.06,114.14l.97-.72v-3.38c0-.72,0-2.05.6-3.62.72-2.17,2.41-4.95,6.27-7.24-4.83-3.62-13.51-9.53-14.24-10.38-6.39-5.55-7.48-11.7-6.88-14.84l1.09-7,35.59,26.42c19.3-5.55,33.06-2.78,43.19,0l35.59-26.42,1.09,7c.48,3.02-.6,9.29-6.88,14.84-.72.72-9.41,6.76-14.24,10.38,3.74,2.29,5.43,4.95,6.27,7.24.6,1.57.6,2.9.6,3.62v3.38l.97.72C322.15,60.33,414.21,0,414.21,0c0,0-4.58,21.36-12.07,45.49,3.62-1.81,17.86-8.57,17.86-8.57-4.22,12.91-9.65,27.03-9.65,27.03M102.32,184.6h-29.8v32.21l-17.86,8.81,17.86,9.29v28.72l19.79,12.19c7.24-.97,16.53-2.17,27.39-3.26l76.37,44.04,13.88,64.07c.12-.12,14-64.07,14-64.07l76.25-44.04c10.74,1.09,20.03,2.17,27.39,3.26l19.67-12.19v-28.72l17.86-9.17-17.86-9.05v-32.21h-29.68s4.58-4.46,10.5-14.48c2.41-4.22,4.83-9.41,7.6-15.56,21.72-6.52,37.76-20.51,44.52-33.9,18.58-34.02,32.58-75.53,32.58-75.53,0,0-7.96,3.86-17.74,8.69,7.84-23.89,12.55-44.28,12.55-44.28,0,0-85.67,56.59-152.27,109.92l-5.79-3.5c0-.6.24-5.43.24-5.79,0,0,.72-5.67-9.29-9.05-.72-.24-1.21-.48-1.81-.6,4.83-3.62,12.31-9.17,17.86-12.91,8.69-6.03,7.72-12.55,7.72-12.55l-31.61,23.53c-24.49-7.84-44.88,0-44.88,0l-31.61-23.53s-.97,6.52,7.72,12.55c5.43,3.74,13.03,9.29,17.86,12.91-.6.24-1.09.48-1.81.6-10.01,3.38-9.29,9.05-9.29,9.05,0,.48.12,5.19.24,5.79l-5.79,3.5C97.97,66.24,12.43,9.53,12.43,9.53c0,0,4.71,20.15,12.55,44.16-10.38-5.07-17.74-8.69-17.74-8.69,0,0,14,41.63,32.58,75.53,6.88,13.51,22.8,27.39,44.52,33.9,0,0,3.62,8.33,6.76,14.48,3.86,7.48,11.22,15.69,11.22,15.69" style="fill:#a1a1a4;stroke-width:0px"/>
  </g>
</svg>
