<?xml version="1.0" encoding="UTF-8"?>
<svg id="Layer" xmlns="http://www.w3.org/2000/svg" viewBox="0 0 310.88 532.17">
  <defs/>
  <path d="m300.52,191.05c0-2.63,0-5.69-.15-9.05v-11.24c-.15-21.02-1.17-62.91-3.07-85.82-.15-2.04-.29-3.79-.44-5.55l-.44-4.38-3.65-2.77c-2.77-2.19-5.98-4.38-9.63-6.57-7.15-4.38-16.05-9.05-26.56-13.57-42.47-20.73-98.52-39.85-98.96-39.99l-2.48-.88-2.48.88c-.44.15-50.65,17.81-91.8,37.36-8.03,3.5-15.33,6.86-21.6,10.07-8.76,4.52-16.05,9.05-21.6,13.43l-3.65,2.77-.44,4.52c-.29,3.36-.58,7.44-.88,12.41-1.46,24.08-2.04,60.28-2.19,78.81v20.43c.15,87.13,38.24,149.89,70.2,187.26,34.44,40.43,68.74,60.13,70.2,60.86l5.25,3.07,5.25-3.07c1.46-.88,35.61-20.73,69.77-61.15,31.67-37.66,69.47-100.71,69.33-187.84" style="stroke-width:0px"/>
  <path d="m234.84,381.81c32.26-38.09,70.5-102.02,70.35-190.61v-20.29c-.15-21.16-1.17-63.2-3.07-86.11-.15-2.19-.29-3.94-.44-5.55l-.44-4.52-.15-2.04-1.61-1.17-3.65-2.77c-2.92-2.19-6.28-4.52-10.07-6.86-7.3-4.52-16.49-9.2-27-13.87C216.3,27.29,159.82,8.03,159.23,7.74l-2.48-.88-1.46-.58-1.61.58-2.48.88c-.44.15-50.65,17.81-92.1,37.66-8.17,3.5-15.47,6.86-21.89,10.22-9.05,4.67-16.49,9.34-22.33,13.87l-3.65,2.77-1.61,1.31-.15,2.04-.44,4.52c-.29,3.36-.58,7.59-.88,12.55-1.46,24.08-2.04,60.42-2.19,79.11v20.14c.29,88.59,38.82,152.37,71.22,190.32,35.03,41.01,69.91,61.15,71.37,61.88l5.25,3.07,2.34,1.31,2.34-1.31,5.25-3.07c1.46-1.02,36.34-21.16,71.08-62.32m-73.56,58.09l-5.25,3.07-5.25-3.07c-1.46-.88-35.61-20.58-70.2-60.86-31.82-37.36-69.91-100.12-70.2-187.26v-20.43c.15-18.54.73-54.88,2.19-78.81.29-4.96.58-9.05.88-12.41l.44-4.52,3.65-2.77c5.55-4.23,12.84-8.76,21.6-13.43,6.28-3.21,13.57-6.71,21.6-10.07C101.87,29.77,151.94,12.11,152.37,11.97l2.48-.88,2.48.88c.58.15,56.63,19.27,98.96,39.99,10.51,4.67,19.41,9.2,26.56,13.57,3.65,2.19,6.86,4.38,9.63,6.57l3.65,2.77.44,4.52c.15,1.61.29,3.5.44,5.4,1.9,22.77,2.77,64.66,3.07,85.82v11.24c0,3.36.15,6.42.15,9.05.15,87.13-37.51,150.19-69.18,187.55-34.3,40.72-68.31,60.72-69.77,61.45" style="stroke-width:0px;fill:#bc945c"/>
  <path d="m310.88,181.13v-10.51c-.15-21.16-1.17-63.49-3.07-86.55-.15-2.19-.29-4.09-.58-5.69l-.44-4.52-.15-2.04-.29-2.48-1.9-1.46-1.61-1.17-3.65-2.77c-3.07-2.34-6.57-4.82-10.51-7.15-7.59-4.67-16.93-9.34-27.73-14.3C218.64,21.75,163.32,2.92,160.99,2.04l-2.48-.88-1.46-.58-1.9-.58-1.9.58-1.46.58-2.48.88c-.44.15-51.08,17.95-92.68,37.8-8.03,3.5-15.47,6.86-22.04,10.36-9.34,4.82-17.08,9.63-23.21,14.45l-3.65,2.77-1.75,1.31-1.9,1.46-.29,2.48-.15,2.04-.44,4.52c-.29,3.5-.73,7.74-1.02,12.84C.73,116.32.15,152.81,0,171.49v6.13h0v14.16c.29,90.34,39.7,155.29,72.68,193.97,35.61,41.74,71.37,62.32,72.83,63.2l5.25,3.07,2.34,1.31,2.77,1.61,2.77-1.61,2.34-1.31,5.25-3.07c1.46-.88,37.07-21.46,72.54-63.49,32.84-38.82,71.95-104.06,71.66-194.41v-9.49l.44-.44Zm-152.37,265.93l-2.34,1.31-2.34-1.31-5.25-3.07c-1.46-.88-36.34-21.02-71.37-61.88C44.81,344.16,6.13,280.37,5.98,191.78v-20.29c.15-18.54.73-55.02,2.19-79.11.29-4.96.58-9.2.88-12.55l.44-4.52.15-2.04,1.61-1.31,3.5-2.77c5.69-4.52,13.28-9.2,22.33-13.87,6.42-3.36,13.72-6.71,21.89-10.22C100.42,25.25,150.62,7.74,151.06,7.44l2.48-.88,1.61-.58,1.46.58,2.48.88c.58.15,57.07,19.41,99.54,40.28,10.65,4.67,19.7,9.34,27,13.87,3.79,2.34,7.15,4.67,10.07,6.86l3.65,2.77,1.61,1.17.15,2.04.44,4.52c.15,1.61.29,3.36.44,5.55,1.9,22.91,2.77,64.95,3.07,86.11v20.43c.29,88.59-38.09,152.52-70.35,190.61-34.74,41.16-69.62,61.45-71.08,62.32l-5.11,3.07Z" style="stroke-width:0px;fill:#860038"/>
  <path d="m232.21,238.63v-11.24l-2.77-2.77c-35.32-33.42-110.92,10.8-136.47,32.11l-12.7,19.7,15.76-3.94c-24.08,30.5-15.47,50.35-14.45,52.4,2.63,7.15,8.47,12.84,17.81,16.64,7.15,2.77,15.33,3.21,22.33,2.77,30.07-1.46,65.68-20.29,88.59-40.43l.58-.44,4.52-23.06-8.9,4.96c-30.94,13.72-55.9,21.31-55.9,21.31-16.35,5.11-23.79,5.98-29.19,4.82l-.58-.15c-1.46-.58-1.75-1.9-1.75-2.34-.29-10.22,17.22-32.26,26.13-41.74,8.17-8.9,21.16-18.68,32.11-23.35,7.3-3.07,12.11-4.38,14.3-4.09-.58,1.9-1.61,4.23-3.07,7.15,0,0-11.68,23.21-12.26,24.23l55.9-32.55Z" style="stroke-width:0px;fill:#bc945c"/>
  <path d="m162.45,237.17c-10.07,5.4-21.75,16.2-25.25,20-29.48,31.67-50.21,73.85,14.6,53.42,0,0,25.25-7.74,56.48-21.46-88.45,75.02-172.08,43.93-90.05-34.88-7.44,1.75-15.03,3.36-22.48,5.4,26.27-21.89,98.37-62.76,130.77-32.11l-34.44,21.16c14.74-28.9-11.82-22.04-29.63-11.53" style="stroke-width:0px;fill:#860038"/>
  <polygon points="97.5 81.3 101.73 85.53 101.73 88.59 97.06 93.41 97.06 86.7 96.33 86.11 93.7 86.11 93.12 86.84 93.12 104.79 93.7 105.38 96.47 105.38 97.06 104.79 97.06 102.02 101.87 97.2 101.87 105.96 97.64 110.19 92.53 110.19 88.3 105.96 88.3 85.53 92.53 81.44 97.5 81.3" style="stroke-width:0px;fill:#bc945c"/>
  <polygon points="109.03 81.3 109.03 105.38 116.32 105.38 115.45 110.19 104.36 110.19 104.21 82.76 103.92 81.3 109.03 81.3" style="stroke-width:0px;fill:#bc945c"/>
  <polygon points="129.02 81.3 129.02 86.11 123.04 86.11 123.04 92.39 127.85 92.39 127.85 96.62 123.04 96.62 123.04 105.38 129.17 105.38 129.17 110.19 118.37 110.19 118.22 83.05 117.93 81.3 129.02 81.3" style="stroke-width:0px;fill:#bc945c"/>
  <polygon points="146.39 81.3 142.16 110.05 136.9 110.05 134.13 106.55 130.77 81.3 135.44 81.3 138.65 104.94 141.57 81.3 146.39 81.3" style="stroke-width:0px;fill:#bc945c"/>
  <polygon points="159.09 81.15 159.09 85.97 153.1 85.97 153.1 92.39 157.92 92.39 157.92 96.47 153.1 96.62 153.1 105.23 159.09 105.23 159.09 110.05 148.29 110.05 148.29 83.05 148 81.3 159.09 81.15" style="stroke-width:0px;fill:#bc945c"/>
  <polygon points="166.24 81.15 166.39 105.23 173.54 105.23 172.66 110.05 161.57 110.05 161.57 82.61 161.28 81.15 166.24 81.15" style="stroke-width:0px;fill:#bc945c"/>
  <path d="m186.24,81.15l4.23,28.9h-4.82l-.73-5.69h-4.52l-.73,5.69h-4.82l3.79-27-.29-1.75,7.88-.15Zm-5.25,18.39h3.36l-1.75-13.28-1.61,13.28Z" style="stroke-width:0px;fill:#bc945c"/>
  <polygon points="205.94 109.9 201.41 109.9 196.89 94.29 196.89 94.29 196.89 109.9 192.07 110.05 192.07 82.9 191.64 81.15 196.6 81.15 201.12 95.74 200.98 81.15 205.79 81.15 205.94 109.9" style="stroke-width:0px;fill:#bc945c"/>
  <path d="m222.14,85.24v20.73l-3.94,3.94h-9.92v-27.15l-.29-1.75h9.92l4.23,4.23Zm-4.82,1.17l-.58-.58h-3.65v19.27h3.65l.58-.58v-18.1Z" style="stroke-width:0px;fill:#bc945c"/>
  <polygon points="42.18 120.85 51.23 129.75 51.23 136.17 41.16 146.24 41.01 132.38 39.7 131.07 34.01 131.07 32.69 132.38 32.84 170.47 34.15 171.79 39.85 171.79 41.16 170.47 41.16 164.49 51.23 154.42 51.23 172.95 42.47 181.86 31.67 181.86 22.77 172.95 22.62 129.75 31.53 120.99 42.18 120.85" style="stroke-width:0px;fill:#bc945c"/>
  <path d="m77.79,120.85l9.05,60.86h-10.22l-1.61-11.97h-9.63l-1.46,11.97h-10.07l8.03-57.21-.58-3.79,16.49.15Zm-11.09,38.68h7.15l-3.5-27.88-3.65,27.88Z" style="stroke-width:0px;fill:#bc945c"/>
  <polygon points="117.2 120.7 108.59 181.71 97.35 181.71 91.66 174.12 84.21 120.85 94.29 120.85 100.85 170.91 107.13 120.7 117.2 120.7" style="stroke-width:0px;fill:#bc945c"/>
  <path d="m139.09,120.7l9.05,60.86h-10.22l-1.61-11.97h-9.63l-1.46,11.97h-10.07l8.03-57.21-.58-3.79,16.49.15Zm-11.09,38.68h7.15l-3.5-27.88-3.65,27.88Z" style="stroke-width:0px;fill:#bc945c"/>
  <polygon points="161.72 120.56 161.86 171.35 177.19 171.35 175.29 181.57 151.79 181.57 151.64 123.77 151.06 120.7 161.72 120.56" style="stroke-width:0px;fill:#bc945c"/>
  <polygon points="191.34 120.56 191.49 181.42 181.27 181.57 181.13 124.35 180.54 120.56 191.34 120.56" style="stroke-width:0px;fill:#bc945c"/>
  <polygon points="219.37 120.41 219.37 130.63 206.67 130.63 206.67 143.91 216.89 143.91 216.89 152.81 206.67 152.81 206.81 171.35 219.51 171.2 219.51 181.42 196.6 181.42 196.45 124.35 195.87 120.56 219.37 120.41" style="stroke-width:0px;fill:#bc945c"/>
  <path d="m244.91,120.41l8.9,8.76v15.18l-8.32,5.69,8.47,10.8v20.29h-10.07v-16.49l-6.28-9.34-2.63,1.75v24.08h-10.07l-.15-57.07-.58-3.79,20.73.15Zm-10.22,26.71l8.9-6.42v-8.9l-1.31-1.31h-7.59v16.64Z" style="stroke-width:0px;fill:#bc945c"/>
  <polygon points="277.89 139.38 277.89 131.8 276.58 130.48 270.3 130.48 268.99 131.8 268.99 139.38 288.11 154.56 288.11 172.37 279.35 181.27 267.97 181.27 259.07 172.37 258.92 154.71 269.14 160.99 269.14 169.89 270.45 171.2 276.73 171.06 278.04 169.89 278.04 159.67 258.92 144.49 258.92 129.17 267.82 120.41 279.21 120.26 288.11 129.17 288.11 145.66 277.89 139.38" style="stroke-width:0px;fill:#bc945c"/>
</svg>
