<?xml version="1.0" encoding="UTF-8"?>
<svg id="Layer" xmlns="http://www.w3.org/2000/svg" viewBox="0 0 420 523.91">
  <defs/>
  <path d="m404.37,224.99c2.41-5.97,11.56-28.58,11.56-28.58l-38.49,21.6c-.13.13-11.43,6.35-27.82,13.34,8.26-20.45,15.5-41.42,22.61-68.73,13.59-52.09,20.96-109.38,21.22-111.8l2.92-23.12s-72.54,20.07-79.53,22.11C291.05,18.55,251.29,0,209.62,0s-81.69,18.68-107.48,50.05c-7.24-2.03-80.04-22.36-80.04-22.36l3.05,23.25c.13.64,7.75,59.46,21.98,112.3,6.99,25.79,14.74,46.62,22.74,66.44-17.4-7.37-32.01-14.36-32.14-14.36L2.03,198.19s8.51,21.6,10.93,27.57c-.51-.13-12.96-4.95-12.96-4.95l11.94,32.27v-.13c.76,2.41,5.84,16.13,44.59,120.31l5.34,14.36s8.64-2.79,11.18-3.56c2.16,5.72,7.75,20.83,7.75,20.83l15.63-8c11.94-6.1,37.35-16.52,58.06-19.82,24.52,33.67,43.7,51.07,44.59,51.83l10.54,9.53,10.42-9.78c.89-.76,20.2-19.06,44.21-51.71,22.99,3.05,42.69,12.32,52.6,17.91l15.25,8.38,6.61-16.01s.76-1.91,1.65-4.07c1.27.38,8.64,2.92,8.64,2.92l5.59-14.36c1.14-2.79,25.79-60.6,49.55-116.37l15.88-37.22c-.13.13-15.5,6.86-15.63,6.86Z" style="stroke-width:0px;fill:#fff"/>
  <path d="m380.62,223.59c-.25.13-18.42,10.29-42.56,19.44,10.93-25.92,19.44-49.04,28.08-82.07h0c13.59-52.09,20.96-110.4,21.09-111.03l1.65-13.59-13.21,3.68s-162.49,45.1-167.31,46.37c-4.7-1.27-178.75-50.05-178.75-50.05l1.78,13.72c.13.64,7.62,58.82,21.85,111.54,8.64,31.89,18.55,56.41,28.33,79.78-23.25-9.15-46.37-20.2-46.75-20.33l-20.96-10.04,8.64,21.72c20.71,52.09,31.13,80.67,44.46,116.88l17.15,46.5,9.15-4.7c13.72-6.99,42.05-18.29,63.9-20.96,25.15,35.19,45.1,53.23,45.86,53.99l6.23,5.59,6.1-5.72c.89-.89,21.09-19.95,45.74-53.87,25.54,2.67,47.39,12.96,58.57,19.18l8.89,4.95,3.94-9.4c10.16-24.52,60.34-148.77,60.85-150.04l9.78-24.01-22.49,12.45Z" style="stroke-width:0px;fill:#061922"/>
  <path d="m398.91,229.56c-.38.13-40.65,17.28-73.56,25.54,12.83-29.6,24.01-56.28,34.3-95.79h0c13.47-51.71,20.83-109.64,20.96-110.15l.51-3.94-3.94,1.02s-167.57,46.5-168.97,46.88c-1.4-.38-171.13-47.89-171.13-47.89l.51,4.07c.13.64,7.62,58.44,21.72,110.65,9.27,34.17,20.07,60.09,30.62,85.12,0,0,1.91,4.45,3.43,8.26-28.46-7.24-66.95-20.71-67.46-20.83l-5.46-1.91,2.03,5.34c16.9,44.97,25.54,69.11,34.68,94.65l18.55,51.45,2.41-.76c26.3-8.13,60.22-14.61,81.43-17.4,24.52,35.44,47.26,55.39,47.51,55.64l1.78,1.52,1.78-1.65c.25-.25,21.98-19.95,47.13-55.26,21.85,1.4,62.5,10.67,78,16.77l2.41,1.02,1.02-2.41c10.16-24.52,62.5-145.08,63.01-146.35l2.67-6.23-5.97,2.67Z" style="stroke-width:0px;fill:#fff"/>
  <path d="m316.21,262.72l2.16-4.83c14.23-32.78,25.41-58.57,36.21-99.85h0c11.43-43.58,18.29-91.47,20.2-105.44-7.5,2.03-165.79,45.99-165.79,45.99l-.76.25S51.07,54.88,43.58,52.72c1.91,13.97,9.15,62,20.96,105.95,9.15,33.92,19.95,59.58,30.36,84.36l7.5,18.04,59.84,97.19.89,1.4c20.58,30.11,40.02,48.91,45.74,54.37,5.59-5.46,24.26-24.14,45.48-53.99l.89-1.27,60.98-96.04Z" style="stroke-width:0px;fill:#bbc4ca"/>
  <path d="m95.28,203.9c-1.65-2.29-8.51-13.34-8.51-31.76h0v-1.65h0c-4.7-12.83-7.37-26.55-7.37-40.91h0c0-34.05,14.61-64.92,38.11-87.4h0c23.63-22.36,56.15-36.21,91.98-36.21h0c35.83,0,68.48,13.85,91.98,36.21h0c23.63,22.36,38.11,53.23,38.11,87.4h0c0,12.58-2.03,24.77-5.72,36.33h0c0,23.38-6.86,45.1-18.8,63.52h0c-.13.13-.76.76-2.41,1.65h0s-.13,0-.13.13h0c-.13.13-.25.25-.25.64h0s-.25,1.4-.64,2.54h0l.25-.13-.51.76c-22.23,30.49-58.69,50.31-99.98,50.31h0c-53.99,0-99.85-34.05-116.12-81.43h0Z" style="stroke-width:0px;fill:#061922"/>
  <path d="m385.44,240.36c-.76.38-82.96,35.83-177.1,35.32h0c-82.83-.38-176.72-35.83-177.73-36.21l-19.82-7.62,7.11,19.06q.13.51,44.59,120.31l3.18,8.64,8.77-2.79c19.56-6.23,71.78-20.71,133.65-20.71,57.55,0,107.86,11.81,128.44,18.93l8.77,2.92,3.43-8.64c1.27-3.18,30.36-71.4,49.55-116.62l9.53-22.36-22.36,9.78Z" style="fill:#0064b1;stroke-width:0px"/>
  <g>
    <path d="m386.33,251.92l-8.38,3.05s-18.55,6.73-18.68,6.86c-.89.25-7.62,2.41-12.83,6.86-1.78,1.52-3.68,3.68-5.34,5.97.38-.89.51-1.52.51-1.52l2.54-6.86-7.11,1.91-16.9,4.45h0c-1.65.38-13.09,2.79-16.52,3.56l-3.94.64-19.69,3.3c-.89.13-8.51,1.52-12.45,5.46-.89.89-1.65,1.91-2.29,2.92l1.14-6.61-4.95.51-16.01,1.52-.51,4.19c-.38-.51-.89-1.02-1.4-1.4-3.05-2.29-8-2.29-9.53-2.16l-23.38.64h0l-18.93-.13c-.76,0-6.73.25-10.8,4.19-.64.64-1.14,1.27-1.65,2.03-.13-2.29-.13-3.56-.13-3.56l-.13-3.43s-19.06-1.78-19.82-1.78h0l-23.12-2.92,1.02,5.21.25,1.4c-5.21-6.1-13.47-8.26-13.85-8.38-.13,0-23.76-5.34-23.76-5.34l1.52,6.1,1.14,4.57c-.64-1.27-1.4-2.41-2.16-3.3-3.43-4.45-6.35-7.75-13.09-10.16-5.84-2.16-17.66-4.95-18.17-5.08l-6.73-1.52h0c-6.1-2.67-19.56-6.99-24.01-8.51l-7.5-2.41,2.79,7.5,39.13,105.7s15.37-4.19,16.13-4.45h0s16.01-3.81,17.28-4.07c.76-.13,16.9-3.05,16.9-3.05v-.13c4.45-.64,13.47-2.03,14.36-2.16.76-.13,8.51-1.27,12.83-1.78h0l16.26-1.65c1.78-.13,6.99-.64,9.78-2.92,1.02-.89,1.91-1.78,2.54-2.67l.25,4.45,19.18-.64h.13c.64,0,5.84-.64,9.15-3.94.38-.38.76-.76,1.14-1.27l-.13,4.95s14.74.38,15.37.38h0l17.53.51h0l12.58,1.02,16.01,1.78c.64.13,6.23.51,11.43-2.29.51-.25.89-.51,1.27-.89l-1.27,4.57,16.39,2.79v-.13c.51.13,11.81,2.16,14.48,2.67l1.78.51c.38.13,8.26,2.16,14.61,1.4,7.5-.89,15.25-6.99,18.68-14.86l16.26-37.6h-.13c0-1.02,22.87-53.99,22.87-53.99Z" style="stroke-width:0px;fill:#fff"/>
    <g>
      <polygon points="241.89 342.76 252.05 343.52 261.71 286.23 248.87 287.5 241.89 342.76" style="stroke-width:0px;fill:#061922"/>
      <path d="m284.07,290.54l-4.83,20.45,12.7-.38,8.38-29.98-19.56,3.3s-7.11,1.14-10.42,4.45c-4.45,4.45-5.59,12.7-5.59,12.7l-7.75,42.81,12.7,1.27s5.08.64,9.27-1.52c3.05-1.52,4.95-4.83,5.97-7.88,1.02-3.05,3.94-15.25,3.94-15.25h-12.07l-2.54,12.2s-.38,2.41-2.16,4.83-5.21,2.16-5.21,2.16l8.38-38.37s1.4-5.21,3.18-7.88c2.41-3.05,5.59-2.92,5.59-2.92Z" style="stroke-width:0px;fill:#061922"/>
      <path d="m305.92,312.01l10.93-34.68-11.18,2.41-19.56,67.71,8.77,1.4,9.15-28.97,2.67-.13s1.65.64,1.65,2.29-.76,3.56-.76,3.56l-7.75,24.01,10.29,1.91,8.51-24.9s1.27-4.19,1.02-6.1c-.51-3.43-2.16-5.46-2.16-5.46,0,0,2.16,0,4.95-2.79,2.79-2.79,2.79-4.83,3.56-6.86.76-2.03,12.07-33.41,12.07-33.41l-14.74,3.68-8.64,27.95s-.64,2.79-2.03,4.95c-1.4,2.03-2.41,2.79-3.18,2.92-1.91.51-3.56.51-3.56.51Z" style="stroke-width:0px;fill:#061922"/>
      <path d="m356.99,277.84l-9.53,25.66,13.09-.64,18.68-44.21-18.68,6.86s-6.61,2.03-11.69,6.1c-3.94,3.3-8.51,10.93-9.53,13.34s-5.34,11.94-5.97,15.12c-.76,3.05-7.11,20.2-7.11,20.2h14.86l-6.35,16.77s-.76,3.81-3.18,6.86-5.97,3.43-5.97,3.43l8.51-21.6h-9.15l-9.91,26.93s7.5,2.16,13.09,1.52c5.72-.64,12.45-5.46,15.63-12.58,3.18-7.24,13.72-31.89,13.72-31.89l-17.66.89,5.46-15.75s3.68-9.02,6.35-12.2c1.27-2.16,5.34-4.83,5.34-4.83Z" style="stroke-width:0px;fill:#061922"/>
      <path d="m36.97,257.89l37.86,102.4,11.18-3.18-28.08-82.83s4.19.38,7.75,6.86c3.56,6.48,5.34,11.31,6.35,15.37,1.02,4.07,18.93,59.46,18.93,59.46l11.43-2.67-21.85-72.79s2.79,0,5.59,4.83c2.79,4.83,3.94,8.89,3.94,8.89l16.77,58.19,10.93-2.16-13.97-53.99s-3.18-9.53-6.73-14.48c-2.79-3.81-5.97-6.86-11.18-8.64-5.59-1.91-17.79-5.08-17.79-5.08l1.78,5.46s-4.07-4.57-7.75-6.61c-3.3-1.65-25.15-9.02-25.15-9.02Z" style="stroke-width:0px;fill:#061922"/>
      <path d="m138.6,346.82l9.53-1.27-8.13-42.56s-1.91-9.53-4.32-13.21c-4.19-6.61-13.21-8.89-13.21-8.89l-17.53-3.56,18.17,72.03,10.8-1.78-6.73-26.93,6.23.13,5.21,26.04Zm-12.7-32.78l-6.1-26.55s3.56.76,5.72,2.79,2.79,7.75,2.79,7.75l3.18,15.88h-5.59v.13Z" style="stroke-width:0px;fill:#061922"/>
      <path d="m140.89,283.81l12.07,61.23,12.96-1.4s5.97-.25,7.62-1.52c3.56-2.79,3.56-6.86,3.56-6.86l-1.52-47.51-12.45-1.27,4.57,44.97s.25,4.07-1.78,6.23c-1.65,1.78-3.56,1.4-3.56,1.4l-6.48-53.36-14.99-1.91Z" style="stroke-width:0px;fill:#061922"/>
      <path d="m182.43,342.5l15.25-.64s4.45-.38,6.86-2.79c2.41-2.41,2.92-6.73,2.92-6.73l.25-8.64-10.29.13.13,8.51s.13,2.79-1.14,4.19c-1.02,1.02-4.57.89-4.57.89v-17.15h15.88l.38-5.21-16.52.13v-15.12s-.13-2.16,1.4-3.3c1.65-1.27,4.45-.89,4.45-.89v15.63h10.93l1.4-22.36-18.29-.38s-4.95.13-8.13,3.05c-3.56,3.43-3.18,11.31-3.18,11.31l2.29,39.38Z" style="stroke-width:0px;fill:#061922"/>
      <path d="m241,290.42c-2.03-2.03-6.99-1.78-6.99-1.78l-19.82.51-2.03,52.72,10.04.25,1.27-21.72s3.18-1.02,4.7,1.14c1.02,1.52.89,3.18.89,3.18l-1.27,17.4,9.78.51,1.78-17.53s.51-3.05-.51-5.34c-.89-2.03-3.05-2.54-3.05-2.54,0,0,1.4,0,3.56-2.41s2.16-5.84,2.16-5.84l1.27-12.07c-.13-.13.51-4.19-1.78-6.48Zm-10.16,6.48l-.76,13.47s0,1.78-.76,2.79c-.76,1.02-1.65,1.14-1.65,1.14l-3.68-.13,1.14-19.95,2.67-.13s1.52-.13,2.29.51c.89.64.76,2.29.76,2.29Z" style="stroke-width:0px;fill:#061922"/>
    </g>
  </g>
  <g>
    <path d="m232.49,365.63l12.45-3.05-12.7-1.14c-.51,0-12.32-1.14-18.17-1.14-.76-2.29-5.72-17.53-5.72-17.53l-2.16,5.84c-.13.38-2.79,7.62-4.19,11.81-6.86,0-15.88.89-16.39.89l-13.34,1.4,13.09,2.79c3.94.89,12.07,3.68,12.83,7.11-1.02,4.07-3.81,11.18-3.81,11.31l-2.54,6.61s14.23-10.04,16.26-11.43c2.03,1.4,15.88,11.18,15.88,11.18,0,0-5.72-16.52-6.23-17.79,1.27-2.29,8.38-5.34,14.74-6.86Z" style="stroke-width:0px;fill:#061922"/>
    <path d="m214.32,372.11c.89-3.56,6.73-6.23,11.56-7.75-4.7-.38-10.67-.89-13.59-.89h-.76s-2.29-6.73-3.56-10.29c-1.14,3.05-2.67,7.62-3.3,9.66l-.25.76h-.76c-3.3,0-7.88.25-11.43.51,4.19,1.65,9.02,4.32,9.53,8.38v.51c-.51,2.41-1.78,6.1-2.79,8.77,3.3-2.29,9.27-6.48,9.27-6.48,0,0,6.23,4.32,9.4,6.61-1.27-3.56-3.3-9.4-3.3-9.4v-.38Z" style="stroke-width:0px;fill:#fff"/>
  </g>
  <g>
    <path d="m86.13,129.71c0-64.41,55.39-116.88,123.48-116.88s123.48,52.47,123.48,116.88-55.39,116.88-123.48,116.88c-68.09-.13-123.48-52.47-123.48-116.88Z" style="stroke-width:0px;fill:#fff"/>
    <g>
      <path d="m134.54,51.32l.25-.25c1.52-1.27,2.79-1.52,3.81-.25.89,1.14.13,2.41-1.14,3.56l-.25.25-2.67-3.3Zm.51,9.02l5.21-4.19c3.3-2.67,4.45-6.23,2.54-8.64-2.41-3.05-6.35-1.91-10.16,1.14l-4.19,3.43,6.61,8.26Z" style="stroke-width:0px;fill:#061922"/>
      <path d="m165.66,36.59l-.38-3.43.13-.13c.25.38.51.76.89,1.14l1.27,1.52-1.91.89Zm0,2.67l3.68-1.52,1.02,1.02,5.21-2.16-8.89-7.88-5.46,2.29-.64,11.81,5.21-2.16-.13-1.4Z" style="stroke-width:0px;fill:#061922"/>
      <path d="m191.45,22.23l5.34-.64.76,7.24,4.45-.51.38,3.43-9.78,1.14-1.14-10.67Z" style="stroke-width:0px;fill:#061922"/>
      <path d="m221.81,21.6l5.34.76-1.02,7.11,4.45.64-.51,3.43-9.66-1.4,1.4-10.54Z" style="stroke-width:0px;fill:#061922"/>
      <path d="m254.08,37.1l2.16-2.54.13.13c-.13.51-.13.89-.25,1.4l-.13,2.03-1.91-1.02Zm-1.91,1.91l3.68,1.65-.13,1.4,5.21,2.29-.51-11.94-5.46-2.41-8.89,7.75,5.21,2.29.89-1.02Z" style="stroke-width:0px;fill:#061922"/>
      <path d="m278.73,51.32l.13.25c.38,1.02,1.02,2.03,1.91,2.92.38.38,1.14.76,1.4.38.25-.38-.25-.89-.51-1.27l-.64-.76c-1.4-1.52-2.16-3.3-1.14-4.57,1.65-1.91,4.95-1.02,7.37,1.02,1.27,1.02,2.29,2.29,3.05,3.68l-2.92,1.14c-.38-.89-1.02-1.91-1.91-2.54-.38-.25-1.02-.64-1.27-.25-.25.25.25.76.51,1.14l.76.89c1.52,1.78,2.16,3.43,1.02,4.83-1.65,1.91-4.95.89-7.37-1.14-1.4-1.14-2.79-2.79-3.68-4.32l3.3-1.4Z" style="stroke-width:0px;fill:#061922"/>
    </g>
  </g>
  <path d="m313.03,99.85c-.76-.76-2.41-1.78-2.41-1.78-.64-.25-.76-.76-.76-.76-.38-2.03-.76-2.79-.76-2.79-10.67-13.72-24.26-25.15-39.89-33.28-2.79-1.27-5.34-1.4-5.34-1.4-.51,0-.89-.38-.89-.38-.89-1.27-3.68-2.67-4.7-3.18-14.48-5.84-30.24-9.15-46.88-9.15-5.08,0-10.04.25-14.86.89l6.48-8.64c-25.66-.76-44.08,19.31-44.08,19.31h0c-6.23,2.92-12.07,6.23-17.53,10.04h0c-13.34,4.83-17.28,15.63-17.28,15.63-3.43,2.79-10.04,11.81-10.04,11.81-1.91,1.14-3.94,2.92-4.57,3.56-3.05,3.18-8.77,10.42-11.69,22.87-.13.25-.13.38-.25.64-.13.64-.25,1.52-.38,2.29-.25,1.52-.51,3.05-.76,4.57l.13-.13c0,.38-.13.51-.13.51-.38.25-2.29,7.88-2.29,7.88-.38,1.02-3.81,11.43-3.81,11.43h0v.13c-9.15,32.14,3.05,51.58,5.08,54.63,16.26,47.26,62,81.31,115.99,81.31,41.16,0,77.62-19.82,99.73-50.18h0c.64-1.02.89-3.05.89-3.05,0-.64.51-1.02.51-1.02,1.65-.89,2.29-1.52,2.41-1.65,11.81-18.29,18.68-40.02,18.68-63.39.13-25.03-7.5-47.77-20.58-66.7Z" style="stroke-width:0px;fill:#061922"/>
  <path d="m160.07,76.48l.89-.89c.38-.38.51-.51.64-.51l.13-.13c.13-6.1,1.52-11.05,1.52-11.05,11.18-15.5,29.47-19.69,29.47-19.69,2.29-.64.76.38.76.38-11.56,12.96-10.29,23.63-10.29,23.63l11.05,40.27s-8.89-3.18-15.88-17.28c-3.18,28.2,23.38,51.07,23.38,51.07,1.14,1.02-.64-.13-.64-.13-6.61-3.3-14.36-10.29-16.39-12.32.51,2.16,13.47,67.21,13.59,67.46,0,.25.25.89.38,1.4l4.45-11.18,3.68,32.9c-16.9,15.63-34.81,9.53-35.95,9.02.51.76.76,1.27.76,1.27,0,0,14.61,28.58,73.94,25.54,0,0,1.4,0,1.27.13,0,0,0,.13-.38.25-1.14.38-2.92.64-2.92.64-71.65,19.18-108.87-41.92-110.4-44.72-.51-.64-3.94-5.46-5.84-10.42-.13-.13-.13-.64.13-.25,0,0,7.62,7.88,29.09,9.91h.25c-16.64-18.55-23.76-32.01-24.77-34.05h0s-2.03-3.05-4.32-11.56c0,0,0-.38.25,0,.76,1.65,6.35,9.78,12.96,11.69h0c-5.72-9.15-9.27-23.63-9.66-25.79,7.75,10.8,21.47,11.69,21.47,11.69,0,0,0-.13-.13-.13v.13c-22.61-22.49-17.66-47.01-8.51-64.79,5.59-10.54,12.45-18.55,16.01-22.49Z" style="stroke-width:0px;fill:#fff"/>
  <g>
    <path d="m227.66,225.63l-14.86,15.63h0l18.29-13.97-9.4-32.65,4.19-39.26-7.24,37.48,9.02,32.78h0Z" style="stroke-width:0px;fill:#bbc4ca"/>
    <path d="m223.97,146.23c.25-.13.64-.25.89-.51h0c1.14-.64,2.54-1.65,4.07-3.18h0c2.92-3.05,5.84-8,5.84-15.88h0c0-3.56-.64-7.62-2.03-12.32h0c-.25,5.46-1.78,25.79-8.77,31.89h0Z" style="stroke-width:0px;fill:#bbc4ca"/>
    <path d="m230.83,79.4c5.21-7.75,13.59-8.51,17.28-8.51h0c-3.05-.89-5.97-1.27-8.51-1.27h0c-3.68,0-6.61.64-8.77,1.4h0c-1.52.51-2.54,1.02-3.05,1.14h0c1.27,1.91,2.54,5.84,3.05,7.24h0Z" style="stroke-width:0px;fill:#bbc4ca"/>
    <path d="m224.23,95.79c.13,0,.25.13.25.25h0v2.16h0c0,16.9-4.45,35.32-6.23,41.54h0c6.48-14.74,8.13-28.46,8.13-39h0c0-6.23-.64-11.31-1.14-14.86h0c-.25-1.78-.64-3.3-.89-4.19h0c-1.65,12.58-6.48,18.42-6.48,18.42h0c0,.13-.13.13-.25.13h0q-.13,0-.25-.13h0c-5.21-9.78-12.2-16.9-17.79-21.72h0c-4.32-3.68-7.75-5.84-9.15-6.73h0c14.99,32.65,19.44,57.93,20.58,66.19h0v-2.92h0c0-9.91-1.65-21.22-3.43-30.11h0c-1.65-8.89-3.43-15.12-3.43-15.12h0c0-.13,0-.25.13-.25h0c.13-.13.25,0,.25,0h0c6.73,5.21,11.56,20.2,12.32,22.99h0c1.27-1.52,2.92-5.46,4.32-9.02h0c1.4-3.94,2.54-7.5,2.54-7.5h0c.38,0,.38-.13.51-.13h0Zm-6.35,4.32l.25-.13-.25.13h0Z" style="stroke-width:0px;fill:#bbc4ca"/>
    <path d="m97.7,163.76c0,15.5,2.67,31.76,16.13,52.6h0c12.58,26.68,35.95,40.91,46.75,46.5h0c3.56,1.78,5.84,2.67,5.84,2.67h0c17.28,8.13,33.54,11.18,48.02,11.18h0c30.49,0,53.61-13.09,63.14-19.69h0c3.18-2.16,4.95-3.68,4.95-3.68h0l.13.25-.13-.25c.64-.51,1.14-.89,1.52-1.27h0c-.13.13-.38.25-.64.38h0c-.64.38-1.27.76-1.27.89h0c-23.63,13.85-45.48,18.17-63.27,18.17h0c-27.82,0-45.99-10.42-45.99-10.42h0c-59.2-31-59.96-84.74-59.96-84.86h0c0-.13.13-.25.25-.25h0c.13,0,.25,0,.25.13h0c7.62,14.74,16.9,19.82,20.96,21.47h0c.64.25,1.02.38,1.4.51h0c-17.15-21.72-22.11-39.89-22.11-53.61h0c0-18.17,8.64-28.58,8.64-28.58h0c.13-.13.25-.13.25-.13h0c.13,0,.13.13.13.25h0c-1.27,6.48-1.65,12.07-1.65,17.02h0c0,8,1.27,13.97,2.54,17.91h0c.64,2.16,1.4,3.68,1.78,4.7h0c-.51-4.32-.76-8.64-.76-12.7h0c0-40.53,23.76-65.55,28.84-70.38h0c-3.81,1.52-8.26,5.59-12.07,9.4h0c-4.07,4.19-7.24,8.13-7.24,8.13h0q-.13.13-.25.13h0c-.13,0-.13-.13-.13-.25h0c0-3.18,1.91-7.24,2.92-9.27h0c-3.05,2.79-5.59,7.11-7.37,10.93h0c-2.03,4.19-3.05,7.75-3.05,7.75h0v.13c-6.23,7.11-10.42,14.48-12.96,20.2h0c-2.54,5.59-3.56,9.53-3.56,9.53h0c-.25.89-.38,1.27-.51,1.52h0s0,.13-.25.25h0c-.38-.13-.25-.25-.25-.38h0v-.38h0c0-.51.13-1.14.13-1.14h0c.13-7.62,3.3-16.26,4.57-19.44h0c-9.02,9.66-11.18,22.87-11.18,33.28h0c0,9.91,1.91,17.53,2.03,17.53h0c0,6.23,1.27,13.85,2.41,19.95h0c1.14,6.1,2.41,10.67,2.41,10.67h0c.38,1.14.51,1.78.51,2.03h0v.13h0c0,.13-.13.13-.25.13h0c-.38-.13-.25-.25-.51-.38h0c-.13-.13-.25-.38-.38-.64h0c-.25-.38-.51-.89-.51-.89h0c-6.35-9.66-9.4-25.66-10.04-29.6h0c-.25.51-.25,1.14-.25,1.91h0Z" style="stroke-width:0px;fill:#bbc4ca"/>
  </g>
  <g>
    <path d="m297.28,95.28s-28.84-38.75-82.96-38.75h-1.4c-.25,0-.51.13-.64.51,0,.38.25.51.64.64,0,0,7.5,5.72,12.2,11.56l.13.13.13-.13s1.27-.64,3.56-1.27,5.46-1.27,9.27-1.27c5.08,0,11.05,1.02,17.4,4.57-2.67,1.27-16.26,8.13-19.06,15.88v.13l.13.13s13.72,12.45,41.8,12.45c4.45,0,9.27-.25,14.61-1.02,0,0,1.14-.13,2.41-.51,1.14-.38,2.54-.89,2.54-2.16-.25-.13-.38-.51-.76-.89Z" style="fill:#0064b1;stroke-width:0px"/>
    <path d="m238.97,149.53c-.13-.13-.25-.13-.38,0s-.13.25,0,.38c0,0,.38.38.89,1.02,1.52,2.16,4.7,7.62,4.7,16.77,0,6.48-1.52,14.86-6.35,25.28,0-1.78-.25-5.34-1.02-9.15-1.02-5.21-2.92-10.93-7.11-12.2h-.25l-.13.13-2.54,22.87v.13l9.27,34.17-18.17,14.61c-.13,0-.13.13-.13.25s.13.13.13.25c0,0,7.11,2.29,19.06,2.29,6.35,0,14.1-.64,22.99-2.54,0,0,2.16-.51,2.92-2.67,0,0,2.03-9.4,2.03-22.74.13-19.69-4.32-48.4-25.92-68.86Z" style="fill:#0064b1;stroke-width:0px"/>
    <path d="m268.82,241.76c-.38-.25-.51-.76-.51-1.4h0c0-.25,0-.64.13-1.02h0s.76-2.67,1.4-7.37h0c.76-4.7,1.4-11.31,1.4-19.06h0c0-20.58-4.95-49.42-27.95-71.78h0s-.13-.13-.38-.25h0c-.13-.13-.38-.25-.38-.64h0c0-.13.13-.25.25-.25h.25c.25,0,.51,0,1.02.13h0s6.1,1.91,10.42,6.73h0c-.13-1.14-.51-3.3-1.27-6.1h0c-1.14-4.07-3.3-9.15-7.11-13.59h0l-.51-.51h0c-.25-.38-.51-.51-.51-.89h0s0-.13.13-.25h0q.13-.13.25-.13h0c.25,0,.51.25,1.14.64h0c1.4.64,59.07,28.58,61.11,84.99h0v.89h0c0,1.4-.25,4.07-2.03,5.72h0c-.51.76-14.23,17.66-34.3,24.26h0s-.64.25-1.27.25h0c-.51,0-.89-.13-1.27-.38h0Zm-25.79-101.51h0Z" style="fill:#0064b1;stroke-width:0px"/>
    <path d="m312.01,200.34c-1.14-46.5-44.97-78.26-66.82-91.22h0c-7.24-4.32-12.07-6.48-12.07-6.61h0l-1.02-.51h1.27c7.75,0,12.58,4.7,13.97,6.35h0c0-2.79-1.14-5.97-1.14-5.97h0l-.25-.51.51.25c6.23,2.41,14.23,3.18,22.11,3.18h0c7.62,0,15.12-.76,20.58-1.52h0c5.59-.76,9.15-1.52,9.27-1.52h.76c3.18,0,4.19,1.78,4.32,2.03h0c7.5,8.26,16.64,27.57,18.17,50.56h0c.25,2.92.25,5.72.25,8.38h0c0,17.4-3.56,30.74-6.35,36.33h0c-1.02,1.91-1.65,2.92-2.54,3.05h0c-.76,0-.89-.76-1.02-2.29h0" style="fill:#0064b1;stroke-width:0px"/>
  </g>
  <path d="m185.61,50.05l.13-.13h0c-.64.13-12.45,3.68-16.01,21.72,0,0,0,.38.13,0,1.02-1.78,4.83-7.37,8.13-5.72v-.38c.38-1.52,1.4-7.75,7.62-15.5Z" style="stroke-width:0px;fill:#061922"/>
  <path d="m176.59,213.3c-2.54-5.21-19.06-41.03-19.06-41.03-5.08,1.65-11.43-2.54-11.43-2.54h0c8.13,21.47,27.19,40.27,30.24,43.7h0c.51.51.51.38.51.38,0-.13-.13-.25-.25-.51Z" style="stroke-width:0px;fill:#061922"/>
  <path d="m160.33,96.3c-14.86,33.92,18.55,47.89,19.06,48.15h0l-1.78-7.88-1.02-4.45c-.89-.25-1.65-.64-2.41-.89-.25-.13-.51-.25-.76-.38-.25-.13-.64-.25-.89-.51-14.61-7.75-13.21-26.3-12.32-32.4v-.13c0-.13,0-.38.13-.51.13-.51.13-1.02.25-1.14v-.13h0c0-.38-.25.13-.25.25Z" style="stroke-width:0px;fill:#061922"/>
  <path d="m182.3,191.83l-2.41-42.69,14.36,47.51c0,.13-4.7-11.18-11.94-4.83Z" style="stroke-width:0px;fill:#bbc4ca"/>
  <path d="m194.12,108.49l-11.05-40.27v.89l3.18,25.54s.13.38.13.89c0,1.4-.89,3.3-7.62-3.81-.38-.38-.51-.51-.51-.51,6.99,14.23,15.88,17.28,15.88,17.28Z" style="stroke-width:0px;fill:#bbc4ca"/>
  <path d="m167.95,115.74c-.89-2.16-1.27-4.07-1.27-5.72,0-6.23,4.57-9.66,4.57-9.66l.13-.13c0,.13-.25-3.94.13-10.29-3.68,5.34-11.43,18.17-2.16,28.2-.13-.25-.25-.38-.38-.64-.51-.64-.76-1.27-1.02-1.78Z" style="stroke-width:0px;fill:#bbc4ca"/>
  <path d="m177.6,120.94c-1.52-2.79-5.59-11.56-6.23-20.58v-.13l-.13.13s-4.57,3.56-4.57,9.66c0,1.65.38,3.68,1.27,5.72.25.51.64,1.02,1.02,1.78.13.13.25.38.38.64s.38.38.64.64c1.52,1.65,4.19,3.43,8.51,3.68,0,0-.38-.51-.89-1.52Z" style="stroke-width:0px;fill:#061922"/>
  <g>
    <path d="m190.94,197.3s-6.99-1.78-6.61,12.83h0c0-.38.13-.76.38-1.27,2.16-4.83,4.07-6.73,5.84-6.86,1.52,0,2.67,1.4,3.56,3.3s1.65,4.45,2.29,6.86c.51,2.03.89,4.07,1.14,5.72.13,1.02.25,2.29.25,3.94v.13h0c.25-1.52,3.43-21.85-6.86-24.65Z" style="stroke-width:0px;fill:#bbc4ca"/>
    <path d="m197.8,222.07v-.13c-.13-1.65-.13-2.92-.25-3.94-.25-1.65-.64-3.68-1.14-5.72-.64-2.54-1.27-4.95-2.29-6.86-.89-1.91-2.03-3.18-3.56-3.3-1.78,0-3.68,2.03-5.84,6.86-.13.38-.25.89-.38,1.27h0l3.56,7.62s2.03-20.58,9.91,4.19h0Z" style="stroke-width:0px;fill:#061922"/>
  </g>
</svg>
