<?xml version="1.0" encoding="UTF-8"?>
<svg id="Layer" xmlns="http://www.w3.org/2000/svg" viewBox="0 0 420 514.7">
  <defs/>
  <path d="m210,420C94.18,420,0,325.82,0,210S94.18,0,210,0s210,94.18,210,210-94.18,210-210,210" style="stroke-width:0px;fill:#ffc627"/>
  <path d="m210,10.82c109.92,0,199.32,89.26,199.32,199.18s-89.4,199.18-199.32,199.18S10.82,319.78,10.82,210,100.22,10.82,210,10.82" style="stroke-width:0px;fill:#8b2332"/>
  <path d="m399.06,210.56c0,104.72-84.9,189.62-189.62,189.62S19.96,315.28,19.96,210.56,104.72,20.94,209.44,20.94s189.62,84.9,189.62,189.62" style="stroke-width:0px;fill:#0d2240"/>
  <path d="m209.44,350.14c76.04,0,137.75-61.85,137.75-137.89s-61.85-137.75-137.75-137.75-137.75,61.99-137.75,137.75c-.14,76.04,61.71,137.89,137.75,137.89" style="stroke-width:0px;fill:#8b2332"/>
  <path d="m80.68,212.25c0-70.98,57.63-128.61,128.61-128.61s128.61,57.63,128.61,128.61-57.63,128.61-128.61,128.61-128.61-57.63-128.61-128.61" style="stroke-width:0px;fill:#0d2240"/>
  <path d="m322.59,241.2c.14-22.07-11.81-52.29-22.35-72.39l-15.6,8.71-1.55-2.53h0l-3.94,2.53-155.18,97.55v.14l-7.17,8.57-.14-.28c-2.25-.42-5.06-2.67-7.31-6.47-2.39-3.51-3.23-7.31-2.67-9.14l-.14-.28,10.68-2.81.14.14,79.84-52.01-53.84-33.88h0l-6.75-4.22h0l-1.69,2.53-15.6-8.71c-10.68,20.24-22.35,50.46-22.35,72.39-8.15-25.58.28-60.44,11.81-82.93l.14-.14-2.81-1.69,9.28-14.34,2.67,1.97c15.6-19.82,43.43-41.89,70-45.26-19.96,9.14-42.45,32.33-56.37,50.46l14.48,10.54-1.83,2.53h0l3.65,2.53,61.43,39.92,60.58-39.36,4.64-2.95h0l-1.83-2.53,14.48-10.54c-13.78-17.85-36.27-41.33-56.22-50.46,26.57,3.37,54.4,25.44,70.14,45.26l2.53-1.97,9.28,14.34-2.81,1.69c12.09,22.91,20.52,57.77,12.37,83.07m-20.1,23.76h0l-73.65-47.65-12.79,7.59,79.84,50.32-.14.14,7.17,8.57.28-.28c2.25-.42,5.06-2.67,7.31-6.47,2.25-3.51,3.23-7.31,2.67-9.14l.14-.28-10.82-2.81Z" style="stroke-width:0px;fill:#ffc627"/>
  <polygon points="222.51 111.75 217.03 119.06 209.3 100.92 209.3 185.12 235.02 152.23 260.88 158.98 222.51 111.75" style="stroke-width:0px;fill:#ffc627"/>
  <polygon points="222.51 131.71 222.51 111.89 217.03 119.06 222.51 131.71" style="fill:#fff;stroke-width:0px"/>
  <polygon points="209.3 100.92 162.77 157.57 183.29 152.37 209.3 185.12 209.3 100.92" style="fill:#fff;stroke-width:0px"/>
  <path d="m180.76,315.14c6.75-6.47,15.32-10.4,24.6-11.39v-12.93h-35.56c.84,9.56,4.78,17.85,10.96,24.32" style="stroke-width:0px;fill:#ffc627"/>
  <path d="m205.36,327.09v-15.32c-7.03.84-13.21,3.65-18.55,8.43,5.48,3.8,11.95,6.04,18.55,6.89" style="stroke-width:0px;fill:#ffc627"/>
  <path d="m213.37,247.95v15.18c6.89-.84,13.35-3.65,18.41-8.43-5.34-3.65-11.67-6.04-18.41-6.75" style="fill:#fff;stroke-width:0px"/>
  <path d="m237.97,260.04c-6.75,6.47-15.32,10.4-24.6,11.24v11.81h35.56c-1.12-9-5.2-17.15-10.96-23.05" style="fill:#fff;stroke-width:0px"/>
  <path d="m205.36,263.13v-15.18c-6.89.7-13.07,3.09-18.41,6.89,5.2,4.64,11.67,7.45,18.41,8.29" style="fill:#fff;stroke-width:0px"/>
  <path d="m213.37,290.82v12.79c9.28.84,17.85,4.78,24.6,11.39,6.18-6.47,10.26-14.76,11.1-24.18h-35.7Z" style="stroke-width:0px;fill:#ffc627"/>
  <path d="m169.94,282.95h35.56v-11.81c-9.28-.84-17.71-4.92-24.6-11.24-6.04,6.04-9.98,14.2-10.96,23.05" style="fill:#fff;stroke-width:0px"/>
  <path d="m213.37,327.09c6.89-.7,13.07-3.09,18.41-6.75-5.2-4.78-11.67-7.59-18.41-8.43v15.18Z" style="stroke-width:0px;fill:#ffc627"/>
  <polygon points="362.37 193.41 367.43 201.99 354.92 213.65 371.08 207.61 376.14 216.33 376.99 206.49 387.67 205.92 378.96 200.58 389.78 183.43 371.93 197.91 362.37 193.41" style="stroke-width:0px;fill:#ffc627"/>
  <polygon points="56.65 193.27 51.73 201.85 64.1 213.51 47.93 207.47 42.87 216.18 42.03 206.35 31.2 205.78 40.06 200.44 29.24 183.29 47.09 197.77 56.65 193.27" style="stroke-width:0px;fill:#ffc627"/>
  <path d="m84.2,132.13l-25.02-17.71,5.62-7.87c.98-1.27,2.11-2.53,3.23-3.51.7-.7,1.55-1.27,2.39-1.69.14-.14.28-.28.42-.56.14-.14.14-.28.28-.42l.28-.56,22.07,15.6c-.14,1.55-.56,2.95-1.12,4.5-.56,1.41-1.27,2.67-2.25,3.94l-.14.14-5.76,8.15Zm-15.74-22.63c-.56.84-.56,1.83-.14,2.39.14.14.28.28.42.42l15.32,10.96h0c.84.14,1.69-.14,2.11-.84l.14-.14c.7-.98.56-2.25-.14-2.67l-14.9-10.68c-.98-.84-2.11-.56-2.81.56h0Z" style="fill:#fff;stroke-width:0px"/>
  <polygon points="121.31 91.93 106.97 70.14 105.56 71.12 103.03 67.05 118.92 56.65 121.45 60.58 113.71 65.78 118.07 72.25 124.12 68.31 125.52 72.53 120.32 75.9 125.38 83.35 133.25 78.29 135.78 82.23 121.31 91.93" style="fill:#fff;stroke-width:0px"/>
  <polygon points="180.9 65.92 174.72 55.66 174.02 55.8 176.41 66.91 169.1 68.31 163.9 42.87 162.35 43.15 161.37 38.51 169.1 37.11 176.27 47.23 176.83 47.09 174.44 35.98 181.75 34.44 188.07 64.38 180.9 65.92" style="fill:#fff;stroke-width:0px"/>
  <path d="m229.82,64.1l.7-31.06,6.89,1.12-.98,18.98.7.14,5.62-18.27,6.89,1.12c-2.67,8.15-9.42,27.13-10.26,29.38l-9.56-1.41Z" style="fill:#fff;stroke-width:0px"/>
  <path d="m338.47,116.81l-1.69-2.25-8.71,6.89-4.36-5.76,24.32-18.69,5.9,7.59c.98,1.27,1.83,2.53,2.53,4.08.42.84.84,1.83,1.12,2.53.14.28.28.42.42.56q.14.14.28.28l.42.42-12.93,9.98c-.7-.42-1.55-.84-2.25-1.27l-.28-.14-7.03,10.68-4.22-5.34,6.47-9.56Zm11.39-9.42c-.56-.7-1.41-1.12-2.11-.98-.14,0-.28.14-.42.28l-5.76,4.5c-.84.7-.7,1.83-.14,2.53v.14c.7.98,1.83,1.27,2.53.84l5.9-4.36c.84-.7.84-1.97,0-2.95h0Z" style="fill:#fff;stroke-width:0px"/>
  <polygon points="280.56 80.96 294.06 58.61 292.65 57.77 295.04 53.69 311.35 63.67 308.82 67.61 300.94 62.69 297.01 69.3 303.19 73.09 299.68 76.75 294.48 73.37 289.84 80.96 297.99 85.88 295.46 89.96 280.56 80.96" style="fill:#fff;stroke-width:0px"/>
  <path d="m157.85,383.73c-1.69-.42-3.09-1.12-4.64-2.11-1.55-.84-2.67-1.83-3.8-2.81l7.87-26.14c1.55-.42,3.09-.42,4.78-.42,1.83.14,3.37.42,5.06.98,1.69.42,3.09,1.12,4.64,2.11.7.42,1.41.84,1.97,1.27.28.28.7.42,1.12.56.14,0,.28.14.42.14l.7.14-.28.7-2.39,7.45-7.03-2.11.98-3.23c.28-.84-.28-1.83-1.27-2.25-.14,0-.28-.14-.42-.14-1.12-.42-2.39.14-2.53,1.12l-5.76,18.69c-.14.42,0,.84.14,1.27.28.56.84.98,1.55,1.12,1.12.42,2.39-.14,2.53-1.12l2.53-7.87-2.25-1.27,2.39-3.8,8.29,2.53-4.78,15.88c-1.55.42-3.09.42-4.78.42-1.83-.42-3.65-.7-5.06-1.12" style="fill:#fff;stroke-width:0px"/>
  <path d="m219,390.62c-1.69.14-3.37,0-5.06-.28-1.69-.28-3.09-.84-4.5-1.55l-1.55-27.27c1.27-.84,2.67-1.55,4.36-1.97,1.69-.42,3.37-.84,5.06-.84,1.69-.14,3.37,0,5.06.28.84.14,1.55.28,2.39.56.42.14.84.14,1.12.14h.42l.7-.14v.7l.42,7.73-7.31.42-.14-3.37c0-.84-.84-1.69-1.97-1.69h-.42c-1.27.14-2.25.98-2.11,1.97l.98,19.54c0,.42.28.84.56,1.12.42.42,1.12.56,1.83.56,1.27,0,2.25-.98,2.11-1.97l-.42-8.29-2.53-.28.84-4.36,8.57-.42.98,16.59c-1.27.84-2.67,1.55-4.36,1.97-1.55.42-3.37.7-5.06.84" style="fill:#fff;stroke-width:0px"/>
  <path d="m102.61,355.48c-1.41-.98-2.53-2.25-3.65-3.51-1.12-1.27-1.97-2.67-2.53-4.08l14.9-19.12-1.27-.98,2.81-3.65,7.17,5.48-15.6,20.24c-.56.84-.28,2.11.7,2.67.98.7,2.25.7,2.81-.14l15.74-20.24,5.76,4.5-17.85,23.05c-1.55-.14-2.95-.7-4.5-1.41-1.83-.84-3.23-1.69-4.5-2.81" style="fill:#fff;stroke-width:0px"/>
  <polygon points="323.15 349.86 306.29 330.04 301.79 333.98 298.55 330.32 313.31 317.67 316.55 321.33 312.05 325.26 328.78 344.94 323.15 349.86" style="fill:#fff;stroke-width:0px"/>
  <path d="m361.1,307.27c-.84,1.41-1.97,2.67-3.09,3.94-1.12,1.12-2.53,2.11-3.8,2.67l-6.33-3.94,3.8-6.18,3.23,2.11c.42.28.98.28,1.41.14.56-.14.98-.56,1.27-.98v-.14c.56-.98.42-2.25-.42-2.67l-7.17-4.36-4.22,6.61c-1.12,1.83-3.09,2.53-4.5,1.69-.28-.14-.56-.28-.7-.42l-9.98-6.33c0-1.55.42-2.95.98-4.64.56-1.69,1.27-3.09,2.25-4.5.84-1.41,1.97-2.67,3.09-3.94.7-.7,1.41-1.27,2.11-1.83.28-.28.42-.42.56-.7.14-.14.14-.28.14-.42l.28-.56,7.31,4.5-3.8,6.18-2.95-1.97c-.14-.14-.28-.14-.42-.14-.84-.14-1.69.28-2.25,1.12v.14c-.56.98-.42,2.25.42,2.67l5.06,3.09.14.14.28.14,4.08-6.47c1.27-1.97,3.23-2.53,4.78-1.83l1.27.84.28.14,9.84,6.18c0,1.55-.42,2.95-.98,4.64-.28,2.11-1.12,3.65-1.97,5.06" style="fill:#fff;stroke-width:0px"/>
  <polygon points="261.45 355.48 259.9 356.18 258.21 351.97 275.78 344.66 277.61 349.02 268.9 352.53 271.85 359.7 278.45 356.75 279.3 361.67 273.53 364.06 277.05 372.07 285.62 368.55 287.59 372.91 271.57 379.66 261.45 355.48" style="fill:#fff;stroke-width:0px"/>
  <polygon points="61.85 312.33 69.16 302.77 68.73 302.21 59.32 308.53 55.1 302.35 76.75 287.87 75.76 286.47 79.7 283.94 84.2 290.54 77.31 300.94 77.87 301.37 87.29 295.18 91.37 301.22 65.92 318.37 61.85 312.33" style="fill:#fff;stroke-width:0px"/>
</svg>
