<?xml version="1.0" encoding="UTF-8"?>
<svg id="Layer" xmlns="http://www.w3.org/2000/svg" viewBox="0 0 420 514.7">
  <defs/>
  <path d="m420,210c0,115.98-94.02,210-210,210S0,325.98,0,210C-.14,94.02,93.88,0,210,0s210,94.02,210,210" style="stroke-width:0px;fill:#b3b2b1"/>
  <g>
    <path d="m413.98,210c0,112.62-91.36,203.98-203.98,203.98S6.02,322.62,6.02,210,97.38,6.02,210,6.02s203.98,91.36,203.98,203.98" style="fill:#1d428a;stroke-width:0px"/>
    <g>
      <path d="m383.9,210c0,95.98-77.79,174.04-174.04,174.04S35.82,306.26,35.82,210,113.6,35.96,209.86,35.96s174.04,78.07,174.04,174.04" style="stroke-width:0px;fill:#c8102e"/>
      <path d="m210,35.96c-95.84,0-174.04,78.07-174.04,174.04s78.07,174.04,174.04,174.04,174.04-78.07,174.04-174.04c-.14-95.84-78.21-174.04-174.04-174.04M46.03,215.18h32.04v-10.21h-32.04c.14-3.78.28-7.69.7-11.47,11.33-57.22,80.17-101.15,163.13-101.15s151.8,44.07,163.13,101.15c.42,3.78.56,7.69.7,11.47h-32.18v10.21h32.04c-.14,3.78-.28,7.69-.7,11.47-11.33,57.08-80.31,101.15-163.13,101.15s-151.66-44.07-162.99-101.15c-.28-3.78-.42-7.69-.7-11.47M210,46.03c69.39,0,128.99,43.37,152.78,104.51-29.1-39.87-86.6-67.16-152.78-67.16s-123.68,27.14-152.78,67.16c23.78-61,83.24-104.51,152.78-104.51m0,328.08c-69.39,0-128.99-43.37-152.78-104.51,29.1,39.87,86.6,67.16,152.78,67.16s123.68-27.14,152.78-67.16c-23.92,60.86-83.38,104.51-152.78,104.51" style="stroke-width:0px;fill:#fff"/>
      <g>
        <g>
          <rect x="136.41" y="214.62" width="12.17" height="55.26" style="stroke-width:0px;fill:#fff"/>
          <path d="m183.56,214.62h-.42c-3.36,0-16.09-.14-18.47,0h-.56c-3.64,0-6.16,1.68-6.72,5.04-.14.56-.14.84-.14.84,0,.14-.84,10.49.14,13.43,1.68,4.76,5.6,6.58,8.95,7.55.14,0,.28.14.42.14.28,0,.42.14.7.28.42.14.7.42.84.56v19.87h-10.07v7.42h13.43c4.76-.14,7.83-2.24,8.95-5.74.28-2.66.42-21.27.14-25.04-.14-1.4-.7-2.66-2.1-3.64-.56-.42-1.12-.84-1.96-1.26-.7-.42-1.54-.7-2.24-1.12-2.8-1.4-6.16-2.94-6.16-6.72v-3.08h9.65c1.96,0,3.5-.98,4.62-2.8.7-1.4.98-2.8.98-2.8.14-.84,0-1.68,0-2.24v-.7Z" style="stroke-width:0px;fill:#fff"/>
          <path d="m239.94,214.62c-2.66,0-5.74.14-7.97.7-6.02,1.4-8.95,5.46-8.95,12.31v32.88c0,8.39,6.02,10.07,15.11,10.07,10.91,0,17.21-3.78,17.21-10.63v-34.28c-.14-11.05-7.14-11.05-15.39-11.05m-4.2,12.45c0-1.4.14-2.52.42-3.36l.28-.14c.56-.14,1.12-.14,1.68-.14h.28c4.06,0,4.34,1.26,4.34,8.81v25.04c0,.7-.14,1.26-.28,1.82l-.28.28c-.7.14-1.4.14-2.1.14-1.54,0-2.52-.28-3.22-.98-.98-.98-.98-2.66-.98-4.76v-23.36c-.14,0-.14-2.52-.14-3.36" style="stroke-width:0px;fill:#fff"/>
          <path d="m283.73,237.98c-5.88-21.41-15.39-23.64-19.17-23.64-.98,0-1.54.14-1.68.14l-.28.14v55.26h12.45v-22.25l8.67,22.25h12.73v-55.26h-12.73v23.36h0Z" style="stroke-width:0px;fill:#fff"/>
          <path d="m121.44,214.62h-31.48v.42s-.28,6.58,7,8.11v46.87h12.87v-23.5h10.63c5.74,0,8.95-3.64,8.95-10.21v-1.96c-.14-15.81-.7-18.89-7.97-19.73m-4.9,24.48h-7v-16.09s3.64-.14,4.34,0c1.4.14,2.52.7,2.52,2.38.14.56.14,13.71.14,13.71" style="stroke-width:0px;fill:#fff"/>
          <path d="m219.09,214.76h-28.68v8.67h8.25v46.59h12.73v-46.73h.42c2.24,0,4.06-.7,5.46-1.96,2.24-2.38,2.1-6.16,2.1-6.3l-.28-.28Z" style="stroke-width:0px;fill:#fff"/>
          <path d="m329.9,214.62h-.42c-3.36,0-16.09-.14-18.47,0h-.56c-3.64,0-6.16,1.68-6.72,5.04-.14.56-.14.84-.14.84,0,.14-.84,10.49.14,13.43,1.68,4.76,5.6,6.58,8.95,7.55.14,0,.28.14.42.14.28,0,.42.14.7.28.42.14.7.42.84.56v19.87h-10.07v7.42h13.43c4.76-.14,7.83-2.24,8.95-5.74.28-2.66.42-21.27.14-25.04-.14-1.4-.7-2.66-2.1-3.64-.56-.42-1.12-.84-1.96-1.26-.7-.42-1.54-.7-2.24-1.12-2.8-1.4-6.16-2.94-6.16-6.72v-3.08h9.65c1.96,0,3.5-.98,4.62-2.8.7-1.4.98-2.8.98-2.8.14-.84,0-1.68,0-2.24v-.7Z" style="stroke-width:0px;fill:#fff"/>
        </g>
        <g>
          <path d="m217,180.34h2.1c1.96,0,5.6.7,5.6,4.48,0,1.68.14,7.28.28,9.37v.84c0,.28.14,2.94.28,3.5.84,3.22,3.36,5.18,7.28,5.6h3.5v-19.59c0-1.68-.84-3.92-2.24-5.74l-.28-.28c1.96-2.24,2.66-4.48,2.66-7.83v-1.96c0-15.25-.56-18.33-7.69-19.03h-23.92v53.86h12.17v-23.22h.28Zm0-22.39h2.38c3.22,0,4.48,0,4.34,5.74,0,4.62,0,4.9-.14,7v.42c0,.7-.28,1.4-.7,1.82-.28.28-.56.42-.98.42h-5.04v-15.39h.14Z" style="stroke-width:0px;fill:#fff"/>
          <polygon points="293.24 149.42 281.21 149.42 281.21 203.28 293.24 203.28 293.24 149.42" style="stroke-width:0px;fill:#fff"/>
          <path d="m178.1,203.42h12.31v-45.47h.42c2.24,0,3.92-.7,5.32-1.96,2.24-2.38,2.1-5.88,2.1-6.16v-.42h-28.12v8.53h7.97v45.47Z" style="stroke-width:0px;fill:#fff"/>
          <path d="m307.65,203.42h12.31v-45.47h.42c2.24,0,3.92-.7,5.32-1.96,2.24-2.38,2.1-5.88,2.1-6.16v-.42h-28.12v8.53h7.97v45.47h0Z" style="stroke-width:0px;fill:#fff"/>
          <polygon points="163.55 194.75 150.68 194.75 150.68 181.6 159.49 181.6 159.49 169.85 150.68 169.85 150.68 157.81 163.55 157.81 163.55 149.42 138.79 149.42 138.51 203.28 163.55 203.28 163.55 194.75" style="stroke-width:0px;fill:#fff"/>
          <path d="m123.12,149.42h-30.78v.28c0,.14-.42,3.22,1.54,5.6,1.26,1.54,3.08,2.24,5.74,2.52v45.33h22.94c5.32,0,8.67-4.48,8.67-11.05v-25.04c0-13.71,0-17.35-8.11-17.63m-4.34,45.33h-6.86v-36.8c4.34-.14,5.18.14,5.32.28,1.54.56,1.54,3.5,1.54,3.64.28,4.2,0,29.52,0,32.88" style="stroke-width:0px;fill:#fff"/>
          <path d="m259.39,149.42c-2.66,0-5.6.14-7.97.7-6.02,1.4-8.81,5.46-8.81,12.03v32.18c0,8.25,6.02,9.93,14.97,9.93,10.77,0,17.07-3.78,17.07-10.35v-33.58c.14-10.91-7-10.91-15.25-10.91m-4.06,12.17c0-1.4.14-2.52.42-3.36l.28-.14c.56-.14,1.12-.14,1.68-.14h.28c4.06,0,4.34,1.26,4.34,8.67v24.62c0,.7-.14,1.26-.28,1.82l-.28.14c-.7.14-1.4.14-2.1.14-1.54,0-2.52-.28-3.22-.98-.98-.98-.98-2.66-.98-4.62v-22.66c-.14,0-.14-2.66-.14-3.5" style="stroke-width:0px;fill:#fff"/>
        </g>
      </g>
    </g>
  </g>
</svg>
