<?xml version="1.0" encoding="UTF-8"?>
<svg id="Layer" xmlns="http://www.w3.org/2000/svg" viewBox="0 0 420 462.88">
  <defs/>
  <path d="m355.23,94.86c-12-27.44-31.44-50.65-56.43-67.65C272.59,9.44,241.93,0,210.16,0s-62.43,9.44-88.64,27.21c-24.77,16.88-44.32,40.32-56.43,67.65C11.33,108.97,0,126.52,0,138.85l.11,66.98c.78,11.33,12.55,32.21,83.2,46.88,14.33,18.99,32.88,34.88,53.87,45.88,22.33,11.66,47.54,17.77,72.87,17.77s50.54-6.11,72.87-17.77c20.99-11,39.66-26.88,53.87-45.88,70.65-14.66,82.42-35.66,83.2-46.99v-66.87c.33-12.22-11-29.88-64.76-43.99Z" style="stroke-width:0px;fill:#fff"/>
  <g>
    <path d="m351.46,99.19C328.24,43.99,273.7,5.22,210.27,5.22S92.31,43.99,69.09,99.19c-39.21,10-63.65,24.1-63.65,39.77v66.65c0-14.11,19.77-25.77,52.21-35.43,6,78.98,72.2,141.29,152.73,141.29s146.63-62.43,152.73-141.29c32.44,9.66,52.21,21.33,52.21,35.43v-66.65c-.11-15.66-24.55-29.77-63.87-39.77Z" style="stroke-width:0px;fill:#9ea2a2"/>
    <path d="m414.99,203.72c0-.22-.11-.44-.11-.78s-.11-.56-.22-.89c0-.11-.11-.33-.11-.44-.11-.33-.22-.67-.33-1,0-.11-.11-.22-.11-.33-.11-.44-.33-.78-.44-1.22v-.11c-2.11-4.78-6.55-9.11-12.89-13.22-10.22,6.78-25.66,13.11-44.43,18.11h0c-2.44,8-5.67,15.66-9.33,23.1h0c-3.78,7.44-8.11,14.44-12.89,20.99h0c48.32-9.78,79.87-25.22,80.98-42.65,0-.44,0-.89-.11-1.33.11.11.11,0,0-.22Z" style="fill:#707271;stroke-width:0px"/>
    <path d="m5.55,203.72c0-.22.11-.44.11-.78s.11-.56.22-.89c0-.11.11-.33.11-.44.11-.33.22-.67.33-1,0-.11.11-.22.11-.33.11-.44.33-.78.44-1.22v-.11c2.11-4.78,6.55-9.11,12.89-13.22,10.22,6.78,25.66,13.11,44.43,18.11h0c2.44,8,5.67,15.66,9.33,23.1h0c3.78,7.44,8.11,14.44,12.89,20.99h0c-48.32-9.55-79.87-24.99-80.98-42.43,0-.44,0-.89.11-1.33-.11-.11,0-.22,0-.44Z" style="fill:#707271;stroke-width:0px"/>
    <circle cx="210.27" cy="158.29" r="145.18" style="stroke-width:0px;fill:#373a36"/>
    <path d="m395.78,122.97c-9.66-6.11-24.22-11.77-42.21-16.66-2.78-.78-5.67-1.56-8.55-2.11-21.44-53.32-73.65-90.97-134.63-90.97S97.08,50.76,75.65,104.19c-2.89.67-5.78,1.44-8.55,2.11-17.88,4.89-32.55,10.55-42.21,16.66-6,3.78-13.11,9.66-13.11,16v45.65c10.89-8.78,28.33-16.44,52.1-22.77.44-.11,1-.22,1.44-.33,1.67,78.76,66.09,141.96,145.07,141.96s143.52-63.2,145.07-141.96c.44.11,1,.22,1.44.33,23.77,6.33,41.21,14,52.1,22.77v-45.65c-.11-6.44-7.22-12.22-13.22-16Zm-93.42-55.87c.56-1.11,1.89-1.44,2.78-.56,9.66,10,17.77,21.44,23.88,33.99-1.22-.22-2.44-.44-3.67-.67-7.89-8.89-16.77-17-26.44-23.88.89-3,2-6,3.44-8.89Zm-33.77-27.1c8.89,4.44,17.33,9.78,24.88,16,1.67,1.33,2.11,3.67,1.22,5.44-1.56,3-2.78,6-3.89,9.22-7-4.44-14.33-8.22-21.99-11.55-1.11-5.44-2.22-11-3.67-16.33-.56-2.11,1.67-3.78,3.44-2.78Zm-39.1-12.33c6.66,1,13.11,2.44,19.44,4.33,2.33.78,4.22,2.55,4.89,4.89,1.78,5.89,3.44,11.89,4.78,17.99-7.66-2.67-15.55-4.78-23.66-6.22-1.11-3.44-2.22-6.78-3.78-10-1.22-2.55-2.55-5-4-7.55-1.11-1.44.33-3.67,2.33-3.44Zm112.75,130.63c0,23.44-6.11,45.43-16.88,64.54-.67,1.22-2.33.44-2-.78v-.11c5.11-22.88,4-46.21-3-67.98-.67-1.89-1.33-3.89-1.89-5.67-.33-.89-1.11-1.56-2-1.67l-5.89-1c-1.56-.22-2.55,1.22-2,2.55.56,1.44,1.11,2.67,1.67,4.11,7.89,21.44,9.33,44.65,4.33,67.54-.33,1.33-.67,2.67-1,4-5.33,20.88-20.22,37.77-39.88,46.43-16.55,7.33-34.88,11.33-53.98,11.44-8.22,0-16.44-.67-24.22-2-3.22-.56-4.44-4.78-1.78-6.89,4.67-3.89,9-8,13.33-12.22,3.11-3.11,6-6.22,8.89-9.44,1.22-1.44,1.78-3.11,1.78-5l-.22-8c0-1.22-1.56-1.67-2.22-.78-10.11,12.33-21.44,23.55-33.88,33.44-3.11,2.44-7.44,3.11-11.22,1.67-17.77-7-33.88-17.77-46.88-31.1-2.67-2.67-3.89-6.55-3-10.33,3.55-16.11,10-31.44,18.99-45.21.78-1.22.22-2.78-1.22-3.22-1.67-.56-3.33-1.11-4.89-1.67-.89-.33-1.89,0-2.44.78-7.55,11.66-13.33,24.44-17.33,37.77-1,3.22-5.11,3.89-7,1.11-12.33-18.44-20.22-40.21-21.99-63.54-.33-3.67-.44-7.33-.44-11v-1.22c.11-17.11,6.55-33.44,17.77-45.99,1.78-2.11,3.89-4.11,6-6,19.44-17.22,43.54-29.33,69.87-34.43.78-3.22,1.67-6.44,2.67-10-25.99,4.33-49.99,15-69.98,30.32-1.89,1.44-4.33-1-2.78-2.78,24.44-30.66,62.2-50.1,104.53-49.65h0c4.44,4.89,8.11,10.33,11,16.44.67,1.56,1.33,3,1.89,4.55-6-.67-12.11-1.11-18.22-1.11-2.89,0-5.78.11-8.55.22.89,3,1.67,6,2.22,9.22,2.11-.11,4.22-.11,6.33-.11,7.22,0,14.22.56,21.11,1.56.56,2.67,1,5.44,1.22,8.22.11.78.67,1.44,1.44,1.67,3,.78,5.67,1.78,8.11,3,0-3.78-.33-7.55-.89-11.22,8.11,1.67,15.88,4.11,23.44,7,1.22,7.55,2,15.11,2.44,22.88.11,1.22,1,2.22,2.11,2.44l5.55.89c.89.11,1.67-.56,1.67-1.56-.33-6.89-1-13.66-1.78-20.44,6.22,3,12.11,6.33,17.77,10.11-.78,4.11-1.11,8.11-1.11,12.11,0,1,.44,1.67,1.22,2.22.33.22.78.44,1.22.56l5.67,1c.44.11.89-.11,1.22-.44.11-.22.22-.44.22-.78-.11-2.78-.11-5.67.22-8.44,4.55,3.44,8.89,7.22,13,11.22,12.66,12.11,23.22,26.55,30.88,42.43.33,5.89.78,12,.78,18.33h0Z" style="stroke-width:0px;fill:#061922"/>
    <g>
      <path d="m240.49,150.07l.22-20.88c0-9.78-10.22-11.44-17.77-11.33,5-1.67,11.22-4.55,15.44-9.22,4.67-4.33,8-10.22,7.33-18.66-1-14.22-18.66-21.22-47.99-18.33-.44,0-1,.11-1.44.11-1.44-10.44-3.55-20.66-6.78-29.99l-1.56,1.44c-3.89,12.11-6.22,21.77-7.66,30.66-17.55,3-29.77,7.11-29.77,7.11l-1.44,1.44s14.22-1.33,30.32-1.11c-1.78,18.33,0,35.77,0,68.76-26.1-.78-48.99,3.67-54.54,10.55-1.78,1.56-2.78,3.22-2.78,4.89.33,8,24.1,15.33,57.32,18.11l1.44,45.32,1.44-1.44,2.33-30.66c0-.56.11-1,.22-1.33.78.11,1.44,1,1.44,2.55l1.11,40.43,1.56-1.44,2.44-32.88c0-.78.11-1.33.22-1.78.78.11,1.44,1.22,1.33,3l1.22,42.21,1.44-1.44,2-61.32c3.89.11,7.78.22,11.66.22,4.22,0,8.33-.11,12.44-.22l2,63.98,1.44-1.44,1.67-33.55c0-.67.11-1.22.22-1.67.67.11,1.33,1.22,1.33,2.89l1.67,46.88,1.44-1.44,1.67-40.21c0-.56.11-1.11.22-1.56.89,0,1.67,1,1.67,2.89l1.44,53.76,1.44-1.56,2.11-89.97c28.44-2.44,50.1-8.22,55.54-14.77,1.78-1.56,2.67-3,2.67-4.67-.33-9.11-26.77-15.88-57.76-14.33m-61.09,23.99c-22.88-2.22-38.21-6.89-38.21-12.66,0-.44.11-.89.33-1.22,5.33-3.78,21.77-6.11,38.21-8.55,0,6.44-.11,13.44-.33,21.11v1.33Zm46.43-78.64c.89,6.44-1,11.33-4.33,15-6,5.33-15.22,7.89-22.88,9,.11-12.22,0-24.77-1.11-37.21,14.66,1.56,27.33,5.33,28.33,13.22m-4.22,79.98c-3.55.11-7.22.22-11,.22-4.44,0-8.66-.11-12.89-.22l.22-5.11c-.44-13.22.44-29.77.67-47.32,10.77,1.33,23.66,4.33,23.44,11.77l-.44,40.66Zm56.76-10.22c-5.33,4.22-19.44,7.44-38.1,9.11l.22-22.44c21.33,2.78,38.77,5.89,38.77,11.11,0,.67-.33,1.44-.89,2.22" style="stroke-width:0px;fill:#9ea2a2"/>
      <path d="m298.36,164.06c-.44-8.78-26.77-15.55-57.76-14.11l.22-20.88c0-12.89-17.77-11.66-23.77-10.89,7-1.33,30.32-7.11,28.77-28.33-1-14.22-18.66-21.22-47.99-18.33-.44,0-1,.11-1.44.11-1.44-10.44-3.55-20.66-6.78-29.99-4.11,12.66-6.44,22.66-7.78,31.88-18.11,3-30.99,7.33-30.99,7.33,0,0,14.22-1.33,30.32-1.11-1.78,18.55.11,36.32,0,70.2-30.77-1.11-57.65,4.89-57.32,14.11.33,8,23.99,15.33,57.32,18.11l1.44,45.32,2.33-30.66c.11-3.78,3-3.44,3-.22l1.11,40.43,2.44-32.88c0-4.44,3.11-4.22,3-.22l1.22,42.21,2-62.87c4.33.11,8.66.22,13.11.22s8.33-.11,12.44-.22l2,63.98,1.67-33.55c0-4.33,2.89-4.11,2.89-.22l1.67,46.88,1.67-40.54c.11-4,3.33-3.78,3.44,0l1.44,53.76,2.11-91.31v.22c33.66-3.11,58.21-10.44,58.21-18.44m-71.09-69.98c2.33,17.77-15.66,23.55-28.66,25.44.11-12.66-.11-25.99-1.33-38.88,15.44,1.44,28.88,5.11,29.99,13.44m-86.2,67.31c0-5.33,19.99-8.22,39.99-11.33,0,6.44-.11,13.44-.33,21.11l.11,2.89c-23.66-1.89-39.77-6.66-39.77-12.66m56.65,13.88l.22-5.11c-.44-13.55.44-30.66.78-48.99,11,1.11,24.99,4.11,24.77,11.89l-.44,42.21c-4,.11-8.11.22-12.44.22-4.44,0-8.66,0-12.89-.22m42.54-1l.33-24.1c21.99,2.78,40.21,6,40.21,11.33-.22,5.89-16.66,10.66-40.54,12.77" style="stroke-width:0px;fill:#ce1141"/>
    </g>
    <path d="m57.1,119.19c-2.78,1-5.44,1.78-8.11,2.78-1.67.67-3.22,2.55-3.22,4.44v28.21c0,1.78,1.44,2.78,3.22,2.11,2.67-1,5.44-1.89,8.11-2.78,1.67-.56,3.22-2.55,3.22-4.33v-28.21c-.11-1.89-1.44-2.89-3.22-2.22Zm-2.11,30.1c-1.33.44-2.67,1-4,1.44v-23.99c1.33-.44,2.67-1,4-1.44v23.99Zm84.75-49.87c-2.78.44-5.67.89-8.44,1.33-1.78.33-3.33,2-3.33,3.89v28.21c0,1.78,1.56,3,3.33,2.67,2.78-.44,5.67-1,8.44-1.33,1.78-.22,3.33-1.89,3.33-3.78v-28.21c-.11-1.78-1.56-3.11-3.33-2.78Zm-2.11,29.66c-1.44.22-2.78.44-4.22.67v-23.99c1.44-.22,2.78-.44,4.22-.67v23.99Zm-61.65-15.77c1.78-.56,3.55-1.11,5.33-1.56v31.44c0,1.78-1.56,3.67-3.22,4.22-2.78.78-5.55,1.67-8.22,2.44-1.67.56-3.22-.44-3.22-2.22v-31.44c1.78-.56,3.55-1.11,5.33-1.67v29.33c1.44-.44,2.67-.78,4.11-1.22-.11-9.78-.11-19.55-.11-29.33Zm-41.65,14.11c1.67-.67,3.44-1.44,5.22-2v34.77c-1.67.67-3.55,1.33-5.22,2v-14.66c-1.22.44-2.44,1-3.67,1.44v14.66c-1.67.67-3.44,1.44-5.11,2.11v-34.77c1.67-.78,3.44-1.44,5.11-2.11v14.66c1.22-.56,2.44-1,3.67-1.44v-14.66Zm73.42-22.22c4.89-1.11,10-2,14.88-3v5.33c-1.67.33-3.22.67-4.78.89v29.33c-1.78.33-3.67.78-5.44,1.11v-29.33c-1.67.33-3.11.67-4.78,1,.11-1.67.11-3.44.11-5.33Zm55.98-8.78v34.77c-1.78.22-3.67.33-5.44.56v-6.11c-1.33-3.67-2.55-7.22-3.89-10.89v17.44c-1.78.22-3.67.44-5.44.67v-34.77c1.78-.22,3.55-.44,5.33-.67,1.33,3.78,2.55,7.44,4,11.22v-11.55c1.89-.22,3.67-.44,5.44-.67Zm-61.32,13.22v4.11c-1.78.44-3.67.89-5.33,1.33v-1.89c-1.44.33-2.67.67-4.11,1v7.22c2.55,1.22,5.11,2.44,7.89,3.78,1.33.67,1.67,1.67,1.67,3.22v9.66c0,1.78-1.56,3.55-3.22,4-2.78.67-5.55,1.44-8.33,2-1.78.44-3.22-.67-3.22-2.44v-4.11c1.78-.44,3.55-1,5.33-1.44v1.89c1.44-.33,2.67-.67,4.11-1v-7.22c-2.55-1.33-5.11-2.44-7.78-3.67-1.33-.56-1.67-1.67-1.67-3.22v-9.66c0-1.78,1.56-3.67,3.22-4.11,2.78-.78,5.55-1.44,8.33-2,1.67-.33,3.11.89,3.11,2.55Zm188.06-8.66c-2.78-.44-5.67-1-8.44-1.44-1.78-.33-3.33,1-3.33,2.78v28.21c0,1.78,1.56,3.44,3.33,3.78,2.78.44,5.67.89,8.44,1.44,1.78.33,3.33-.89,3.33-2.67v-28.21c0-1.89-1.44-3.55-3.33-3.89Zm-2.11,28.99c-1.44-.22-2.78-.44-4.22-.67v-23.99c1.44.22,2.78.44,4.22.67v23.99Zm73.2-11.44c4.89,1.67,9.66,3.33,14.55,5v5.33c-1.56-.56-3.11-1.11-4.67-1.67v29.33c-1.67-.67-3.55-1.22-5.22-1.78v-29.33c-1.56-.56-3.11-1.11-4.67-1.56,0-1.78,0-3.44,0-5.33Zm28.21,17.66v-1.89c-1.33-.56-2.67-1.11-4-1.67v7.22c2.44,2.89,5,5.67,7.55,8.55,1.22,1.44,1.67,2.78,1.67,4.33v9.66c0,1.78-1.44,2.67-3.11,1.89-2.67-1.11-5.33-2.11-8.11-3.22-1.67-.67-3.11-2.67-3.11-4.55v-4.11c1.67.67,3.55,1.33,5.22,2v1.89c1.33.56,2.67,1.11,4,1.67v-7.22c-2.44-2.89-5-5.67-7.55-8.55-1.22-1.44-1.67-2.78-1.67-4.33v-9.66c0-1.78,1.44-2.67,3.11-2,2.67,1.11,5.33,2.11,8.11,3.22,1.67.78,3.11,2.78,3.11,4.55v4.11c-1.67-.56-3.33-1.22-5.22-1.89Zm-53.32-25.1c-1.78,5.22-3.78,10.66-5.55,15.88,1.78,6.22,3.78,12.55,5.55,18.88-1.89-.56-3.78-1-5.67-1.56-1.56-5-3-10-4.44-14.88v13.88c-1.78-.44-3.55-.89-5.33-1.33v-34.77c1.78.44,3.67.89,5.33,1.33v13.88c1.56-4.33,3-8.44,4.44-12.66,1.89.22,3.89.78,5.67,1.33Zm-21.55-2.22v4.22c-1.78-.44-3.67-.78-5.33-1.22v-2c-1.44-.33-2.78-.56-4.11-.89v23.99c1.44.33,2.78.56,4.11.89v-1.78c1.78.44,3.67.78,5.33,1.22v4c0,1.78-1.56,2.89-3.22,2.55-2.78-.67-5.55-1.22-8.44-1.67-1.78-.33-3.33-2.11-3.33-3.89v-28.21c0-1.78,1.56-3,3.33-2.55,2.78.56,5.55,1.22,8.44,1.67,1.67.11,3.22,2,3.22,3.67Zm-42.88,6.11v-13.55c0-1.78-1.56-3.44-3.33-3.67-4-.44-7.89-.89-11.77-1.33h0v34.77c1.78.22,3.67.33,5.44.56v-14.66c.78.11,1.56.22,2.22.22.78,4.89,1.67,10,2.33,14.88,1.78.22,3.67.44,5.55.67-.89-5-1.67-10.22-2.44-15.22,1.22-.22,2-1.33,2-2.67Zm-5.44-2.78c-1.44-.22-2.78-.33-4.22-.44v-9.22c1.44.11,2.78.33,4.22.44v9.22Zm75.87.44c4.89,1.44,9.66,2.89,14.55,4.44v5.33c-3-1-6.11-1.89-9.22-2.78v9.22c2.22.67,4.55,1.44,6.89,2v5.33c-2.22-.78-4.55-1.44-6.89-2v9.22c3.11.89,6.11,1.78,9.22,2.78v5.33c-4.89-1.56-9.66-3-14.55-4.44v-34.43Z" style="stroke-width:0px;fill:#fff"/>
  </g>
</svg>
