<?xml version="1.0" encoding="UTF-8"?>
<svg id="Layer" xmlns="http://www.w3.org/2000/svg" viewBox="0 0 420 514.7">
  <defs/>
  <path d="m420,210c0,115.93-93.93,210-210,210S0,326.07,0,210,93.93,0,210,0c116.07.14,210,94.21,210,210Z" style="fill:#bec0c2;stroke-width:0px"/>
  <path d="m407.94,210c0,109.21-88.46,197.94-197.94,197.94S12.06,319.35,12.06,210,100.79,12.2,210,12.2s197.94,88.46,197.94,197.8Z" style="stroke-width:0px;fill:#002d62"/>
  <path d="m210,21.31C105.84,21.31,21.45,105.7,21.45,210s84.39,188.55,188.55,188.55,188.55-84.39,188.55-188.55c.14-104.02-84.39-188.69-188.55-188.69Z" style="stroke-width:0px;fill:#fdbb30"/>
  <path d="m339.11,210c0,72.76-57.9,131.78-129.11,131.78s-129.11-59.02-129.11-131.78,57.76-131.78,129.11-131.78c71.36,0,129.11,59.02,129.11,131.78Z" style="stroke-width:0px;fill:#002d62"/>
  <path d="m330.84,210c0,68.13-54.11,123.22-120.84,123.22s-120.84-55.23-120.84-123.22,54.11-123.22,120.84-123.22c66.87,0,120.84,55.23,120.84,123.22Z" style="stroke-width:0px;fill:#fff"/>
  <polygon points="77.52 173.13 76.26 178.04 37.57 168.5 38.97 163.46 77.52 173.13" style="stroke-width:0px;fill:#002d62"/>
  <polygon points="82.85 113.83 99.53 126.59 96.59 130.37 65.19 106.26 66.73 104.02 89.58 110.05 72.34 96.87 75.28 92.94 106.68 117.06 105.14 119.44 82.85 113.83" style="stroke-width:0px;fill:#002d62"/>
  <path d="m144.11,81.87l2.1-1.12c2.1-.98,2.38-2.94,1.68-4.49-4.07-8.13-7.15-13.74-11.21-21.87-.84-1.68-2.66-2.24-4.35-1.4l-2.38,1.26,14.16,27.62Zm-20.61-29.02l7.85-3.93c3.36-1.68,7.57-1.54,9.67,2.52,4.91,9.81,7.29,14.02,12.2,23.69,1.96,3.93-.28,7.43-3.36,8.97l-8.13,4.07-18.22-35.33Z" style="stroke-width:0px;fill:#002d62"/>
  <polygon points="205.09 69.81 200.05 70.09 197.8 30.42 202.99 30.14 205.09 69.81" style="stroke-width:0px;fill:#002d62"/>
  <path d="m268.46,53.27l-.28-.14-8.13,13.32,5.33,1.96,3.08-15.14Zm-5.61,27.06l1.68-7.71-6.73-2.52-3.93,6.87-4.63-1.82,21.17-34.49,4.91,1.82-7.57,39.67-4.91-1.82Z" style="stroke-width:0px;fill:#002d62"/>
  <polygon points="321.87 95.89 306.59 110.19 303.36 106.82 332.24 79.49 333.93 81.31 324.53 103.04 340.37 88.18 343.6 91.54 314.72 118.88 312.9 116.78 321.87 95.89" style="stroke-width:0px;fill:#002d62"/>
  <path d="m366.31,157.01l-.14-.28-15.42,2.1,1.82,5.33,13.74-7.15Zm-24.53,12.76l7.01-3.5-2.24-6.87-7.85,1.26-1.54-4.77,40.09-5.33,1.68,4.91-35.47,19.21-1.68-4.91Z" style="stroke-width:0px;fill:#002d62"/>
  <path d="m69.25,283.88l2.8,5.33,14.02-7.43-2.8-5.33-14.02,7.43Zm-17.24,8.97l-2.38-4.49,35.19-18.36,5.75,11.21c1.12,2.24.56,3.93-1.12,4.77-6.31,3.22-9.53,4.91-15.7,8.27-1.82.98-3.5.42-4.63-1.54l-3.5-6.87-13.6,7.01Z" style="stroke-width:0px;fill:#002d62"/>
  <path d="m118.04,331.82l-.28-.28-11.64,10.23,4.35,3.5,7.57-13.46Zm-13.6,24.25l3.79-6.87-5.61-4.49-5.75,5.19-3.93-3.08,30.56-26.5,4.07,3.22-18.93,35.75-4.21-3.22Z" style="stroke-width:0px;fill:#002d62"/>
  <path d="m174.95,373.74l4.91,1.26-2.52,10.23c-.42,1.82-2.1,2.8-3.79,2.38-3.5-.84-6.03-1.54-9.67-2.38-1.82-.42-2.8-2.1-2.38-3.93,3.08-12.62,4.77-19.63,7.99-32.24.42-1.82,2.1-2.8,3.79-2.38,3.5.84,6.17,1.54,9.81,2.38,1.68.42,2.66,2.1,2.24,3.93l-1.96,8.13-4.91-1.12,1.68-7.15-6.03-1.4-7.43,30.28,6.03,1.4,2.24-9.39Z" style="stroke-width:0px;fill:#002d62"/>
  <polygon points="247.99 387.34 235.23 389.72 228.36 350.61 240.98 348.36 241.68 352.57 233.97 353.83 236.21 366.73 243.5 365.33 244.21 369.67 237.06 370.93 239.44 384.53 247.15 383.27 247.99 387.34" style="stroke-width:0px;fill:#002d62"/>
  <path d="m306.45,362.38l-4.21,2.8-22.43-32.94,10.93-7.43c1.96-1.4,3.64-.7,4.63.84,3.08,4.49,5.05,7.57,8.27,12.06,1.26,1.82.7,3.64-.84,4.63l-.56.42,14.44,12.48-4.63,3.22-16.4-14.16-.14-1.82,3.36-2.24-7.29-10.51-5.33,3.64,20.19,29.02Z" style="stroke-width:0px;fill:#002d62"/>
  <path d="m346.96,302.52l7.99,4.91,2.24-3.64-7.71-4.77-14.72.7c-.98,0-1.96,0-2.66-.56-2.8-1.82-4.07-2.66-7.29-4.49-1.4-.84-1.96-2.8-.98-4.35,1.54-2.52,2.8-4.49,4.49-7.15,1.12-1.68,2.8-1.82,4.35-.84l7.01,4.35-2.66,4.21-6.17-3.79-2.24,3.64,6.03,3.64,14.02-.84c1.4,0,2.52,0,3.5.7,3.64,2.38,4.91,3.08,8.83,5.47,1.54.98,2.1,2.8,1.12,4.35-1.54,2.52-2.8,4.49-4.49,7.15-.84,1.4-2.66,1.96-4.35.84l-8.83-5.47,2.52-4.07Z" style="stroke-width:0px;fill:#002d62"/>
  <path d="m171.45,135.14l-32.66,148.46h64.63s7.29-29.44,7.85-32.24h28.04c21.03.14,38.13-7.01,49.77-20.61,21.17-22.99,17.38-56.64,1.54-75.7-11.36-13.74-27.76-21.45-46.12-21.45h-72.76l-.28,1.54Z" style="fill:#bec0c2;stroke-width:0px"/>
  <path d="m206.64,245.47l-7.85,32.24h-52.71l30.56-138.08h67.99c16.82,0,31.54,7.01,41.78,19.35,15,18.22,16.54,48.5-1.54,68.13-11.07,12.9-27.34,18.79-45.28,18.64l-32.94-.28Z" style="stroke-width:0px;fill:#002d62"/>
  <path d="m169.49,171.17h29.86c3.36,0,7.15,2.8,5.47,7.29-.98,2.66-1.68,5.75-2.1,8.83-.28,2.24,2.24,3.64,3.64,3.64h60.7c1.12,0,1.68-.28,1.68-.84s0-2.52-.28-3.93c-.28-1.26-.42-1.54-1.54-1.54-7.57,0-10.65-3.36-18.64-8.55s-19.63-8.13-29.72-8.13h-48.79l-.28,3.22Z" style="stroke-width:0px;fill:#fdbb30"/>
  <path d="m206.36,210.42c-1.12-2.24-1.96-4.91-2.66-7.43-.7-3.08-3.36-5.61-8.13-5.61h-31.96l.84-3.5,103.6.14c.98,0,.84.42.7,1.54,0,1.12-.28,3.22-.42,4.49s-1.12.98-2.1.98c-2.38,0-6.73.56-9.25,2.52-4.21,3.22-13.46,8.97-18.64,10.51-5.47,1.68-26.07,7.99-31.96-3.64" style="stroke-width:0px;fill:#fdbb30"/>
  <path d="m157.99,223.46h54.11c2.38,0,4.35.56,6.17,1.82,4.49,3.64,10.51,6.59,16.68,8.41,2.8.84,7.71-.28,12.06-2.66,10.79-6.17,17.66-17.66,20.19-25.23.56-1.96-.56-1.82-1.96-1.68-4.49.28-9.39,4.35-15.56,8.55-6.45,3.93-19.21,7.85-31.4,7.85h-59.3l-.98,2.94Z" style="stroke-width:0px;fill:#fdbb30"/>
  <path d="m237.34,150.98c.7-.14,3.5-.28,4.91.28,10.37,4.07,20.05,14.72,24.11,26.07.84,2.24.98,3.5,0,3.64-4.63.56-6.87-1.82-12.48-5.47-5.47-3.64-10.65-6.31-17.52-8.55-7.01-2.1-19.63-2.52-21.17-2.52s-1.4-.7-.7-1.4c6.03-6.03,14.16-10.51,22.85-12.06Z" style="stroke-width:0px;fill:#fdbb30"/>
  <path d="m286.54,190.09c0,.42-.42.98-.98.98h-11.92c-1.54,0-1.54-.7-1.54-1.54-.14-.84-.28-2.52-.28-3.64,0-.98-.42-2.1.84-2.66,3.22-1.4,6.45-4.63,7.85-7.43.42-.98,1.12-2.38,1.96-1.12,2.94,4.35,3.79,9.81,4.07,15.42Z" style="stroke-width:0px;fill:#fdbb30"/>
  <path d="m282.34,211.26c-.14.42-.98.7-1.12,0-1.68-4.63-5.75-7.85-8.69-9.39-.84-.42-.84-.98-.84-1.82.14-.84.42-3.5.56-4.63,0-.84.42-1.54,1.12-1.54h12.34c.42,0,.98.42.98.7-.14,5.89-1.82,11.78-4.35,16.68Z" style="stroke-width:0px;fill:#fdbb30"/>
  <path d="m250.23,234.39c-.84.14-2.8-.14.14-1.82,8.97-5.19,16.96-17.38,19.21-24.53.84-2.66.84-2.8,1.96-2.52,1.4.42,3.5,2.24,5.19,4.49,1.68,2.24,2.38,6.87,1.4,7.99-6.45,8.83-16.68,14.86-27.9,16.4Z" style="stroke-width:0px;fill:#fdbb30"/>
  <path d="m273.08,179.16c-2.1,1.12-2.52.84-2.94-.7-3.93-13.6-15.42-23.83-20.19-26.78-.84-.56-.7-.98,0-.84,11.21,1.54,22.29,7.71,27.76,15.98,3.36,4.77-2.66,11.21-4.63,12.34Z" style="stroke-width:0px;fill:#fdbb30"/>
</svg>
