<?xml version="1.0" encoding="UTF-8"?>
<svg id="Layer" xmlns="http://www.w3.org/2000/svg" viewBox="0 0 420 514.7">
  <defs/>
  <path d="m420,210c0,115.92-94.08,210-210,210S0,325.92,0,210,94.08,0,210,0s210,94.08,210,210" style="stroke-width:0px;fill:#c8102e"/>
  <path d="m409.5,210c0,110.18-89.32,199.5-199.5,199.5S10.5,320.18,10.5,210,99.82,10.5,210,10.5s199.5,89.32,199.5,199.5" style="stroke-width:0px;fill:#12173f"/>
  <path d="m355.74,210c0,80.5-65.24,145.74-145.74,145.74s-145.74-65.24-145.74-145.74S129.5,64.26,210,64.26s145.74,65.24,145.74,145.74" style="stroke-width:0px;fill:#4891ce"/>
  <path d="m349.86,210c0,77.28-62.58,139.86-139.86,139.86s-139.86-62.58-139.86-139.86,62.58-139.86,139.86-139.86,139.86,62.58,139.86,139.86" style="fill:#fff;stroke-width:0px"/>
  <path d="m71.54,313.88c6.44-5.6,13.86-3.92,18.76,1.82,1.96,2.38,3.36,5.18,3.64,7.42l-3.5,2.94-.28-.28c.28-2.8-.7-5.18-2.38-7.14-2.66-3.08-6.16-3.78-9.1-1.26l-4.48,3.92c-3.08,2.66-3.08,6.3-.42,9.38,1.68,1.96,3.92,3.22,7.14,3.5l.14.28-3.5,2.94c-2.52-.56-5.04-2.38-7.14-4.76-4.9-5.74-5.32-13.16,1.12-18.76" style="fill:#fff;stroke-width:0px"/>
  <path d="m108.5,339.22c.42-.98.56-2.1.7-3.92l.14-.28,7.28,5.18-12.18,17.22,9.52,6.72-3.22,2.52-14.28-10.08,11.06-15.54c.56-.7.84-1.26.98-1.82" style="fill:#fff;stroke-width:0px"/>
  <path d="m142.24,359.52c.14-1.12.14-2.24-.14-3.92l.14-.28,8.12,3.5-9.8,22.96-6.44-2.8,7.42-17.5c.42-.7.56-1.26.7-1.96" style="fill:#fff;stroke-width:0px"/>
  <path d="m170.66,369.74c0-1.12-.42-2.1-1.12-3.78v-.28l14,2.52c6.16,1.12,9.24,4.9,8.26,10.5-.98,5.46-5.18,7.98-11.48,6.86l-5.32-.98-1.26,7.28-6.86-1.26,3.36-18.76c.42-.98.42-1.54.42-2.1m9.52,11.76c2.24.42,3.78-.42,4.34-2.8l.56-3.08c.42-2.38-.7-3.64-3.08-4.06l-4.34-.7-1.82,9.8,4.34.84Z" style="fill:#fff;stroke-width:0px"/>
  <path d="m213.78,374.36c-.28-.98-.84-1.96-1.96-3.36v-.28l14.28-1.26c6.3-.56,10.22,2.38,10.78,7.98.42,5.6-2.94,9.1-9.24,9.66l-5.46.42.56,7.28-6.86.56-1.54-18.9c-.28-.84-.42-1.54-.56-2.1m12.32,8.96c2.38-.14,3.64-1.4,3.36-3.78l-.28-3.08c-.14-2.38-1.68-3.36-4.06-3.08l-4.34.42.84,9.94,4.48-.42Z" style="fill:#fff;stroke-width:0px"/>
  <path d="m256.62,367.64c-.56-.84-1.4-1.68-2.8-2.8l-.14-.28,18.62-6.58,2.38,3.22-11.34,4.06,2.1,5.88,8.68-3.08.28,3.92-7.7,2.8,2.38,6.86,11.9-4.2.28,4.06-17.36,6.16-6.44-17.92c-.28-.98-.56-1.54-.84-2.1" style="fill:#fff;stroke-width:0px"/>
  <path d="m294.28,351.26c-.84-.7-1.82-1.26-3.36-1.96l-.14-.28,12.46-8.54c4.9-3.36,9.52-3.08,12.18.84,2.1,3.08,1.82,6.58-.84,9.52l11.34,4.2-7,4.76-10.36-4.2-1.54,1.12,5.32,7.7-5.74,3.92-10.78-15.68c-.7-.42-1.12-.98-1.54-1.4m14.7-.28c1.54-1.12,2.1-2.52.84-4.2l-1.26-1.82c-1.12-1.68-2.66-1.82-4.2-.7l-4.34,2.94,4.62,6.72,4.34-2.94Z" style="fill:#fff;stroke-width:0px"/>
  <path d="m342.58,337.12l-3.5-2.94.14-.28c3.36-.42,6.3-2.24,8.4-4.76,2.1-2.38,2.8-4.62,1.12-6.02-.98-.84-2.24-.84-3.92.14l-4.9,3.08c-3.64,2.38-6.86,2.66-9.38.42-3.5-2.94-3.36-8.26,1.12-13.3,2.1-2.38,4.62-4.34,7-5.04l3.36,2.94-.28.28c-2.66.14-5.46,2.1-7.28,4.2-1.82,2.1-2.52,4.2-1.12,5.32.98.84,2.24.56,3.64-.42l4.9-3.08c3.92-2.52,7.28-2.94,10.22-.42,3.92,3.5,2.94,8.96-1.4,14-2.38,2.94-5.6,5.18-8.12,5.88" style="fill:#fff;stroke-width:0px"/>
  <path d="m38.78,149.8c-1.12-.14-2.24-.14-3.92.28l-.28-.14,3.36-8.26,19.46,7.84,4.34-10.78,3.22,2.52-6.58,16.24-17.64-7.14c-.84-.28-1.4-.56-1.96-.56" style="fill:#fff;stroke-width:0px"/>
  <path d="m61.74,120.4c-6.44-4.62-7.42-12.04-2.66-18.62,4.76-6.58,12.18-7.98,18.48-3.36s7.42,12.04,2.66,18.62c-4.76,6.58-12.18,7.98-18.48,3.36m15.4-5.6c2.1-3.08,1.68-6.16-1.4-8.4l-5.18-3.78c-3.08-2.24-6.3-1.68-8.4,1.4s-1.68,6.16,1.4,8.4l5.18,3.78c3.08,2.24,6.16,1.68,8.4-1.4" style="fill:#fff;stroke-width:0px"/>
  <path d="m97.3,93.1l-2.94-3.5.28-.28c3.36.14,6.58-1.26,8.96-3.36,2.38-2.1,3.5-4.2,2.1-5.74-.84-.98-2.1-1.26-3.92-.42l-5.32,2.24c-4.06,1.68-7.14,1.54-9.38-.98-2.94-3.5-1.96-8.68,3.22-13.02,2.38-2.1,5.18-3.5,7.7-3.92l2.94,3.36-.28.28c-2.66-.28-5.74,1.12-7.84,2.94-2.1,1.82-3.08,3.78-1.96,5.04.84.84,2.1.84,3.64.14l5.32-2.38c4.2-1.82,7.7-1.68,10.08,1.26,3.36,4.06,1.54,9.38-3.64,13.72-2.8,2.52-6.3,4.34-8.96,4.62" style="fill:#fff;stroke-width:0px"/>
  <path d="m154.98,33.46l-.14-.28,9.52-2.66,16.8,21.28-7.28,1.96-3.36-4.34-11.76,3.22-.7,5.46-4.2,1.12,2.66-19.32c.42-3.64.28-4.48-1.54-6.44m13.02,12.74l-7.14-9.24-1.54,11.62,8.68-2.38Z" style="fill:#fff;stroke-width:0px"/>
  <path d="m197.82,28.84c-.28-1.12-.7-2.1-1.68-3.5v-.28h8.96l12.46,15.4v-15.4h4.48l-.14,24.92h-5.74l-13.86-17.22-.14,17.08h-4.48l.14-19.04c.28-.84.14-1.4,0-1.96" style="fill:#fff;stroke-width:0px"/>
  <path d="m242.2,39.9c1.96-7.56,8.4-11.34,17.08-9.1,2.66.7,5.46,1.96,7.42,3.92l-1.12,4.34-.28-.14c-1.26-2.38-3.92-3.92-6.3-4.48-4.34-1.12-7.56.42-8.54,4.34l-1.4,5.6c-1.12,4.2.84,6.86,4.76,7.98,1.26.28,2.38.42,3.22.28l1.96-7.14-4.34-1.12,1.96-3.36,10.08,2.66-3.22,11.9c-3.36,1.26-7.14,1.26-10.92.28-8.68-2.1-12.32-8.4-10.36-15.96" style="fill:#fff;stroke-width:0px"/>
  <path d="m288.82,46.48c.28-.98.42-2.1.14-3.92l.14-.28,17.36,9.52-.84,3.92-10.5-5.74-2.94,5.46,8.12,4.48-2.8,2.8-7.14-3.92-3.5,6.44,11.06,6.02-2.8,2.8-16.1-8.82,9.1-16.66c.28-.98.56-1.54.7-2.1" style="fill:#fff;stroke-width:0px"/>
  <path d="m324.1,68.88c.56-.98.84-2.1,1.12-3.78l.28-.28,6.58,5.88-14,15.68,8.68,7.7-3.36,2.24-13.16-11.62,12.6-14.28c.56-.56.98-.98,1.26-1.54" style="fill:#fff;stroke-width:0px"/>
  <path d="m352.24,97.16c.7-.84,1.26-1.82,1.82-3.5l.28-.14,11.48,16.1-2.38,3.08-7-9.8-5.04,3.64,5.32,7.42-3.64,1.4-4.76-6.58-5.88,4.2,7.28,10.22-3.78,1.26-10.64-14.98,15.4-11.06c.56-.42,1.12-.84,1.54-1.26" style="fill:#fff;stroke-width:0px"/>
  <path d="m355.88,138.46l4.34-1.82.14.28c-1.12,3.08-.84,6.58.42,9.66,1.26,2.94,2.94,4.48,4.9,3.78,1.26-.56,1.82-1.54,1.68-3.64l-.56-5.74c-.42-4.34.7-7.28,3.92-8.68,4.2-1.68,8.82.7,11.34,7,1.26,2.94,1.68,6.02,1.26,8.54l-4.2,1.68-.14-.28c1.12-2.52.7-5.74-.42-8.4-1.12-2.52-2.66-4.06-4.2-3.36-1.12.42-1.54,1.68-1.26,3.5l.56,5.74c.42,4.62-.7,7.84-4.2,9.24-4.9,1.96-9.38-1.4-11.9-7.56-1.68-3.36-2.24-7.28-1.68-9.94" style="fill:#fff;stroke-width:0px"/>
  <path d="m116.06,201.32l-24.92,3.92c2.52-63.56,54.88-114.38,119-114.38h0v63.56l.56.14,1.68-6.72h31.22l.28.84c-.28,2.24-.14,9.1,11.2,14l.28.84-45.36-1.12-45.36,1.12.28-.84c11.48-4.9,11.62-11.62,11.2-14l.28-.84h31.08l-1.54-6.16-22.68.84.14-.56c6.72-3.78,7-9.24,6.86-11.2l.28-.7h12.32l-3.64-14c-44.1,5.04-79.1,40.74-83.16,85.26m174.44-40.74l-3.64,11.06.84,1.68h32.9l1.4-4.06c-16.1-44.1-57.68-76.02-106.96-78.12l3.92,24.92c30.24,2.8,56.28,19.88,71.54,44.52m-2.94,86.24l-.84,1.68,3.64,11.06c-15.12,24.64-41.3,41.72-71.54,44.52l-3.92,25.06c49.28-1.96,90.72-33.88,106.96-78.12l-1.4-4.06h-32.9v-.14Zm-30.1-76.86l-.28-.98h-94.36l-.28.98c-.14,2.8-1.4,11.76-13.72,24.08l-.28.98c6.86-2.94,13.16-5.46,18.9-7.56,7.14-2.66,13.86-4.76,20.3-6.58,3.5-.98,7.14-1.82,10.5-2.52,3.64-.7,7.28-1.4,10.78-1.82l.7-.14.7.14c3.08.42,6.16.84,9.24,1.54,2.94.56,6.02,1.26,9.1,2.1,5.6,1.4,11.48,3.22,17.64,5.46,8.54,2.94,16.8,6.44,24.92,9.94l-.42-1.4c-12.04-12.32-13.3-21.28-13.44-24.22m-21-27.86c-6.72-3.78-7-9.24-6.86-11.2l-.28-.7h-12.32l-3.08,11.62,22.68.84-.14-.56Zm-5.32,123.62c.14.14.14.28.28.42h0c.28.28.7.56,1.12.98.42.28.98.56,1.68.84h0c1.12.56,2.52.98,4.34,1.4,3.22.84,7,1.26,10.08,1.54.84.14,1.82.14,2.66.28,1.4-4.2,3.22-8.4,5.32-12.6-3.78,1.68-7.84,3.22-12.18,4.34-5.46,1.54-10.08,2.38-13.3,2.8m-49.42,3.64c1.82-.42,3.22-.84,4.34-1.4h0c.7-.28,1.12-.56,1.68-.84.42-.28.84-.56,1.12-.98h0c.14-.14.28-.28.28-.42-3.22-.42-7.84-1.26-13.3-2.8-4.34-1.26-8.4-2.66-12.18-4.34,2.1,4.2,3.92,8.4,5.32,12.6.98-.14,1.82-.14,2.66-.28,3.08-.28,6.86-.7,10.08-1.54m147.28-59.36h0v4.76l-24.92,3.92-26.18,4.06c-5.6,9.1-11.62,18.06-16.8,27.16-.56.42-1.26.7-1.82,1.12-8.26,4.76-17.64,7.56-27.72,8.4.84-2.1,2.24-4.34,3.64-6.44.7-1.12,1.54-2.38,2.66-3.78.84-1.26,1.82-2.38,2.8-3.78,2.66-3.36,5.32-6.86,7.98-10.08,1.26-1.68,2.66-3.36,3.92-5.04l2.94-3.78c.14-.14.28-.28.42-.56.84-1.12,1.68-2.24,2.52-3.36.98-1.26,1.82-2.66,2.8-3.92.28-.42.56-.84.84-1.26.14-.28.28-.56.42-.7h0l-5.04-1.4v.14c-.28.42-.56.84-.84,1.26-.7,1.12-1.68,2.38-2.66,3.78-1.54,1.96-3.5,4.48-5.6,7l-.42.42h0c-2.66,3.08-5.6,6.16-8.4,9.1-1.54,1.68-3.22,3.5-4.9,5.18-1.96,2.24-4.34,4.76-6.44,7.56-.98,1.4-1.96,2.8-2.94,4.2-.7,1.26-1.68,2.8-2.38,4.62-.56,1.26-1.12,3.22-1.12,5.6,0,2.24.98,4.48,2.52,6.16.84.98,1.82,1.68,2.66,2.24h0c1.12.7,2.1,1.12,2.94,1.54,1.82.7,3.78,1.26,6.02,1.68,1.96.42,4.06.56,5.88.7,2.1.14,4.06.14,5.74.14h1.4c-.28,1.12-.56,2.24-.84,3.5h0l-17.5,6.3-10.78,4.06-7.56-77.7-.7-7-1.4-14.28-.84.28v137.2c-65.8,0-119-53.2-119.14-119h0v-.14h77l.28-.7-11.34-3.08-10.78-2.94.42-1.12c19.6-8.68,41.02-17.08,63.56-20.16,22.12,2.94,43.4,11.76,63.7,20.44l.28.84-10.78,2.94-11.34,3.08.28.7h77.56v.14Zm-127.68,93.94l-2.1-13.58-10.36-3.92-17.36-6.3h-.14c-.28-1.12-.56-2.24-.84-3.5h1.4c1.68,0,3.78,0,5.74-.14,1.82-.14,3.92-.28,5.88-.7,2.38-.42,4.2-.98,6.02-1.68.98-.42,1.96-.84,3.08-1.54h0c.84-.56,1.82-1.26,2.66-2.24,1.54-1.68,2.52-3.92,2.52-6.16,0-1.12,0-2.8-1.12-5.6-.7-1.82-1.68-3.36-2.38-4.62-.84-1.4-1.82-2.8-2.94-4.2-2.1-2.8-4.48-5.32-6.44-7.56-1.68-1.82-3.22-3.5-4.9-5.18-2.8-2.94-5.74-6.02-8.4-9.1h0c-.14-.14-.28-.28-.28-.42-2.24-2.52-4.2-5.04-5.6-7-1.12-1.4-1.96-2.66-2.66-3.78-.28-.42-.56-.84-.7-1.26v-.14l-5.04,1.4h0c.14.28.28.56.42.7.28.42.56.84.84,1.26.98,1.4,1.82,2.8,2.8,3.92.84,1.12,1.68,2.24,2.52,3.36l.42.42,2.94,3.78c1.26,1.68,2.66,3.36,3.92,4.9,2.66,3.36,5.46,6.72,7.98,10.08.98,1.4,1.96,2.52,2.8,3.78,1.12,1.4,1.96,2.66,2.66,3.78,1.4,2.1,2.66,4.2,3.64,6.44-10.08-.84-19.32-3.78-27.72-8.4-.7-.42-1.26-.7-1.96-1.12-5.18-9.1-11.2-18.06-16.8-27.16l-26.18-4.06c4.62,45.5,40.6,81.48,85.68,85.54" style="stroke-width:0px;fill:#12173f"/>
</svg>
