<?xml version="1.0" encoding="UTF-8"?>
<svg id="Layer" xmlns="http://www.w3.org/2000/svg" viewBox="0 0 420 434.6">
  <defs/>
  <g>
    <path d="m91.39,58.44S127.14,0,200.28,0s107.27,56.71,107.27,56.71h99.27l-3.89,24.41s-2.92,9.72-7.35,10.69h6.81s2.27,8.53-11.34,38.02h28.95s1.19,51.64-61.25,76.05c0,0-32.3,10.26-48.83-7.35,0,0-32.84,61.25-109.43,61.25s-111.37-62.98-111.37-62.98H0l14.15-25.49H4.54l11.34-20.96h19.34l3.46-7.99h-9.07l22.14-40.83h12.42l5.08-12.42h-10.8l16.53-30.68h16.42Z" style="stroke-width:0px;fill:#fff"/>
    <path d="m201.36,246.19c62.65,0,113.43-51.53,113.43-115.15S264.01,15.88,201.36,15.88s-113.43,51.53-113.43,115.15,50.77,115.15,113.43,115.15" style="stroke-width:0px;fill:#fab624"/>
    <path d="m290.48,56.6c-1.4-1.62-3.46-5.08-17.39-17.28-20.52-17.82-47.64-26.03-73.24-26.03-18.8,0-35.32,4.21-53.47,14.26-23.33,12.75-32.84,27.55-35.22,30.57-1.73,2.27-2.05,3.46-.86,4.1.86.43,2.38-1.3,3.78-3.24,6.91-9.18,15.99-18.15,25.49-23.55,3.02.43,7.13,4.54,8.75,6.81-6.16,3.35-16.31,11.02-20.09,14.04-3.35,2.59-4.43,4-3.56,5.08.76.86,3.35-.86,5.4-2.59,3.67-3.02,14.58-10.69,19.98-13.61,3.67,4.21,2.48,12.21,1.19,14.04-.76.97-.76,1.94,0,2.38s1.62-.65,2.7-2.27c2.59-3.56,1.51-12.42-.65-15.56,6.59-4,16.1-6.81,21.82-8.1.54.97,7.45,21.28,8.75,24.85.76,2.05,1.51,4.43,2.92,3.89.97-.32.32-2.59-.54-4.75-1.08-2.81-6.27-19.77-7.89-24.85,1.94-1.08,13.29-3.35,16.2-3.24-1.4,7.45,3.78,10.48,9.83,14.37,3.24,2.05,23.23,13.61,27.44,16.2,2.38,1.51,4.21,2.48,4.75,1.73.54-.86-1.08-2.48-3.35-3.67-1.84-1.08-20.42-11.88-28.19-16.85-5.62-3.46-8.64-7.35-7.24-12.21,1.84-.54,7.45-.54,13.29-.54,39.75.32,71.73,23.23,75.29,26.79,1.84,1.84,4.32,3.46,5.29,2.7.76-.32-.32-2.48-1.19-3.46m-138.81-15.77c-1.08-1.84-6.16-6.37-8.86-7.35,6.37-4.65,21.17-11.45,26.79-12.64.97,1.62,3.56,8.53,4.43,11.34-4.86,1.08-18.04,5.94-22.36,8.64m43.53-12.75c-5.19.32-14.58,2.38-17.93,3.35-.86-2.27-3.24-9.29-4-11.45,9.61-2.7,20.63-3.56,29.27-2.92-2.48,1.73-6.48,8.86-7.35,11.02m25.82-.32c-8.64-.65-15.66-.86-21.82-.22,1.84-4.43,5.29-8.75,8.1-10.48,5.83.22,11.88,1.08,16.85,2.05,15.45,3.13,39.32,12.42,49.69,26.25-13.83-9.29-36.73-16.53-52.82-17.61" style="fill:#0b1a23;stroke-width:0px"/>
    <path d="m299.12,192.93c1.51-2.7,2.7-4.21,1.4-4.97-1.19-.65-2.27,1.94-3.67,4.21-4.65,8.1-9.72,14.8-21.17,25.17-12.64,11.56-27.33,18.26-32.41,19.98-4.32-12.1-20.85-63.95-21.28-65.46-.65-2.27-1.19-2.92-1.94-2.59-.86.32-.32,1.51.11,3.46.43,1.94,20.09,63.19,20.74,65.46-3.89,1.94-19.66,6.37-30.79,6.7-9.94.32-21.39,0-27.22-1.4-6.81-5.51-22.47-27.55-28.3-39.21-7.02-13.83-11.56-26.47-12.75-31.87-.54-2.59-1.3-4.43-2.59-4.1-1.4.32-.65,2.38.22,5.08,2.16,7.13,5.51,17.18,12.75,31.54,7.67,15.23,21.39,32.95,25.39,37.92-12.53-2.7-27.76-8.53-42.24-19.23-12.42-9.29-23.23-21.17-28.63-29.81-.97-1.51-2.05-3.56-3.35-2.7-.65.43.11,2.16,1.08,3.67,7.89,14.04,26.9,33.92,51.42,44.94,28.52,12.75,59.52,11.99,87.5,1.3,24.2-9.61,45.26-28.95,55.74-48.07" style="fill:#0b1a23;stroke-width:0px"/>
  </g>
  <g>
    <path d="m253.1,142.92c-10.59,12.85-16.64,17.28-27.33,17.28-3.56,0-5.51-.86-4.54-2.59l12.75-25.6h4.86c5.4,0,4.65,4.54,3.24,10.69-.32.86.43.97,1.08.22l12.1-21.28c.65-1.4-.97-1.62-1.73-.65-6.05,8.32-12.42,7.67-15.23,7.67h-2.27l13.61-26.03h5.51c6.91.43,10.15,6.27,8.21,20.42h2.92l10.05-19.77c.86-1.73-.97-3.24-2.81-3.24h-67.95c-3.89,0-4.1,3.02-.32,3.02,3.13,0,2.92,4.32.11,6.48l-28.84,22.9,5.83,27.01c.43,2.05,1.73,3.02,4,3.02h56.28c2.38,0,3.35-.97,4-1.94l10.26-17.5c1.19-2.48-2.05-2.27-3.78-.11m-39.32-12.42h-4.97c-.32,0-.65.32-.65.65s.32.65.65.65h4.97c1.73,0,3.35.22,2.92.97l-12.96,24.63c-1.62,3.02-4.97,2.27-5.51-.11l-6.48-33.27,22.69-17.5c2.27-1.94,6.59-5.08,8.86-4.97h4.86c3.02,0,4,1.4,3.46,3.24l-.86,1.73c-.54.97-2.38,1.08-3.78,1.08h-2.92c-.32,0-.65.32-.65.65s.32.65.65.65h2.81c1.19,0,2.81,0,2.16.97l-10.48,19.98c-.65.54-2.81.65-4.75.65" style="stroke-width:0px;fill:#542c81"/>
    <path d="m167.22,159.55c-1.51,0-2.59-1.08-2.92-2.16-.54-1.51-.43-4,.11-5.08l26.25-46.45c.43-.86,1.51-2.7,2.81-2.7,2.38,0,3.35-3.13-.65-3.13h-20.96c-3.89,0-3.89,3.02-.22,3.02,1.51,0,2.16,1.51,1.73,2.48l-5.83,10.48c-.76,1.19-2.38,1.3-4,1.3h-4.97c-.32,0-.65.32-.65.65s.32.65.65.65h4.97c1.4,0,2.48.43,1.62,2.05l-19.34,35.32c-1.4,1.94-4.1,2.38-4-1.4l6.91-51.74c.32-1.62-.11-2.7-1.94-2.7h-10.48c-1.3,0-2.05.65-2.59,1.4l-3.67,4.65c-.54.54-1.51.54-2.7.54h-8.75c-.32,0-.65.32-.65.65s.32.65.65.65h7.13c1.3,0,2.81.32,2.27.86l-10.05,12.53c-.32.32-1.3.43-1.94.43h-2.92c-.32,0-.65.32-.65.65s.32.65.65.65h2.38c.76,0,.76.32.43.65l-9.4,11.77c-.54.43-1.4.54-2.38.54h-8.32c-.32,0-.65.32-.65.65s.32.65.65.65h7.13c1.08,0,1.94.22,1.4.97l-13.29,16.74c-2.59,3.24-14.58,4.75-16.96,4.75l45.15-84.47c.43-.97,2.16-2.48,3.78-2.48h9.61c4.43,0,4.32-3.02.43-3.02h-47.96c-3.89,0-4,3.02.43,3.02h8.97c2.59,0,3.35,1.51,2.7,2.81l-1.3,2.38c-.43.76-1.08,1.08-3.46,1.08h-15.88c-.32,0-.65.32-.65.65s.32.65.65.65h15.77c.86,0,2.16.22,1.4,1.84l-2.27,4.1c-.43.65-1.4.97-2.48.97h-7.13c-.32,0-.65.32-.65.65s.32.65.65.65h7.13c1.08,0,1.08.65.43,1.62l-5.08,9.51c-.43.86-1.3.97-2.92.97h-2.92c-.32,0-.65.32-.65.65s.32.65.65.65h2.92c1.08,0,1.4.65.86,1.62l-4.1,7.78c-.65,1.08-1.51,1.62-4.21,1.62h-15.77c-.32,0-.65.32-.65.65s.32.65.65.65h15.77c1.84,0,2.48.86,1.73,2.16l-8.1,15.34c-.54.65-1.84.76-4,.76h-15.88c-.32,0-.65.32-.65.65s.32.65.65.65h15.66c1.94,0,3.13.11,2.48,1.08l-4.65,8.86c-.86,1.4-3.35,1.4-4.21,1.4h-4.97c-.32,0-.65.32-.65.65s.32.65.65.65h4.97c1.73,0,2.7.32,2.27,1.3l-6.27,11.77c-.54,1.08-3.02,1.08-4.86,1.08h-24.52c-.32,0-.65.32-.65.65s.32.65.65.65h24.41c1.62,0,3.56.22,2.92,1.51l-4,7.56c-.43.65-1.73.65-3.67.65h-4.97c-.32,0-.65.32-.65.65s.32.65.65.65h4.97c1.19,0,2.7.11,2.16,1.08l-2.48,4.75c-.86,1.19-1.62,2.27-3.46,2.27h-12.64c-4.43,0-4.32,3.02-.43,3.02h71.84c2.16,0,2.16-.32,3.24-1.84l10.59-18.58h54.44c4-1.08,2.92-4.11.65-4.21m-42.78-5.51c-.54,3.13-3.56,5.08-7.45,6.05l-4,.97,3.35-5.94c.86-1.62-1.08-2.59-3.13-.22-13.94,16.2-18.26,23.98-39.75,24.09h-5.83c-1.73,0-3.56-.65-2.48-2.38l7.56-14.15h28.84c3.89,0,2.92-3.02.65-3.13-1.51,0-3.24-.97-4.32-2.81-.32-.54-1.08-2.59.11-4.1l11.02-14.69h18.15l-2.7,16.31Zm4.21-18.47h-17.82l22.69-29.92-4.86,29.92Z" style="stroke-width:0px;fill:#542c81"/>
    <path d="m400.99,144.75c-.32-1.51-.86-.54-1.84,1.3-.32.54-1.3.54-2.16.54h-2.92c-.32,0-.65.32-.65.65s.32.65.65.65h2.92c1.08,0,1.08.76.65,1.84-2.05,4.21-4,7.02-6.7,10.48-.43.54-1.51.97-2.38.97h-2.92c-.32,0-.65.32-.65.65s.32.65.65.65h2.92c1.4,0,0,.86-.22,1.19-4.97,6.7-8.53,9.72-12.1,12.64-.43.32-2.59.22-3.89.22h-2.92c-.32,0-.65.32-.65.65s.32.65.65.65h2.81c2.16,0,.54,1.3.22,1.51-7.89,6.48-19.44,8.64-24.74,7.99-17.39-2.16-20.85-15.34-22.14-20.52-.32-1.08-1.08-3.35-1.4-4.75-.54-2.81,7.24-3.46,9.51-2.16,3.35,2.27,10.8,4.43,16.96,4.43,5.51,0,16.96-4,20.2-13.5,3.46-9.83-5.08-20.52-8.86-24.41-4.75-4.75-9.29-12.31-7.35-17.93,1.4-4.1,3.78-6.05,8.97-6.05,6.59,0,11.45,4.21,11.45,10.37,0,.54-.32,1.19-.76,1.19h-2.38c-.32,0-.65.32-.65.65s.32.65.65.65h2.27c.65,0,.97.43.86,1.3-.43,2.05-.54,3.46-1.08,5.4-.22,1.19,1.51,2.05,2.05,1.19l10.48-18.58c.76-1.4-.97-1.84-2.16-1.4-2.92.97-7.45,1.73-9.18.54-3.89-2.81-7.45-4.54-12.85-4.54-9.29,0-15.77,2.27-19.88,9.94-.32.65-1.3.54-2.05.54h-1.84c-.32,0-.65.32-.65.65s.32.65.65.65h1.51c.65,0,1.08.22.76.97-.32.65-.54,1.4-.76,2.16-1.08,3.35-.76,7.89.97,11.99.11.32-.22.43-.86.43h-2.92c-.32,0-.65.32-.65.65s.32.65.65.65h2.92c1.3,0,1.62.11,2.16.86,1.51,2.05,3.02,3.56,4.75,5.94.65.76-1.94.97-3.35.97h-11.13c-.32,0-.65.32-.65.65s.32.65.65.65h11.34c1.84,0,4.97,0,5.29.32,2.81,3.24,6.05,8.1,6.59,12.1.11,1.19-.32,1.73-1.73,1.73h-1.51c-.32,0-.65.32-.65.65s.32.65.65.65h1.4c1.19,0,1.84.22,1.51,1.08-1.51,4.65-3.67,8.1-12.64,8.1-9.51,0-11.34-9.29-8.64-18.9.54-1.94,0-2.81-.86-1.3l-6.59,10.37c-.22.22-.76.86-1.84.86h-.97c-.32,0-.65.32-.65.65s.32.65.65.65c.86,0,1.19.43.86.86l-2.48,3.67c-3.89-9.07-10.59-20.2-14.15-24.31l.11-.22c8.75-.54,21.6-8.75,23.77-16.1,3.56-12.64-8.75-17.39-15.45-17.39h-29.6c-3.89,0-4.21,3.02-.43,3.02,2.05,0,3.78,1.84,2.92,3.56l-6.59,11.77c-.54.97-2.59.97-5.19.97h-2.92c-.32,0-.65.32-.65.65s.32.65.65.65h2.81c1.94,0,3.89.11,3.35,1.51l-7.78,13.94c-.43.65-1.4.76-4,.76h-2.92c-.32,0-.65.32-.65.65s.32.65.65.65h2.81c2.16,0,2.92.32,2.27,1.4l-10.37,18.69c-1.3,1.4-2.7,1.62-5.19,1.62-3.67,0-3.67,3.02.22,3.02h25.28c3.89,0,3.02-3.13.65-3.13-1.4,0-2.81-2.59-1.94-4l12.85-24.52h1.3c5.73,0,7.13,9.51,8.21,19.66.11.76-1.3.76-4.1.76h-7.24c-.32,0-.65.32-.65.65s.32.65.65.65h7.13c1.94,0,4.43,0,4.54.65.54,4.43.86,8.53,1.73,12.1.32,1.19-1.73.97-3.89.97h-9.29c-.32,0-.65.32-.65.65s.32.65.65.65h9.18c2.92,0,4.32,0,4.43.54,3.89,14.48,20.85,25.82,37.27,25.17,14.04-.54,25.93-8.21,31.98-13.07,8.1-6.48,19.98-20.09,24.85-30.03.86-2.16,2.38-4.54,2.05-6.16m-94.85-19.23c-2.05,1.62-5.08,3.46-5.62,2.92-.86-.86-3.46-2.7-4.86-3.35l11.67-21.39c.54-.76,1.08-1.19,2.38-1.19,4.54,0,6.05,4.97,3.89,11.13-1.51,4.32-3.89,9.07-7.45,11.88" style="stroke-width:0px;fill:#542c81"/>
    <path d="m163.76,81.02c-2.38,3.13-5.51,3.78-9.07,3.78h-.97l6.27-12.31c.32-.54.97-.97,1.84-.97.76,0,.65-1.62-.32-1.62h-9.83c-.86,0-1.19,1.62-.32,1.62s.97.97.65,1.73l-5.51,10.91c-.43.65-.97.76-1.73.97-.86.22-1.4,1.73-.43,1.73h15.66c1.19,0,1.51-.43,1.84-.86l3.24-4.86c0-.54-.86-.65-1.3-.11" style="stroke-width:0px;fill:#542c81"/>
    <path d="m319.54,74.75l1.4-2.59c.65-1.08-.43-2.38-1.94-2.38h-18.26c-1.3,0-.97,1.4-.43,1.4,1.19,0,1.51,1.4.86,2.7l-5.51,10.15c-.86.97-1.4,1.4-2.59,1.4-.97,0-1.3,1.4,0,1.4h18.47c.76,0,1.08-.32,1.4-.65l2.59-3.35c.65-.86-.76-.86-1.08-.43-3.24,3.24-6.59,3.13-9.18,3.13h-2.16l2.59-5.62h.54c1.62,0,3.46,0,4,1.3.11.32.97.54,1.3,0l2.16-4.32c.32-.65-.65-.76-.86-.32-.86,1.51-4.54,1.08-5.62,1.08h-.54l3.24-6.27h3.46c2.27,0,4,1.62,4.65,3.24.22.32,1.3.65,1.51.11" style="stroke-width:0px;fill:#542c81"/>
    <path d="m388.02,70.43c-.43.22-1.62.43-2.16,0-1.3-1.08-3.67-1.84-4.97-1.84-3.67,0-6.37.76-7.99,4.21-1.4,3.02,0,5.4,3.35,7.02,1.4.65,3.35,1.51,2.59,3.24-.54,1.3-2.05,1.4-3.35,1.4-1.73,0-4.32-1.3-4.75-3.78-.11-.86-1.08-.65-1.4-.22l-2.27,4.43c-.32.65.54,1.3.97.86.76-.86,2.48-.97,3.24-.43,1.08.76,3.89,2.05,5.62,2.05,3.67,0,6.16-.97,8.32-4.1,1.94-3.02.76-5.83-2.7-7.45-1.84-.86-3.35-2.38-2.59-4,.54-1.08,2.16-.86,3.02-.76,1.51.22,3.46,1.73,3.67,3.02.11.54.76.65,1.08.11l1.19-2.81c.22-.76-.65-1.19-.86-.97" style="stroke-width:0px;fill:#542c81"/>
    <path d="m338.98,81.02c-2.38,3.13-5.51,3.78-9.07,3.78h-.97l6.27-12.31c.32-.54.97-.97,1.84-.97.76,0,.65-1.62-.32-1.62h-9.83c-.86,0-1.19,1.62-.32,1.62s.97.97.65,1.73l-5.51,10.91c-.43.65-.97.76-1.73.97-.86.22-1.4,1.73-.43,1.73h15.66c1.19,0,1.51-.43,1.84-.86l3.24-4.86c0-.54-.86-.65-1.3-.11" style="stroke-width:0px;fill:#542c81"/>
    <path d="m362.53,71.4c2.27,0,4,1.62,4.65,3.24.11.43,1.3.76,1.62.22l1.4-2.59c.65-1.08-.43-2.38-1.94-2.38h-18.26c-1.3,0-.97,1.4-.43,1.4,1.19,0,1.51,1.4.86,2.7l-5.51,10.15c-.86.97-1.4,1.4-2.59,1.4-.97,0-1.3,1.4,0,1.4h18.47c.76,0,1.08-.32,1.4-.65l2.59-3.35c.65-.86-.76-.86-1.08-.43-3.24,3.24-6.59,3.13-9.18,3.13h-2.16l2.59-5.62h.54c1.62,0,3.46,0,4,1.19.11.32.97.54,1.3,0l2.16-4.32c.32-.65-.65-.76-.86-.32-.86,1.51-4.54,1.08-5.62,1.08h-.54l3.24-6.27h3.46-.11Z" style="stroke-width:0px;fill:#542c81"/>
    <path d="m272.76,69.89h-6.48c-1.3,0-.97,1.4-.43,1.4,1.4,0,2.7,1.62,1.94,3.13l-2.7,4.86-5.94-8.75c-.43-.54-1.4-.86-2.16-.86h-6.37c-1.3,0-1.08,1.4-.43,1.4,1.4,0,.97,1.08.65,1.73l-5.08,9.83c-.32.76-1.73.86-2.16-.11l-3.89-12.85c-.22-.54-2.48-.54-3.13,0l-9.94,8.21h-5.08c-1.08,0-1.4.43-1.4.97s.43,1.08,1.51,1.08h2.7l-2.7,2.27c-1.51,1.08-3.02,2.7-4,2.7h-.65c-.97,0-1.51.11-1.51.97,0,.76.43,1.08,1.3,1.08h7.99c1.51,0,1.19-1.94.43-1.94-.86,0-2.27-1.08-.97-2.59l2.48-2.38h4.75c2.92,0,4.75,3.35,3.24,4.32l-1.3.76c-.65.32-.86,1.84,0,1.84h15.66c1.19,0,.97-1.51.43-1.51-1.62,0-.86-2.38-.54-2.92l4.1-7.78,5.73,11.13c.43.76.76,1.08,1.4,1.08h2.27c.76,0,.97-.43,1.3-.97l6.59-11.77c1.08-2.16,1.94-2.81,3.24-2.81.11,0,.54-1.51-.86-1.51m-43.64,8.1l6.05-4.97v4.97h-6.05Z" style="stroke-width:0px;fill:#542c81"/>
    <path d="m180.4,69.24c-5.51,0-11.13,2.7-12.21,8.53-.97,4.97,2.48,10.26,8.64,10.26,5.83,0,11.13-3.78,12.31-9.4.97-5.62-3.24-9.4-8.75-9.4m1.51,10.59c-1.73,3.46-4.65,5.51-6.48,4.54-1.84-.97-1.94-4.43-.22-7.99,1.73-3.46,4.65-5.51,6.48-4.54,1.94.97,2.05,4.43.22,7.99" style="stroke-width:0px;fill:#542c81"/>
    <path d="m210.86,70.43c-.43.22-1.62.43-2.16,0-1.3-1.08-3.67-1.84-4.97-1.84-3.67,0-6.37.76-7.99,4.21-1.4,3.02,0,5.4,3.35,7.02,1.4.65,3.35,1.51,2.59,3.24-.54,1.3-2.05,1.4-3.35,1.4-1.73,0-4.32-1.3-4.75-3.78-.11-.86-1.08-.65-1.4-.22l-2.27,4.43c-.32.65.54,1.3.97.86.76-.86,2.38-.97,3.24-.43,1.08.76,3.89,2.05,5.62,2.05,3.67,0,6.16-.97,8.32-4.1,1.94-3.02.76-5.83-2.7-7.45-1.84-.86-3.35-2.38-2.59-4,.54-1.08,2.16-.86,3.02-.76,1.51.22,3.46,1.73,3.67,3.02.11.54.76.65,1.08.11l1.19-2.81c.32-.76-.54-1.19-.86-.97" style="stroke-width:0px;fill:#542c81"/>
    <path d="m291.34,77.56h-7.02c-1.3,0-.97,1.4-.43,1.4s1.08.32,1.08,1.19c0,2.92-1.19,3.89-3.56,3.89-2.7,0-3.56-3.35-1.84-7.24,1.19-2.59,4.21-4.86,7.89-4.86,2.27,0,4,.54,4.32,2.59.11.54.86.54,1.08,0l1.73-3.02c.22-.32-.11-.76-.65-.76-.43,0-1.4.54-2.05.11-1.4-1.08-4.43-2.05-6.81-2.05-3.78,0-9.07.86-12.64,7.02-3.24,5.62,1.51,11.45,5.83,11.45,2.48,0,5.19-1.84,6.81-2.48l1.84,1.19c.32.32.86.76,1.4.76h.65c.65,0,.86-.86,1.08-1.4l2.81-6.7c.22-.54,0-1.08-1.51-1.08" style="stroke-width:0px;fill:#542c81"/>
  </g>
</svg>
