<?xml version="1.0" encoding="UTF-8"?>
<svg id="Layer" xmlns="http://www.w3.org/2000/svg" viewBox="0 0 420 558.08">
  <defs/>
  <path d="m84.45,479.96c0-5.85-4.71-10.56-10.56-10.56h-19.81v37.35h8.77v-11.69h8.12c2.6,0,4.71,2.11,4.71,4.71v6.82h8.77v-6.82c0-3.09-.97-5.85-2.76-8.12,1.95-1.95,3.09-4.55,3.09-7.63v-4.06h-.32Zm-10.56-1.95c.97,0,1.95.81,1.95,1.95v4.22c0,1.14-.97,2.27-2.27,2.27h-10.88v-8.28h11.21v-.16Z" style="stroke-width:0px;fill:#12173f"/>
  <polygon points="280.49 506.76 249.47 506.76 249.47 469.4 258.24 469.4 258.24 497.99 280.49 497.99 280.49 506.76" style="stroke-width:0px;fill:#12173f"/>
  <polygon points="366.73 478.01 366.73 469.4 335.71 469.4 335.71 506.76 366.73 506.76 366.73 497.99 344.48 497.99 344.48 491.98 363.64 491.98 363.64 483.21 344.48 483.21 344.48 478.01 366.73 478.01" style="stroke-width:0px;fill:#12173f"/>
  <polygon points="170.86 506.76 137.24 506.76 156.57 478.01 139.35 478.01 139.35 469.4 172.81 469.4 153.64 497.99 170.86 497.99 170.86 506.76" style="stroke-width:0px;fill:#12173f"/>
  <polygon points="224.94 506.76 191.32 506.76 210.49 478.01 193.27 478.01 193.27 469.4 226.89 469.4 207.56 497.99 224.94 497.99 224.94 506.76" style="stroke-width:0px;fill:#12173f"/>
  <rect x="302.09" y="469.4" width="8.77" height="37.35" style="stroke-width:0px;fill:#12173f"/>
  <rect x="107.68" y="469.4" width="8.77" height="37.35" style="stroke-width:0px;fill:#12173f"/>
  <rect x="107.68" y="469.4" width="8.77" height="37.35" style="stroke-width:0px;fill:#12173f"/>
  <path d="m255.64,387.55h-31.83v68.38h15.75v-22.09h16.08c10.56,0,19.16-8.61,19.16-19.16v-8.12c0-10.39-8.61-19-19.16-19Zm3.41,27.12c0,1.95-1.62,3.41-3.41,3.41h-16.08v-14.94h16.08c1.95,0,3.41,1.62,3.41,3.41v8.12Z" style="stroke-width:0px;fill:#12173f"/>
  <path d="m232.25,455.92h-1.3v-61.23h24.52c6.66,0,12.02,5.36,12.02,12.02v8.12c0,6.66-5.36,12.02-12.02,12.02h-23.23v29.07Zm0-30.53h23.23c5.85,0,10.72-4.71,10.72-10.72v-8.12c0-5.85-4.71-10.72-10.72-10.72h-23.23v29.56Z" style="stroke-width:0px;fill:#5d76a9"/>
  <polygon points="133.83 403.14 133.83 387.55 81.86 387.55 81.86 455.92 133.83 455.92 133.83 440.17 97.61 440.17 97.61 429.61 128.14 429.61 128.14 413.86 97.61 413.86 97.61 403.14 133.83 403.14" style="stroke-width:0px;fill:#12173f"/>
  <polygon points="133.83 395.99 133.83 394.69 89.16 394.69 89.16 448.77 133.83 448.77 133.83 447.48 90.46 447.48 90.46 422.3 128.14 422.3 128.14 421 90.46 421 90.46 395.99 133.83 395.99" style="stroke-width:0px;fill:#5d76a9"/>
  <path d="m196.19,387.55h-54.25v68.38h15.75v-52.62h13.16v52.62h15.75v-52.62h9.74c1.95,0,3.41,1.62,3.41,3.41v49.21h15.75v-49.21c-.16-10.56-8.77-19.16-19.33-19.16" style="stroke-width:0px;fill:#12173f"/>
  <path d="m196.19,394.69h-47.1v61.23h1.3v-59.77h27.61v59.93h1.3v-59.93h16.89c5.85,0,10.72,4.71,10.72,10.72v49.21h1.3v-49.21c0-6.82-5.52-12.18-12.02-12.18" style="stroke-width:0px;fill:#5d76a9"/>
  <path d="m54.25,387.55H0v68.38h15.75v-52.62h13.16v52.62h15.75v-52.62h9.74c1.95,0,3.41,1.62,3.41,3.41v49.21h15.75v-49.21c-.16-10.56-8.77-19.16-19.33-19.16" style="stroke-width:0px;fill:#12173f"/>
  <path d="m54.25,394.69H7.15v61.23h1.3v-59.77h27.61v59.93h1.3v-59.93h16.89c5.85,0,10.72,4.71,10.72,10.72v49.21h1.3v-49.21c0-6.82-5.36-12.18-12.02-12.18" style="stroke-width:0px;fill:#5d76a9"/>
  <rect x="343.34" y="387.55" width="15.75" height="68.38" style="stroke-width:0px;fill:#12173f"/>
  <rect x="350.49" y="387.55" width="1.3" height="68.38" style="stroke-width:0px;fill:#5d76a9"/>
  <polygon points="317.35 387.55 317.35 413.86 297.87 413.86 297.87 387.55 282.11 387.55 282.11 455.92 297.87 455.92 297.87 429.61 317.35 429.61 317.35 455.92 333.11 455.92 333.11 387.55 317.35 387.55" style="stroke-width:0px;fill:#12173f"/>
  <polygon points="324.5 387.55 324.5 421 290.56 421 290.56 387.55 289.26 387.55 289.26 455.92 290.56 455.92 290.56 422.3 324.5 422.3 324.5 455.92 325.96 455.92 325.96 387.55 324.5 387.55" style="stroke-width:0px;fill:#5d76a9"/>
  <path d="m30.53,506.76H10.56c-5.85,0-10.56-4.71-10.56-10.56v-16.08c0-5.85,4.71-10.56,10.56-10.56h9.26c5.85,0,10.56,4.71,10.56,10.56v1.79h-8.77v-1.79c0-.97-.81-1.95-1.95-1.95h-9.26c-.97,0-1.95.81-1.95,1.95v16.08c0,.97.81,1.95,1.95,1.95h11.21v-3.41h-5.2v-8.77h13.81v20.79h.32Z" style="stroke-width:0px;fill:#12173f"/>
  <path d="m30.53,506.76H10.56c-5.85,0-10.56-4.71-10.56-10.56v-16.08c0-5.85,4.71-10.56,10.56-10.56h9.26c5.85,0,10.56,4.71,10.56,10.56v1.79h-8.77v-1.79c0-.97-.81-1.95-1.95-1.95h-9.26c-.97,0-1.95.81-1.95,1.95v16.08c0,.97.81,1.95,1.95,1.95h11.21v-3.41h-5.2v-8.77h13.81v20.79h.32Z" style="stroke-width:0px;fill:#12173f"/>
  <path d="m409.12,506.76h-9.26c-5.85,0-10.56-4.71-10.56-10.56v-1.3h8.77v1.3c0,.97.81,1.95,1.95,1.95h9.26c.97,0,1.95-.81,1.95-1.95v-1.62l-16.08-4.22c-3.41-.97-5.68-4.06-5.68-7.63v-2.27c0-6.01,4.87-10.88,10.88-10.88h9.1c5.85,0,10.56,4.71,10.56,10.56v1.79h-8.77v-1.79c0-.97-.81-1.95-1.95-1.95h-9.1c-1.14,0-2.11.97-2.11,2.11v1.79l16.08,4.22c3.41.97,5.68,4.06,5.68,7.63v2.11c0,6.01-4.87,10.72-10.72,10.72" style="stroke-width:0px;fill:#12173f"/>
  <path d="m400.67,455.76h-32.32v-21.76h15.75v6.01h16.57c1.95,0,3.57-1.62,3.57-3.57v-3.09l-25.66-7.96c-6.01-1.95-10.23-7.47-10.23-13.81v-4.87c0-10.72,8.61-19.33,19.33-19.33h32.32v22.58h-15.75v-6.82h-16.57c-1.95,0-3.57,1.62-3.57,3.57v3.9l25.5,7.8c6.17,1.95,10.23,7.47,10.23,13.97v4.06c.16,10.72-8.45,19.33-19.16,19.33" style="stroke-width:0px;fill:#12173f"/>
  <path d="m400.67,448.61h-25.01v-14.62h1.3v13.32h23.71c6.01,0,10.72-4.87,10.72-10.72v-4.06c0-2.6-1.79-5.03-4.22-5.85l-26.47-8.12c-3.09-.97-5.03-3.74-5.03-6.82v-4.87c0-6.66,5.36-12.18,12.18-12.18h25.01v15.43h-1.3v-14.13h-23.71c-6.01,0-10.72,4.87-10.72,10.72v4.87c0,2.6,1.62,4.87,4.22,5.68l26.47,8.12c3.09.97,5.2,3.74,5.2,6.98v4.06c-.16,6.82-5.68,12.18-12.34,12.18" style="stroke-width:0px;fill:#5d76a9"/>
  <path d="m376.15,84.16c4.71-8.93,6.98-17.87,6.98-26.47,0-19.49-10.88-36.87-26.15-47.26-21.28-14.45-53.11-16.4-75.68,10.56-32.97-4.55-60.58,4.55-71.14,8.93-10.56-4.39-38.17-13.32-71.14-8.93C116.45-5.98,84.45-4.03,63.34,10.42c-15.27,10.39-26.15,27.77-26.15,47.26,0,8.61,2.27,17.54,6.98,26.47-17.05,24.52-28.75,53.76-28.75,83.48,0,35.73,15.27,54.08,20.95,62.04l4.55-4.55c16.24,41.09,43.85,63.34,77.31,83.48,0,0,.81-4.06,1.46-7.63,36.06,31.18,53.11,23.55,90.46,65.78,37.19-42.06,54.9-34.92,90.46-65.78.65,3.57,1.46,7.63,1.46,7.63,14.94-8.93,56.84-31.51,77.31-83.48,2.11,2.11,4.55,4.55,4.55,4.55,3.57-4.87,20.95-24.36,20.95-62.04.16-29.72-11.69-58.79-28.75-83.48" style="fill:#707271;stroke-width:0px"/>
  <path d="m365.92,84.81c34.27-52.62-43.53-107.52-81.21-54.41-38.17-6.82-70.16,7.15-74.55,9.1-4.22-1.95-36.38-15.92-74.55-9.1-37.68-53.11-115.48,1.79-81.21,54.41-39.14,53.76-35.08,106.71-17.05,131.55l7.47-7.47s10.72,51.81,66.91,85.75l1.95-11.21c34.59,37.03,66.26,36.22,96.31,70,29.88-33.78,61.55-32.97,96.31-70l1.95,11.21c56.36-33.94,66.91-85.75,66.91-85.75l7.47,7.47c18.52-25.01,22.41-77.96-16.73-131.55" style="stroke-width:0px;fill:#12173f"/>
  <path d="m210.49,281.65s-27.12.49-31.02,2.92c0,0-4.71,8.12,31.02,7.96,33.94-.16,28.91-6.33,29.23-7.31,0,0-11.53-3.57-29.23-3.57" style="stroke-width:0px;fill:#5d76a9"/>
  <path d="m187.1,250.31s4.22-12.18,8.77-8.28c6.17,5.36,14.45,16.24,14.45,17.38v14.62l-9.91.49c-5.68.16-23.87,4.55-23.87,4.55-25.17-62.2-11.21-109.47-4.55-126.19-24.85,5.36-28.91-24.52-28.91-24.52,2.6-.49,6.33.65,10.72,2.6,6.66,3.25,14.45,8.61,20.79,13.48h0c1.79,1.46,3.57,2.76,5.03,4.06,16.89,14.29,30.7,11.37,30.7,11.37v60.9c-.16,0-49.54-3.9-23.23,29.56" style="stroke-width:0px;fill:#5d76a9"/>
  <path d="m233.39,250.31c31.51-32-19.81-30.05-23.06-29.56,5.36.32,45.15.49,23.06,29.56" style="stroke-width:0px;fill:#5d76a9"/>
  <path d="m254.34,153.67c28.26,76.33-7.63,125.38-7.8,125.71,22.25-58.31,7.96-106.87-1.79-124.9-5.03.49-11.04.16-11.04.16,0,0,7.47-4.71,12.34-9.1.32-.32.65-.65,1.14-.97,4.06-3.57,11.86-9.91,21.11-13.64h0c3.41-1.3,7.15-2.27,10.88-2.76.16,0-2.6,25.17-24.85,25.5" style="stroke-width:0px;fill:#5d76a9"/>
  <path d="m299.16,54.92s11.53-28.91,46.94-21.93c0,0-32.48-21.44-55.06,17.22,0,0-32.48-15.27-80.88,5.68,0,0-45.48-15.92-80.07-6.98,0,0-20.14-34.92-48.56-20.63-28.42,14.45-13.64,47.75-8.61,56.36,0,0-47.1,47.91-29.4,107.19l9.42-11.86s13.48,64.48,48.4,84.94l2.11-15.92s36.38,43.85,79.26,62.53c4.06,1.95,26.8,13.16,27.45,18.68v-30.7s-29.72,2.44-37.52-11.21c-5.36-9.26-39.47-70.16-22.58-133.99,0,0-16.4-2.44-19.49-30.21,0,0-12.18-6.01-27.45-4.71,0,0,27.29-8.61,52.78,1.3,25.5,9.91,32.32,35.08,49.7,23.87l4.71-70.81,5.2,70.81c17.22,11.04,24.2-13.97,49.7-23.87,25.5-9.91,52.78-1.3,52.78-1.3,0,0-10.88-7.63-28.42-11.21-14.62-2.92-36.06,6.5-36.06,6.5,0,0,2.92-20.14,12.67-30.86,8.28-8.77,27.12-10.88,32.97-28.91Zm-220.07,24.52c-.97-9.58,11.21-19.16,11.21-19.16-5.03-5.2-13.81-.65-13.81-.65,7.96-15.59,25.82-7.96,25.82-7.96-6.82-8.28-21.11-7.8-21.11-7.8,17.7-17.54,39.14,9.26,39.14,9.26-19.16,4.22-41.25,26.31-41.25,26.31Z" style="stroke-width:0px;fill:#5d76a9"/>
  <path d="m174.43,144.25c-2.76-.81-7.31,1.95-9.74,6.82-8.45-2.44-11.37-11.53-11.04-20.3h0c6.66,3.25,14.62,8.61,20.79,13.48" style="stroke-width:0px;fill:#fb2"/>
  <path d="m257.59,151.23c-2.6-5.2-7.47-7.96-10.23-6.66,4.06-3.57,11.86-9.91,21.11-13.64h0c.49,8.77-2.6,17.87-10.88,20.3" style="stroke-width:0px;fill:#fb2"/>
</svg>
