<?xml version="1.0" encoding="UTF-8"?>
<svg id="Layer" xmlns="http://www.w3.org/2000/svg" viewBox="0 0 420 594.81">
  <defs/>
  <path d="m410.34,138.69c-15.59-17.33-50.25-31.35-94.67-39.7.16-5.04,3.31-7.25,8.82-11.18,2.84-2.05,6.14-4.25,9.45-7.4,14.33-13.7-2.52-34.5-3.15-35.44l-9.29-11.34,2.21,14.49c1.58,9.92-2.05,13.39-12.92,20.95-1.42.95-2.52,2.05-3.62,3.15.47-6.62.79-14.02-1.42-23.16-2.21-9.29-6.77-12.92-6.77-12.92l-1.1,13.39c0,.16-1.1,10.55-14.96,23,1.26-1.42,2.36-2.68,3.31-4.25,6.77-9.92,4.88-21.11,2.52-34.18l-.47-2.68c-2.36-13.55,1.26-22.05,3.62-23.47,2.21-2.84,6.77-7.4,6.77-7.4,0,0-2.36-1.1-9.14-.16-8.66,1.26-23.31,6.46-22.84,18.27.16,5.2,1.89,10.24,3.31,14.49,1.58,4.73,3.15,9.14,1.73,11.34-1.1,1.73-4.25,3.31-9.29,4.1-20.48,3.78-36.07,13.23-44.11,26.94-2.68,4.57-4.41,9.29-5.36,14.49-50.72.16-98.77,6.46-135.94,17.96-41.74,12.92-64.74,30.56-66.47,50.88-.95,10.71,3.94,26.15,30.72,40.96l-.16.16,7.56,3.62h0l3.94,1.89h0c12.29,5.51,26.78,10.24,43,14.18-5.83,3.31-11.03,6.93-15.75,11.18-25.99,21.27-40.96,52.93-40.96,86.64,0,29.93,11.66,58.13,32.92,79.39,21.27,21.27,49.3,32.92,79.39,32.92,53.08,0,99.24-37.65,109.79-89.47,8.98-27.09,8.03-56.08,7.56-67.1-.95-24.89,11.34-38.75,19.06-44.89,35.44-4.41,66.79-12.29,90.1-22.68h0l3.78-1.73h0l8.03-3.78-.16-.16c18.74-10.55,29.3-22.84,30.4-35.91,1.1-8.98-2.21-17.48-9.45-25.36m-36.39,21.74c3.15,3.47,2.99,5.83,2.99,6.46-.32,4.1-5.36,8.98-13.86,13.39h0c-17.8,9.29-48.52,16.38-84.9,20.16,1.58-1.1,3.31-1.89,5.2-2.68l.63-.32c10.55-4.25,22.37-9.14,23-26.46.16-2.84.16-11.18,1.73-14.18,1.89-3.94,6.93-9.92,11.34-11.5l-7.4-1.42h-1.1c2.52-1.73,4.25-3.94,5.51-6.3,29.61,6.3,49.46,14.65,56.86,22.84m-320.08,4.25c1.26-14.33,52.77-33.24,136.26-36.23-7.72,5.83-16.85,15.91-19.22,32.29l-.79,6.14c-.47,3.78-1.26,7.72-2.68,11.5-3.15,8.35-12.29,15.44-21.9,20.64-33.55-4.25-61.59-11.34-77.97-20.16h0c-9.29-4.73-14.18-9.92-13.7-14.18" style="stroke-width:0px"/>
  <polygon points="111.84 506.5 126.17 448.06 102.39 448.06 88.05 506.5 111.84 506.5" style="stroke-width:0px"/>
  <path d="m163.51,462.39l1.42,23.94h-12.29l12.44,20.16h21.58l-3.31-58.44h-35.6s-29.14,58.44-28.98,58.44h22.84l21.9-44.11h0Z" style="stroke-width:0px"/>
  <polygon points="108.69 560.21 103.81 580.22 126.02 580.22 140.35 521.78 118.14 521.78 112.78 544.46 96.09 544.46 101.6 521.78 79.39 521.78 64.9 580.22 87.11 580.22 91.99 560.21 108.69 560.21" style="stroke-width:0px"/>
  <polygon points="161.77 566.98 163.35 559.11 190.76 559.11 194.22 546.19 166.66 546.19 168.55 537.53 196.11 537.53 200.37 521.78 150.27 521.78 135.78 580.22 185.56 580.22 189.18 566.98 161.77 566.98" style="stroke-width:0px"/>
  <polygon points="304.33 506.5 318.66 448.06 295.04 448.06 280.7 506.5 304.33 506.5" style="stroke-width:0px"/>
  <path d="m343.55,493.26c3.15,4.41,6.62,12.92-8.03,19.53-17.01,7.72,0,27.25-23.16,27.25h-9.61l-9.61,40.17h-23.79l9.61-40.17h-16.07l5.04-18.27h41.11c24.42,0,7.25-16.85,19.69-19.22,8.66-1.58,13.86-2.99,14.81-9.29" style="stroke-width:0px"/>
  <polygon points="47.26 478.14 43.48 448.06 14.33 448.06 0 506.5 21.58 506.5 29.46 475.94 29.61 475.94 33.87 506.5 46.63 506.5 64.27 475.94 64.43 475.94 57.5 506.5 77.82 506.5 92.15 448.06 64.11 448.06 47.41 478.14 47.26 478.14" style="stroke-width:0px"/>
  <polygon points="240.22 478.14 236.44 448.06 207.14 448.06 192.81 506.5 214.39 506.5 222.26 475.94 222.42 475.94 226.83 506.5 239.43 506.5 257.07 475.94 257.23 475.94 250.3 506.5 270.62 506.5 285.11 448.06 256.92 448.06 240.38 478.14 240.22 478.14" style="stroke-width:0px"/>
  <path d="m236.6,536.11l1.42,23.94h-12.29l12.44,20.16h21.58l-3.31-58.44h-35.6s-29.14,58.44-28.98,58.44h22.84l21.9-44.11h0Z" style="stroke-width:0px"/>
  <path d="m43.32,325.51c2.99,14.81,11.34,32.45,28.2,44.26,5.04,3.62,10.55,6.46,16.38,8.66-3.62-6.14-7.88-12.44-12.13-18.74-8.03-11.81-16.38-24.1-21.58-37.17-5.51-13.55-6.93-27.88-4.57-42.22-4.25,11.66-6.62,24.26-6.62,37.33,0,2.68.16,5.2.32,7.88" style="stroke-width:0px;fill:#98002e"/>
  <path d="m61.43,319.52c5.04,12.44,13.07,24.26,20.79,35.76,5.99,8.82,11.97,17.48,16.38,26.31,4.88,1.1,10.08,1.89,15.28,2.21-5.36-7.72-10.08-16.38-14.02-26.46-15.59-38.75-13.39-86.48,5.99-114.2,9.92-14.33,21.9-23.94,37.17-32.29,13.23-7.25,21.42-9.29,29.93-14.33,9.14-5.51,14.02-14.49,8.03-34.97-1.73-5.99-2.05-10.71-1.73-14.33-2.05,4.1-3.78,8.66-4.41,14.18h0c-.95,5.83-1.42,12.13-3.78,18.59-8.03,21.11-47.26,32.92-52.3,34.5-14.81,4.57-26.78,11.34-36.07,19.53-26.78,23.79-31.66,59.54-21.27,85.53" style="stroke-width:0px;fill:#98002e"/>
  <path d="m224.62,128.29c.47,1.26.63,2.68.95,3.94.95,7.4-1.26,13.39-10.24,14.81-9.29,1.58-12.44-6.62-13.23-13.23,0-2.36.16-4.1.32-5.51-1.58,0-3.15,0-4.73.16-2.99,1.73-6.93,4.41-10.71,8.19-1.89,3.94-4.1,9.61-.63,22.53,6.14,22.84,3.47,36.7-14.81,44.58-23.47,10.08-38.44,16.07-58.44,41.27-9.61,11.97-14.81,31.98-15.59,51.98-.79,19.53,3.15,40.33,10.08,57.34,4.57,11.34,9.92,21.27,16.22,29.77,6.3-.32,12.6-1.1,18.9-2.52-6.93-8.19-11.03-18.11-11.66-29.3-2.36-37.17,17.64-52.77,48.36-77.34l13.7-11.5c54.97-46.63,38.91-94.04,44.89-134.68-4.41-.32-8.82-.32-13.39-.47" style="stroke-width:0px;fill:#98002e"/>
  <path d="m246.68,129.08c-1.73,8.03-2.36,16.54-2.99,25.2-2.21,35.28-1.1,75.29-45.84,114.99l-13.55,10.87c-29.93,23.94-46.94,38.91-45.84,71.51.32,10.71,4.88,20.16,12.44,27.57,8.35-2.52,16.7-5.99,24.57-10.55,38.91-22.05,63.32-54.97,72.62-97.35,5.99-26.78,5.83-48.52,5.67-66,0-8.82,1.1-26.15,1.1-26.15,1.26-10.87,2.99-26.31,15.75-46.31.47-.63.79-1.26,1.26-1.89-7.88-.79-16.38-1.42-25.2-1.89" style="stroke-width:0px;fill:#98002e"/>
  <path d="m259.75,242.49h0c-1.26,6.46-1.58,13.55-2.36,20.64-.32,2.68-.79,5.36-1.1,7.88-.16.79-.32,1.42-.47,2.21-9.77,44.58-35.13,79.23-76.08,102.39-7.09,3.94-14.18,7.25-21.27,9.77,11.97,7.88,25.99,10.4,35.6,8.98,36.7-5.51,54.5-29.46,63.17-54.97,8.82-26.31,7.88-54.34,7.4-65.84-1.42-38.75,28.51-53.08,28.51-53.08-23.16-1.42-30.87,8.66-33.39,22.05" style="stroke-width:0px;fill:#98002e"/>
  <path d="m235.34,385.52c-14.96,12.6-31.19,15.28-38.44,16.38-14.49,2.21-31.5-1.26-46.63-13.07-.32-.16-.47-.47-.79-.63-6.46,1.73-12.92,2.84-19.38,3.47,14.81,15.91,34.34,24.89,60.33,26.62h.32c17.8-6.93,33.24-18.59,45.05-33.24-.16.16-.32.32-.47.47" style="stroke-width:0px;fill:#98002e"/>
  <path d="m98.77,412.14c.32-8.19-2.05-16.22-5.83-24.26-8.98-2.52-17.8-6.46-26.15-11.66-4.73-2.84-8.98-7.25-12.92-11.5h0c9.77,20.16,25.52,36.7,44.89,47.41h0Z" style="stroke-width:0px;fill:#98002e"/>
  <path d="m173.59,423.33c-14.65-3.31-27.09-8.51-38.12-16.85-5.67-4.25-10.71-9.14-15.44-14.49-5.99,0-11.81-.63-17.64-1.73,3.31,8.35,4.88,16.85,3.78,25.83h0c13.7,6.3,28.83,9.77,44.89,9.77,7.72,0,15.28-.79,22.53-2.36.16-.16,0-.16,0-.16" style="stroke-width:0px;fill:#98002e"/>
  <path d="m299.29,157.59c-2.52,8.35-10.87,7.4-13.23,2.84-3.78-7.25-2.36-12.76,1.58-16.54,3.94-3.78,10.4-5.83,16.85-8.66h.16c-7.25-1.26-15.12-2.36-23.31-3.31-.16.16-.16.32-.32.32-.79.79-1.42,1.73-2.21,2.52-13.07,19.53-14.65,34.18-15.91,45.37l-.47,3.47c-.79,5.83-.63,13.23-.63,21.9v3.62c-.16,2.99-.16,5.99-.32,8.82h.16c.16-1.26.16-1.73.16-1.1,3.62-11.81,10.4-18.9,20.01-22.84,10.4-4.25,20.48-8.03,21.11-23,.16-6.3.63-12.6,2.05-15.75,2.68-5.83,7.25-7.4,7.25-7.4-5.04-.32-10.55,1.73-12.92,9.77" style="stroke-width:0px;fill:#98002e"/>
  <path d="m311.73,98.2c.79-10.08,10.24-11.97,19.53-20.64,11.81-11.18-3.62-29.93-3.62-29.93,1.89,12.6-3.94,17.33-14.49,24.89-3.31,2.36-5.83,5.67-6.14,9.92-.32,4.73-.63,9.77-1.73,14.81,2.21.16,4.41.47,6.46.95" style="stroke-width:0px;fill:#f9a01b"/>
  <path d="m311.73,98.2c.79-10.08,10.24-11.97,19.53-20.64,11.81-11.18-3.62-29.93-3.62-29.93,1.89,12.6-3.94,17.33-14.49,24.89-3.31,2.36-5.83,5.67-6.14,9.92-.32,4.73-.63,9.77-1.73,14.81,2.21.16,4.41.47,6.46.95Z" style="fill:none;stroke:#f9a01b;stroke-width:.17px"/>
  <path d="m279.28,80.72c-2.84,2.05-5.51,4.25-8.03,6.46-1.73,1.73-3.47,3.31-5.04,5.04,10.4.95,20.48,2.05,30.24,3.47,6.14-11.34,9.14-24.1,5.51-46-.16,0-.95,14.81-22.68,31.03" style="stroke-width:0px;fill:#f9a01b"/>
  <path d="m279.28,80.72c-2.84,2.05-5.51,4.25-8.03,6.46-1.73,1.73-3.47,3.31-5.04,5.04,10.4.95,20.48,2.05,30.24,3.47,6.14-11.34,9.14-24.1,5.51-46-.16,0-.95,14.81-22.68,31.03Z" style="fill:none;stroke:#f9a01b;stroke-width:.17px"/>
  <path d="m221.16,90.01c11.81.16,23.47.63,34.97,1.42l1.1-1.1c7.56-8.19,19.38-15.12,25.68-24.26,6.3-9.14,3.78-20.32,1.42-34.02-4.1-23.47,5.83-27.72,5.83-27.72,0,0-19.85,2.68-19.38,14.18.47,15.44,16.38,29.77-7.56,34.18-26.15,4.73-42.53,18.9-46,37.49,1.42-.16,2.68-.16,3.94-.16" style="stroke-width:0px;fill:#f9a01b"/>
  <path d="m221.16,90.01c11.81.16,23.47.63,34.97,1.42l1.1-1.1c7.56-8.19,19.38-15.12,25.68-24.26,6.3-9.14,3.78-20.32,1.42-34.02-4.1-23.47,5.83-27.72,5.83-27.72,0,0-19.85,2.68-19.38,14.18.47,15.44,16.38,29.77-7.56,34.18-26.15,4.73-42.53,18.9-46,37.49,1.42-.16,2.68-.16,3.94-.16Z" style="fill:none;stroke:#f9a01b;stroke-width:.17px"/>
  <path d="m221.16,96.16c-109.79-1.1-201.31,27.25-204.46,63.17-1.26,14.33,11.66,27.72,34.65,38.75,14.18,6.77,32.13,12.6,53.08,17.33,4.25-1.89,8.51-3.47,13.07-4.88,3.62-1.1,10.4-3.31,17.8-6.46-30.72-4.41-55.6-11.34-70.88-19.69-11.34-6.14-17.33-12.92-16.7-20.16,2.21-24.26,78.92-43,171.54-42.06,92.62.95,166.03,21.27,163.82,45.37-.63,6.62-6.77,12.76-17.17,18.27-19.38,10.24-53.56,17.96-94.98,21.58-1.42,1.89-2.68,4.1-3.78,6.62,18.9-7.09,40.64,3.47,40.64,3.47,0,0,1.42.63,2.52,1.26,27.57-4.88,51.19-11.97,68.99-20.32,20.95-9.92,33.71-22.05,34.81-34.97,2.99-36.07-83.33-66.16-192.96-67.26" style="stroke-width:0px;fill:#fff"/>
</svg>
