<?xml version="1.0" encoding="UTF-8"?>
<svg id="Layer" xmlns="http://www.w3.org/2000/svg" viewBox="0 0 420 565.32">
  <defs/>
  <path d="m210.29,521.25C94.33,521.25,0,426.92,0,310.96c0-56.68,22.36-109.9,62.88-149.85.29-.29.72-.58,1.01-.87-13.99-21.06-21.78-45.72-15.87-75.58C58.99,29.71,103.41,13.12,105.29,12.4c.72-.29,1.44-.43,2.16-.43,2.31,0,4.62,1.3,5.77,3.46.72,1.3.87,2.88.58,4.33C128.36,7.5,142.21,2.16,147.98.29,148.7.14,149.28,0,150,0,152.45,0,154.9,1.44,155.91,3.75c1.3,3.03.29,6.49-2.6,8.22-13.27,7.93-24.81,18.89-33.46,31.3,10.53-2.45,17.45-2.74,19.9-2.74h1.3c3.17.14,5.77,2.74,6.06,5.91.29,3.17-1.73,6.06-4.9,6.92-.14,0-17.6,4.47-36.78,18.17-3.61,11.11-5.48,22.64-5.48,34.33,0,22.21,7.07,45.14,19.47,62.6,2.88,4.04,5.62,7.64,8.65,10.82-1.15-22.93,5.62-58.41,46.87-74.86.72-.29,1.59-.43,2.45-.43,2.45,0,4.62,1.3,5.77,3.61,1.59,3.03.43,6.63-2.45,8.51l-.29.14c-6.2,4.04-11.54,9.23-15.58,15.29,4.33-1.3,8.08-1.73,10.53-2.02h1.15c2.74,0,5.19,1.73,6.06,4.33,1.01,2.88-.14,6.06-2.6,7.64l-.43.29c-13.12,7.64-20.48,16.44-21.78,26.25-1.44,10.67,4.47,20.77,8.65,26.54,11.11-12.84,18.17-34.62,20.19-42.84.72-2.88,3.32-4.9,6.35-4.9h.72c3.32.43,5.77,3.17,5.77,6.35.14,26.97-7.07,45.43-14.42,57.12,11.11,5.48,21.78,5.91,24.23,5.91h1.44c2.31,0,13.12-.29,24.23-5.91-7.36-11.83-14.57-30.29-14.42-57.12,0-3.32,2.45-6.06,5.77-6.35h.72c2.88,0,5.62,2.02,6.35,4.9,2.02,8.22,9.23,30,20.19,42.84,4.33-5.77,10.1-15.87,8.65-26.54-1.3-9.81-8.65-18.75-21.78-26.25-.14,0-.43-.29-.43-.29-2.6-1.59-3.75-4.9-2.74-7.64.87-2.6,3.32-4.33,6.06-4.33h1.15c2.6.29,6.2.72,10.53,2.02-4.04-6.06-9.37-11.25-15.58-15.29l-.29-.14c-2.88-1.73-3.89-5.48-2.45-8.51,1.15-2.31,3.46-3.61,5.77-3.61.87,0,1.59.14,2.45.43,41.11,16.44,47.88,51.92,46.87,74.86,3.03-3.17,5.77-6.78,8.65-10.82,12.4-17.6,19.47-40.38,19.47-62.6,0-11.68-1.87-23.22-5.48-34.33-19.33-13.85-36.49-18.17-36.78-18.17-3.17-.72-5.19-3.75-4.9-6.92.29-3.17,2.88-5.77,6.06-5.91h1.3c2.45,0,9.52.29,19.9,2.74-8.8-12.55-20.34-23.37-33.46-31.3-2.88-1.73-3.89-5.19-2.6-8.22,1.01-2.31,3.46-3.75,5.91-3.75.72,0,1.3.14,2.02.29,5.77,1.87,19.62,7.21,34.18,19.47-.29-1.44-.14-2.88.72-4.33,1.15-2.16,3.32-3.46,5.77-3.46.72,0,1.44.14,2.16.43,1.87.72,46.3,17.31,57.26,72.26,5.91,29.86-1.87,54.52-15.87,75.58.43.29.72.58,1.01.87,40.53,39.95,62.88,93.17,62.88,149.85.58,115.96-93.75,210.29-209.71,210.29Z" style="stroke-width:0px;fill:#eee1c6"/>
  <g>
    <path d="m353.22,165.72l-4.47,5.48c36.06,35.62,58.27,85.1,58.27,139.76,0,108.61-88.12,196.73-196.73,196.73S13.56,419.56,13.56,310.96c0-54.66,22.36-104.13,58.27-139.76l-4.47-5.48C29.86,202.79,6.49,254.13,6.49,310.96c0,112.36,91.44,203.8,203.8,203.8s203.8-91.44,203.8-203.8c0-56.83-23.22-108.17-60.87-145.24Zm-271.15,15.29c-33.03,33.03-54.23,79.76-54.23,129.95,0,11.68,1.15,22.93,3.17,34.04l54.95-14.86c9.09,60,61.01,106.01,123.46,106.01s114.66-46.44,123.6-106.73l56.39,15.58c2.02-10.96,3.17-22.36,3.17-34.04,0-50.34-20.91-96.35-53.94-129.37l4.9-5.19c34.76,34.33,56.25,81.92,56.25,134.57,0,104.57-85.1,189.52-189.52,189.52S20.77,415.38,20.77,310.96c0-52.64,21.63-100.38,56.39-134.85l4.9,4.9Zm-27.69-94.9c10.38-51.92,53.08-67.36,53.08-67.36-15.58,11.54-31.59,33.32-38.22,63.75,6.49-7.93,12.4-13.99,19.33-18.75,17.31-37.36,46.87-52.5,61.44-57.12-18.75,11.39-34.47,28.27-44.13,47.74,21.78-7.79,34.9-7.07,34.9-7.07,0,0-19.47,4.76-40.67,20.48-4.18,11.97-6.49,24.95-6.49,38.37,0,23.65,7.64,47.88,20.77,66.35,7.36,10.38,14.57,17.6,23.37,24.23-2.88-7.36-14.13-64.33,39.81-85.96l-.43.29c-12.69,8.22-22.07,21.06-25.96,36.2,9.81-9.37,20.19-10.38,25.67-11.11-.14,0-.14.14-.29.14-50.05,28.85-10.24,67.93-10.24,67.93,15.72-13.27,24.95-42.84,26.97-50.91.14,31.3-10.24,50.05-17.31,59.13,16.15,11.11,34.18,10.38,34.18,10.38h0s18.03.72,34.18-10.38c-7.07-9.09-17.45-27.84-17.31-59.13,2.02,8.08,11.25,37.64,26.97,50.91,0,0,39.81-39.09-10.24-67.93-.14,0-.14-.14-.29-.14,5.48.72,15.87,1.59,25.67,11.11-3.75-15.14-13.12-27.98-25.96-36.2l-.43-.29c53.94,21.63,42.69,78.61,39.81,85.96,8.8-6.63,16.01-13.85,23.37-24.23,13.12-18.61,20.77-42.84,20.77-66.35,0-13.41-2.31-26.25-6.49-38.37-21.2-15.72-40.67-20.48-40.67-20.48,0,0,13.12-.72,34.9,7.07-9.52-19.47-25.24-36.35-44.13-47.74,14.57,4.62,43.99,19.76,61.44,57.12,7.07,4.76,12.98,10.82,19.33,18.75-6.63-30.58-22.5-52.21-38.22-63.75,0,0,42.69,15.43,53.08,67.36,12.12,60.43-36.2,98.22-75.29,130.67l29.71-12.12c2.02-.87,3.46,1.15,3.03,3.46l-.87,7.36c-.43,4.04-3.46,24.52-14.71,30.72-2.45,1.3-6.63,2.88-18.89,3.75l-22.36,1.44,3.75,12.55-21.92,35.05,11.25-11.83,22.93,81.49-62.88,51.78,19.62-88.99-28.99,35.62-29.28-35.62,19.62,88.99-62.88-51.78,22.93-81.49,11.25,11.83-21.92-35.05,3.75-12.55-22.36-1.44c-12.4-.87-16.59-2.45-18.89-3.75-11.25-6.2-14.28-26.68-14.71-30.72l-.87-7.36c-.43-2.31,1.01-4.33,3.03-3.46l29.71,12.12c-39.09-32.45-87.4-70.24-75.29-130.67Zm281.83,65.05s24.66-38.94,7.79-60.72c-1.73-2.16-3.61-4.33-5.48-6.2,7.07,24.81-2.31,66.92-2.31,66.92Zm-251.83,0s-9.23-42.12-2.45-66.92c-1.87,2.02-3.75,4.04-5.48,6.2-16.73,21.78,7.93,60.72,7.93,60.72Z" style="fill:#00471b;stroke-width:0px"/>
    <path d="m145.53,432.83l1.3-2.02.14-.14-18.75-11.97-.14.14-23.65,37.07,5.77,3.61,10.38-16.3,7.21,4.62-10.38,16.3,5.77,3.61,20.05-31.3,2.31-3.61Zm-13.99,9.23l-7.21-4.62,5.77-9.09,7.21,4.62-5.77,9.09Zm-6.78-25.82l-33.75,28.7-4.62-4.62,8.22-12.26-12.12,8.37-4.62-4.62,28.27-34.18,4.62,4.47-11.39,14.42,15.58-10.38,1.59,1.59-10.24,15.72,14.28-11.68,4.18,4.47Zm-33.32-40.96l-39.23,20.48-3.17-6.06,39.23-20.48,3.17,6.06Zm-6.06-11.83l-41.83,14.42-2.16-6.49,26.25-9.09-12.12-.43,9.37-7.79-26.39,9.09-2.16-6.49,41.83-14.42,2.16,6.49-9.37,7.79,12.12.43,2.31,6.49Zm-17.02,45l8.37,11.83-5.77,4.18-12.4-17.31,35.91-25.82,4.04,5.62-30.14,21.49Zm102.84,32.31l-15.87,41.11-4.47-1.73-11.83-4.47-4.76-1.87,16.01-40.96,6.35,2.45-13.27,34.47,8.08,3.03,13.27-34.47,6.49,2.45Zm181.44-29.71l3.89,3.03-10.82,13.56-3.03,3.75-30.43-24.37-3.89-3.17,13.85-17.31,3.89,3.17,6.63,5.19-4.18,5.34-4.9-3.89-5.34,6.78,23.37,18.61,5.34-6.78-5.05-4.04,4.18-5.34,6.49,5.48Zm-7.36-30.29l28.12,3.75-3.32,6.35-20.48-2.6,17.02,9.09-3.17,6.06-39.09-20.77,3.17-6.06,10.82,5.77-8.08-10.96,3.46-6.35,11.54,15.72Zm39.09-27.12l-6.35,21.35-4.76-1.44-7.07-2.16,2.02-6.49,5.05,1.59,2.45-8.22-11.68-3.46-4.47,14.71-4.76-1.44-18.89-5.62,1.44-4.62,5.05-16.59,4.76,1.44,6.92,2.16-2.02,6.49-5.05-1.44-2.45,8.22,10.1,3.03,4.47-14.71,4.76,1.44,15.72,4.76,4.76,1.01Zm-79.76,54.23l28.41,33.61-3.61,3.03-9.66,8.08-3.89,3.32-28.12-33.89,5.19-4.47,23.8,28.27,6.63-5.48-24.09-28.12,5.34-4.33Zm-50.34,69.81l1.3,6.92-20.91,4.04-8.51-43.12,20.91-4.04,1.3,6.92-14.13,2.74,2.02,10.38,14.13-2.74,1.3,6.78-14.13,2.74,2.45,12.12,14.28-2.74Zm-32.31,5.19l.14,7.07-21.2.29-.72-43.99,21.2-.29.14,7.07-14.42.29.14,10.67,14.42-.29.14,6.92-14.42.29.14,12.4,14.42-.43Zm69.23-36.92l.72-4.33-6.78-12.4-6.35-1.73-15.29,8.22,20.91,38.65,15.29-8.22,1.87-6.49-6.49-11.97-3.89-1.73Zm-18.32-7.21l7.64-4.04,5.05,9.37-7.64,4.04-5.05-9.37Zm14.13,26.25l-5.91-10.82,7.64-4.04,5.91,10.82-7.64,4.04Zm-91.3-19.62l-11.39,15.87,5.19,27.84-7.07-1.3-3.89-20.19-3.32,19.04-6.78-1.15,7.64-43.56,6.78,1.15-2.16,12.12,7.93-11.11,7.07,1.3Z" style="stroke-width:0px;fill:#fff"/>
    <g>
      <path d="m189.81,249.95c-3.17-1.44-9.23-4.18-15.14-6.92-1.15-.58-2.6.14-2.74,1.44-.43,2.6-.43,6.63,3.17,9.37,6.63,5.19,12.4,2.31,15.43-.72.87-1.01.58-2.6-.72-3.17Z" style="stroke-width:0px;fill:#fff"/>
      <path d="m107.45,215.19s2.16,18.32,9.81,22.5c5.19,2.88,17.74,2.6,28.85,3.46-12.26-4.76-30.29-17.74-38.65-25.96h0Z" style="stroke-width:0px;fill:#fff"/>
      <polygon points="197.59 324.37 203.65 332.59 216.92 332.59 222.98 324.37 197.59 324.37" style="stroke-width:0px;fill:#fff"/>
      <path d="m313.12,215.19c-8.51,8.22-26.39,21.2-38.65,25.96,10.96-.87,23.65-.58,28.85-3.46,7.64-4.18,9.81-22.5,9.81-22.5h0Z" style="stroke-width:0px;fill:#fff"/>
      <path d="m222.98,276.2l-5.91-19.33-6.78,3.32-6.78-3.32-5.91,19.33s-2.02,7.64-10.38,12.98l-3.61,15.87,8.8,11.97h9.37l-8.65-12.84,1.44-7.93c3.89,4.18,9.52,6.92,15.72,6.92s11.83-2.6,15.72-6.92l1.44,7.93-8.65,12.84h9.37l8.8-11.97-3.61-15.87c-8.37-5.34-10.38-12.98-10.38-12.98Z" style="stroke-width:0px;fill:#fff"/>
      <path d="m245.91,242.88c-6.06,2.74-11.97,5.48-15.14,6.92-1.3.58-1.59,2.31-.58,3.17,3.03,3.03,8.65,5.91,15.43.72,3.61-2.74,3.61-6.78,3.17-9.37-.29-1.15-1.73-2.02-2.88-1.44Z" style="stroke-width:0px;fill:#fff"/>
    </g>
  </g>
</svg>
