<?xml version="1.0" encoding="UTF-8"?>
<svg id="Layer" xmlns="http://www.w3.org/2000/svg" viewBox="0 0 420 514.7">
  <defs/>
  <path d="m410.47,147.42h0l-2.1-6.3C379.11,56.7,299.45,0,209.99,0h0c-23.38,0-46.62,3.92-68.88,11.62C31.77,49.7-26.33,169.54,11.61,278.88c29.4,84.42,109.06,141.12,198.38,141.12,23.38,0,46.62-3.92,68.88-11.62,107.24-37.24,165.2-153.3,131.6-260.96" style="stroke-width:0px;fill:#a0a1a2"/>
  <g>
    <path d="m209.99,412.72c-86.1,0-163.1-54.74-191.38-136.22C-18.07,171.08,38.07,55.3,143.63,18.76c21.56-7.42,43.82-11.2,66.36-11.2,86.24,0,163.1,54.6,191.38,136.22l.98,2.8h0c34.72,104.72-21.28,218.82-125.86,255.08-21.56,7.28-43.82,11.06-66.5,11.06" style="stroke-width:0px;fill:#0d2240"/>
    <g>
      <g>
        <g>
          <path d="m230.99,119.14c-1.12-.14-2.38-.14-3.78-.28-7.42-.56-19.18-1.4-33.32-6.3-2.94,3.08-5.18,6.58-7,9.38,3.64,3.78,10.5,10.92,14,14.84,5.88,3.5,11.9,7.42,17.78,11.62,9.38-10.5,17.78-19.18,25.9-27.72-4.06-.56-8.12-.98-12.46-1.4l-1.12-.14Z" style="stroke-width:0px;fill:#276092"/>
          <path d="m143.07,154c-15.68,21.98-26.74,50.68-27.72,84.98,16.66-18.34,30.38-35.42,39.76-44.38,6.58-6.3,13.02-10.5,19.04-13.44-6.3-14.42-14.42-26.04-25.62-31.64-1.96,1.4-3.92,2.94-5.46,4.48" style="stroke-width:0px;fill:#276092"/>
          <path d="m187.45,100.52c9.24-3.78,19.32-7.7,29.12-10.78,12.32-4.48,23.24-6.86,31.64-8.26-.28,0-.42-.14-.7-.28-6.02-1.68-12.18-3.08-18.2-3.92-16.52-2.52-33.18-1.68-48.86,1.82-.98,2.94-2.1,8.68-.14,13.86,1.4,3.08,3.78,5.6,7.14,7.56" style="stroke-width:0px;fill:#276092"/>
          <path d="m168.13,138.32c-3.64,1.68-7.7,3.78-11.62,6.02,10.92,7.14,19.04,19.32,25.2,33.46,8.68-2.94,14.7-3.08,14.7-3.08,5.88-7.42,11.2-14,16.24-19.88-5.88-4.06-11.76-7.98-17.64-11.34-6.3-2.38-21.56-4.62-26.88-5.18" style="stroke-width:0px;fill:#276092"/>
          <path d="m201.31,105.98c10.92,3.22,20.02,3.92,26.46,4.34,1.54.14,2.94.28,4.06.28l.98.14c4.2.42,10.22.98,17.08,2.24,5.18-6.44,11.34-10.36,15.68-11.2,4.9,1.82,7.42,4.76,9.24,8.82,6.86,2.94,11.48,7.98,14.42,14,15.96,6.86,31.78,17.08,44.1,32.34-12.74-29.68-35.98-54.46-66.64-68.46v.14c-.42,0-28.56-.7-63.56,16.24-.7.28-1.26.7-1.82,1.12" style="stroke-width:0px;fill:#276092"/>
          <path d="m343.83,198.94c-3.36-15.96-14.7-45.22-50.82-63.84,4.06,18.2-.56,39.06-.56,39.06,0,0,9.94,5.74,12.46,16.66,0,0,1.26.56,2.38,2.24,2.8,3.36,6.3,11.2.7,26.6,0,0-3.36-7.14-10.5.56-.7.98-1.12,1.68-1.82,2.66,13.58,18.62,23.94,38.22,29.26,57.26,6.02-9.94,10.92-20.72,14.42-32.48,4.34-16.38,5.74-32.76,4.48-48.72" style="stroke-width:0px;fill:#276092"/>
          <path d="m106.39,248.36c-.42-19.32,2.1-37.8,7.7-55.58,4.76-14.84,11.06-27.44,17.92-37.94.98-2.1,2.8-5.18,4.76-8.82-25.9-2.8-49.28,24.78-58.38,37.24-6.02,28.98-1.96,58.1,9.8,83.3,6.44-5.88,12.46-12.04,18.2-18.2" style="stroke-width:0px;fill:#276092"/>
          <path d="m276.63,281.68c-.28,12.88,6.02,22.68,10.78,38.08,11.62-8.26,21.98-18.2,30.66-29.96-3.92-19.18-14-39.48-27.86-59.08-8.82,14.14-13.16,27.44-13.58,50.96" style="stroke-width:0px;fill:#276092"/>
          <path d="m162.67,111.16c4.34-1.96,9.66-4.34,15.54-6.72-2.66-2.38-4.62-5.18-5.74-8.4-1.96-5.04-1.96-10.36-1.26-14.42-19.18,5.88-36.96,15.96-51.66,29.4h2.1c12.6-.84,30.66-.28,41.02.14" style="stroke-width:0px;fill:#276092"/>
          <path d="m141.25,138.18c1.82-3.22,3.64-6.44,5.32-9.24-7.14-4.76-11.62-8.12-23.94-9.1-5.04-.14-9.24,0-12.32.28-11.06,12.32-20.16,26.74-26.18,43.12,13.86-14.56,34.44-29.68,57.12-25.06" style="stroke-width:0px;fill:#276092"/>
          <path d="m183.81,109.34l-9.24,13.44s7,4.76,12.74,11.48c-10.08-2.1-21.14-3.92-21.14-3.92l-17.64,9.52,8.26-13.72s-5.46-4.76-11.9-8.82c7,.28,20.3,1.26,20.3,1.26l18.62-9.24Z" style="stroke-width:0px;fill:#77bc1f"/>
        </g>
        <g>
          <path d="m191.23,189.84s-2.52,6.72-2.8,13.02c0,0-15.26,2.24-22.68,7.28.14-.14,15.4-15.4,25.48-20.3" style="stroke-width:0px;fill:#77bc1f"/>
          <path d="m294.27,189c1.68-.42,2.94-.56,3.92-.42-.28-.84-.84-1.96-1.68-3.08-1.26-1.68-3.22-2.94-3.22-2.94,1.12,2.1,1.12,4.76.98,6.44" style="fill:#fff;stroke-width:0px"/>
          <path d="m280.55,196.14c1.96-1.26,3.78-2.52,5.32-3.36-.28-.7-.84-1.68-1.4-2.94-1.26-2.38-4.76-4.48-4.76-4.48,1.4,4.06,1.12,8.4.84,10.78" style="fill:#fff;stroke-width:0px"/>
          <path d="m116.47,299.32c-13.02,5.32-43.68-1.96-43.68-1.96,31.08-1.82,61.46-23.94,61.46-23.94,0,0,0,.14-.14.14-9.1,14-21.7,21.98-21.7,21.98,1.54,1.68,2.94,2.8,4.06,3.78" style="stroke-width:0px;fill:#a0a1a2"/>
          <path d="m271.45,113.96s-7.7-6.02-16.24,3.22c9.24-16.94,14.56-7.14,16.24-3.22" style="stroke-width:0px;fill:#77bc1f"/>
          <path d="m301.69,195.86s-.84-.56-.98-.7c-4.76-2.66-13.58,4.9-19.18,8.12-5.6,3.08-14,9.8-17.92.7-4.06-9.1,5.18-23.52,8.54-32.48,7-20.02,7.28-31.64,5.88-37.94,6.58,7.42,8.68,21.56,8.68,21.56,0,0,2.52-26.6-10.5-33.46.28.98,0,4.34-.28,6.86h0c-6.02.98-19.46-.42-23.8-2.8-16.38,17.64-34.3,42.14-47.74,64.54-5.88,11.9-11.62,25.9-13.02,37.24,0,0-1.82-5.04-2.38-12.04-7.42,2.94-32.76,15.26-38.22,53.48,0,0,16.1-16.52,33.88-23.1,0,0-11.2,29.54,10.36,81.76,0,0,8.68-32.06,26.88-40.18,11.06,54.74,43.4,55.72,52.78,92.96,0,0,9.94-19.32-1.96-52.22,0,0,4.06,1.12,7.56,5.18,0,0-.56-9.66-9.52-30.24-5.88-11.06-7.7-26.04-7.7-26.04-5.18,4.76-6.72,20.86-6.72,20.86-16.1-43.54,29.54-86.8,37.8-93.1,4.06-3.08,6.58-3.08,8.12-2.52,1.4-2.94,1.4-5.04-.56-6.44" style="stroke-width:0px;fill:#a0a1a2"/>
        </g>
      </g>
      <g>
        <path d="m330.39,118.72c-24.36-32.2-59.92-52.92-99.82-58.52-6.86-.98-14-1.4-20.86-1.4-75.04,0-139.3,56.14-149.66,130.62-4.34,30.94.98,61.74,14.84,89.04,1.68-1.4,3.36-2.94,5.18-4.48-12.6-25.76-17.5-54.6-13.44-83.58,9.8-71.26,71.4-124.88,143.08-124.88,6.72,0,13.3.56,20.02,1.4,38.22,5.18,72.1,25.2,95.48,56,23.38,30.8,33.32,68.88,28,107.1-5.88,42.14-29.68,78.12-63.28,100.52.42,2.24.98,4.62,1.12,7,36.26-23.24,62.3-61.6,68.6-106.68,5.6-40.18-4.62-79.94-29.26-112.14" style="stroke-width:0px;fill:#a0a1a2"/>
        <g>
          <path d="m114.37,48.44c-7.28,0-13.16,5.88-13.16,13.16s5.88,13.16,13.16,13.16,13.16-5.88,13.16-13.16-5.88-13.16-13.16-13.16m0,20.44c-3.92,0-7.14-3.22-7.14-7.14s3.22-7.14,7.14-7.14,7.14,3.22,7.14,7.14-3.22,7.14-7.14,7.14" style="fill:#fff;stroke-width:0px"/>
          <path d="m84.83,81.34l-3.08,1.68c-1.12.7-1.82.7-2.52.14-.84-.7-.7-1.68.42-2.8h0c1.12-1.12,2.38-1.82,3.92-1.96h.56l-.42-5.88h-.56c-2.94.14-5.6,1.4-8.12,4.2-1.54,1.68-2.52,3.64-2.8,5.6-.28,2.38.7,4.48,2.52,6.02,2.8,2.66,6.16,2.8,10.08.56l2.8-1.54c1.4-.84,2.38-1.12,3.08-.42.98.84.7,1.96-.7,3.5h0c-1.82,1.96-3.78,2.1-5.18,2.1h-.56l-.7,6.44h.56c2.1.14,6.3-.42,10.36-4.76l.14-.14c1.96-2.24,3.08-4.48,3.22-6.72.14-2.24-.84-4.2-2.8-6.02-2.66-2.38-5.88-2.38-10.22,0" style="fill:#fff;stroke-width:0px"/>
          <rect x="20.15" y="211.68" width="25.76" height="5.74" transform="translate(-5.09 .85) rotate(-1.36)" style="fill:#fff;stroke-width:0px"/>
          <polygon points="69.43 125.44 79.23 110.74 74.33 107.66 67.89 117.32 64.25 114.94 69.99 106.54 65.09 103.46 59.49 111.86 55.99 109.48 62.43 99.68 57.81 96.6 48.15 111.02 69.43 125.44" style="fill:#fff;stroke-width:0px"/>
          <polygon points="153.71 56 146.29 37.38 152.87 34.72 150.63 29.54 132.15 37.1 134.25 42.28 140.83 39.48 148.39 58.24 153.71 56" style="fill:#fff;stroke-width:0px"/>
          <polygon points="48.15 140.14 29.95 148.4 29.67 149.24 53.75 159.04 55.85 153.86 43.39 148.68 61.59 140.42 62.01 139.44 37.93 129.64 35.69 134.96 48.15 140.14" style="fill:#fff;stroke-width:0px"/>
          <polygon points="36.39 178.64 20.57 190.68 20.43 191.8 46.05 195.72 47.03 190.12 33.59 188.02 49.41 175.7 49.55 174.86 23.93 170.8 23.09 176.54 36.39 178.64" style="fill:#fff;stroke-width:0px"/>
          <rect x="248.27" y="38.36" width="25.76" height="5.74" transform="translate(147.4 279.9) rotate(-73.49)" style="fill:#fff;stroke-width:0px"/>
          <polygon points="395.63 249.2 397.03 243.6 371.97 237.72 368.19 254.38 373.79 255.64 376.45 244.72 395.63 249.2" style="fill:#fff;stroke-width:0px"/>
          <path d="m386.67,197.82c-7.28,0-13.16,5.88-13.16,13.16s5.88,13.16,13.16,13.16,13.16-5.88,13.16-13.16-5.88-13.16-13.16-13.16m0,20.44c-3.92,0-7.14-3.22-7.14-7.14s3.22-7.14,7.14-7.14,7.14,3.22,7.14,7.14-3.08,7.14-7.14,7.14" style="fill:#fff;stroke-width:0px"/>
          <polygon points="334.59 103.88 345.51 117.6 349.99 113.96 342.71 104.72 346.07 102.2 352.37 110.18 356.85 106.4 350.55 98.7 353.91 96.04 361.05 105.14 365.53 101.64 354.75 87.92 334.59 103.88" style="fill:#fff;stroke-width:0px"/>
          <polygon points="352.37 291.62 343.13 306.32 347.89 309.26 354.19 299.6 357.83 301.7 352.37 310.38 357.27 313.32 362.73 304.92 366.23 307.16 359.93 316.96 364.83 320.04 374.21 305.34 352.37 291.62" style="fill:#fff;stroke-width:0px"/>
          <polygon points="235.33 48.44 237.99 28.56 244.99 29.54 245.83 23.94 225.95 21.28 225.11 26.88 232.25 27.72 229.59 47.6 235.33 48.44" style="fill:#fff;stroke-width:0px"/>
          <polygon points="374.35 276.5 388.21 275.8 390.59 269.92 362.17 271.04 361.89 271.88 381.63 292.46 384.01 286.58 374.35 276.5" style="fill:#fff;stroke-width:0px"/>
          <polygon points="292.31 54.32 287.83 37.1 287.83 36.96 286.99 36.54 274.95 59.5 280.13 62.3 285.59 51.52 288.25 61.46 288.81 61.74 298.47 58.38 292.87 68.88 297.91 71.54 309.95 48.58 309.39 48.16 292.31 54.32" style="fill:#fff;stroke-width:0px"/>
          <polygon points="37.37 247.94 26.87 262.36 26.73 262.5 26.87 263.34 52.35 257.88 51.09 252.28 39.33 254.8 45.21 246.54 45.07 245.84 36.39 240.66 48.15 238.28 47.03 232.68 21.55 238 21.83 238.7 37.37 247.94" style="fill:#fff;stroke-width:0px"/>
          <polygon points="384.01 176.26 394.79 167.3 394.51 166.32 380.65 163.1 391.71 155.82 390.31 149.94 367.35 165.2 367.63 165.9 383.03 169.54 370.85 179.76 371.13 180.74 398.57 183.82 397.17 177.8 384.01 176.26" style="fill:#fff;stroke-width:0px"/>
          <path d="m367.49,138.46c2.24,2.38,5.88,2.66,8.96.98,4.76-2.38,6.3-7.14,3.64-12.46l-4.34-8.68-23.1,11.34,2.66,5.18,10.64-5.18-7.28,12.18,2.94,6.16c.28,0,5.46-8.96,5.88-9.52m1.12-5.88l-1.54-3.22,6.44-3.08,1.54,3.22c1.12,2.38.7,4.06-1.4,5.04-2.24.84-3.92.42-5.04-1.96" style="fill:#fff;stroke-width:0px"/>
          <path d="m332.21,81.62c1.4-.42,2.8-1.12,3.78-2.52,1.54-1.82,2.24-4.2,1.82-6.44-.42-1.82-1.26-3.5-2.94-4.9l-3.22-2.8-4.34-3.78-3.78,4.34-2.66,2.94-.28.28-3.5,4.06-.28.28-2.94,3.22-3.78,4.34,4.34,3.78,3.78,3.22c1.68,1.4,3.5,2.24,5.6,2.24,2.38.14,4.76-.98,6.3-2.8,1.54-1.4,2.24-3.36,2.1-5.46m-4.34-12.18l3.22,2.8c1.26,1.12,1.54,2.24.7,3.36-1.12,1.26-2.66.56-3.5-.28l-2.94-2.66,2.52-3.22Zm-5.6,14l-3.78-3.22,2.94-3.5,3.5,3.08c1.4,1.26,1.82,2.8.98,3.78-.98.98-2.52.98-3.64-.14" style="fill:#fff;stroke-width:0px"/>
          <path d="m328.29,322.98c.98-.98,2.38-1.96,3.78-2.8,2.94-1.26,6.86-1.4,7.42-1.4v5.88c-1.12,0-3.64.28-4.76.84-1.82.98-3.08,2.24-3.36,3.5-.28.98.14,1.54.56,1.96s.98.56,1.54.28c.56-.14,1.4-.7,2.38-.98,2.1-.98,4.48-2.24,6.58-2.38,2.24-.28,4.2.42,5.74,1.96,1.82,1.68,2.52,4.2,2.38,5.88-.14,1.82-.98,5.04-5.18,7.7-2.52,1.54-6.02,1.96-6.44,2.1l-.84-5.74c.98-.14,2.94-.7,4.06-1.12,2.94-1.4,3.08-4.76.7-4.76-.98,0-3.08,1.12-4.62,1.82-1.12.7-2.24.98-3.08,1.4-2.8.98-5.46.28-7.42-1.54-2.1-1.96-2.94-4.9-2.1-7.7.28-1.96,1.12-3.5,2.66-4.9" style="fill:#fff;stroke-width:0px"/>
          <polygon points="178.49 36.68 186.33 48.16 192.49 47.04 176.67 23.52 175.83 23.8 168.69 51.24 174.99 50.12 178.49 36.68" style="fill:#fff;stroke-width:0px"/>
        </g>
      </g>
    </g>
  </g>
</svg>
