<?xml version="1.0" encoding="UTF-8"?>
<svg id="Layer" xmlns="http://www.w3.org/2000/svg" viewBox="0 0 420 515.44">
  <defs/>
  <path d="m407.88,161.26C384.61,68.02,301.12,5.85,209.69,5.85c-16.31,0-32.89,1.95-49.34,6.13C50.94,39.17-15.27,150.39,12.05,260.22c23.28,93.11,106.62,155.41,198.2,155.41,16.31,0,32.89-1.95,49.48-6.13,109.27-27.32,175.76-138.4,148.16-248.23Z" style="stroke-width:0px"/>
  <g>
    <path d="m413.6,159.87c-5.85-23.42-15.47-45.44-28.71-65.37-12.82-19.23-28.57-36.24-46.83-50.46C301.4,15.61,255.82,0,209.83,0h0c-17,0-34.15,2.09-50.87,6.27C104.6,19.79,58.74,53.94,30.03,102.16,1.04,150.39-7.19,206.98,6.33,261.61c5.85,23.42,15.47,45.44,28.71,65.37,12.82,19.23,28.57,36.24,46.83,50.46,36.66,28.43,82.23,44.04,128.23,44.04,17.14,0,34.29-2.09,51.01-6.27,54.36-13.66,100.21-47.67,128.93-95.89,28.85-48.23,37.21-104.95,23.56-159.45Zm-203.35,255.76c-91.57,0-174.92-62.3-198.2-155.41C-15.27,150.39,50.94,39.17,160.35,11.99c16.59-4.18,33.03-6.13,49.34-6.13,91.57,0,174.92,62.3,198.2,155.41,27.6,109.83-38.89,220.92-148.02,248.23-16.73,4.18-33.31,6.13-49.62,6.13Z" style="stroke-width:0px;fill:#fff"/>
    <g>
      <g>
        <path d="m195.61,193.04s.14,0,0,0h7.11c7.11-.28,8.64-.56,11.85-1.39,11.57-3.48,11.71-13.38,11.85-19.23v-24.39c0-14.5-6.13-16.59-20.21-16.59h-10.73c-.98.14-1.25.7-1.25,1.67,0,0,.14,58.12.14,58.68-.14.7.14,1.25,1.25,1.25Z" style="stroke-width:0px;fill:#fff"/>
        <path d="m211.78,214.09c-5.3-.56-10.59-.56-15.89-.56-1.12,0-1.25.84-1.25,1.39s.14,61.74.14,72.76c0,1.25.56,2.09,1.95,2.09h16.17c8.78-.28,12.27-1.53,15.05-3.48,4.74-3.62,5.44-9.48,5.44-21.74l-.14-27.04c0-3.76-.14-7.81-1.39-11.57-1.39-3.62-3.48-6.27-6.55-8.08-4.04-2.37-8.92-3.21-13.52-3.76Z" style="stroke-width:0px;fill:#fff"/>
        <g>
          <path d="m215.82,328.38c38.75-12.4,60.35-29.69,82.51-49.34,9.06-8.08,16.86-14.08,23.56-17.98,1.39-8.08,1.95-16.17,1.67-24.39-15.75,7.67-36.1,14.08-58.82,18.96v-9.48c24.95-5.44,44.46-12.54,58.12-19.51-.56-4.88-1.39-9.9-2.37-14.77-.7-3.35-1.53-6.69-2.37-9.9-5.02,1.95-10.59,3.35-16.73,4.18-2.93.42-5.85.56-8.78.56-12.68,0-26.2-3.35-39.86-8.64,2.09-3.48,2.51-5.02,3.62-8.64,15.47,5.99,30.52,9.2,43.76,7.39,5.71-.84,10.87-2.09,15.47-4.04-7.25-23.69-17.7-44.18-31.08-61.19-13.52-17-29.97-30.66-49.06-40.42-12.68-6.41-24.67-10.31-34.84-12.68-16.73-3.9-34.29-2.09-49.76,5.16-20.77,9.76-38.89,24.39-52.55,42.65,13.66-2.51,36.94-3.07,64.11,11.71v10.73c-1.39-.84-2.79-1.53-4.04-2.23-34.71-18.96-62.16-10.59-68.16-8.22-11.15,18.4-18.26,39.44-19.93,62.16,3.35,4.46,14.22,17.28,33.59,29.27,13.52,8.36,32.89,17.28,58.68,21.74v9.48c-28.29-4.6-49.48-14.36-64.11-23.56-13.1-8.22-22.44-16.73-28.57-23,.98,41.12,19.79,77.91,49.06,103,12.13,10.31,27.18,16.45,43.07,17.28,14.63.7,34.29,0,53.8-6.27Zm-42.79-215.9c.98-.84,2.09-1.39,3.21-1.39l39.3-.14h.28c10.87,0,19.51,3.21,25.23,9.62,6.55,7.39,7.39,16.59,7.67,24.53l.14,28.99c0,2.51.14,8.78-1.53,13.94-1.81,5.71-5.3,10.31-10.17,13.52,3.21,1.25,5.85,2.93,8.08,4.74,10.59,8.78,10.59,21.32,10.59,31.5v32.61c-.28,11.57-1.25,21.88-10.87,30.52-10.87,9.2-23.83,9.34-28.15,9.34l-40,.14c-.98,0-1.81-.28-2.51-.7-1.39-.84-2.09-2.23-2.09-3.76l-.42-190.39c0-1.12.28-2.23,1.25-3.07Z" style="stroke-width:0px;fill:#fff"/>
          <path d="m332.9,231.93c.56,8.64.14,16.73-.7,24.25,0,0,4.18-1.53,7.67-1.67,2.23-.14,3.07.14,3.35.28,3.76-11.29,6.13-23.28,6.83-35.68-2.37,2.37-5.16,4.74-8.64,7.25-2.65,1.95-5.44,3.76-8.5,5.58Z" style="stroke-width:0px;fill:#fff"/>
          <path d="m338.89,186.63c-3.21,4.32-7.25,7.94-12.13,11.01,1.12,3.9,2.09,8.08,3.07,12.13.84,4.04,1.53,8.36,2.09,12.27,5.85-3.35,14.08-10.04,18.12-18.26-.56-10.17-2.09-20.07-4.6-29.55-1.53,4.04-3.48,8.36-6.55,12.4Z" style="stroke-width:0px;fill:#fff"/>
          <path d="m218.75,337.3c-16.59,5.3-33.17,6.97-46.97,6.97h-4.74c13.52,4.32,28.02,6.69,42.93,6.69,22.02,0,42.93-5.16,61.47-14.22,15.19-7.39,27.74-19.23,35.82-34.01,1.67-2.93,3.21-6.13,4.88-9.62,2.79-6.13,5.02-12.4,6.83-18.68-4.04,2.93-8.78,6.83-14.5,11.71-22.02,19.51-45.3,38.19-85.72,51.15Z" style="stroke-width:0px;fill:#fff"/>
          <path d="m330.25,267.19c-2.37,11.29-5.85,21.19-9.34,29.13,7.39-9.62,13.66-20.21,18.4-31.5-.84-.28-3.35-.42-9.06,2.37Z" style="stroke-width:0px;fill:#fff"/>
          <path d="m291.92,125.86c13.8,17.42,24.53,38.33,32.06,62.3,2.93-2.09,5.3-4.46,7.39-7.25.28-.42.56-.7.84-1.12,6.97-10.17,7.53-23.69,1.67-34.57-23.42-44.32-70.11-74.57-123.77-74.57h-2.51c9.62,2.65,20.63,6.41,32.2,12.4,20.21,10.31,37.77,24.81,52.13,42.79Z" style="stroke-width:0px;fill:#fff"/>
        </g>
      </g>
      <g>
        <g>
          <path d="m201.05,365.59l-14.77-1.67c-.56,0-1.12.42-1.25.98l-3.76,34.29c0,.28,0,.56.28.84.14.28.42.42.7.42l14.77,1.67h.14c.28,0,.56-.14.7-.28.28-.14.42-.42.42-.7l.28-2.09c0-.56-.42-1.12-.98-1.25l-10.73-1.25,1.39-12.54,8.78.98c.28,0,.56,0,.84-.28.28-.14.42-.42.42-.7l.28-2.09c0-.56-.42-1.12-.98-1.25l-8.64-.98,1.25-11.01,10.73,1.25c.56,0,1.12-.42,1.25-.98l.28-2.09c0-.28,0-.56-.28-.84-.56-.28-.84-.42-1.12-.42Z" style="stroke-width:0px;fill:#fff"/>
          <path d="m240.21,362.8l-17.56,2.37c-.56.14-.98.7-.98,1.25l.28,2.23c0,.28.14.56.42.7s.56.28.84.28l6.13-.84,4.32,30.94c.14.56.56.98,1.12.98h.14l2.93-.42c.28,0,.56-.14.7-.42.14-.28.28-.56.28-.84l-4.32-30.94,6.27-.84c.28,0,.56-.14.7-.42.14-.28.28-.56.28-.84l-.28-2.23c-.14-.56-.7-.98-1.25-.98Z" style="stroke-width:0px;fill:#fff"/>
          <path d="m163.41,358.62l-2.65-.98c-.28-.14-.56-.14-.84,0-.28.14-.42.42-.56.7l-8.5,23.42,1.67-26.48c0-.42-.28-.98-.7-1.12l-4.04-1.53c-.56-.28-1.25.14-1.39.7l-12.27,32.34c-.28.56.14,1.25.7,1.39l2.51.98c.28.14.56.14.84,0,.28-.14.42-.28.56-.56l8.5-23v-.14l-1.67,26.06c0,.42.28.98.7,1.12l4.18,1.53c.14,0,.28.14.42.14s.28,0,.42-.14c.28-.14.42-.28.56-.56l12.13-32.2c.14-.28.14-.56,0-.84-.14-.56-.28-.7-.56-.84Z" style="stroke-width:0px;fill:#fff"/>
          <path d="m276.87,369.21c-7.53-2.51-8.64-3.35-9.62-5.99-.56-1.39-.7-2.37-.42-3.21.28-.84,1.12-1.53,2.51-2.09,3.62-1.39,4.32.42,5.16,2.51l1.12,2.79c.14.28.28.56.56.56.28.14.56.14.84,0l2.65-1.12c.28-.14.56-.28.56-.56.14-.28.14-.56,0-.84l-.98-2.37c-.7-1.67-1.53-3.62-3.21-4.88-2.09-1.53-4.88-1.53-8.5-.14-3.35,1.39-5.3,3.35-5.85,5.85-.42,2.09.14,4.18.84,5.58,1.95,5.02,5.58,6.13,11.57,7.94,5.71,1.81,7.11,2.51,8.5,5.71.56,1.53.7,2.65.42,3.48-.28.98-1.25,1.67-2.79,2.23-.98.42-2.93.98-4.32.28-1.25-.56-1.53-1.39-2.51-3.9l-.98.42.98-.42-.98-2.51c-.28-.56-.84-.84-1.39-.56l-2.65,1.12c-.28.14-.56.28-.56.56-.14.28-.14.56,0,.84l1.81,4.46c1.25,3.21,3.9,4.88,7.11,4.88,1.53,0,3.21-.42,5.02-1.12,8.92-3.62,6.41-10.17,5.58-12.27-2.09-4.6-4.88-5.44-10.45-7.25Z" style="stroke-width:0px;fill:#fff"/>
        </g>
        <g>
          <path d="m227.11,57.15l2.79.42c.28,0,.56,0,.84-.14.28-.14.42-.42.42-.7l1.95-12.54,2.23-2.51,4.32,16.86c.14.42.42.7.84.84l3.07.42h.14c.28,0,.56-.14.84-.42.28-.28.28-.7.28-.98l-5.58-21.32,10.59-11.71c.28-.28.42-.7.28-1.12s-.42-.7-.84-.7l-3.21-.56c-.42,0-.7.14-.98.42l-10.45,12.13,1.95-12.82c0-.28,0-.56-.14-.84s-.42-.42-.7-.42l-2.93-.42c-.56-.14-1.12.28-1.25.98l-5.44,33.87c-.14.7.28,1.25.98,1.25Z" style="stroke-width:0px;fill:#fff"/>
          <path d="m278.82,72.34c.14,0,.28.14.42.14.42,0,.84-.28.98-.7l.84-1.95c.14-.28.14-.56,0-.84s-.28-.56-.56-.56l-9.06-3.9,12.4-28.57c.28-.56,0-1.25-.56-1.39l-2.65-1.12c-.56-.28-1.25,0-1.39.56l-13.8,31.64c-.14.28-.14.56,0,.84s.28.56.56.56l12.82,5.3Z" style="stroke-width:0px;fill:#fff"/>
          <path d="m304.05,88.37c.14.14.42.28.7.28h.14c.28,0,.56-.14.7-.42l9.06-11.99,18.26-10.04c.28-.14.56-.56.56-.84,0-.42-.14-.7-.42-.98l-2.51-1.95c-.42-.28-.84-.28-1.25-.14l-12.82,7.53,3.76-14.36c.14-.42,0-.84-.42-1.12l-2.51-1.81c-.28-.28-.7-.28-.98-.14-.42.14-.56.42-.7.84l-4.88,20.07-9.06,11.99c-.42.56-.28,1.12.28,1.53l2.09,1.53Z" style="stroke-width:0px;fill:#fff"/>
          <path d="m325.93,108.16c0,.28,0,.56.28.84l1.67,2.09c.14.28.42.42.7.42s.56,0,.84-.28l19.23-15.19s.14,0,.14-.14l-15.05,21.32c-.28.42-.28.98,0,1.25l2.79,3.48c.28.28.56.42.84.42s.42-.14.7-.28l27.18-21.19c.42-.42.56-1.12.14-1.53l-1.81-2.23c-.14-.28-.42-.42-.7-.42s-.56,0-.84.28l-19.51,15.61,15.19-21.74c.28-.42.28-.98,0-1.25l-2.65-3.35c-.14-.28-.42-.42-.7-.42s-.56,0-.84.28l-27.18,21.19c-.14.28-.28.42-.42.84Z" style="stroke-width:0px;fill:#fff"/>
          <path d="m184.88,55.05c1.53,1.81,3.76,2.79,6.83,2.79.56,0,1.12,0,1.81-.14,5.02-.56,6.97-2.93,7.67-4.04,1.25-1.95,1.25-4.04.98-5.58l-1.95-18.82c-.28-2.09-.56-4.88-2.51-6.69-1.81-1.67-4.6-2.51-7.94-2.09-3.48.42-6.13,1.67-7.67,3.9-1.12,1.53-1.39,3.48-1.12,6.27l2.09,19.37c.14.98.28,3.21,1.81,5.02Zm2.09-28.99c.7-.7,1.81-1.12,3.21-1.25h.7c.98,0,1.95.28,2.65.7,1.39.98,1.67,3.07,1.95,5.71l1.81,16.73c.28,2.37,0,3.76-1.67,4.88h0c-.56.42-1.39.56-2.23.7-1.12.14-2.09,0-2.93-.42-1.25-.56-1.81-1.39-2.23-4.6l-1.95-18.82c-.42-1.12-.42-2.51.7-3.62Z" style="stroke-width:0px;fill:#fff"/>
          <path d="m109.47,91.85c.28.28.56.42.84.42s.42-.14.7-.28l2.37-1.81c.28-.14.42-.42.42-.7s0-.56-.28-.84l-9.48-12.54,2.23-1.67,15.61,8.5c.42.14.84.14,1.25-.14l2.51-1.81c.28-.28.42-.56.42-.98s-.28-.7-.56-.84l-15.19-8.22c2.23-2.93,2.37-5.85.14-8.78l-3.21-4.32c-4.32-5.71-9.9-1.39-11.85,0l-6.41,4.88c-.28.14-.42.42-.42.7s0,.56.28.84l20.63,27.6Zm-11.29-30.66c2.09-1.53,3.35-1.95,5.16.42l3.21,4.18c.7.98.56,1.53.42,1.95-.28.7-.98,1.53-2.09,2.51h0l-3.35,2.51-6.83-9.06,3.48-2.51Z" style="stroke-width:0px;fill:#fff"/>
          <path d="m82.3,122.93h.14c.28,0,.56-.14.7-.42l5.16-6.55c2.09-2.65,2.93-5.02,2.51-7.25-.28-1.67-1.25-3.21-3.07-4.46l-4.6-3.62c-2.79-2.23-5.02-2.65-7.39-1.25,0-1.53-.56-3.07-2.65-4.74l-3.9-3.07c-5.3-4.18-8.92.56-10.45,2.51l-4.6,5.99c-.42.42-.28,1.12.14,1.53l27.32,21.05c.28.14.42.28.7.28Zm-12.96-18.4l-1.12,1.39-8.36-6.41,1.53-2.09c1.12-1.53,1.95-2.23,2.65-2.51.42-.14.98-.14,2.09.7l3.35,2.51c1.39,1.25,3.07,2.51-.14,6.41Zm3.62,2.51c1.67-2.09,3.21-3.35,4.46-3.48.98-.14,1.81.42,2.65.98l3.9,2.93c2.23,1.67,3.35,2.65.7,5.99l-2.37,3.07-10.45-8.08,1.12-1.39Z" style="stroke-width:0px;fill:#fff"/>
          <path d="m140.84,63c.42,1.12,1.25,3.07,3.07,4.46,1.25.84,2.65,1.39,4.32,1.39,1.39,0,3.07-.28,4.74-.98,4.6-1.81,5.99-4.74,6.27-5.99.7-2.23,0-4.32-.56-5.71l-6.97-17.7c-.84-1.95-1.81-4.46-4.18-5.85-2.09-1.25-5.02-1.12-8.22.14-3.35,1.25-5.58,3.35-6.41,5.85-.56,1.81-.42,3.76.56,6.27l7.39,18.12Zm-2.65-23.97c.42-.84,1.39-1.67,2.65-2.09.7-.28,1.53-.42,2.23-.42.42,0,.84,0,1.12.14,1.53.56,2.51,2.51,3.48,5.02l6.27,15.61c.84,2.23,1.12,3.62-.28,5.16h0c-.42.56-1.12.98-1.95,1.25-.98.42-2.09.56-2.93.42-1.39-.28-2.23-.84-3.35-3.76l-6.97-17.7c-.7-.98-.98-2.37-.28-3.62Z" style="stroke-width:0px;fill:#fff"/>
        </g>
      </g>
    </g>
  </g>
</svg>
