<?xml version="1.0" encoding="UTF-8"?>
<svg id="Layer" xmlns="http://www.w3.org/2000/svg" viewBox="0 0 420 461.49">
  <defs/>
  <path d="m417.6,120l1.32.48v-23.69c0-3.73-.6-7.45-1.92-11.06s-3.13-7.09-5.53-10.22c-2.16-2.77-4.69-5.41-7.45-7.58-2.53-1.92-5.17-3.61-8.06-4.93-1.8-1.2-5.41-2.89-15.15-6.85-8.3-3.25-21.64-8.3-38.96-13.35-15.75-4.69-36.07-9.86-58.56-13.71h0c-.12-.24-15.27-19.12-38-9.38-.72.36-1.56.72-2.28,1.08-3.37,1.68-6.37,3.13-12.14,1.56-3.37-.96-7.7-3.01-6.01-10.58.36-1.68,1.68-3.97,3.85-5.17,1.44-.84,3.01-1.08,4.69-.6,3.01.84,4.33,2.53,3.85,5.05-.12.96-.84,1.92-1.8,2.28s-1.92.12-3.13-.6c-1.08-.72-2.53-.48-3.37.6-.72,1.08-.48,2.65.6,3.37,2.53,1.68,5.29,2.16,7.7,1.08,2.4-.96,4.21-3.25,4.57-5.89.36-1.92.84-8.18-7.21-10.46-2.89-.84-5.89-.48-8.42.96-2.89,1.68-5.29,4.93-6.01,8.3v.24c-.96-1.32-1.92-2.4-2.4-2.89l-7.82-8.06-7.82,8.06c-.48.48-1.44,1.56-2.4,2.89v-.24c-.72-3.25-3.13-6.49-6.01-8.3-2.65-1.56-5.53-1.8-8.42-.96-8.06,2.4-7.58,8.66-7.21,10.46.48,2.53,2.28,4.81,4.57,5.89,2.4,1.08,5.17.6,7.7-1.08,1.08-.72,1.32-2.28.6-3.37s-2.28-1.32-3.37-.6c-1.2.84-2.16.96-3.13.6-.84-.36-1.56-1.32-1.8-2.28-.48-2.53.84-4.21,3.85-5.05,1.68-.48,3.25-.24,4.69.6,2.04,1.2,3.37,3.49,3.85,5.17,1.8,7.58-2.53,9.74-6.01,10.58-5.77,1.56-8.78.12-12.14-1.56-.72-.36-1.56-.72-2.28-1.08-22.73-9.74-37.88,9.14-38.12,9.38,0,0,0,.12-.12.12-21.64,3.73-41.24,8.66-56.51,13.11-29.34,8.66-53.03,19.36-53.99,19.84l-3.13,1.44v.48c-1.32.24-2.77.6-4.09,1.32-5.05,2.28-9.98,4.81-14.91,7.21l-3.73,1.92v12.87c0,3.13.6,5.65,1.8,7.82.24.48.48.84.84,1.2v14.31c-1.68,3.13-2.53,6.37-2.53,9.5s.84,5.89,2.53,8.06v29.82l.36.84c.24.72,4.93,13.35,19.12,18.52l-.36.24s7.45,12.02,19,14.55l-2.16.96s8.18,13.23,23.93,15.99l-2.28,1.08s10.22,10.94,26.09,12.99c16.83,52.3,65.89,90.3,123.73,90.3s106.89-38,123.73-90.3c15.87-2.04,26.09-12.99,26.09-12.99l-2.28-1.08c15.75-2.77,23.93-15.99,23.93-15.99l-2.16-.96c11.54-2.53,19-14.55,19-14.55l.72-.96c13.23-5.65,20.92-18.52,20.92-30.66v-15.15c-.36-3.73-1.2-7.45-2.4-10.94ZM275.11,27.9c-9.38-1.44-19-2.53-28.86-3.25.24-.12.6-.24.84-.36,12.87-5.53,22.73-.48,28.02,3.61Zm-102.57-3.61c.36.12.6.24.84.48-9.86.72-19.6,1.92-28.98,3.37,5.41-4.21,15.39-9.38,28.14-3.85Z" style="stroke-width:0px;fill:#b4975a"/>
  <g>
    <path d="m406.65,109.9l6.97,2.77v-15.87c0-3.13-.6-6.25-1.56-9.26-1.08-3.13-2.77-6.13-4.69-8.78-1.92-2.53-4.09-4.69-6.49-6.61-2.28-1.8-4.69-3.25-7.33-4.45-1.32-.96-4.93-2.77-14.55-6.49-8.18-3.25-21.4-8.18-38.48-13.23-28.02-8.42-70.22-18.28-114.23-18.88-1.08-3.01-3.49-5.29-6.85-6.13-.36-5.77-4.57-10.22-5.41-11.18l-4.09-4.21-4.09,4.21c-.84.84-5.05,5.41-5.41,11.18-3.25.72-5.77,3.01-6.85,6.01-43.29.72-84.65,10.34-112.18,18.52-29.34,8.66-53.27,19.6-53.27,19.6v3.25s-.36-.24-.6-.36c-.84-.36-1.68-.6-2.65-.6-1.2,0-2.53.36-3.97.96-4.93,2.28-9.86,4.69-14.67,7.09l-.84.36v9.74c0,2.16.36,3.85,1.2,5.17.36.72.96,1.32,1.56,1.8v17.68c-1.56,2.65-2.53,5.53-2.53,8.18s.84,4.69,2.53,6.01v30.9s4.69,12.87,19.36,16.23c.36.12.72.12,1.08.24h.12c2.28.48,4.81.72,7.58.6h0c-2.65,1.32-5.17,2.53-7.82,3.97,0,.12,7.82,12.87,26.33,11.06-3.13,1.44-6.13,3.01-9.26,4.45,0,.12,8.9,12.63,28.62,12.38-4.57,2.28-7.21,3.73-7.21,3.73,0,.12,8.9,8.66,23.69,9.62,15.39,51.34,63.01,88.86,119.4,88.86s104.01-37.39,119.4-88.86c14.91-1.08,23.69-9.62,23.69-9.62,0,0-2.77-1.44-7.21-3.73,19.6.36,28.5-12.14,28.62-12.38-3.13-1.56-6.13-3.01-9.26-4.45,18.64,1.8,26.33-10.82,26.33-11.06-2.65-1.32-5.17-2.65-7.82-3.97,6.37.48,11.54-1.32,15.51-3.61,9.98-5.41,15.27-15.75,15.27-24.65v-15.15c-.24-9.74-7.94-21.04-7.94-21.04Z" style="fill:#0a2240;stroke-width:0px"/>
    <path d="m292.79,230.14c2.28,1.8,4.69,3.61,6.97,5.41,0-.24-27.66,7.58-47.49-1.08-.72-.36-1.44-.72-2.16-1.08-4.93,17.68-21.16,30.78-40.4,30.78s-35.47-13.11-40.4-30.78c-.72.36-1.32.72-2.16,1.08-19.72,8.66-47.49.84-47.49,1.08,2.28-1.8,4.69-3.61,6.97-5.41-9.62,1.44-18.52-.36-24.65-2.28,17.43,42.32,59.04,72.14,107.62,72.14s90.18-29.82,107.62-72.14c-5.89,2.04-14.79,3.73-24.41,2.28Z" style="stroke-width:0px;fill:#ce0e2d"/>
    <g>
      <path d="m198.28,41.12c-2.16-1.08-3.73-2.89-4.57-5.05-69.74,1.8-139.36,26.81-139.12,27.78-3.01,1.08-4.69,3.73-4.69,5.53v2.53c48.1-18.64,98.24-28.5,148.5-29.7l-.12-1.08Z" style="stroke-width:0px;fill:#fff"/>
      <path d="m369.5,65.65c.12-.96-72.87-27.78-143.57-29.58-.84,2.16-2.53,3.97-4.57,5.05v.96c51.7,1.44,103.41,12.02,152.83,31.5v-2.53c0-1.68-1.68-4.33-4.69-5.41Z" style="stroke-width:0px;fill:#fff"/>
    </g>
    <path d="m217.52,28.5c-4.57-.6-5.29,5.89-5.41,8.06h-1.44c0-6.13,3.01-8.66,3.01-12.75s-3.73-7.94-3.73-7.94c0,0-3.73,3.85-3.73,7.94s2.89,6.61,2.89,12.75h-1.44c-.12-2.16-.84-8.66-5.41-8.06-4.93.6-4.33,7.33,0,7.94,0,0-.84-3.01,1.56-3.01,1.8,0,2.28,2.04,2.4,3.13h-2.16v2.4h4.81c-.6,2.28-2.16,3.01-2.16,3.01,0,0,.6,1.32,2.04,1.44,0,0,0,1.56,1.2,2.89,1.2-1.2,1.2-2.89,1.2-2.89,1.44-.12,2.04-1.44,2.04-1.44,0,0-1.56-.72-2.16-3.01h4.69v-2.4h-2.04c.12-1.08.6-3.13,2.4-3.13,2.4,0,1.56,3.01,1.56,3.01,4.21-.6,4.69-7.33-.12-7.94" style="stroke-width:0px;fill:#ce0e2d"/>
    <g>
      <path d="m195.15,75.51v-15.03c0-2.04-.36-3.97-1.2-5.41-.72-1.56-1.8-2.77-3.13-3.73-1.32-.96-2.89-1.68-4.69-2.04-1.8-.36-3.73-.48-5.89-.36-2.04.12-4.09.48-5.89,1.2-1.8.6-3.37,1.56-4.81,2.65-1.32,1.08-2.4,2.53-3.13,4.21s-1.2,3.49-1.2,5.65v15.15c-1.56.36-2.77,1.92-2.77,3.49,0,1.68,1.2,2.77,2.77,2.89v16.95c0,2.04.36,3.85,1.2,5.41.72,1.44,1.8,2.77,3.13,3.61,1.32.96,2.89,1.56,4.81,1.92,1.8.36,3.73.48,5.89.36,2.04-.12,4.09-.48,5.89-1.08s3.37-1.44,4.69-2.53c1.32-1.08,2.4-2.4,3.13-4.09.72-1.56,1.2-3.49,1.2-5.53v-16.95c1.68-.24,3.01-1.68,3.01-3.25,0-2.04-1.32-3.37-3.01-3.49Zm-8.3,23.33c0,1.08-.24,2.04-.6,2.77s-.96,1.44-1.56,1.92c-.6.48-1.32.84-2.04,1.2-.72.24-1.56.48-2.28.48-.84,0-1.56,0-2.4-.12s-1.44-.48-2.16-.84c-.6-.36-1.08-.96-1.56-1.68-.36-.72-.6-1.56-.6-2.77v-37.76c0-1.08.24-2.04.6-2.77.36-.72.96-1.44,1.56-1.92s1.32-.96,2.16-1.2,1.56-.48,2.4-.48,1.56,0,2.28.24c.72.12,1.44.48,2.04.96s1.08.96,1.56,1.68c.36.72.6,1.68.6,2.77v37.52Z" style="stroke-width:0px;fill:#fff"/>
      <path d="m35.23,116.15c0,.12,0,.24-.12.12q-.12-.12-.24-.24c-.24-.72-10.1-33.67-10.7-35.11-.48-1.56-.84-2.28-.84-2.4-.12-.48-.36-.84-.72-.96s-.84-.12-1.44.24c-3.01,1.44-5.89,2.77-8.9,4.21v2.77c0,.96.12,1.68.36,2.04.24.48.6.72.96.96s.84.24,1.32.24v25.13c-1.44.96-2.53,2.77-2.53,4.45,0,1.56,1.08,2.4,2.53,1.92v35.47c2.28-1.08,4.57-2.16,6.97-3.25v-44.49c0-.36,0-.48.12-.48l.12.12s.24.84.84,2.28c.48,1.44,10.22,33.91,10.34,34.15.24.84.6,1.44.84,1.92.24.48.84.6,1.44.24,1.56-.6,3.13-1.32,4.69-1.92.6-.24,1.08-.72,1.44-1.2.36-.6.48-1.08.48-1.68v-33.31c1.32-.96,2.28-2.53,2.28-3.97s-.96-2.28-2.28-2.16v-24.65c0-.48.12-.96.24-1.2.12-.24.36-.6.48-.84.48-.48.84-1.2,1.32-1.92.48-.72.6-1.68.6-2.53v-2.4c-3.25,1.32-6.49,2.65-9.74,4.09v44.37h.12Z" style="stroke-width:0px;fill:#fff"/>
      <path d="m364.57,116.75q0,.12-.12,0c-.12-.12-.12-.24-.24-.36-.24-.84-.6-2.4-1.32-4.81-.6-2.4-1.44-5.17-2.28-8.3-.84-3.13-1.68-6.49-2.65-9.86-.96-3.49-1.8-6.61-2.65-9.5s-1.56-5.29-2.04-7.33c-.6-1.92-.84-3.01-.84-3.13-.12-.6-.36-1.08-.72-1.56-.36-.36-.84-.72-1.44-.96-3.13-.96-6.13-2.04-9.26-3.01v2.77c0,.96.12,1.68.36,2.4.24.72.6,1.2.96,1.68s.84.96,1.44,1.32v19.6c-1.44-.24-2.65.84-2.65,2.4s1.08,3.25,2.65,3.97v28.74c2.4.72,4.81,1.56,7.21,2.28v-39.32c0-.36,0-.48.12-.36,0,.12.12.12.12.36,0,.12.24,1.08.84,3.01s1.2,4.33,2.04,7.21c.84,2.89,1.68,6.01,2.65,9.38.96,3.37,1.8,6.49,2.65,9.5.84,3.01,1.56,5.53,2.16,7.58.6,2.16.96,3.37,1.08,3.61.24,1.08.6,1.92.84,2.65.36.72.84,1.2,1.44,1.44,1.56.6,3.13,1.2,4.69,1.8.6.24,1.08.24,1.44-.12.36-.36.48-.72.48-1.32v-26.69c1.32.12,2.28-.72,2.28-2.16s-.96-3.13-2.28-3.97v-19.12c0-.48.12-.84.24-.96s.36-.36.48-.48c.48-.12.84-.48,1.32-.84.48-.48.6-1.08.6-2.04v-2.4c-3.25-1.32-6.61-2.53-9.86-3.73v40.64h.24Z" style="stroke-width:0px;fill:#fff"/>
      <path d="m405.69,123.01c-.96-2.16-2.28-4.33-3.73-6.37-1.2-1.68-2.53-3.37-3.97-5.05.12-.24.12-.48.12-.72,0-1.8-1.44-3.85-3.13-4.69-.72-.36-1.44-.36-1.92-.12-.24-.24-.48-.6-.72-.84-1.44-1.68-2.77-3.25-3.73-4.69-.96-1.44-1.56-2.65-1.56-3.85v-13.11c0-.6.24-1.08.6-1.32.36-.36.84-.48,1.44-.6s1.2,0,1.8,0c.6.12,1.2.36,1.8.6.48.24,1.08.6,1.8.96.6.48,1.32.96,1.8,1.44.6.6.96,1.2,1.32,1.8.36.72.6,1.32.6,2.04v3.13c0,1.32.48,2.65,1.32,3.97s2.04,2.28,3.37,2.89c1.2.6,2.4,1.08,3.49,1.68v-6.13c0-2.04-.36-4.09-.96-6.01-.72-1.92-1.68-3.61-2.89-5.29-1.2-1.56-2.65-3.13-4.33-4.33-1.68-1.32-3.49-2.4-5.41-3.25s-3.73-1.44-5.41-1.68-3.13-.12-4.33.36c-1.2.48-2.16,1.44-2.89,2.65-.72,1.32-1.08,3.01-1.08,5.29v10.82c0,2.28.48,4.45,1.44,6.49.96,2.04,2.28,3.97,3.73,5.77s3.01,3.61,4.69,5.29c-.12.36-.24.72-.24,1.2,0,1.8,1.44,3.85,3.13,4.57.96.48,1.8.36,2.4-.12,1.32,1.56,2.53,3.25,3.37,4.81.96,1.8,1.44,3.49,1.44,5.41v15.51c0,.72-.24,1.32-.6,1.68-.36.36-.96.6-1.56.84-.6.12-1.32.12-2.04,0s-1.44-.24-2.16-.6c-.72-.36-1.44-.72-2.16-1.32-.72-.6-1.44-1.2-2.04-1.8s-1.08-1.32-1.56-2.04c-.36-.72-.6-1.44-.6-2.16v-3.61c0-1.32-.36-2.4-1.08-3.37s-1.8-1.8-3.25-2.4c-1.32-.48-2.53-1.08-3.85-1.56v6.25c0,2.04.36,4.09,1.2,6.01.72,1.92,1.8,3.61,3.13,5.17s2.89,3.01,4.57,4.21c1.8,1.2,3.61,2.28,5.53,3.25,1.92.84,3.85,1.44,5.53,1.8,1.8.36,3.25.24,4.57-.12,1.32-.36,2.4-1.2,3.13-2.4.84-1.2,1.2-2.89,1.2-4.93v-14.91c.12-2.16-.36-4.33-1.32-6.49Z" style="stroke-width:0px;fill:#fff"/>
      <path d="m126.25,87.17c-.36,2.89-.72,5.77-.96,8.66-.36,2.89-.6,5.29-.96,7.58-.24,2.16-.48,3.97-.72,5.29-.12,1.32-.24,2.04-.36,2.04-.72-3.85-1.32-7.33-1.8-10.46-.48-3.13-1.08-6.49-1.8-10.34-.6-3.85-1.32-7.58-1.92-11.3-.72-3.73-1.32-7.09-1.92-10.34-.6-3.13-1.08-5.65-1.56-7.45-.12-.6-.6-.96-1.56-1.2s-1.8-.12-2.77,0c-.84.24-1.68.6-2.65,1.08-.96.48-1.44,1.2-1.56,1.92-.48,1.92-.96,4.57-1.56,8.06-.6,3.37-1.2,7.09-1.92,11.18-.6,3.97-1.32,8.06-1.92,12.14-.6,4.09-1.2,7.94-1.8,11.3-.48,3.37-1.08,7.21-1.8,11.42,0,0-.12-.6-.36-1.92-.24-1.32-.36-3.01-.72-5.05-.24-2.04-.48-4.45-.84-7.09-.36-2.65-.72-5.41-.96-8.18-.72-6.49-3.49-30.06-3.49-30.06-3.37.96-6.73,1.92-10.1,2.89v2.53c0,.96.24,1.68.6,2.16.36.48.84.84,1.2.96.24.12.48.36.72.48.24.24.36.48.48.96.84,6.61,1.56,12.75,2.16,18.52-1.2.84-2.04,2.16-2.04,3.61,0,1.56,1.2,2.65,2.77,2.4v.36c.36,3.13.72,6.25,1.08,9.26s.72,5.65.96,8.06c.36,2.4.6,4.33.72,5.77.24,1.44.24,2.28.24,2.4,0,.48.24.84.48,1.08.36.36.72.48,1.32.24,3.13-.84,6.25-1.68,9.38-2.53.6-.12,1.08-.48,1.44-.84.36-.36.6-.96.96-1.8,2.4-14.07,4.69-28.02,7.09-41.96,2.28,12.87,4.57,25.85,6.97,38.84.24.6.6,1.08.96,1.32.36.24.84.36,1.44.24,3.13-.6,6.25-1.2,9.38-1.8.6-.12.96-.36,1.32-.84s.48-.96.6-1.32c0-.12.12-.96.36-2.53s.48-3.61.72-6.13c.36-2.53.6-5.29.96-8.54.36-3.13.72-6.37,1.08-9.74v-.36c1.56-.48,2.77-2.04,2.77-3.61,0-1.32-.84-2.4-2.04-2.65.72-6.01,1.44-12.51,2.28-19.48.12-.48.24-.84.48-1.2s.48-.6.72-.84c.48-.36.84-.84,1.2-1.56.36-.72.6-1.44.6-2.4v-2.53c-3.49.6-6.85,1.08-10.22,1.8.48,0-2.28,24.65-3.13,31.5Z" style="stroke-width:0px;fill:#fff"/>
      <path d="m333.55,95.95c0-1.56-1.2-3.25-2.77-3.97-.36-2.28-.72-4.57-1.2-6.85-.48-3.13-.96-5.89-1.44-8.42-.36-2.53-.72-4.57-1.08-6.25-.24-1.56-.48-2.53-.48-2.77-.12-1.08-.6-2.04-1.32-3.01s-1.8-1.56-3.13-1.92c-3.73-.96-7.45-1.92-11.18-2.77v1.92c0,2.4.72,3.97,2.04,4.93.24.12.36.48.36.84s0,.72-.12,1.2c0,0-.12.72-.36,1.92-.24,1.2-.6,2.89-.96,4.93-.36,2.04-.84,4.33-1.32,6.97-.24,1.32-.48,2.53-.72,3.85-1.8-.36-3.25.72-3.25,2.53,0,1.32.84,2.65,2.04,3.49-1.56,8.06-5.41,27.66-5.41,27.66,2.65.6,5.29,1.2,7.94,1.8,0,0,2.28-13.47,2.4-13.71.12-1.08.6-1.56,1.44-1.32,3.13.72,6.37,1.56,9.5,2.4.48.12.96.36,1.2.6.36.36.6.84.6,1.56,0,.24,1.8,14.79,1.8,14.79,2.77.84,5.53,1.56,8.3,2.4,0,0-3.37-20.44-5.17-30.54,1.56-.24,2.28-1.08,2.28-2.28Zm-8.42,6.25c-.24.24-.48.24-.96.12-2.65-.72-5.17-1.32-7.82-2.04-.36-.12-.6-.24-.84-.6-.24-.24-.36-.6-.24-.96,0,0,.12-.48.24-1.32.12-.84.36-1.92.48-3.25.24-1.32.48-2.77.72-4.45s.6-3.37.96-5.05c.84-4.57,1.68-9.14,2.53-13.83h.12c.84,5.05,1.68,9.98,2.53,15.03.36,1.92.6,3.73.96,5.53.24,1.8.48,3.49.72,4.81.24,1.44.36,2.65.6,3.61.12.96.24,1.44.24,1.44.12.48,0,.84-.24.96Z" style="stroke-width:0px;fill:#fff"/>
      <path d="m232.3,104.49c-.24-.24-.48-.36-.72-.48-.24-.12-.24-.48-.24-1.08v-14.19c0-2.04-.36-3.97-.96-5.65s-1.56-3.01-2.89-3.97c-.6-.6-.72-1.2-.12-1.68,1.2-.84,2.16-2.04,2.89-3.49.72-1.44,1.08-3.01,1.08-4.81v-6.49c0-2.04-.24-3.97-.72-5.65-.48-1.68-1.32-3.25-2.4-4.45s-2.53-2.28-4.21-3.01-3.73-1.2-6.25-1.2c-5.89-.12-11.66-.12-17.56,0v2.4c0,1.2.24,2.04.6,2.65.48.6.84,1.08,1.32,1.32.24.12.48.24.6.48.12.24.24.6.24,1.08v18.88c-1.56.36-2.65,1.68-2.65,3.25s1.08,2.89,2.65,3.13v28.74h8.3v-27.29c0-.72.36-1.2,1.08-1.2,1.8,0,3.49,0,5.29.12,1.8,0,3.13.6,3.97,1.68s1.2,2.65,1.2,4.57v18.16c0,1.2.36,2.16,1.08,3.01.72.72,1.8,1.2,3.25,1.2,2.4.12,4.69.24,7.09.36v-3.25c0-.96-.24-1.68-.6-2.16-.36-.24-.84-.6-1.32-.96Zm-9.38-35.47c0,1.92-.36,3.49-1.2,4.57s-2.16,1.68-3.97,1.68-3.61,0-5.41-.12c-.24,0-.48-.12-.72-.24-.24-.12-.36-.36-.36-.6v-17.8c0-.72.48-1.2,1.32-1.2,1.68,0,3.37,0,5.05.12,1.8,0,3.13.6,3.97,1.8s1.2,2.65,1.2,4.57v7.21h.12Z" style="stroke-width:0px;fill:#fff"/>
      <path d="m258.88,88.74c-.84.24-1.32,1.08-1.32,2.28,0,.36.12,14.31-.12,14.67-.24.24-.48.36-.84.36-2.53-.24-4.93-.48-7.45-.72-.36,0-.72-.24-.84-.6-.12-.36-.24-.72-.24-1.2,0-15.15,0-30.3-.12-45.57,0-.6.12-.96.24-1.2.12-.24.36-.36.6-.48.48-.24.84-.72,1.32-1.32.48-.6.72-1.32.72-2.28v-2.53c-4.69-.48-9.5-.84-14.19-1.08v2.53c0,.96.24,1.68.72,2.4.48.6.96,1.08,1.32,1.44.24.24.48.36.72.6.12.24.24.6.24,1.2v18.88c-1.56.24-2.65,1.44-2.65,3.01s1.2,3.01,2.65,3.37v28.74c7.45.48,14.91,1.2,22.36,2.04.6.12,1.08.12,1.68.24.48,0,.84-.12,1.32-.36.48-.36.72-.84.72-1.44v-22.73c-1.2-.12-2.4-.24-3.61-.48-1.2-.12-2.4,0-3.25.24Z" style="stroke-width:0px;fill:#fff"/>
      <path d="m74.55,69.38c-.12,0-.24,0-.36.12h-.12c-8.66,2.77-17.31,5.77-25.85,9.14v2.4c0,1.08.12,1.92.48,2.4.24.48.72.72,1.2.84.24.12.48.24.72.36.24.24.36.48.36,1.08v18.76c-1.44.84-2.53,2.53-2.53,4.21,0,1.56,1.08,2.53,2.53,2.16v28.62c.72-.24,1.44-.48,2.04-.84,3.73-1.44,7.45-2.77,11.06-3.97,1.56-.6,3.13-1.08,4.81-1.56,1.2-.36,2.4-.84,3.61-1.2.48-.12.96-.36,1.44-.48h.12c.24-.12.36-.12.6-.36s.48-.36.72-.72c.36-.48.6-1.08.6-1.68v-8.42h0v-9.02c-1.2.36-2.28.72-3.49,1.08-1.2.36-2.4.96-3.25,1.68-.84.6-1.2,1.56-1.2,2.89,0,.36.12,9.02-.12,9.38s-.48.6-.84.72c-1.08.36-2.04.72-3.13,1.08-1.44.48-2.89.96-4.33,1.44-.6.24-.96,0-.96-.84v-19.24c0-.72.36-1.32,1.2-1.56,3.25-1.2,6.49-2.28,9.74-3.37.84-.24,1.2-.84,1.2-1.56v-4.69c0-.48-.12-.72-.48-.84-.24-.12-.6-.12-.84,0-3.25,1.08-6.49,2.16-9.74,3.37-.84.24-1.2,0-1.2-.72v-17.31c0-.36.12-.72.36-.96.24-.36.48-.6.72-.6,2.65-.96,5.17-1.8,7.82-2.65.12,0,.24.12.36.24.24.24.12,9.02.12,9.38,0,1.32.36,1.92,1.2,2.04.84.12,2.04-.12,3.25-.48,1.2-.36,2.28-.72,3.49-1.08v-9.02h0v-8.78c0-.48-.24-.84-.6-1.08,0-.24-.36-.36-.72-.36Z" style="stroke-width:0px;fill:#fff"/>
      <path d="m296.51,56.99c-.12-.12-.24-.12-.36-.12h-.12c-8.9-1.68-17.8-3.25-26.69-4.45v2.4c0,1.08.12,1.92.48,2.65.36.6.72,1.2,1.32,1.44.24.24.48.48.72.72.24.24.36.72.36,1.2v18.76c-1.56.12-2.65,1.2-2.65,2.77s1.2,3.01,2.65,3.49v28.62c.72.12,1.44.24,2.16.36,3.85.6,7.7,1.2,11.54,1.8,1.68.24,3.25.6,4.93.84,1.2.24,2.4.48,3.73.72.48.12.96.24,1.56.24h.72c.24,0,.6-.12.84-.36.36-.24.6-.72.6-1.32v-17.56c-1.2-.24-2.4-.48-3.49-.72-1.2-.24-2.4-.24-3.25,0s-1.2.96-1.2,2.28c0,.36.12,9.14-.12,9.38s-.48.36-.84.24c-1.08-.24-2.16-.36-3.25-.6-1.44-.24-3.01-.48-4.45-.72-.72-.12-.96-.6-.96-1.32v-19.24c0-.72.48-1.08,1.32-.96,3.37.6,6.73,1.08,10.1,1.8.84.12,1.2-.12,1.2-.96v-4.57c0-.48-.12-.84-.48-1.08s-.6-.36-.84-.48c-3.37-.6-6.61-1.2-9.98-1.8-.84-.12-1.32-.6-1.32-1.32v-17.31c0-.36.12-.6.36-.84.24-.24.48-.24.84-.24,2.65.48,5.41.84,8.06,1.44.12.12.24.24.36.36.24.36.12,9.02.12,9.38,0,1.32.48,2.16,1.2,2.77.84.6,2.04.96,3.25,1.2s2.4.48,3.49.72v-17.8c0-.48-.24-.84-.6-1.32-.48-.12-.84-.36-1.32-.48Z" style="stroke-width:0px;fill:#fff"/>
    </g>
    <g>
      <path d="m142,245.53l5.89,5.65c.96.96,2.28,2.28,2.04,4.09-.12.84-.6,1.68-1.32,2.4-.84.96-1.8,1.2-2.53,1.32-1.68.24-2.89-.84-4.09-2.04l-3.37-3.25-3.49,3.61-2.4-2.28,9.26-9.5Zm-1.8,6.49l3.01,2.89c.72.72,1.8,1.8,3.01.48.48-.48.6-.96.6-1.44,0-.6-.36-.96-1.44-1.92l-2.65-2.65-2.53,2.65Z" style="stroke-width:0px;fill:#fff"/>
      <path d="m157.76,259.24l10.58,6.37-1.2,2.04-7.7-4.69-1.56,2.53,7.45,4.45-1.2,2.04-7.45-4.45-1.68,2.77,8.06,4.81-1.2,2.04-10.94-6.49,6.85-11.42Z" style="stroke-width:0px;fill:#fff"/>
      <path d="m176.15,269.1l3.13,1.08-3.37,10.22,6.97,2.28-.72,2.28-10.1-3.37,4.09-12.51Z" style="stroke-width:0px;fill:#fff"/>
      <path d="m194.31,274.03l3.25.48-2.04,13.11-3.25-.48,2.04-13.11Z" style="stroke-width:0px;fill:#fff"/>
      <path d="m222.45,283.65c-.24.84-.48,1.8-1.56,2.89-1.08.96-2.77,2.16-6.13,2.28-4.69.24-8.06-2.16-8.3-6.73-.24-4.93,3.73-7.21,7.82-7.33,1.56-.12,5.89.12,7.82,3.85l-3.61.6c-.36-.6-1.44-2.04-4.09-1.92-3.01.12-4.57,2.28-4.57,4.81.12,2.89,2.4,4.57,4.93,4.45,2.89-.12,3.73-1.8,4.09-2.65l3.61-.24Z" style="stroke-width:0px;fill:#fff"/>
      <path d="m234.23,272.1l3.49-.96,9.86,10.94-3.61,1.08-1.8-2.04-6.49,1.92-.36,2.77-3.49,1.08,2.4-14.79Zm3.13,3.25c-.12-.12-.24-.24-.36-.48-.12-.12-.24-.24-.24-.48v1.08l-.72,4.81,4.45-1.32-3.13-3.61Z" style="stroke-width:0px;fill:#fff"/>
      <path d="m250.46,266.21l2.89-1.68,9.38,3.01c1.2.36,1.32.48,2.65.96-.72-1.08-.96-1.32-1.56-2.28l-3.49-5.77,2.77-1.68,6.85,11.42-3.01,1.56-9.5-3.01c-.96-.36-1.44-.48-2.53-.96.6.84.72.96,1.2,1.92l3.73,6.25-2.77,1.56-6.61-11.3Z" style="stroke-width:0px;fill:#fff"/>
      <path d="m277.76,258.16c1.68.6,3.37-.36,4.69-1.56.6-.6,2.28-2.4,1.2-3.61-.72-.72-1.44-.24-2.04.24-.48.24-2.77,1.92-3.25,2.28-1.08.72-3.61,2.4-5.77.24-.48-.48-.84-1.08-.96-1.68-.48-2.04.96-4.09,2.53-5.53,1.44-1.32,2.65-2.16,4.21-2.65,1.44-.36,2.53-.12,3.01,0l-1.68,2.77c-.24-.12-.72-.24-1.56,0-.96.36-1.8,1.08-2.28,1.44-1.08.96-1.92,2.28-1.08,3.13.6.6,1.32.24,2.16-.24.48-.24,2.77-1.8,3.25-2.16,1.32-.84,3.61-2.28,5.65-.24,3.01,3.01-.6,6.73-1.8,7.82-1.56,1.56-4.21,3.61-7.82,2.4l1.56-2.65Z" style="stroke-width:0px;fill:#fff"/>
    </g>
    <path d="m194.55,194.67s-47.49-15.87-26.81-66.49c0,0-50.26,2.04-119.04,29.82,0,0-4.81,2.04-7.7,3.01-2.77.96-7.33,2.77-13.83-.36,0,0,62.89-32.95,143.81-40.52,10.7-.96,12.02.6,9.26,4.57-2.28,3.49-31.14,40.16,14.31,69.98Z" style="stroke-width:0px;fill:#fff"/>
    <path d="m152.34,142.48c-40.64,5.29-80.44,19.48-80.44,19.48,6.73,12.02,25.13,6.97,25.13,6.97,34.51-9.74,49.9-13.11,54.83-14.07-.24-3.73-.12-7.94.48-12.38Z" style="stroke-width:0px;fill:#b4975a"/>
    <path d="m152.59,162.32c-6.73,1.32-35.23,7.21-63.97,17.92,0,0,9.02,10.34,27.05,5.17,15.15-4.33,34.51-10.46,40.28-12.38-1.44-3.13-2.53-6.73-3.37-10.7Z" style="stroke-width:0px;fill:#b4975a"/>
    <path d="m158.96,178.8c-6.13,1.92-36.79,11.9-49.78,16.95,0,0,7.45,9.98,28.86,1.56,14.91-5.89,23.21-9.38,26.81-10.82-2.16-2.28-4.09-4.81-5.89-7.7Z" style="stroke-width:0px;fill:#b4975a"/>
    <path d="m169.66,190.7c-5.41,2.28-25.25,11.06-36.79,16.59,0,0,14.55,7.09,32.71-4.09l11.3-7.45c-2.4-1.44-4.93-3.13-7.21-5.05Z" style="stroke-width:0px;fill:#b4975a"/>
    <path d="m182.4,198.64c-3.61,2.28-18.76,11.78-26.09,17.19,0,0,12.51,5.17,25.37-6.97,4.21-3.97,6.49-6.13,7.7-7.45-2.28-.72-4.57-1.68-6.97-2.77Z" style="stroke-width:0px;fill:#b4975a"/>
    <g>
      <path d="m225.09,194.67s47.49-15.87,26.81-66.49c0,0,50.26,2.04,119.04,29.82,0,0,4.81,2.04,7.7,3.01,2.77.96,7.33,2.77,13.83-.36,0,0-62.89-32.95-143.81-40.52-10.7-.96-12.02.6-9.26,4.57,2.28,3.49,31.14,40.16-14.31,69.98Z" style="stroke-width:0px;fill:#fff"/>
      <path d="m267.29,142.48c40.64,5.29,80.44,19.48,80.44,19.48-6.73,12.02-25.13,6.97-25.13,6.97-34.51-9.74-49.9-13.11-54.83-14.07.24-3.73.12-7.94-.48-12.38Z" style="stroke-width:0px;fill:#b4975a"/>
      <path d="m267.05,162.32c6.73,1.32,35.23,7.21,63.97,17.92,0,0-9.02,10.34-27.05,5.17-15.15-4.33-34.51-10.46-40.28-12.38,1.44-3.13,2.53-6.73,3.37-10.7Z" style="stroke-width:0px;fill:#b4975a"/>
      <path d="m260.68,178.8c6.13,1.92,36.79,11.9,49.78,16.95,0,0-7.45,9.98-28.86,1.56-14.91-5.89-23.21-9.38-26.81-10.82,2.16-2.28,4.09-4.81,5.89-7.7Z" style="stroke-width:0px;fill:#b4975a"/>
      <path d="m249.98,190.7c5.41,2.28,25.25,11.06,36.79,16.59,0,0-14.55,7.09-32.71-4.09l-11.3-7.45c2.4-1.44,4.93-3.13,7.21-5.05Z" style="stroke-width:0px;fill:#b4975a"/>
      <path d="m237.23,198.64c3.61,2.28,18.76,11.78,26.09,17.19,0,0-12.51,5.17-25.37-6.97-4.21-3.97-6.49-6.13-7.7-7.45,2.16-.72,4.57-1.68,6.97-2.77Z" style="stroke-width:0px;fill:#b4975a"/>
    </g>
    <g>
      <g>
        <path d="m248.66,222.2c0,21.52-17.43,38.84-38.84,38.84s-38.84-17.43-38.84-38.84,17.43-38.84,38.84-38.84,38.84,17.43,38.84,38.84Z" style="stroke-width:0px;fill:#fff"/>
        <path d="m240.6,230.26c0,17.07-13.83,30.9-30.78,30.9s-30.78-13.83-30.78-30.9,13.83-30.78,30.78-30.78,30.78,13.83,30.78,30.78Z" style="stroke-width:0px;fill:#b4975a"/>
        <path d="m209.82,180.36c-23.09,0-41.96,18.76-41.96,41.96s18.76,41.96,41.96,41.96,41.96-18.76,41.96-41.96-18.88-41.96-41.96-41.96Zm35.23,35.11c-2.65,10.34-9.74,18.88-18.88,23.57.72-5.17,3.01-10.22,5.29-15.51,3.37-7.7,7.09-15.99,5.41-24.89,4.09,4.81,6.97,10.58,8.18,16.83Zm-53.63-23.93c4.69-2.77,10.1-4.57,15.75-5.05v56.39c-2.89-.24-5.65-.72-8.3-1.56-.24-6.97-3.13-13.47-6.01-19.84-4.57-10.58-8.54-19.72-1.44-29.94Zm7.21,55.07c2.77.72,5.65,1.2,8.66,1.44v9.98c-4.69-.36-9.14-1.56-13.23-3.61,1.92-1.8,3.97-4.45,4.57-7.82Zm13.83,1.44c3.01-.12,5.89-.6,8.66-1.44.6,3.37,2.65,6.01,4.57,7.82-4.09,1.92-8.54,3.25-13.23,3.61v-9.98Zm8.3-6.73c-2.65.84-5.41,1.44-8.3,1.56v-56.39c5.77.36,11.06,2.16,15.75,5.05,7.09,10.22,3.13,19.48-1.56,29.94-2.77,6.37-5.65,12.87-5.89,19.84Zm-38-42.57c-1.56,8.9,2.04,17.19,5.41,24.89,2.28,5.29,4.57,10.46,5.29,15.63-9.26-4.57-16.23-13.11-18.88-23.69,1.2-6.49,4.09-12.14,8.18-16.83Zm-8.3,29.82c4.57,7.33,11.18,13.11,19.12,16.35,0,.24,0,.48-.12.72-.36,2.65-2.65,4.81-4.21,6.01-7.58-5.29-13.11-13.59-14.79-23.09Zm55.79,23.09c-1.56-1.2-3.73-3.37-4.21-6.01,0-.24,0-.48-.12-.72,7.94-3.37,14.55-9.02,19.12-16.35-1.68,9.5-7.09,17.8-14.79,23.09Z" style="fill:#0a2240;stroke-width:0px"/>
      </g>
      <g>
        <path d="m222.32,125.89s-.36,1.32-1.08,1.32c-.84,0-5.89-2.4-8.3-3.73-1.08-.6-2.53-1.44-3.01-1.68,0,0-2.16,1.08-3.13,1.68-2.4,1.32-7.45,3.73-8.3,3.73s-1.08-1.32-1.08-1.32c0,0-13.23,7.94-13.23,29.94,0,16.35,8.54,23.81,8.54,23.81l1.2,4.69h31.98l1.2-4.69s8.54-7.45,8.54-23.81c-.24-21.88-13.35-29.94-13.35-29.94Z" style="fill:#0a2240;stroke-width:0px"/>
        <path d="m228.58,150.42c0-6.85-2.77-12.38-5.77-15.63,0,0-.12,1.92-3.37-.24-2.77-1.92-6.13-3.01-9.62-3.01s-6.85,1.08-9.74,3.01c-3.13,2.16-3.25.24-3.25.24-3.01,3.25-5.77,8.9-5.77,15.63,0,5.65,1.44,8.42,1.92,9.26,2.77,7.21,9.26,12.26,16.83,12.26s13.95-4.93,16.71-12.02c.24-.36,2.04-3.01,2.04-9.5Z" style="stroke-width:0px;fill:#fff"/>
        <path d="m216.91,165.69q-.12,0,0,0c-.12-.12-1.92-3.61,1.08-6.01,0,0,6.97,1.44,7.09-7.7,0,0-.12-.96.84-2.89,0,0-1.8-1.56-5.65,1.32-3.85,2.89-5.89,11.06-8.06,9.14-2.04-1.92-1.32-12.63-2.4-12.99h0c-1.08.36-.36,11.06-2.4,12.99s-4.21-6.25-8.06-9.14c-3.85-2.89-5.65-1.32-5.65-1.32.96,1.92.84,2.89.84,2.89.12,9.14,7.09,7.7,7.09,7.7,3.01,2.4,1.2,5.89,1.2,5.89,0,0,0,.12-.12.12-8.3-8.9-13.11-7.7-10.7,2.28,2.28,9.74,11.3,51.58,12.63,61.32-.24,8.78-1.2,11.9-1.44,12.51l-.84,1.8.96,2.04c1.56,2.28,2.65,4.81,3.01,5.77l3.37,8.66,3.37-8.66c.36-.96,1.44-3.61,3.01-5.89l1.08-1.92-.96-1.92c-.24-.6-1.2-3.61-1.44-12.02,1.2-8.66,10.34-51.82,12.63-61.8,2.53-9.74-2.28-10.94-10.46-2.16Z" style="fill:#0a2240;stroke-width:0px"/>
        <g>
          <path d="m204.17,209.34c-3.01-15.63-5.29-27.05-7.21-35.47-1.44-6.37,2.4-3.85,4.45.12l2.77,35.35Z" style="stroke-width:0px;fill:#ce0e2d"/>
          <path d="m215.47,209.34c3.01-15.63,5.29-27.05,7.21-35.47,1.44-6.37-2.4-3.85-4.45.12l-2.77,35.35Z" style="stroke-width:0px;fill:#ce0e2d"/>
        </g>
        <g>
          <path d="m199.6,156.67c-.6-.12-.96-.72-.72-1.32.12-.24.24-.36.36-.6-.36-.48-.84-.84-1.44-1.32,0,0-.96,4.45,3.01,3.97,0,0-.12-.36-.48-.96-.12.24-.48.24-.72.24Z" style="stroke-width:0px;fill:#ce0e2d"/>
          <path d="m221.84,153.43c-.6.36-.96.84-1.44,1.32.12.12.36.36.36.6.12.6-.24,1.2-.72,1.32-.24.12-.6,0-.84-.12-.36.6-.48.96-.48.96,4.09.48,3.13-4.09,3.13-4.09Z" style="stroke-width:0px;fill:#ce0e2d"/>
        </g>
        <path d="m211.74,215.11c1.32-24.05,3.25-41.12,3.25-43.29,0-.72-.12-1.68-.36-2.77l-1.44,4.57-.48-8.06c-.72-.96-1.68-1.8-2.89-2.65h-.12c-1.2.84-2.04,1.8-2.77,2.65l-.48,8.06-1.44-4.57c-.36,1.08-.36,2.04-.36,2.77,0,2.16,1.92,19.12,3.25,43.29,1.32,24.05-1.68,28.5-1.68,28.5,1.68,2.53,3.61,6.97,3.61,6.97,0,0,1.92-4.45,3.61-6.97,0,.12-3.01-4.33-1.68-28.5Z" style="stroke-width:0px;fill:#ce0e2d"/>
      </g>
    </g>
  </g>
</svg>
