<?xml version="1.0" encoding="UTF-8"?>
<svg id="Layer" xmlns="http://www.w3.org/2000/svg" viewBox="0 0 420 474.92">
  <defs/>
  <g>
    <path d="m209.38,340.45l-27.87-36.14c-35.39-11.66-60.04-43.66-62.35-80.96l-17.28-22.41c-16.46,7.11-32.83,18.28-32.83,18.28l-51.77-52.01,21.83-47.88L0,68.72h62.1l11.99-26.21,30.76-12.4,3.39-9.26,24.89,11.41,5.95-20.67,4.05-1.32C162.82,3.72,185.56.17,208.8,0c.66,0,8.02.08,8.27.08.83,0,4.47.17,4.47.17,19.68.91,38.12,4.22,54.91,9.76l4.13,1.32,5.46,19.76,9.01-6.78,50.36,17.94,12.16,26.54h62.43l-39.44,50.94,21.5,47.14-52.59,54.16s-19.27-14.06-32.5-19.27l-15.88,20.43c-1.82,38.12-27.79,71.61-64.25,82.78l-27.45,35.48h0Z" style="stroke-width:0px;fill:#fff"/>
    <g>
      <polygon points="209.38 315.39 388.91 84.02 31.18 84.02 209.38 315.39" style="stroke-width:0px;fill:#9ea2a2"/>
      <path d="m16.37,76.74l193.01,250.56,194.33-250.56H16.37Zm372.53,7.28l-179.44,231.38L31.18,84.02h357.73Z" style="stroke-width:0px;fill:#1d428a"/>
    </g>
  </g>
  <g>
    <path d="m362.94,100.14l-.08-.17-.17-.08-11.49-7.69,4.3-8.19.17-.25-.08-.25-15.79-34.65-.08-.25-.25-.08-42.59-15.13-.33-.08-.25.17-11.33,8.6-.08.08-.08.17-1.9,4.71s-17.7-4.47-43.58-7.03c-2.65-.25-9.68-.83-21-1.74l-1.08-.08-1.16-.08h-.25l-.17.17-8.43,8.35v-8.6s-23.9,1.32-39.53,3.47c-15.63,2.15-31.01,6.04-31.01,6.04l-2.81-6.04-.08-.17-.17-.08-20.09-9.18-.58-.25-.25.58-2.4,6.28-.5-1.24-.25-.5-.5.25-28.78,11.58-.25.08-.08.25-53.09,116.6,43.58,43.66,2.07-1.16c1.32-.74,3.14-1.82,5.29-3.06,5.29-3.14,12.49-7.36,15.96-9.01l.66-.33c4.47-2.15,6.7-3.23,27.87-12.32l1.74-.66s2.4-.91,6.78-2.4c11.66-3.89,41.84-12.82,71.12-12.82h.33c1.16,0,2.32,0,3.47.08,19.85.58,43.17,4.8,59.13,8.19,15.38,3.31,26.96,6.53,30.27,7.44l2.23.66c14.55,5.62,32.42,14.88,48.87,25.47l2.07,1.32,44.08-45.4-29.44-65.25Z" style="stroke-width:0px;fill:#1d428a"/>
    <g>
      <path d="m358.23,104.19l-42.42-28.28-7.36-20.67,13.15,4.63,5.29,12.9,19.93,6.37-11.58-25.72-37.63-13.4-6.95,5.38,12.49,40.69,40.27,28.45,10.34,25.72-16.79-7.53-5.79-16.04-20.59-6.04,11,36.22c3.39,1.24,6.78,2.56,10.09,3.89,9.18,3.72,18.11,7.77,26.88,12.32,6.04,3.14,12.07,6.37,17.94,9.84l8.77-9.01-27.04-59.7Z" style="fill:#f58426;stroke-width:0px"/>
      <path d="m72.36,123.38l14.14-12.65,3.39,3.97-13.98,40.11c7.61-3.39,15.38-6.45,23.24-9.26l10.09-33.08-8.68-14.39,18.03-17.2,10.58-35.14-12.98-5.87-11.66,33.16-18.69,16.13,17.03-43-18.28,7.28-50.44,110.64,7.86,7.94c4.71-2.73,9.43-5.38,14.22-7.86l16.13-40.77Z" style="fill:#f58426;stroke-width:0px"/>
      <path d="m200.2,44.41l-15.46.83-7.28,83.02c6.53-.66,13.23-1.08,19.85-1.24l2.89-82.61Z" style="fill:#f58426;stroke-width:0px"/>
      <path d="m246.1,111.06l-17.94-1.08-2.89-50.86,15.22.74-1.82-13.98-20.43-1.49-9.18,9.18v63.59l9.59,9.84c9.92.33,19.76,1.08,29.44,2.23l-1.98-18.19Z" style="fill:#f58426;stroke-width:0px"/>
      <path d="m144.3,77.15l6.45,31.59-4.22,23.9c6.28-1.24,12.57-2.23,19.02-3.06h0l10.09-83.27-14.39,2.07-4.71,27.29-5.38-25.63-16.87,4.22-23.48,87.41c6.78-2.15,13.64-4.05,20.59-5.71l12.9-58.8Z" style="fill:#f58426;stroke-width:0px"/>
      <path d="m269.17,106.43l5.04-6.86,7.36,6.12,6.78,30.93c7.11,1.82,14.14,3.8,21.17,6.04l-12.65-45.4-13.07-10.67,7.44-9.92-6.2-23.07-15.79-3.47,6.2,23.24-9.84,13.15-7.28-38.2-14.64-1.82s7.36,55.98,10.75,83.52c6.62.91,13.15,2.07,19.68,3.39l-4.96-26.96Z" style="fill:#f58426;stroke-width:0px"/>
      <g>
        <path d="m179.69,144.05s6.12-3.56,18.28-4.88l-.41-9.59c-6.7.25-13.31.66-19.93,1.24.66,3.72,1.49,9.26,2.07,13.23Z" style="stroke-width:0px;fill:#9ea2a2"/>
        <path d="m218.39,138.51c4.96.58,10.25,2.23,14.88,3.47,4.22.99,8.77,2.81,12.49,4.47l2.07-14.8c-9.76-1.24-19.02-1.9-29.03-2.23-.17,2.98-.17,6.95-.41,9.1Z" style="stroke-width:0px;fill:#9ea2a2"/>
        <path d="m154.39,161.91c5.71-4.22,9.1-8.52,15.05-12.16-1.16-5.38-2.65-12.32-3.72-17.61-6.53.83-12.9,1.9-19.27,3.14,2.32,7.94,5.46,18.61,7.94,26.63Z" style="stroke-width:0px;fill:#9ea2a2"/>
        <path d="m250.73,149.51c5.54,3.23,9.84,6.78,14.8,11.66l.99.74,7.77-25.8c-6.7-1.41-13.23-2.56-20.09-3.56l-3.47,16.95Z" style="stroke-width:0px;fill:#9ea2a2"/>
        <path d="m275.29,171.84l18.61,4.38,15.63-30.93c-7.19-2.32-14.14-4.3-21.5-6.12l-12.73,32.66Z" style="stroke-width:0px;fill:#9ea2a2"/>
        <path d="m125.94,176.22c4.88-1.82,11.58-4.22,17.94-5.95l-12.07-31.84c-7.28,1.74-13.64,3.64-20.76,5.87,4.47,10.67,9.51,21.67,14.88,31.92Z" style="stroke-width:0px;fill:#9ea2a2"/>
        <path d="m97.91,187.71c1.08-.91,11.58-5.46,18.85-8.52-5.46-9.92-12.07-20.84-17.61-30.93-7.86,2.81-15.05,5.71-22.66,9.1l21.42,30.35Z" style="stroke-width:0px;fill:#9ea2a2"/>
        <path d="m71.61,201.69c3.39-1.98,6.95-4.05,10.83-6.37l-24.64-29.03c-4.71,2.4-9.34,4.96-13.89,7.61l27.7,27.79Z" style="stroke-width:0px;fill:#9ea2a2"/>
        <path d="m303.73,180.11c14.8,5.71,35.48,17.37,43.66,22.82,3.8-3.64,24.39-25.22,27.21-28.2-17.12-10.01-35.06-18.61-53.75-25.47l-17.12,30.84Z" style="stroke-width:0px;fill:#9ea2a2"/>
        <polygon points="215.58 138.02 208.55 137.77 208.39 120.65 215.75 128.26 215.58 138.02" style="stroke-width:0px;fill:#9ea2a2"/>
      </g>
    </g>
  </g>
  <g>
    <path d="m210.12,134.62c-45.89,0-83.11,37.21-83.11,83.11s37.21,83.11,83.11,83.11,83.11-37.21,83.11-83.11-37.21-83.11-83.11-83.11Z" style="stroke-width:0px;fill:#1d428a"/>
    <g>
      <path d="m215.25,140.83c-6.37,2.23-12.49,5.46-18.61,8.27-4.13-2.48-6.53-3.14-9.34-4.96,8.77-3.06,18.19-3.56,27.95-3.31Z" style="fill:#f58426;stroke-width:0px"/>
      <path d="m274.79,176.14c-19.6-19.76-48.95-18.28-73.85-25.3,0,0,14.64-6.95,22.24-8.93,20.34,3.56,40.02,15.71,51.6,34.24Z" style="fill:#f58426;stroke-width:0px"/>
      <path d="m164.73,179.11c-18.77,28.86-21.33,64.42-6.37,95.59-19.35-16.29-30.93-47.71-22.24-78.31,7.11-10.01,16.29-18.77,28.61-17.28Z" style="fill:#f58426;stroke-width:0px"/>
      <path d="m184.82,199.62c10.17,30.18,12.4,63.51,38.62,93.86-20.43,4.13-40.77-1.98-56.89-12.24-20.01-29.19-18.11-72.85,1.9-101.13,9.76,2.89,15.05,15.63,16.37,19.52Z" style="fill:#f58426;stroke-width:0px"/>
      <path d="m170.76,176.96c3.06-4.3,6.45-8.35,10.34-12.16,42.59,11.99,83.19,56.15,90.14,99.56-2.07,3.31-6.86,7.86-10.17,11.08-10.58,9.51-22.24,14.47-33.41,17.12-19.85-20.59-26.46-47.38-33.41-73.76-5.38-20.26-9.1-35.56-23.4-41.76l-.08-.08Z" style="fill:#f58426;stroke-width:0px"/>
      <path d="m270.24,176.8c-20.59-18.11-49.2-15.79-73.27-24.31-4.63,2.81-9.18,6.2-13.07,9.68,42.59,13.31,81.2,54.99,90.38,97.99,6.7-9.68,10.67-20.84,12.32-32.75,1.08-18.19.91-34.81-16.37-50.61Z" style="fill:#f58426;stroke-width:0px"/>
      <path d="m177.63,163.48c-4.13,3.97-7.19,7.86-10.42,12.4h-.08c-11.25-2.56-20.18,3.31-27.29,10.58,3.39-8.6,10.58-18.77,18.11-25.47,6.95.25,11.99.17,19.68,2.48" style="fill:#f58426;stroke-width:0px"/>
      <path d="m180.6,160.84c4.05-3.56,7.94-6.7,12.73-9.59l-10.92-5.38c-7.28,2.98-15.05,6.86-20.43,11.74,8.35.91,11.91,1.41,18.61,3.23Z" style="fill:#f58426;stroke-width:0px"/>
    </g>
  </g>
  <g>
    <path d="m198.38,32.75l-3.39,3.31-5.79.33-2.15-1.9-2.73,2.32-6.28.58-2.73-2.65,3.64-24.56,4.71-.66-2.56,21.67,3.39-.41,2.65-21.75,4.71-.41-1.98,21.58,3.31-.33,1.74-21.5c1.98-.25,3.06-.17,4.8-.33l-1.32,24.73Z" style="stroke-width:0px;fill:#1d428a"/>
    <path d="m213.76,7.94l.08,15.46h3.06l-.17-15.38s3.14.08,4.63.25l.58,17.37-2.89,2.89-.99.08.17,7.44-5.13-.17-.08-7.44-.99-.08-3.14-3.23.17-17.2c1.57-.08,4.71,0,4.71,0Z" style="stroke-width:0px;fill:#1d428a"/>
    <path d="m175.56,10.83l-.83,5.04-5.71,1.08-1.08,5.95c2.07-.41,3.39-.58,5.87-.91-.33,2.23-.41,2.98-.83,5.04l-5.79.83-1.08,5.71,5.87-.83s-.58,3.8-.91,5.54c-4.13.5-8.27,1.08-12.24,1.82,0,0,4.47-20.59,5.54-26.96l11.16-2.32Z" style="stroke-width:0px;fill:#1d428a"/>
    <path d="m153.89,40.93l-5.95,1.16,2.73-11.25-1.82-4.05-4.71,16.13-5.87,1.32c2.4-8.77,4.96-17.53,7.36-26.21,1.98-.66,3.47-1.16,5.29-1.65.66,1.49,2.23,4.47,2.23,4.47l1.41-5.46s3.72-.99,5.54-1.41l-6.2,26.96Z" style="stroke-width:0px;fill:#1d428a"/>
    <path d="m238.07,12.73c.58,7.03,1.74,13.81,2.48,20.34l-2.65,3.97-8.43-.58-3.06-3.31c-.58-7.19-.91-14.39-1.32-21.58.74-.99,1.98-1.82,2.89-2.81l7.03.66,3.06,3.31Zm-7.94,1.16l1.49,16.79,2.98.25-1.57-16.7-2.89-.33Z" style="stroke-width:0px;fill:#1d428a"/>
    <path d="m265.36,15.22c1.08,4.05,3.14,12.32,3.14,12.32l1.98.41.99-1.32-2.48-10.34s2.48.66,5.13,1.49l2.65,10.01-1.24,1.82,2.32,2.56,3.47,12.16-5.79-1.32-2.23-8.52-3.64-.83,1.98,8.52-5.87-1.16c-2.07-9.18-5.79-27.21-5.79-27.21,0,0,3.06.66,5.38,1.41Z" style="stroke-width:0px;fill:#1d428a"/>
    <path d="m256.27,16.21l1.9,10.01-1.16,1.57,1.98,2.32,1.74,10.01-5.62-.99-1.57-8.27-3.39-.41,1.16,8.1-5.62-.74-3.72-27.54,10.75,1.9,3.56,4.05Zm-8.19.33l.99,7.03,3.14.33-1.32-6.86-2.81-.5Z" style="stroke-width:0px;fill:#1d428a"/>
  </g>
</svg>
