<?xml version="1.0" encoding="UTF-8"?>
<svg id="Layer" xmlns="http://www.w3.org/2000/svg" viewBox="0 0 420 498.22">
  <defs/>
  <path d="m391.76,54.94l-19.42,39.74,12.01,5.88,19.42-39.74-12.01-5.88Zm-62.35,97.49l56.22-115.38,23.89,11.63c6.64,3.19,9.33,11.12,6.13,17.76l-20.7,42.55c-2.68,5.49-7.28,7.79-12.52,5.24l-14.18,56.99-12.01-5.88,14.18-57.12-3.83-1.92-25.17,51.75-12.01-5.62Zm33.61-124.45l-25.17-8.18c-7.03-2.3-14.44,1.53-16.74,8.56l-31.31,96.47c-2.3,7.03,1.53,14.44,8.56,16.74l25.17,8.18,4.09-12.65-25.3-8.18,13.67-41.91,18.91,6.13,4.09-12.65-18.91-6.13,13.67-41.91,25.3,8.18,3.96-12.65Zm-93.28-10.22l13.16,2.04-15.97,100.18-13.03-2.04,15.84-100.18Zm-31.05,111.17l26.19,4.09c7.28,1.15,14.06-3.71,15.21-10.99l15.84-100.18c1.15-7.28-3.83-14.06-10.99-15.21l-26.32-4.09-19.93,126.37Zm-49.58-.89l13.29.26.64-37.06c.26-11.24-.51-34.12-1.02-44.85h.38c3.45,28.62,9.84,55.2,13.93,82.16l12.52.26L231.15.77l-13.29-.26-.64,37.06c-.26,11.24.51,34.12,1.02,44.85h-.38c-3.45-28.62-9.84-55.2-13.93-82.16l-12.52-.26-2.3,128.03ZM161.13,2.43l-13.16,2.04,18.02,113.34-13.16,2.04L134.8,6.52l-13.03,2.04,17.12,107.84c1.66,10.86,12.01,18.27,22.74,16.61,10.86-1.66,18.27-12.01,16.61-22.74L161.13,2.43Zm-66.7,147.07l12.65-4.09-17.76-54.56,12.65-4.09,17.76,54.56,12.65-4.09L92.89,15.46l-12.65,4.09,17.76,54.56-12.65,4.09-17.89-54.56-12.65,4.09,39.61,121.77Zm-26.45,12.91l11.88-5.75L29.64,53.41l11.88-5.88-5.75-11.76L0,53.15l5.75,11.88,11.88-5.88,50.34,103.24Z" style="stroke-width:0px;fill:#002d62"/>
  <path d="m334.01,231.91c29.39-6.52,58.14-10.86,85.99-13.16-30.79,9.46-62.23,19.93-93.92,31.43,2.81-5.88,5.37-12.01,7.92-18.27M23.38,387.03c24.53-21.72,52.26-42.42,82.67-61.46,5.75-2.94,11.37-5.75,17.12-8.56,2.3-1.15,7.03-3.45,12.78-6.13,3.96,4.34,7.92,8.69,12.14,12.78-43.44,20.32-85.23,41.53-124.71,63.38" style="stroke-width:0px;fill:#007ac1"/>
  <path d="m346.15,195.63c25.43-1.02,50.09-.64,73.73,1.15-25.56,3.58-51.49,7.79-77.94,12.65,1.53-4.47,2.94-9.07,4.22-13.8M2.04,301.04c28.49-18.14,60.05-34.63,94.17-48.94,1.15,2.3,2.3,4.6,3.45,6.77-1.79,3.71-3.71,7.54-5.49,11.24-31.69,9.84-62.48,20.06-92.13,30.92" style="stroke-width:0px;fill:#f05133"/>
  <path d="m185.02,287.62l4.22-1.92,10.61-8.56,2.43-6.52c1.53,3.19,2.43,4.34,3.96,7.41l3.45-1.53c.13,3.45.13,6.64.13,9.84-7.67,1.79-15.97,2.68-24.53,2.81l-.26-1.53Zm30.67-13.8c4.47-1.92,8.82-3.83,13.29-5.75l2.04-2.17c.89.13,1.92.13,3.07.13,1.66-.26,3.83-.89,6.13-1.66-1.53,5.37-2.43,10.09-2.81,14.18-6.26,2.17-13.29,4.34-21.34,6.39-.13-3.71-.26-7.28-.38-11.12m-4.73-118.83c48.04,0,85.74,11.24,128.29,32.46-20.83,78.45-58.9,131.23-128.29,174.03-26.07-16.1-48.17-34.12-66.7-54.56,8.18-3.96,17.51-8.31,25.68-12.14,3.32.26,6.39.51,9.46.51-.13,4.47-1.66,7.79-3.96,10.22,1.28,1.53,2.68,3.07,4.09,4.47,3.58-3.19,5.88-7.92,6.13-14.69,8.43-.13,16.61-1.02,24.15-2.68-.38,12.39-2.17,21.47-5.62,25.04-.13.13-.26.26-.26.26-.89,1.02-1.66,1.66-2.3,2.3,3.32-.64,6.77-1.41,9.97-2.3,4.22-8.82,4.34-24.15,4.34-26.83,7.79-1.92,14.82-3.96,21.21-6.13.26,7.16,3.19,14.06,8.69,16.61,2.43-1.79,4.86-3.58,7.28-5.49-1.41.26-10.09.77-9.97-13.16,18.53-7.03,30.54-15.33,41.14-27.86,2.81-6.39,4.98-12.91,6.64-19.81-12.65,19.93-24.28,31.56-47.02,40.76.64-4.09,1.79-8.82,3.71-14.57,6.64-2.81,13.54-6.13,17.76-7.79l9.97-10.48c2.56-9.71,4.98-19.29,7.41-29.01l-7.79,2.43,9.2-9.58c1.92-7.54,3.83-15.21,5.75-22.74-4.6.64-9.2,1.41-13.8,2.04.77-3.83,1.28-7.54,1.66-11.24-2.17-.51-4.47-1.15-6.64-1.53-.51,4.22-1.28,8.82-2.56,14.06l-.64.13c-4.34.77-8.69,2.17-12.52,5.37l1.28-3.71c-7.41,1.28-14.69,2.68-22.11,4.09l-7.28,7.67.26-.64,2.43-6.13c-7.28,1.53-14.57,3.07-21.85,4.6-1.53-9.84-3.07-18.66-4.34-25.81-2.04.26-4.09.51-6.13.77,1.28,7.28,2.94,16.36,4.47,26.32l-5.11,1.15-6.52,6.9c-4.6-4.86-13.93-1.79-19.81-.26-6.39,1.66-12.65,3.32-19.04,4.98-1.92.51-3.83,1.15-5.62,1.79-4.73-6.9-9.2-13.93-12.91-21.59l-.64-1.41c-1.92.77-3.83,1.53-5.75,2.43l.77,1.66c3.58,7.41,7.92,14.44,12.52,21.21-6.77,3.07-13.16,7.28-18.66,13.29,0,0-8.94,9.33-9.97,10.48-2.3,2.68-4.34,5.49-6.01,8.31-9.33-18.78-16.74-39.23-22.36-61.59,42.17-21.34,79.86-32.58,127.9-32.58" style="fill:#fff;stroke-width:0px"/>
  <path d="m185.02,287.62l4.22-1.92,10.61-8.56,2.43-6.52c1.53,3.19,2.43,4.34,3.96,7.54l3.45-1.53c.13,3.45.13,6.64.13,9.84-7.67,1.79-15.97,2.68-24.53,2.81l-.26-1.66Zm30.67-13.8c4.47-1.92,8.82-3.83,13.29-5.75l2.04-2.17c.89.13,1.92.13,2.94.13,1.66-.26,3.83-.89,6.13-1.66-1.53,5.37-2.43,10.09-2.81,14.18-6.26,2.17-13.29,4.34-21.34,6.39,0-3.71-.13-7.28-.26-11.12m-83.82-82.03c21.21-8.69,42.93-14.69,65.29-17.89,1.28,7.28,2.94,16.36,4.47,26.32l-5.11,1.15-6.52,6.9c-4.6-4.86-13.93-1.79-19.68-.26-6.39,1.66-12.65,3.32-19.04,4.98-1.92.51-3.83,1.15-5.62,1.79-4.73-6.9-9.2-13.93-12.91-21.47l-.89-1.53Zm-5.24,33.22c-3.45-8.69-6.52-17.63-9.07-26.83,2.81-1.41,5.75-2.68,8.69-3.96l.77,1.66c3.58,7.41,7.92,14.44,12.52,21.21-4.6,2.04-8.94,4.6-12.91,7.92m48.81,80.5c-2.68-3.19-5.37-6.39-7.92-9.58l2.43-1.15c3.32.26,6.52.51,9.46.51-.26,4.47-1.66,7.79-3.96,10.22m26.07,14.82c-3.45.64-7.03,1.15-10.61,1.41-3.96-3.83-7.79-7.79-11.37-11.76,3.58-3.19,5.88-7.92,6.13-14.69,8.43-.13,16.61-1.02,24.15-2.68-.38,12.39-2.17,21.47-5.62,25.04-.13.13-.26.26-.26.26-1.02,1.15-1.79,1.92-2.43,2.43m44.21-18.53c-10.22,7.28-21.85,12.78-34.24,16.36,4.22-8.82,4.34-24.15,4.34-26.83,7.79-1.92,14.82-3.96,21.21-6.13.26,7.16,3.19,14.06,8.69,16.61m38.33-46.64c-7.16,15.97-17.76,30.03-31.05,41.14-1.41.26-10.09.77-9.97-13.16,18.4-7.16,30.41-15.46,41.02-27.98m-47.15-84.08c10.22,0,20.19.51,30.03,1.66,7.54,1.53,14.95,3.45,22.36,5.75,2.81,9.84,4.34,20.32,4.34,31.05,0,8.94-1.02,17.51-2.94,25.81-12.65,19.93-24.28,31.56-47.02,40.76.64-4.09,1.79-8.82,3.71-14.57,6.64-2.81,13.54-6.13,17.76-7.79l9.97-10.48c2.56-9.71,4.98-19.29,7.41-29.01l-7.79,2.43,9.2-9.58c1.92-7.54,3.83-15.21,5.75-22.74-4.6.64-9.2,1.41-13.8,2.04.77-3.83,1.28-7.54,1.66-11.24-2.17-.51-4.47-1.15-6.64-1.53-.51,4.22-1.28,8.82-2.56,14.06l-.64.13c-4.34.77-8.69,2.17-12.52,5.37l1.28-3.71c-7.41,1.28-14.69,2.68-22.11,4.09l-7.28,7.67.26-.64,2.43-6.13c-7.28,1.53-14.57,3.07-21.85,4.6-1.53-9.84-3.07-18.66-4.34-25.81,10.73-1.53,21.98-2.17,33.35-2.17" style="stroke-width:0px;fill:#f05133"/>
  <path d="m116.79,234.6c-6.01-13.03-10.99-26.71-15.08-40.76,35.65-16.74,72.45-25.81,111.68-26.96,18.27.13,36.03,2.04,53.54,5.75-9.84-1.02-19.93-1.66-30.03-1.66-11.37,0-22.62.64-33.61,2.04-2.04.26-4.09.51-6.13.77-22.36,3.19-44.08,9.2-65.29,17.89-1.92.77-3.83,1.53-5.75,2.43-2.94,1.28-5.75,2.56-8.69,3.96,2.56,9.2,5.62,18.14,9.07,26.83-1.92,1.66-3.83,3.45-5.62,5.37l-4.09,4.34Zm96.34,113.85c-20.44-13.8-38.59-30.16-54.3-48.43l8.82-4.09c2.56,3.19,5.24,6.52,7.92,9.58,1.28,1.53,2.68,3.07,4.09,4.47,11.63,12.78,24.53,24.53,38.59,35.01-1.79,1.28-3.45,2.3-5.11,3.45" style="stroke-width:0px;fill:#fdbb30"/>
  <path d="m185.02,287.62l.26,1.53c8.56-.13,16.87-1.02,24.53-2.81,0-3.19,0-6.39-.13-9.84l-3.45,1.53c-1.53-3.07-2.3-4.34-3.96-7.41l-2.43,6.52-10.61,8.56-4.22,1.92Zm30.67-13.8c.13,3.83.26,7.41.26,10.99,8.05-2.04,15.08-4.09,21.34-6.39.38-4.09,1.28-8.82,2.81-14.18-2.3.77-4.34,1.41-6.13,1.66-1.15.13-2.17.13-3.07-.13l-2.04,2.17c-4.34,2.04-8.69,3.96-13.16,5.88m-4.73-118.83c-48.04,0-85.74,11.24-128.41,32.46,5.62,22.36,12.91,42.8,22.36,61.59,1.79-2.94,3.71-5.75,6.01-8.31,1.02-1.15,9.97-10.48,9.97-10.48,5.49-6.01,11.76-10.22,18.66-13.29-4.73-6.77-8.94-13.67-12.52-21.21l-.77-1.66c1.92-.77,3.83-1.66,5.75-2.43l.64,1.41c3.71,7.67,8.18,14.69,12.91,21.59,1.79-.64,3.71-1.15,5.62-1.79,6.39-1.66,12.65-3.32,19.04-4.98,5.88-1.53,15.21-4.6,19.68.26l6.52-6.9,5.11-1.15c-1.53-10.09-3.07-19.17-4.47-26.32,2.04-.26,4.09-.51,6.13-.77,1.28,7.16,2.81,16.1,4.34,25.81,7.28-1.53,14.57-3.07,21.85-4.6l-2.43,6.13-.26.64,7.28-7.67c7.41-1.41,14.69-2.81,22.11-4.09l-1.15,3.71c3.83-3.19,8.18-4.6,12.52-5.37l.64-.13c1.28-5.24,2.04-9.84,2.56-14.06,2.17.51,4.47,1.02,6.64,1.53-.26,3.71-.89,7.54-1.66,11.24,4.6-.77,9.2-1.41,13.8-2.04-1.92,7.54-3.83,15.21-5.75,22.74l-9.2,9.58,7.79-2.43c-2.56,9.58-4.98,19.29-7.41,29.01l-9.97,10.48c-4.22,1.79-11.12,5.11-17.76,7.79-1.92,5.75-3.07,10.61-3.71,14.57,22.74-9.2,34.37-20.83,47.02-40.76-1.66,6.9-3.83,13.42-6.64,19.81-10.61,12.52-22.62,20.96-41.14,27.86-.13,14.06,8.69,13.42,9.97,13.16-2.3,1.92-4.73,3.83-7.28,5.49-5.49-2.56-8.43-9.46-8.69-16.61-6.26,2.17-13.29,4.09-21.21,6.13-.13,2.68-.13,18.02-4.34,26.83-3.32.89-6.64,1.66-9.97,2.3.64-.64,1.41-1.41,2.3-2.3,0-.13.13-.26.26-.26,3.58-3.58,5.24-12.65,5.62-25.04-7.54,1.66-15.72,2.43-24.15,2.68-.13,6.77-2.43,11.5-6.13,14.69-1.41-1.53-2.68-2.94-4.09-4.47,2.3-2.43,3.71-5.75,3.96-10.22-2.94-.13-6.13-.26-9.46-.51-8.18,3.83-17.51,8.31-25.68,12.14,18.53,20.44,40.63,38.46,66.7,54.56,69.38-42.8,107.46-95.58,128.29-174.03-42.04-21.08-79.73-32.33-127.78-32.33m-138.51,27.86c46-23.64,86.38-36.54,138.64-36.54s92.64,12.91,138.64,36.54c-21.47,86.12-62.35,143.24-138.76,188.98-28.75-17.25-54.05-37.44-74.88-60.95-5.75,2.81-10.48,4.98-12.78,6.26-7.16,3.58-14.44,7.16-21.59,10.86-8.05,4.09-17.12,10.35-26.45,7.92-10.22-4.47-3.45-16.87-.38-23.89,7.92-17.89,16.23-35.52,24.79-53.15-10.35-19.42-18.53-40.63-24.15-63.5l-3.07-12.52Z" style="stroke-width:0px;fill:#002d62"/>
  <path d="m267.95,191.41c-4.47.77-8.43,2.17-11.76,5.49-2.68,2.94-4.09,6.39-5.37,10.09-3.58,10.99-7.03,22.11-10.61,33.09-1.41,4.34-3.71,12.27,3.32,11.76,2.43-.38,4.6-1.41,6.9-2.3,7.03-3.07,14.18-6.01,21.34-8.94,1.79-6.9,3.58-13.93,5.37-20.83-3.71,1.15-7.41,2.3-11.24,3.58-.89,3.19-1.79,6.26-2.68,9.46-2.56.89-5.24,1.92-7.79,2.81,3.32-11.24,6.52-22.36,9.84-33.61,2.3-.51,4.6-1.02,6.9-1.53-.51,1.92-1.15,3.96-1.66,5.88,3.32-.77,6.77-1.66,10.09-2.43,1.28-4.98,2.56-10.09,3.83-15.21-5.37.89-10.86,1.79-16.48,2.68m-31.82,5.37c-7.92,10.35-15.72,20.83-23.51,31.31,3.58-9.58,7.28-19.17,10.99-28.75-8.18,1.66-16.48,3.45-24.53,5.37-2.17,4.98-4.22,9.84-6.39,14.82,1.79-.51,3.58-1.02,5.24-1.41-6.39,15.59-12.78,31.18-18.91,46.89-2.56,6.39-4.98,12.78-7.54,19.17,8.18-3.83,16.48-7.67,24.66-11.5,3.71-10.35,7.54-20.57,11.37-30.92,3.45,7.03,6.9,14.06,10.35,21.08,5.37-2.3,10.61-4.73,15.97-7.03-3.19-7.41-6.52-14.82-9.84-22.11,5.88-8.94,11.88-17.89,17.89-26.71,1.66-.38,3.45-.77,5.11-1.15,1.28-3.83,2.56-7.67,3.83-11.63-4.86.77-9.84,1.66-14.69,2.56m-97.88,85.87c-5.75,2.56-11.37,5.11-17.12,7.79,8.31-19.17,16.87-38.21,25.81-57.12,4.98-1.53,10.09-3.19,15.08-4.73-8.31,18.02-16.23,36.03-23.77,54.05m13.67-66.06c-10.86,2.94-20.44,7.54-28.24,16.1-4.47,5.11-7.54,10.86-10.61,16.87-8.69,17.63-16.99,35.39-24.92,53.28-2.04,4.6-8.43,15.97-1.66,18.91,7.54,1.92,16.87-4.34,23.51-7.67,7.16-3.71,14.44-7.28,21.59-10.86,12.27-6.13,23.38-13.54,30.79-25.43,2.94-4.98,5.24-10.48,7.41-15.84,4.73-11.63,9.46-23.13,14.44-34.63,1.79-4.34,4.98-9.71,3.96-14.44-2.04-6.39-12.78-2.43-17.38-1.28-6.26,1.66-12.65,3.32-18.91,4.98" style="fill:#fff;stroke-width:0px"/>
  <path d="m298.36,181.83c3.19,1.02,6.39,2.17,9.46,3.32-3.07-1.15-6.26-2.3-9.46-3.32m-.51-.77c3.32,1.15,6.52,2.17,9.71,3.45,7.92,2.94,14.82,5.88,20.7,8.69-17.76,61.2-54.3,112.44-105.8,148.99l-4.22,2.94c-15.08-11.37-24.02-20.19-24.02-20.19l7.16-1.15c21.47-3.58,42.29-13.29,59.42-29.39,29.26-27.34,41.14-66.19,35.14-102.99-.13-.89-.26-1.66-.51-2.56l-.13-.38-.13-.38-.13-.26-.13-.38-.13-.38-.13-.38-.13-.38-.13-.38-.13-.38-.13-.38-.13-.51-.13-.38-.13-.38-.13-.26-.13-.38c-.26-1.28-.64-2.43-.89-3.45,2.17.38,3.71.77,5.24,1.28" style="stroke-width:0px;fill:#007ac1"/>
</svg>
