<?xml version="1.0" encoding="UTF-8"?>
<svg id="Layer" xmlns="http://www.w3.org/2000/svg" viewBox="0 0 420 456.99">
  <defs/>
  <path d="m169.52,212.12c22.51-3.45,45.02-2.41,64.77,5.86l2.41-5.28c-31.93-10.22-72.01-9.76-101.76,6.66l8.5-19.75c-37.56,10.11-62.71,31.35-88.09,53.06,18.49-43.76,58.69-79.59,104.17-92.68l-2.3,7.24c39.85-12.98,83.61-15.5,118.98-9.65l-8.27-10.8,20.33,5.17,13.09-19.52,5.17,24.12,19.98,6.43s-14.59,6.09-13.9,6.43c75.68,31.12,51.45,134.72-20.44,135.18-36.41.34-64.66-32.62-63.4-66.96-18.72-12.06-37.21-17.92-59.26-25.5" style="stroke-width:0px;fill:#c2ccd2"/>
  <path d="m123.46,72.81c0-8.15,2.3-15.5,7.24-20.9,4.94-5.4,11.94-8.5,19.98-9.19,15.39-1.38,31.01-2.3,46.51-2.64h0l11.37-.23v131.39l-.23,11.26-11.37-.23c-1.95,0-17.23.57-19.98.69h-.34l-12.29,1.15v-.23l-7.69.34c-1.03,0-19.41,1.84-20.21,2.07l-12.98,2.07v-115.54Zm31.81,1.26v-.23c.11-2.3,1.38-5.28,3.68-7.01s4.71-2.18,7.01-2.3c0,0,2.07-.11,4.25-.23l6.55-.46v46.86l-5.74.34c-3.45.23-5.51.34-9.3.57l-6.55.46v-38.01h.11Z" style="stroke-width:0px;fill:#c2ccd2"/>
  <path d="m405.41,213.04s-15.27-4.71-17.57-5.4q-.11,0-.23-.11h0c-6.89-1.95-13.09-3.68-17.57-4.94l-8.15-2.07c-7.81-1.84-14.36-5.63-18.84-11.26-4.48-5.63-6.66-12.86-6.66-20.79v-85.33c0-8.38,2.53-16.08,8.61-20.79,3.9-3.1,8.73-4.48,13.78-4.48,2.64,0,5.4.34,8.15,1.03,1.03.23,4.02,1.03,8.73,2.41,4.59,1.26,10.57,2.99,16.42,4.71,11.83,3.33,23.31,6.66,23.31,6.66l4.48,1.26v58l-37.21-11.48-.57-3.79s-1.03-6.78-2.07-12.98v65c0,.11.11.34.11.46,0,0-.11.11,1.03.46,0,0,2.41.57,4.02,1.03,1.03-4.36,2.07-8.84,2.07-8.96l1.49-6.43,31.12,9.3.11,52.49-14.59-4.02Z" style="stroke-width:0px;fill:#c2ccd2"/>
  <path d="m.23,90.73c0-6.55,3.1-11.94,6.66-15.62,3.68-3.79,7.69-6.09,11.48-7.35,17.11-5.51,41.23-9.19,42.38-9.42l6.55-1.03c2.76-1.49,5.74-2.76,8.84-3.33,8.38-1.72,33.88-6.55,35.03-6.78l13.21-2.53v133.57l-.23,9.99-9.88,1.15c-.8,0-19.29,3.22-20.21,3.45l-13.78,3.1v-21.59l-38.36,9.07v13.21l-.11,8.73-8.38,2.07c-.11,0-2.99.8-5.97,1.72-3.1.92-6.55,2.07-9.19,2.87-1.61.46-2.99.92-3.1,1.03l-15.16,5.51v-127.83h.23Z" style="stroke-width:0px;fill:#c2ccd2"/>
  <path d="m323.3,192.37h-.23c-.23,0-.46-.11-.69-.11-.57-.11-1.38-.23-2.3-.46-1.84-.34-4.25-.69-6.55-1.15-4.59-.8-9.65-1.61-9.99-1.61l-4.59-.46-5.4-.57V46.05l12.17.92c1.26.11,3.9.57,7.81,1.15,3.68.57,8.04,1.38,11.03,1.84,2.18.34,3.33.57,4.36.8l8.5,2.18v128.52l-.11,13.9-14.01-2.99Z" style="stroke-width:0px;fill:#c2ccd2"/>
  <path d="m280.11,186.05c-1.26-.23-8.84-1.03-16.88-1.61-7.58-.57-15.96-1.15-21.36-1.49l-5.86-.23c-8.15-.34-15.39-2.87-20.56-8.15-5.05-5.28-7.47-12.52-7.47-20.67v-88.89c0-7.12,2.07-13.67,6.89-18.26,6.09-5.74,13.55-6.32,18.15-6.32,1.26,0,2.3,0,3.1.11h1.72c1.61,0,3.56.11,6.43.23l3.33.11-.11.11c3.22.23,7.24.57,12.4.92,17.34,1.38,21.94,1.84,24.58,2.41.92.11,2.07.57,2.41.8l6.43,3.1v46.28l-36.75-4.71-.92-4.25s-1.03-4.71-1.95-8.84c-.46,0-1.03-.11-1.61-.11l.11,16.88v3.68l2.3-.11h.34c1.03,0,2.41.11,4.71.34,2.18.23,4.94.46,7.81.69,5.74.46,11.94,1.15,15.05,1.49.92.11,1.38.11,2.18.34l8.84,1.95-.11,86.71-13.21-2.53Z" style="stroke-width:0px;fill:#c2ccd2"/>
  <path d="m127.14,72.81c-.23-14.93,9.07-25.27,24-26.42,15.27-1.38,30.89-2.3,46.28-2.64l7.69-.11v127.48l-.11,7.69-7.69-.11h0c-1.95,0-19.41.57-20.79.8l-8.27.8v-49.84c-1.49.11-2.87.23-4.36.34v42.49l-.11,7.12-7.12.34c-1.38,0-19.29,1.84-20.56,2.07l-8.73,1.38-.23-111.4Zm36.75,30.09c1.49-.11,2.87-.23,4.36-.34v-29.75c-1.03.11-1.72.11-1.61.11-1.38.11-2.07.34-2.3.57s-.34.23-.46.92v28.48h0Z" style="stroke-width:0px"/>
  <path d="m406.56,209.48s-13.44-4.13-17-5.17c-.34-.11-.57-.11-.69-.23h-.11c-7.58-2.18-14.36-4.02-18.95-5.28h0l-7.12-1.72c-14.47-3.33-22.74-13.78-22.63-28.48v-85.33c0-7.81,2.3-14.01,7.12-17.92,3.22-2.53,7.12-3.68,11.48-3.68,2.3,0,4.82.34,7.35.92,2.41.57,48.24,13.67,48.35,13.67l1.72.46v50.3l-30.21-9.3-.23-1.49s-2.3-14.7-3.33-20.9c-1.84-.57-3.22-.92-4.13-1.26h-.11l-.8-.23-1.03-.34h0v75.23c0,.23.11,1.26.57,2.07.57,1.03,1.49,1.84,3.33,2.41,0,0,4.02,1.03,7.69,2.07,1.15-5.05,2.87-12.63,2.87-12.63l.57-2.53,24.81,7.47.11,44.91-9.65-2.99Z" style="stroke-width:0px"/>
  <path d="m3.9,90.73c.23-10.91,9.53-17.57,15.62-19.52,16.65-5.28,40.77-9.07,41.92-9.3l7.24-1.15c2.53-1.49,5.4-2.64,8.38-3.33,8.27-1.72,33.77-6.55,34.91-6.78h0l8.84-1.61v129.09l-.11,6.66-6.66.8c-1.38.11-19.29,3.22-20.56,3.56l-9.3,2.07v-104.51h-.23c-2.64.8-3.1,1.38-3.68,4.25v79.47l-36.41,8.61v-83.26c-.23.11-.46.11-.57.11-1.26.34-2.64,1.03-3.56,1.72-.92.8-1.26,1.38-1.26,2.53v96.13l-.11,5.86-5.63,1.38c-1.26.34-17.34,5.28-18.49,5.74l-10.22,3.79v-122.31h-.11Z" style="stroke-width:0px"/>
  <path d="m324.1,188.7c-1.26-.34-19.06-3.22-20.33-3.33l-4.59-.46-2.18-.23V50.07l8.15.69c2.07.23,20.67,3.33,22.63,3.79l5.74,1.49v125.53l-.11,9.3-9.3-2.18Z" style="stroke-width:0px"/>
  <path d="m280.8,182.38c-3.56-.69-27.68-2.53-38.59-3.22l-5.97-.23c-7.58-.34-13.78-2.64-18.03-7.01s-6.43-10.68-6.43-18.15v-88.78c0-6.43,1.84-11.83,5.74-15.62,4.94-4.71,11.37-5.28,15.62-5.28,1.15,0,2.18,0,2.99.11h1.72c3.22,0,9.07.46,21.82,1.38,17.34,1.38,22.05,1.84,24.12,2.3.69.11,1.26.34,1.61.57l4.36,2.07v39.85l-30.09-3.9-.34-1.72s-1.61-7.12-2.53-11.48c-.57,0-1.15-.11-1.61-.11-.23,0-4.82-.34-4.82-.34h-.69c-.46,0-.8,0-1.15.11v2.07l.11,18.72v7.47l6.2-.23h.23c1.49,0,8.04.57,14.7,1.15,6.66.57,12.86,1.26,14.24,1.49l5.86,1.26-.11,79.36-8.96-1.84Zm-32.16-32.85c0,.11.11,1.03.34,1.49.23.34.57.69,2.3.8,0,0,.8,0,1.84.11v-25.27c-1.49-.11-3.33-.23-3.33-.23l-1.26-.11.11,23.2Zm-5.05-76.6h0" style="stroke-width:0px"/>
  <path d="m197.42,49.04h0v-1.26c-15.27.34-30.66,1.15-45.94,2.53-12.98,1.15-20.33,9.19-20.21,22.4v106.46l4.02-.69c1.15-.23,19.98-2.07,21.02-2.18h3.22v-49.61c3.1-.23,9.19-.69,12.63-.92v49.84l3.79-.46c1.03-.11,18.49-.8,21.02-.8h.11l2.3.11h1.26V47.78l-3.45.11.23,1.15Zm-25.15,19.52v37.9c-3.1.23-9.19.57-12.63.8v-33.08c.34-2.3,1.15-4.82,6.55-5.28,0,0,3.33-.23,6.09-.34" style="stroke-width:0px;fill:#fff"/>
  <path d="m412.08,170.66l-17.57-5.28-.23,1.26s-2.18,9.65-3.1,13.9c-7.01-2.07-10.11-2.99-11.83-3.33h0c-3.56-1.03-5.17-2.99-5.97-4.48-.92-1.72-1.03-3.56-1.03-4.02v-75.8c0-.34.11-1.95.69-2.76.34-.57.92-.8,2.07-.8.57,0,1.38.11,2.3.34h.34c.23,0,3.22.92,8.38,2.41.69,4.36,3.33,21.59,3.33,21.59l.11.8,22.4,6.89v-41.46l-.92-.23s-43.76-12.52-46.05-12.98c-2.3-.57-4.48-.92-6.43-.92-3.56,0-6.55.92-8.96,2.76-3.79,2.99-5.63,8.04-5.63,14.7v85.33c-.11,12.75,6.66,21.36,19.29,24.35l.23.11h.46c1.49.23,13.55,3.56,25.73,7.01l17.8,5.4,4.36,1.38.23-36.18Z" style="stroke-width:0px;fill:#fff"/>
  <path d="m77.87,61.56c-4.59.92-8.73,3.33-11.94,6.55v-2.76l-3.9.57c-1.03.11-25.04,3.9-41.23,9.19-5.28,1.72-12.63,7.47-12.75,15.62v116.57l4.59-1.84c.92-.34,17.92-5.51,18.95-5.86l1.61-.34.92-.23v-98.77c0-5.05,4.71-7.24,7.81-8.27,1.03-.34,3.56-.8,5.86-1.15v83.04l28.14-6.66v-76.6c.69-4.59,2.64-6.78,6.89-7.92h.11c.69-.11,2.99-.46,5.17-.8v104.28l4.25-1.03c1.03-.23,19.98-3.45,21.13-3.56l1.95-.11,1.15-.11V54.09l-4.02.69c.11,0-26.42,4.94-34.68,6.78" style="stroke-width:0px;fill:#fff"/>
  <path d="m304.81,54.78l-2.41-.23-1.26-.11v126.45l1.15.11,1.95.23c1.03.11,19.87,3.22,20.9,3.45l4.25,1.03V59.03l-2.53-.69c-1.72-.34-20.44-3.45-22.05-3.56" style="stroke-width:0px;fill:#fff"/>
  <path d="m255.08,104.86h-.23l-2.07.11h-1.15v17.57l1.15.11s2.64.23,4.48.34v33.54c-2.76-.23-6.2-.46-6.32-.46-2.87-.23-4.59-1.26-5.63-2.87-.8-1.38-.92-2.99-.92-3.68v-56.05l-.11-18.61v-1.95c0-1.03.23-2.18.92-2.99s2.07-1.38,4.36-1.38h1.38c.57,0,3.79.23,9.19.69.8,3.45,2.76,12.52,2.76,12.52l.23.8,22.51,2.87v-32.39l-1.95-1.03c-.92-.34-1.84-.69-24.35-2.41-13.55-1.03-19.18-1.38-21.71-1.38h-1.72c-.8,0-1.72-.11-2.87-.11-3.79,0-8.84.57-12.63,4.13-3.1,2.87-4.48,7.24-4.48,12.63v88.89c-.11,12.98,7.35,20.67,20.44,21.02h.57c3.33,0,39.51,2.53,44.56,3.45l4.02.8.11-71.09-2.64-.57c-1.84-.34-25.38-2.53-27.91-2.53" style="stroke-width:0px;fill:#fff"/>
  <path d="m255.08,119.44c1.15.11,5.63.34,5.63.34v40.31c-3.33-.23-6.66-.46-9.88-.69-4.82-.34-7.24-2.64-8.27-4.59-1.26-2.18-1.38-4.48-1.38-5.28v-56.05c0-10.68-.11-18.72-.11-19.29v-1.26c0-1.38.34-3.45,1.84-5.17,1.61-1.84,4.36-2.76,8.04-2.53,0-.11,5.63.34,12.17.92l2.99,13.44,16.31,2.18v-26.42c-1.38-.57-45.59-4.02-45.59-3.56h-.8c-3.56-.11-9.3-.34-12.98,3.1-2.3,2.18-3.45,5.63-3.45,10.22v88.66c0,11.48,5.74,17.23,17.23,17.69,0-.34,39.85,2.41,45.59,3.56,0-1.38.11-62.82.11-64.2-1.38-.23-25.84-2.53-27.22-2.53v11.14h-.23Zm-98.77-45.37c.23-2.3,1.49-7.92,9.65-8.5,3.22-.23,6.43-.46,9.65-.57v44.79c-6.43.34-12.98.8-19.41,1.26v-36.98h.11Zm-21.59-1.26v102.44c1.38-.23,20.21-2.18,21.59-2.18v-49.5c6.43-.57,12.98-1.03,19.41-1.38v49.61c1.38-.11,20.44-.8,21.82-.8V51.22c-15.27.34-30.55,1.15-45.71,2.53-11.37,1.15-17.11,7.69-17.11,19.06m169.75,105.09c1.38.11,20.1,3.22,21.36,3.56V61.79c-1.26-.34-20.1-3.45-21.36-3.56v119.67ZM62.59,82v-12.63s-24.58,3.9-40.77,9.07c-4.25,1.38-10.34,6.2-10.34,12.4v111.63c1.26-.46,18.03-5.63,19.41-5.97v-96.13c0-6.78,5.51-10.11,10.22-11.48,2.64-.8,10.34-1.95,10.34-1.95v82.69l21.36-5.05v-74.19c.69-5.74,3.79-9.65,9.53-10.91,5.4-.92,9.42-1.49,9.42-1.49v103.82c1.26-.34,20.33-3.56,21.59-3.68V58.11s-26.42,4.94-34.8,6.66c-7.92,1.72-14.24,8.15-15.96,17.23m346.04,91.19l-11.71-3.45-3.45,15.16c-7.58-2.3-15.27-4.48-15.27-4.36-4.71-1.26-7.01-4.13-8.15-6.2-1.26-2.41-1.38-4.71-1.38-5.63v-.34h0v-75.46c0-.92.11-3.1,1.38-4.82,1.15-1.49,3.45-3.1,8.04-1.72,0-.11,4.94,1.38,10.91,3.1l3.45,22.4,16.08,4.94v-34.22s-42.26-12.17-44.22-12.63c-11.14-2.76-16.88,1.84-16.88,13.32v85.33c0,11.48,5.74,18.38,16.88,21.13,0-.23,14.13,3.68,26.42,7.12l17.92,5.4v-29.06Z" style="stroke-width:0px;fill:#0b77bd"/>
  <path d="m255.08,119.44c1.15.11,5.63.34,5.63.34v40.31c-3.33-.23-6.66-.46-9.88-.69-4.82-.34-7.24-2.64-8.38-4.59-1.26-2.18-1.38-4.48-1.38-5.28v-56.05c0-10.68-.11-18.72-.11-19.29v-1.26c0-1.38.23-3.45,1.72-5.17,1.61-1.84,4.36-2.76,8.04-2.53,0-.11,5.63.34,12.17.92l2.99,13.44,16.31,2.18v-26.42c-1.38-.57-45.59-4.02-45.59-3.56h-.8c-3.45-.11-9.3-.34-12.98,3.1-2.3,2.18-3.45,5.63-3.45,10.22v88.66c0,11.37,5.74,17.23,17.23,17.69,0-.34,39.85,2.41,45.59,3.56,0-1.38.11-62.82.11-64.2-1.38-.23-25.84-2.53-27.22-2.53v11.14Zm49.38,58.46c1.38.11,20.1,3.22,21.36,3.56V61.67c-1.26-.34-20.1-3.45-21.36-3.56v119.79ZM62.59,82v-12.63s-24.58,3.9-40.77,9.07c-4.25,1.38-10.34,6.2-10.34,12.4v111.63c1.26-.46,18.03-5.63,19.41-5.97v-96.13c0-6.66,5.51-10.11,10.22-11.48,2.64-.8,10.34-1.95,10.34-1.95v82.69l21.36-5.05v-74.19c.69-5.74,3.79-9.53,9.53-10.91,5.4-.92,9.42-1.49,9.42-1.49v103.82c1.26-.34,20.33-3.56,21.59-3.68V58.11s-26.53,4.94-34.8,6.66c-7.92,1.72-14.24,8.15-15.96,17.23" style="stroke-width:0px;fill:#0b77bd"/>
  <path d="m144.48,8.27c-.57-.69-1.38-1.26-2.3-1.49h0c-.69-.23-1.26-.23-1.95-.23-1.03,0-1.95.11-2.76.23-2.3.46-4.59.92-6.89,1.26-1.72.34-3.22.92-4.36,1.61-.8.57-1.61,1.26-2.07,2.07-.57,1.03-.92,2.18-.92,3.33v22.28c0,1.15.23,2.3.92,3.22.57.69,1.38,1.15,2.3,1.38.57.11,1.15.11,1.61.11,1.03,0,2.07-.23,2.99-.34,2.3-.46,4.59-.92,6.89-1.26,1.72-.34,3.22-.8,4.36-1.49.92-.57,1.61-1.15,2.07-1.95.69-1.03.92-2.18.92-3.33V11.48c.11-1.26-.11-2.41-.8-3.22m-7.47,25.84s0,.23-.34.57h0c-.23.23-.69.46-1.38.57-.57.11-1.84.34-2.76.57h-.46c-.34,0-.34-.11-.34-.11,0,0,0-.23-.11-.23h0V14.59h0s0-.23.23-.57c.23-.23.69-.46,1.49-.69.8-.11,1.61-.34,2.41-.46.23,0,.46-.11.57-.11.34,0,.46.11.57.11s.11.23.11.23v21.02h0Z" style="stroke-width:0px"/>
  <path d="m249.22,3.9c-.57-.8-1.26-1.38-2.18-1.84-1.61-.8-3.33-1.03-4.48-1.03-4.59-.34-9.19-.57-13.67-.69h-1.38v33.77h1.26c1.95.11,4.02.11,5.97.23h1.38V6.2c.92,0,1.84.11,2.76.11,3.22.34,2.76,1.38,2.87,1.72v26.53l1.15.11c1.95.11,3.9.23,5.86.46l1.38.11V7.12c.11-1.15-.23-2.3-.92-3.22" style="stroke-width:0px"/>
  <path d="m276.44,7.01c-.57-.8-1.26-1.49-2.07-1.95h0c-1.26-.69-2.64-1.15-4.48-1.38-1.84-.34-11.14-1.38-13.67-1.61l-1.38-.11v33.88l1.15.11c4.48.46,9.07,1.03,13.55,1.61.8.11,1.49.11,2.07.11.92,0,1.72-.11,2.41-.34.92-.23,1.72-.8,2.3-1.49.69-.92,1.03-2.07,1.03-3.22V10.34c0-1.15-.34-2.3-.92-3.33m-7.81,24.23c-.23.11-.69.23-1.26.23-.34,0-.8,0-1.03-.11-1.03-.11-2.07-.23-3.1-.34V8.61c.92.11,1.84.23,2.76.34.92.11,1.72.34,2.3.69.46.34.69.57.69,1.38v19.41c-.11.69-.23.69-.34.8" style="stroke-width:0px"/>
  <path d="m172.39,34.68v-11.37c0-1.15-.69-2.3-1.72-2.99h0c-.11-.11-.23-.23-.46-.23.92-.69,1.95-1.72,1.95-3.56V7.92c0-1.15-.34-2.3-1.03-3.22-.57-.69-1.38-1.26-2.3-1.49-.8-.23-1.72-.34-2.76-.34-.57,0-1.15,0-1.84.11-4.48.57-8.96,1.15-13.44,1.72l-1.15.11v33.88l1.49-.23c1.95-.34,3.9-.57,5.86-.8l1.15-.11v-13.21c1.03-.11,1.95-.23,2.99-.34h1.03c.8,0,1.15.11,1.38.23s.23.34.23.8v11.71l1.49-.11c1.95-.23,3.9-.46,5.86-.57l1.15-.11.11-1.26Zm-8.61-18.26h0c0,.23,0,.57-.46,1.03h0c-.46.34-1.26.69-2.41.92-.8.11-1.72.23-2.53.34v-9.42c.92-.11,1.95-.23,2.87-.34.46-.11.92-.11,1.26-.11.8,0,1.15.11,1.26.23s0,0,.11.34v.11h0v5.51c-.11.69-.11,1.26-.11,1.38" style="stroke-width:0px"/>
  <path d="m195.93,26.99v-4.36l-1.38.11-5.17.34-1.95,5.97c-.8,0-1.49.11-2.3.11V.92l-1.38.11c-1.95.11-4.02.34-5.97.46l-1.15.11v33.88l1.38-.11c5.51-.46,11.14-.8,16.65-1.03h1.26v-7.35h0Z" style="stroke-width:0px"/>
  <path d="m221.66.11c-1.61,0-6.2-.11-9.76-.11h-4.02c-1.84,0-3.33.23-4.59.8-.92.34-1.72,1.03-2.3,1.72-.69.92-1.03,2.07-1.03,3.33v28.14h1.38c1.95,0,3.9-.11,5.86-.11h1.26v-12.63h5.74v12.52h1.26c1.95,0,4.02,0,5.97.11h1.38V.11h-1.15Zm-7.35,15.5h-5.74V6.78c0-.11,0-.34.34-.57.34-.34,1.15-.57,2.53-.57h2.87v9.99Z" style="stroke-width:0px"/>
  <path d="m302.63,11.83h0c-.46-.8-1.15-1.49-1.95-2.07-1.49-1.03-3.22-1.38-4.48-1.72-2.3-.46-4.59-.92-6.89-1.38-.92-.11-1.72-.23-2.53-.23-.69,0-1.38.11-2.07.23-.92.23-1.72.69-2.3,1.38-.8,1.03-1.15,2.18-1.15,3.33v22.28c0,1.15.23,2.3.92,3.33.46.8,1.26,1.49,2.07,1.95,1.49.92,3.22,1.26,4.48,1.49,2.3.46,4.59.8,6.78,1.38,1.03.23,1.95.34,2.87.34.57,0,1.15,0,1.61-.11.92-.23,1.84-.69,2.41-1.38.69-.92,1.03-1.95,1.03-3.22V15.16c0-1.15-.23-2.3-.8-3.33m-7.47,23.77s0,.11,0,0v.11h0c-.11,0-.23.11-.57.11-.23,0-.46,0-.69-.11-.57-.11-1.72-.34-2.76-.46-.69-.11-1.15-.46-1.26-.8-.11-.23-.11-.46-.11-.46h0V12.98h0c.11,0,.23-.11.57-.11.23,0,.46,0,.69.11.8.11,1.61.34,2.41.46.69.11,1.15.34,1.38.57.46.34.34.69.34.69v20.9Z" style="stroke-width:0px"/>
  <polygon points="162.28 195.82 166.53 193.75 170.09 196.85 169.4 192.26 173.42 189.84 168.83 189.04 167.79 184.45 165.61 188.58 160.9 188.12 164.23 191.57 162.28 195.82" style="stroke-width:0px;fill:#fff"/>
  <path d="m305.04,169.52c4.13-1.84,11.94-5.17,11.94-5.17l.57-.23-.57-.23s-12.52-4.13-15.16-4.94c-.46-2.87-2.41-16.42-2.41-16.42l-.11-.69-4.59,7.35s-2.64,4.25-4.02,6.43c-2.99-.8-15.85-4.02-15.85-4.02l-.69-.23.46.57s5.28,6.78,8.38,10.91c-12.98-2.87-28.02-4.36-45.14-4.36-5.63,0-11.48.11-17.69.57-23.43,1.38-46.51,5.74-68.56,13.67l2.53-7.58-.46.11c-34.57,10.8-72.47,43.3-89.24,75.34l.34.23c23.66-22.17,55.7-39.97,84.41-46.4l-7.58,17.57.57-.23c13.32-6.43,30.89-9.3,48.58-9.3s36.41,2.99,50.53,8.15l-5.4,11.83c-12.86-5.86-31.47-9.88-46.97-9.88-2.76,0-5.4.11-7.92.34v.46c18.26,5.17,37.1,11.03,52.14,22.97-.11,1.26-.11,2.53-.11,3.79,0,31.58,27.22,60.18,59.26,60.18h.69c35.26-.46,61.44-32.73,61.44-66.5-.11-24.69-14.24-50.19-49.38-64.31" style="stroke-width:0px"/>
  <path d="m285.74,227.4c-12.98,0-26.07-4.82-39.16-9.53-3.45,7.24-5.17,14.93-5.17,22.74,0,4.13.46,8.27,1.49,12.52h3.22c25.27,0,52.14-7.01,73.73-19.87-2.53-4.59-5.63-8.96-8.84-13.21-8.38,5.28-16.77,7.35-25.27,7.35" style="stroke-width:0px;fill:#c2ccd2"/>
  <path d="m245.2,257.95h-.8c7.92,20.44,26.07,34,48.12,34.34,7.12-17.46,14.93-36.52,32.85-45.37-.92-3.1-2.07-6.2-3.33-9.19-23.08,13.44-50.07,20.21-76.83,20.21" style="stroke-width:0px;fill:#c2ccd2"/>
  <path d="m299.87,193.86c-7.81-2.99-12.86-3.9-13.32-4.02-2.18.34-5.17.57-7.58,1.03,13.32,5.28,23.2,11.71,33.08,22.85,5.05-4.02,9.53-8.61,12.63-14.13-9.07-8.84-26.19-19.64-68.91-22.97,18.03,4.25,34.57,10.11,44.22,16.88l-.11.34Z" style="stroke-width:0px;fill:#c2ccd2"/>
  <path d="m180.2,187.89c2.64,0,5.51-.11,8.5-.11,30.32,0,77.06,3.56,95.21,25.15l-.34.34c-6.32-3.45-18.84-9.3-26.64-9.3h-.69c-2.64,2.99-5.05,6.2-7.24,9.65,12.17,4.48,24.46,8.96,36.52,8.96,7.69,0,15.27-1.72,22.74-6.32-21.02-22.97-56.62-32.96-90.16-32.96-13.21.11-26.19,1.61-37.9,4.59" style="stroke-width:0px;fill:#c2ccd2"/>
  <path d="m323.64,230.84c5.86-4.02,10.91-8.15,15.5-13.55-2.87-5.51-7.92-11.71-11.48-14.82-3.33,5.86-7.58,10.8-12.86,15.05,3.22,4.02,6.43,8.73,8.84,13.32" style="stroke-width:0px;fill:#c2ccd2"/>
  <path d="m297.69,292.06c10.68-1.26,20.44-4.94,28.71-11.94,1.26-4.71,1.84-9.65,1.84-14.47s-.46-9.3-1.38-13.9c-16.08,7.69-22.74,24.69-29.17,40.31" style="stroke-width:0px;fill:#c2ccd2"/>
  <path d="m332.83,268.74c0,1.61,0,3.22-.11,4.82,6.2-8.5,9.65-15.85,11.48-26.64-4.59.46-9.07,1.15-13.44,2.64,1.49,6.43,2.07,12.75,2.07,19.18" style="stroke-width:0px;fill:#c2ccd2"/>
  <path d="m325.94,235.21c1.38,3.22,2.64,6.55,3.79,9.88,5.05-1.61,9.88-2.53,15.05-2.76v-1.15c0-6.89-1.03-12.29-3.33-18.84-4.82,4.94-9.88,9.07-15.5,12.86" style="stroke-width:0px;fill:#c2ccd2"/>
  <path d="m344.66,242.33c-5.17.34-10.11,1.15-15.05,2.76-1.15-3.33-2.3-6.66-3.79-9.88,5.74-3.79,10.8-8.04,15.5-12.86,2.3,6.66,3.22,11.94,3.33,18.84v1.15" style="stroke-width:0px;fill:#c2ccd2"/>
  <path d="m344.66,242.33c-5.17.34-10.11,1.15-15.05,2.76-1.15-3.33-2.3-6.66-3.79-9.88,5.74-3.79,10.8-8.04,15.5-12.86,2.3,6.66,3.22,11.94,3.33,18.84v1.15" style="stroke-width:0px;fill:#c2ccd2"/>
  <path d="m327.66,202.36c3.56,3.22,8.61,9.42,11.48,14.82-4.59,5.4-9.65,9.53-15.5,13.55-2.53-4.48-5.74-9.3-8.73-13.32,5.17-4.25,9.42-9.07,12.75-15.05" style="stroke-width:0px;fill:#c2ccd2"/>
  <path d="m327.66,202.36c3.56,3.22,8.61,9.42,11.48,14.82-4.59,5.4-9.65,9.53-15.5,13.55-2.53-4.48-5.74-9.3-8.73-13.32,5.17-4.25,9.42-9.07,12.75-15.05" style="stroke-width:0px;fill:#c2ccd2"/>
  <path d="m255.88,176.52c42.72,3.33,59.84,14.24,68.91,22.97-3.1,5.63-7.58,10.11-12.63,14.13-9.88-11.03-19.75-17.46-33.08-22.85,2.41-.46,5.4-.8,7.58-1.03.46.11,5.51,1.03,13.32,4.02l.23-.46c-9.76-6.78-26.3-12.52-44.33-16.77" style="stroke-width:0px;fill:#c2ccd2"/>
  <path d="m255.88,176.52c42.72,3.33,59.84,14.24,68.91,22.97-3.1,5.63-7.58,10.11-12.63,14.13-9.88-11.03-19.75-17.46-33.08-22.85,2.41-.46,5.4-.8,7.58-1.03.46.11,5.51,1.03,13.32,4.02l.23-.46c-9.76-6.78-26.3-12.52-44.33-16.77" style="stroke-width:0px;fill:#c2ccd2"/>
  <path d="m246.12,253.01h-3.22c-1.03-4.13-1.49-8.38-1.49-12.52,0-7.81,1.72-15.39,5.17-22.74,13.09,4.82,26.07,9.53,39.16,9.53,8.5,0,16.88-2.07,25.38-7.35,3.22,4.13,6.32,8.5,8.84,13.21-21.71,12.86-48.58,19.87-73.85,19.87" style="stroke-width:0px;fill:#c2ccd2"/>
  <path d="m246.12,253.01h-3.22c-1.03-4.13-1.49-8.38-1.49-12.52,0-7.81,1.72-15.39,5.17-22.74,13.09,4.82,26.07,9.53,39.16,9.53,8.5,0,16.88-2.07,25.38-7.35,3.22,4.13,6.32,8.5,8.84,13.21-21.71,12.86-48.58,19.87-73.85,19.87" style="stroke-width:0px;fill:#c2ccd2"/>
  <path d="m292.52,292.29c-22.05-.34-40.2-13.9-48.12-34.34h.8c26.76,0,53.63-6.78,76.83-20.33,1.26,2.99,2.41,6.09,3.33,9.19-17.92,8.96-25.84,28.02-32.85,45.48" style="stroke-width:0px;fill:#c2ccd2"/>
  <path d="m292.52,292.29c-22.05-.34-40.2-13.9-48.12-34.34h.8c26.76,0,53.63-6.78,76.83-20.33,1.26,2.99,2.41,6.09,3.33,9.19-17.92,8.96-25.84,28.02-32.85,45.48" style="stroke-width:0px;fill:#c2ccd2"/>
  <path d="m332.72,273.57c.11-1.61.11-3.22.11-4.82,0-6.43-.69-12.75-2.07-19.18,4.25-1.38,8.84-2.18,13.32-2.64-1.72,10.91-5.05,18.26-11.37,26.64" style="stroke-width:0px;fill:#c2ccd2"/>
  <path d="m332.72,273.57c.11-1.61.11-3.22.11-4.82,0-6.43-.69-12.75-2.07-19.18,4.25-1.38,8.84-2.18,13.32-2.64-1.72,10.91-5.05,18.26-11.37,26.64" style="stroke-width:0px;fill:#c2ccd2"/>
  <path d="m308.37,216.26c-7.47,4.59-15.16,6.32-22.74,6.32-12.17,0-24.46-4.48-36.52-8.96,2.18-3.45,4.48-6.66,7.24-9.65h.69c7.81,0,20.33,5.74,26.64,9.3l.34-.34c-18.15-21.59-64.89-25.15-95.21-25.15-2.99,0-5.86,0-8.5.11,11.6-2.99,24.69-4.48,38.01-4.48,33.42,0,69.02,9.99,90.04,32.85" style="stroke-width:0px;fill:#c2ccd2"/>
  <path d="m308.37,216.26c-7.47,4.59-15.16,6.32-22.74,6.32-12.17,0-24.46-4.48-36.52-8.96,2.18-3.45,4.48-6.66,7.24-9.65h.69c7.81,0,20.33,5.74,26.64,9.3l.34-.34c-18.15-21.59-64.89-25.15-95.21-25.15-2.99,0-5.86,0-8.5.11,11.6-2.99,24.69-4.48,38.01-4.48,33.42,0,69.02,9.99,90.04,32.85" style="stroke-width:0px;fill:#c2ccd2"/>
  <path d="m326.28,280.11c-8.27,7.01-18.03,10.68-28.71,11.94,6.43-15.62,13.09-32.62,29.17-40.31.8,4.59,1.38,9.19,1.38,13.9,0,4.82-.57,9.76-1.84,14.47" style="stroke-width:0px;fill:#c2ccd2"/>
  <path d="m326.28,280.11c-8.27,7.01-18.03,10.68-28.71,11.94,6.43-15.62,13.09-32.62,29.17-40.31.8,4.59,1.38,9.19,1.38,13.9,0,4.82-.57,9.76-1.84,14.47" style="stroke-width:0px;fill:#c2ccd2"/>
  <polygon points="284.13 174.11 293.44 170.89 300.44 178.82 299.64 168.37 308.71 164.46 298.84 161.25 297.34 150.91 292.17 159.29 282.3 156.77 288.84 165.27 284.13 174.11" style="stroke-width:0px;fill:#c2ccd2"/>
  <polygon points="234.75 181.58 241.18 178.36 246.58 183.18 245.55 176.06 251.75 172.5 244.63 171.24 243.13 164.23 239.8 170.66 232.57 169.86 237.62 175.03 234.75 181.58" style="stroke-width:0px;fill:#fff"/>
  <polygon points="162.28 195.82 166.53 193.75 169.98 196.85 169.4 192.26 173.42 189.84 168.71 189.04 167.79 184.45 165.61 188.58 160.9 188.12 164.12 191.57 162.28 195.82" style="stroke-width:0px;fill:#fff"/>
  <path d="m322.72,259.9v-.8l-5.97,9.99,1.72-8.84-.46-.23c-8.73,10.68-12.06,18.26-14.82,27.68l-.11.46.46-.11c9.88-3.45,14.93-7.35,17-8.96h0c1.49-3.22,2.18-9.65,2.18-17.46,0-.69,0-1.15,0-1.72" style="stroke-width:0px;fill:#0b77bd"/>
  <path d="m302.74,236.7c-9.53,1.95-20.79,3.1-31.01,3.1-1.49,0-3.1,0-4.48-.11l21.94-6.55v-.46c-14.47-.69-25.73-.92-39.85-7.58l-.23-.11-.11.23c-2.07,3.79-3.33,9.07-3.33,14.47,0,3.1.34,6.09,1.26,8.96v.11h1.61c6.32,0,32.39-.69,54.32-11.71l-.11-.34Z" style="stroke-width:0px;fill:#0b77bd"/>
  <path d="m307.56,254.5c-11.03,8.27-19.41,14.93-35.72,17.92,15.16-7.81,25.27-13.32,34.8-22.97l-.34-.34c-16.88,9.88-38.93,14.01-54.44,14.7h-.46l.23.34c12.75,20.21,28.94,22.05,34.22,22.05h0c1.15,0,1.72-.11,1.72-.11h.11l.11-.11c6.89-10.8,11.26-21.25,20.1-31.24l-.34-.23Z" style="stroke-width:0px;fill:#0b77bd"/>
  <path d="m336.16,215.91c-1.49,1.61-2.87,2.99-4.25,4.25-1.61-3.45-3.45-6.66-5.63-9.76,1.15-1.38,2.18-2.76,3.22-4.25,2.76,3.1,5.05,6.66,6.66,9.76m5.74,21.48c-1.72.23-3.33.46-4.82.8-.34-2.53-.8-5.05-1.49-7.47,1.72-1.38,3.33-2.87,4.94-4.48,1.03,3.68,1.38,7.12,1.38,11.14m-5.4,22.97v-.8c.69-3.56,1.15-7.01,1.26-10.57.92-.23,1.84-.46,2.87-.57-1.15,4.25-2.41,8.15-4.13,11.94m-40.31-73.27c-.8-.46-1.61-.8-2.41-1.15,13.09,3.9,21.94,8.96,26.87,12.75-.8,1.15-1.61,2.18-2.53,3.22-6.09-6.2-13.44-11.37-21.94-14.82" style="stroke-width:0px;fill:#fff;fill-rule:evenodd"/>
</svg>
