<?xml version="1.0" encoding="UTF-8"?>
<svg id="Layer" xmlns="http://www.w3.org/2000/svg" viewBox="0 0 420 517.81">
  <defs/>
  <path d="m419.26,1.28c-.64-.9-1.67-1.28-2.69-1.28H153.2c-31.41.13-50.65,13.59-57.32,40.26L.1,421.98c-.26,1.03,0,2.18.64,2.95.64.9,1.67,1.28,2.69,1.28h286.84c16.41,0,32.95-13.08,36.67-29.11L419.9,4.36c.26-1.15,0-2.18-.64-3.08Z" style="stroke-width:0px;fill:#63727a"/>
  <path d="m3.43,422.75h286.84c14.87,0,29.88-11.92,33.21-26.54L416.44,3.46H153.2c-24.36,0-46.67,8.08-53.98,37.7L3.43,422.75Z" style="stroke-width:0px"/>
  <path d="m311.42,270.68H58.7L114.22,50.65c7.05-28.47,24.75-34.24,48.98-34.24h231.96l-53.08,229.78c-3.08,13.59-16.93,24.49-30.65,24.49Zm-248.75-3.08h248.75c12.44,0,24.88-9.87,27.7-22.05l52.32-226.06h-228.24c-27.7,0-40.13,8.72-46.03,31.93l-54.49,216.18Z" style="stroke-width:0px;fill:#63727a"/>
  <g>
    <g>
      <polygon points="100.11 394.16 106.91 403.65 159.35 403.65 180.64 319.4 159.1 319.4 140.89 391.72 121.78 391.72 140.12 319.4 113.06 319.4 111.27 320.94 116.65 328.25 100.11 394.16" style="stroke-width:0px;fill:#fff"/>
      <polygon points="101.65 348.9 106.78 328.64 99.86 319.02 56.9 319.02 45.1 328.64 38.05 356.97 74.34 372.23 69.34 391.72 50.36 391.72 52.67 382.62 33.69 373.9 28.69 394.16 35.49 403.65 78.57 403.65 90.24 394.16 97.42 365.69 61.13 350.43 66.01 330.94 84.98 330.94 82.67 340.3 101.65 348.9" style="stroke-width:0px;fill:#fff"/>
      <polygon points="249.88 328.64 242.95 319.02 190.51 319.02 169.22 403.26 190.77 403.26 208.97 330.94 228.08 330.94 209.87 403.26 236.93 403.26 238.59 401.72 233.21 394.54 249.88 328.64" style="stroke-width:0px;fill:#fff"/>
      <polygon points="316.3 348.9 321.3 328.64 314.5 319.02 271.42 319.02 259.75 328.64 252.57 356.97 288.86 372.23 283.98 391.72 265.01 391.72 267.32 382.62 248.34 373.9 243.21 394.16 250.13 403.65 293.09 403.65 304.89 394.16 311.94 365.69 275.65 350.43 280.65 330.94 299.63 330.94 297.32 340.3 316.3 348.9" style="stroke-width:0px;fill:#fff"/>
    </g>
    <g>
      <polygon points="33.69 373.9 41.51 385.7 39.85 392.36 43.69 397.75 74.08 397.75 80.11 392.88 90.24 394.16 78.57 403.65 35.49 403.65 28.69 394.16 33.69 373.9" style="stroke-width:0px;fill:#bec0c2"/>
      <polygon points="69.34 391.72 80.11 392.88 86.26 368.9 49.59 353.51 55.62 329.79 45.1 328.64 38.05 356.97 74.34 372.23 69.34 391.72" style="stroke-width:0px;fill:#bec0c2"/>
      <polygon points="91.65 325.05 61.9 325.05 55.62 329.79 66.01 330.94 84.98 330.94 82.67 340.3 93.96 336.84 95.62 330.43 91.65 325.05" style="stroke-width:0px;fill:#bec0c2"/>
      <polygon points="248.34 373.9 256.03 385.7 254.37 392.36 258.34 397.75 288.6 397.75 294.76 392.88 304.89 394.16 293.09 403.65 250.13 403.65 243.21 394.16 248.34 373.9" style="stroke-width:0px;fill:#bec0c2"/>
      <polygon points="283.98 391.72 294.76 392.88 300.78 368.9 264.11 353.51 270.14 329.79 259.75 328.64 252.57 356.97 288.86 372.23 283.98 391.72" style="stroke-width:0px;fill:#bec0c2"/>
      <polygon points="306.17 325.05 276.42 325.05 270.14 329.79 280.65 330.94 299.63 330.94 297.32 340.3 308.6 336.84 310.14 330.43 306.17 325.05" style="stroke-width:0px;fill:#bec0c2"/>
      <polygon points="111.27 320.94 128.07 325.05 111.14 392.36 115.11 397.75 149.99 397.75 159.35 403.65 106.91 403.65 100.11 394.16 116.65 328.25 111.27 320.94" style="stroke-width:0px;fill:#bec0c2"/>
      <polygon points="159.1 319.4 168.46 325.05 149.99 397.75 140.89 391.72 159.1 319.4" style="stroke-width:0px;fill:#bec0c2"/>
      <polygon points="199.87 325.05 190.51 319.02 169.22 403.26 190.77 403.26 181.41 397.75 199.87 325.05" style="stroke-width:0px;fill:#bec0c2"/>
      <polygon points="221.8 397.75 238.85 330.3 234.88 325.05 199.87 325.05 208.97 330.94 228.08 330.94 209.87 403.26 236.93 403.26 238.59 401.72 221.8 397.75" style="stroke-width:0px;fill:#bec0c2"/>
    </g>
  </g>
  <g>
    <path d="m56.64,283.63l-.51.51,1.8,2.31-5.39,22.18h7.44l.51-.51-1.92-2.18,1.41-6.03,11.54-3.59,2.44-9.74-2.31-3.08-15,.13h0Zm10.13,10.13l-5.51,1.67,1.8-7.44h5.13l-1.41,5.77Z" style="stroke-width:0px;fill:#fff"/>
    <polygon points="118.58 283.63 113.06 283.63 110.88 292.61 105.5 293.89 107.93 283.63 100.5 283.63 99.98 284.14 101.78 286.45 96.39 308.63 101.91 308.63 104.34 298.76 109.73 297.48 107.04 308.63 114.47 308.63 114.99 308.12 113.19 305.94 118.58 283.63" style="stroke-width:0px;fill:#fff"/>
    <path d="m149.48,283.63l-3.72,2.95-4.62,18.98,2.31,3.08h10.13l3.72-3.08,4.62-18.98-2.31-2.95h-10.13Zm2.56,20.9h-5.13l4.1-16.8h5.13l-4.1,16.8Z" style="stroke-width:0px;fill:#fff"/>
    <polygon points="248.08 286.58 245.77 283.63 232.44 283.63 226.28 308.63 231.8 308.63 236.93 287.73 242.31 287.73 237.18 308.63 244.75 308.63 245.26 308.12 243.34 305.94 248.08 286.58" style="stroke-width:0px;fill:#fff"/>
    <polygon points="282.7 283.63 275.27 283.63 274.75 284.14 276.55 286.45 271.03 308.63 278.6 308.63 279.11 308.12 277.32 305.94 282.7 283.63" style="stroke-width:0px;fill:#fff"/>
    <polygon points="322.84 306.07 319.89 296.32 329.76 283.63 324.38 283.63 318.61 291.32 316.68 283.63 309.24 283.63 308.6 284.01 311.68 286.32 314.5 296.45 305.14 308.63 310.53 308.63 316.04 301.2 317.84 308.63 325.4 308.63 325.91 308.12 322.84 306.07" style="stroke-width:0px;fill:#fff"/>
    <polygon points="197.43 304.53 190.89 304.53 192.43 298.12 197.82 298.12 198.84 294.02 193.46 294.02 195 287.73 201.02 287.73 202.56 289.91 203.2 289.53 204.61 283.63 188.59 283.63 188.07 284.14 189.74 286.45 184.36 308.63 198.97 308.63 200.38 302.74 200 302.35 197.43 304.53" style="stroke-width:0px;fill:#fff"/>
  </g>
  <g>
    <polygon points="69.34 263.63 211.41 185.8 115.11 263.63 232.05 196.44 230.13 209.9 249.62 199.13 293.73 240.8 317.19 170.28 351.05 168.1 333.74 125.4 364.51 101.3 324.76 85.91 334.89 43.08 301.04 58.6 283.6 21.8 256.55 48.85 207.82 27.06 201.15 70.52 157.68 79.88 183.33 95.4 157.56 108.35 179.48 110.27 89.09 180.54 180 132.33 82.55 206.57 186.28 152.46 75.49 235.8 197.69 170.67 69.34 263.63" style="stroke-width:0px;fill:#f9a01b"/>
    <g>
      <path d="m329.5,126.04c-1.67,39.11-34.62,69.37-73.6,67.83-39.11-1.67-69.37-34.62-67.83-73.6,1.67-39.11,34.62-69.37,73.6-67.83,38.98,1.54,69.37,34.49,67.83,73.6Z" style="stroke-width:0px;fill:#e56020"/>
      <path d="m267.44,184.13c-39.11-1.67-69.37-34.62-67.83-73.6.77-18.08,8.21-34.24,19.87-46.29-18.21,12.18-30.52,32.44-31.41,56.03-1.67,39.11,28.72,72.06,67.83,73.6,21.03.9,40.26-7.57,53.73-21.54-12.05,7.95-26.67,12.44-42.19,11.8Z" style="stroke-width:0px;fill:#b95915"/>
      <path d="m329.5,123.86c0-2.56-.13-5-.26-7.57-4.1-2.82-8.98-5-14.75-5.77-1.15-.13-2.18-.26-3.21-.26-.64-4.62-1.8-9.23-3.21-13.72.77,0,1.41.13,2.18.13,5,.38,9.87.9,14.75,1.67-.64-1.8-1.41-3.59-2.18-5.26-5.39-.77-11.03-1.41-16.54-1.92h0c-1.8-4.62-3.97-8.98-6.54-13.08,3.59-.77,6.8-2.18,9.49-4.74-1.28-1.41-2.69-2.69-4.23-3.85-2.31,2.05-5.26,3.21-8.59,3.59-.51-.77-1.03-1.41-1.54-2.18-4.87-6.28-10.39-11.54-16.41-15.9-5.39-1.54-10.9-2.44-16.67-2.69h-.9c10.77,4.23,20.39,11.28,28.08,20.9-7.31-.77-15.9-3.21-24.23-5.64-2.44-.77-4.87-1.41-7.31-2.05-14.36-3.97-25.26-4.62-33.59-3.85-6.15,3.46-11.67,7.95-16.54,12.95,8.85-3.72,26.93-10.13,48.72-3.97,2.31.64,4.74,1.28,7.18,2.05,9.62,2.82,20.52,6.03,29.75,6.15,2.56,3.85,4.87,7.95,6.67,12.18-1.8-.13-3.72-.13-5.51-.13-45.39-.77-84.37,12.82-106.04,34.49.13,4.36.64,8.46,1.41,12.57,6.15-8.72,15.13-16.67,26.8-23.21,22.05-12.31,51.16-18.85,82.19-18.34,1.03,0,2.18,0,3.21.13,1.54,4.49,2.69,9.1,3.46,13.85-20,.9-32.95,13.34-47.83,26.54-13.34,11.92-29.62,23.85-53.47,31.03,2.31,2.82,4.74,5.39,7.31,7.69,22.44-9.1,37.31-23.08,50.01-34.36,14.36-12.82,26.54-25.13,44.62-25.64.51,5,.51,10.13,0,15.26-2.44,27.7-18.46,51.29-40.39,62.83,5.64-.51,11.03-1.67,16.16-3.46,1.8-1.41,3.46-2.95,5.13-4.62,14.36-14.1,23.21-33.47,25.13-54.24.51-5.26.51-10.39,0-15.52.9.13,1.8.13,2.69.38,6.28.77,11.16,3.85,15,7.57Z" style="stroke-width:0px"/>
    </g>
  </g>
</svg>
