<?xml version="1.0" encoding="UTF-8"?>
<svg id="Layer" xmlns="http://www.w3.org/2000/svg" viewBox="0 0 420 483.78">
  <defs/>
  <g>
    <path d="m279.07,48.83c-2.67-4-5.78-7.79-9.23-11.12-1.45-1.45-3-2.89-4.67-4.23L298.76,0h-97.55l-37.71,37.71h0l-.11.11c-3.45,3.45-6.45,7.12-9.23,11.12-2.67,4-5.01,8.34-6.9,12.79-3.89,9.23-5.9,19.13-5.9,29.25s2,20.02,5.9,29.25c1.89,4.45,4.23,8.79,6.9,12.79s5.78,7.79,9.23,11.12c1.45,1.45,3,2.89,4.67,4.23l-33.48,33.48h97.55l37.82-37.82h0c3.34-3.34,6.45-7.12,9.12-11.01,2.67-4,5.01-8.34,6.9-12.79,3.89-9.23,5.9-19.13,5.9-29.25s-2-20.02-5.9-29.25c-1.78-4.56-4.12-8.79-6.9-12.9" style="stroke-width:0px"/>
    <path d="m265.5,42.04c-1.45-1.45-3-2.89-4.56-4.23l-40.93,41.04c2,.56,3.89,1.67,5.56,3.23h0c4.89,4.89,4.89,13.01,0,17.91l-75.86,75.86h8.9l71.41-71.41c7.34-7.34,7.45-19.35.11-26.69l4.45-4.45c9.79,9.9,9.79,25.81-.11,35.59l-66.96,66.96h8.9l62.51-62.51c12.24-12.24,12.35-32.15.11-44.49l4.45-4.45c14.68,14.79,14.68,38.6-.11,53.39l-58.06,58.06h8.9l53.61-53.61c17.24-17.24,17.24-45.05.11-62.29l4.45-4.45c19.58,19.69,19.58,51.5-.11,71.19l-49.16,49.16h8.9l44.71-44.71c22.13-22.13,22.13-57.95.11-80.08l4.45-4.45c24.58,24.58,24.47,64.4-.11,88.98l-40.26,40.26h8.9l35.82-35.82h0c26.92-27.14,26.92-70.96-.11-97.99" style="stroke-width:0px;fill:#fff"/>
    <path d="m167.96,139.93c1.45,1.45,3,2.89,4.56,4.23l40.93-40.93c-2-.56-3.89-1.67-5.56-3.23h0c-4.89-4.89-4.89-13.01,0-17.91L283.86,6.12h-8.9l-71.52,71.52c-7.34,7.34-7.45,19.35-.11,26.69l-4.45,4.45c-9.79-9.9-9.79-25.81.11-35.59L266.06,6.12h-8.9l-62.62,62.62c-12.24,12.24-12.35,32.15-.11,44.49l-4.45,4.45c-14.68-14.79-14.68-38.6.11-53.39L248.26,6.12h-8.9l-53.72,53.72c-17.24,17.24-17.24,45.05-.11,62.29l-4.45,4.45c-19.58-19.69-19.58-51.5.11-71.19L230.47,6.12h-8.9l-44.83,44.83c-22.13,22.13-22.13,57.95-.11,80.08l-4.45,4.45c-24.58-24.58-24.47-64.4.11-88.98L212.67,6.12h-8.9l-35.93,35.93h0c-26.92,27.03-26.92,70.85.11,97.88" style="stroke-width:0px;fill:#cf0a2c"/>
  </g>
  <g>
    <g>
      <polygon points="94.43 334.58 89.65 334.58 89.65 329.79 104.56 329.79 104.56 334.58 99.66 334.58 99.66 358.16 94.43 358.16 94.43 334.58" style="stroke-width:0px"/>
      <path d="m120.13,342.47l1.11-1.22v-6.23l-1.11-1.22h-3.45v8.68h3.45Zm-8.79-12.68h11.79l3.45,3.45v9.9l-2.89,2.78,3.11,12.12h-5.34l-2.89-11.57h-2v11.68h-5.34v-28.36h.11Z" style="stroke-width:0px"/>
      <path d="m139.15,347.15h3.45l-1.67-14.01-1.78,14.01Zm-1.89-17.35h7.67l4.34,28.36h-5.23l-.78-6.56h-4.56l-.78,6.56h-5.01l4.34-28.36Z" style="stroke-width:0px"/>
      <polygon points="155.28 354.04 158.39 354.04 158.39 333.8 155.28 333.8 155.28 329.79 166.84 329.79 166.84 333.8 163.73 333.8 163.73 354.04 166.84 354.04 166.84 358.16 155.28 358.16 155.28 354.04" style="stroke-width:0px"/>
      <polygon points="174.18 329.79 179.52 329.79 179.52 353.49 185.53 353.49 185.53 358.16 174.18 358.16 174.18 329.79" style="stroke-width:0px"/>
      <path d="m212.34,353.93l1.11-1.11v-5.78l-1.33-1.33h-3.11v8.12h3.34v.11Zm-.22-12.35l1.33-1.33v-5.01l-1.11-1.11h-3.23v7.56h3v-.11Zm-8.34-11.79h11.57l3.45,3.45v7.56l-2.78,2.78,2.78,2.78v8.23l-3.45,3.45h-11.57v-28.25Z" style="stroke-width:0px"/>
      <polygon points="226.68 329.79 231.91 329.79 231.91 353.49 238.03 353.49 238.03 358.16 226.68 358.16 226.68 329.79" style="stroke-width:0px"/>
      <path d="m250.15,347.15h3.45l-1.78-14.01-1.67,14.01Zm-2-17.35h7.67l4.34,28.36h-5.23l-.78-6.56h-4.56l-.78,6.56h-5.01l4.34-28.36Z" style="stroke-width:0px"/>
      <polygon points="266.17 354.26 273.4 334.58 266.28 334.58 266.28 329.79 279.18 329.79 279.18 333.58 271.95 353.26 279.18 353.26 279.18 358.16 266.17 358.16 266.17 354.26" style="stroke-width:0px"/>
      <polygon points="286.53 329.79 298.98 329.79 298.98 334.47 291.86 334.47 291.86 341.36 298.32 341.36 298.32 346.03 291.86 346.03 291.86 353.49 299.09 353.49 299.09 358.16 286.53 358.16 286.53 329.79" style="stroke-width:0px"/>
      <path d="m315.56,342.47l1.11-1.22v-6.23l-1.11-1.22h-3.45v8.68h3.45Zm-8.79-12.68h11.79l3.45,3.45v9.9l-2.78,2.78,3.11,12.24h-5.34l-2.89-11.57h-2v11.57h-5.34v-28.36Z" style="stroke-width:0px"/>
      <polygon points="329.01 354.71 329.01 349.59 334.24 349.59 334.24 352.6 335.47 353.82 337.36 353.82 338.47 352.6 338.47 347.15 337.58 346.26 332.02 346.26 329.13 343.25 329.13 333.24 332.57 329.79 340.36 329.79 343.81 333.24 343.81 338.25 338.47 338.25 338.47 335.35 337.36 334.13 335.58 334.13 334.35 335.35 334.35 340.58 335.35 341.47 340.92 341.47 343.81 344.36 343.81 354.71 340.36 358.16 332.46 358.16 329.01 354.71" style="stroke-width:0px"/>
    </g>
    <g>
      <path d="m30.37,212.78h3.78c3.78,0,6.34,1.22,6.34,5.56v24.36c0,4.12-1.22,6.23-7.12,6.23h-2.89v-36.15h-.11Zm26.92,8.34c0-16.46-8.9-21.91-26.25-21.91H0l13.57,13.57v98.99h16.8v-49.39h.89c16.91,0,25.69-5.23,26.14-20.8h0v-20.47h-.11Z" style="stroke-width:0px"/>
      <path d="m86.2,311.66c10.46,0,21.91-4.23,21.91-18.91v-74.63c0-14.68-11.57-18.91-21.91-18.91s-21.8,4.23-21.8,18.91v74.63c0,14.68,11.57,18.91,21.8,18.91m-5.01-92.1c0-5.67,1.78-6.9,5.23-6.9s5.01,1.22,5.01,6.9v71.74c0,5.67-1.78,6.9-5.01,6.9-3.45,0-5.23-1.22-5.23-6.9v-71.74Z" style="stroke-width:0px"/>
      <path d="m281.08,275.74h11.01l3.56,35.93h16.91l-12.79-112.45h-25.14l-12.79,112.45h15.13l4.12-35.93Zm5.34-56.73h1l3.23,43.27h-8.01l3.78-43.27Z" style="stroke-width:0px"/>
      <path d="m420,291.31v-66.63c0-19.8-7.01-25.47-23.58-25.47h-20.24v112.45h23.8c13.13,0,20.02-9.68,20.02-20.35m-16.68-1.45c0,7.23-2,8.34-6.34,8.34h-4v-85.42h4c4.23,0,6.34,1.11,6.34,8.34v68.74Z" style="stroke-width:0px"/>
      <path d="m132.25,262.17c7.79-.33,10.34,2.34,10.34,9.12v40.38h16.24s.33-12.12,0-44.6c-.11-10.12-6.45-11.68-6.45-11.68,7.34-3.11,6.45-6.78,6.45-15.13l-.11-21.8c0-14.57-7.9-19.24-21.36-19.24h-22.13v112.45h16.91v-49.5h.11Zm-.22-49.5h4c3.78,0,6.34,1.22,6.34,5.56v23.25c0,4.12-1.22,7.23-7.12,7.23h-3.23v-36.04h0Z" style="stroke-width:0px"/>
      <polygon points="254.71 298.2 233.36 298.2 233.36 199.21 216.56 199.21 216.56 311.66 254.71 311.66 254.71 298.2" style="stroke-width:0px"/>
      <polygon points="178.19 212.78 178.19 311.66 194.98 311.66 194.98 212.78 209.44 212.78 209.44 199.21 154.39 199.21 167.96 212.78 178.19 212.78" style="stroke-width:0px"/>
      <polygon points="334.91 249.26 353.82 311.66 353.93 311.66 369.06 311.66 369.06 199.21 353.93 199.21 353.93 262.28 334.91 199.21 334.8 199.21 319.67 199.21 319.67 311.66 334.91 311.66 334.91 249.26" style="stroke-width:0px"/>
    </g>
  </g>
</svg>
