<?xml version="1.0" encoding="UTF-8"?>
<svg id="Layer" xmlns="http://www.w3.org/2000/svg" viewBox="0 0 420 544.25">
  <defs/>
  <g id="Layer_2" data-name="Layer 2">
    <path d="m420,0l-60.15,60.45-50.4-50.1-50.4,50.1-50.4-50.4-50.1,50.1L108.45,10.05l-50.1,50.4L0,1.2v267.15c0,116.25,93.3,210.75,209.4,210.75s210.6-94.5,210.6-210.75V0Z" style="fill:#fff;stroke-width:0px"/>
    <path d="m18.75,304.95c4.95,25.2,14.85,48.75,29.25,70.5,8.85-15.45,26.25-34.2,60.6-42.45-2.55-8.85-4.95-18.15-6.9-27.9l-82.95-.15h0Z" style="stroke-width:0px;fill:#63717a"/>
    <path d="m61.65,393.45c37.05,43.5,90.6,68.4,146.7,68.85-5.4-2.7-10.35-5.7-15.6-9-23.85-15.45-56.7-45.45-77.85-101.1-33.15,7.35-47.4,26.25-53.25,41.25" style="stroke-width:0px;fill:#63717a"/>
    <path d="m135.75,349.5c15.15,37.8,37.8,66.9,67.5,86.4,19.65,12.9,38.7,18.6,51,21.45,31.2-7.05,60.3-22.2,84.45-43.5-18.9-2.1-38.7-12.9-58.95-24.45-32.25-18-72.15-40.35-126.15-40.35-5.85-.3-11.85-.15-17.85.45" style="stroke-width:0px;fill:#63717a"/>
    <path d="m216.75,206.55h-69.3v82.65h28.8v-66.45h21.75v66.45h27.45v-70.95c0-6.15-3.9-11.7-8.7-11.7" style="stroke-width:0px;fill:#592d81"/>
    <path d="m237.45,206.55v70.95c0,6.3,3.9,11.7,8.55,11.7h69.45v-50.4h-27.6v33.75h-21.6v-50.4h49.35v-15.9l-78.15.3h0Z" style="stroke-width:0px;fill:#592d81"/>
    <polygon points="70.5 206.55 54.9 240.15 45.9 240.15 45.9 206.55 17.1 206.55 17.1 289.35 45.9 289.35 45.9 256.05 54.9 256.05 70.5 289.35 99.3 289.35 79.2 248.25 99.3 206.55 70.5 206.55" style="stroke-width:0px;fill:#592d81"/>
    <rect x="106.8" y="206.55" width="29.7" height="82.65" style="stroke-width:0px;fill:#592d81"/>
    <path d="m402.9,229.05v-22.35h-76.2v37.8c0,6.3,3.9,11.4,8.55,11.4h38.85v18h-47.55v15.6h76.2v-37.95c0-5.85-3.3-11.4-7.5-11.4h-40.05v-17.4h20.1v6.3h27.6Z" style="stroke-width:0px;fill:#592d81"/>
    <polygon points="321.75 122.85 297.6 122.85 347.55 72.6 309.6 34.5 259.2 84.75 208.95 34.5 120.9 122.85 96.45 122.85 146.7 72.45 108.75 34.5 58.65 84.75 17.1 43.5 17.1 125.85 17.1 191.55 402.9 191.55 402.9 127.8 402.9 41.7 321.75 122.85" style="stroke-width:0px;fill:#592d81"/>
    <path d="m101.4,175.65c0,2.1,1.65,3.9,3.9,3.9h21.45v-5.7h-17.7v-18.75h17.7v-5.85h-25.5v26.4h.15Z" style="fill:#fff;stroke-width:0px"/>
    <path d="m66,149.1v30.45h7.8v-7.95h9.9v7.95h7.8v-26.7c0-2.25-1.8-3.9-4.35-3.9h-21v.15h-.15Zm17.55,16.65h-9.9v-10.95h9.9v10.95Z" style="fill:#fff;stroke-width:0px"/>
    <path d="m384.45,149.1h-17.85c-2.1,0-3.9,1.65-3.9,3.9v22.65c0,2.1,1.65,3.9,3.9,3.9h17.85c2.1,0,3.9-1.8,3.9-3.9v-22.65c.3-2.25-1.5-3.9-3.9-3.9m-3.75,24.45h-9.75v-18.75h9.75v18.75Z" style="fill:#fff;stroke-width:0px"/>
    <path d="m30.6,163.35c0,2.1,1.65,3.9,3.9,3.9h13.8v6.6h-17.7v5.85h25.5v-14.4c0-1.95-1.35-3.75-3.6-3.9h-14.25v-6.6h17.7v-5.85h-25.35v14.4Z" style="fill:#fff;stroke-width:0px"/>
    <path d="m193.05,149.1h-21.6v30.45h7.8v-7.95h9.9v7.95h7.8v-26.7c.15-2.1-1.8-3.75-3.9-3.75m-4.05,16.65h-9.9v-10.95h9.9v10.95Z" style="fill:#fff;stroke-width:0px"/>
    <polygon points="328.5 154.8 337.5 154.8 337.5 179.55 345.15 179.55 345.15 154.8 354 154.8 354 149.1 328.5 149.1 328.5 154.8" style="fill:#fff;stroke-width:0px"/>
    <path d="m246.75,149.1h-39.3v30.45h7.8v-24.6h9.75v24.6h7.95v-24.6h9.75v24.6h7.8v-26.7c0-2.1-1.65-3.75-3.75-3.75" style="fill:#fff;stroke-width:0px"/>
    <path d="m316.65,149.1h-21.75v30.45h7.8v-24.6h9.9v24.6h7.8v-26.7c.15-2.1-1.5-3.75-3.75-3.75" style="fill:#fff;stroke-width:0px"/>
    <path d="m261.3,175.65c0,2.1,1.65,3.9,3.9,3.9h21.6v-5.7h-17.7v-6.6h17.7v-5.85h-17.7v-6.75h17.7v-5.7h-25.5v26.7Z" style="fill:#fff;stroke-width:0px"/>
    <path d="m157.35,168.3h4.2v-15.6c0-2.25-1.8-3.9-4.35-3.9h-21.3v30.45h7.8v-11.1h5.7l4.8,11.1h7.5l-4.35-10.95Zm-3.45-5.85h-9.9v-7.8h9.9v7.8Z" style="fill:#fff;stroke-width:0px"/>
    <path d="m149.1,328.35c40.95-.75,81.9,9.6,133.65,39,38.4,21.75,55.2,28.35,66.75,25.65,10.5-2.55,20.55-9,37.8-45.45,6.6-14.1,11.4-30.45,13.5-42.6H122.1c1.95,8.55,3.9,16.95,6.45,24.45,6.6-.6,13.8-1.05,20.55-1.05" style="stroke-width:0px;fill:#63717a"/>
  </g>
</svg>
