<?xml version="1.0" encoding="UTF-8"?>
<svg id="Layer" xmlns="http://www.w3.org/2000/svg" viewBox="0 0 420 399.5">
  <defs/>
  <path d="m149.01,152.43l-14.56,21.62,23.93-7.83,9.71,23.38,7.28-25.15,26.91,6.95-17.43-20.18,20.96-17.32-18.75,1.1,12.35-13.9h24.15l27.57-48.86v-32.21h-19.52l-9.38,16.65-1.76,12.57-14.12,25.04h-12.9l12.68-22.39v-31.76h-20.29l-9.04,16.54-1.65,12.68-22.06,39.37,3.42,8.71-4.3-4.63,1.76,23.82-25.7,1.1,20.74,14.67Zm10.92-31.1h9.15l-2.76,6.95-6.4-6.95Z" style="stroke-width:0px;fill:#fff"/>
  <path d="m44.56,94.3c-7.94,1.99-15.99,4.19-23.82,6.4-.88.22-1.76.55-2.54.77v-19.96c1.21-.33,2.32-.66,3.53-.99,6.51-1.87,13.01-3.64,19.52-5.29,1.1-.33,2.32-.55,3.42-.88v10.81c6.07-1.54,12.13-2.98,18.2-4.3v-13.24c-2.1-3.2-4.19-6.4-6.4-9.71-1.54.33-3.09.77-4.63,1.1h-.22c-13.01,3.09-25.92,6.62-38.71,10.48-.44.11-.88.33-1.43.44-1.65.44-3.2.99-4.85,1.54-2.21,4.52-4.3,9.04-6.4,13.46H.22v26.8c3.2,2.21,6.4,4.41,9.71,6.73,2.65-.77,5.29-1.65,7.94-2.43,8.16-2.43,16.32-4.63,24.49-6.73.88-.22,1.76-.44,2.65-.66v20.74c-1.1.33-2.32.55-3.42.88-6.73,1.76-13.46,3.53-20.18,5.51-1.1.33-2.32.66-3.42.99v-10.81c-5.96,1.76-12.02,3.64-17.98,5.51v13.35h0c2.1,2.98,4.19,6.07,6.29,9.04,1.54-.44,3.09-.99,4.74-1.43.55-.11.99-.33,1.54-.44,13.01-3.97,26.14-7.5,39.38-10.7,1.65-.44,3.2-.77,4.85-1.1,2.21-4.3,4.3-8.6,6.51-12.79v-27.57c-3.2-2.54-6.51-5.18-9.71-7.72-3.31.77-6.18,1.54-9.04,2.21" style="stroke-width:0px"/>
  <path d="m420,117.13c-3.2-4.3-6.4-8.6-9.6-12.9-2.87-.88-5.74-1.76-8.6-2.65-7.94-2.32-15.88-4.52-23.82-6.51-.88-.22-1.76-.44-2.65-.66v-20.07c1.21.33,2.32.55,3.53.88,6.51,1.65,13.01,3.42,19.52,5.29,1.1.33,2.32.66,3.42.99v10.81c6.07,1.76,12.02,3.64,17.98,5.51v-13.24c-2.1-4.41-4.19-8.71-6.29-13.12-1.54-.44-3.09-.99-4.63-1.43q-.11,0-.22-.11c-12.79-3.97-25.7-7.5-38.71-10.59-.44-.11-.99-.22-1.43-.33-1.65-.44-3.31-.77-4.96-1.21-2.21,3.31-4.41,6.62-6.62,9.93v26.8c3.31,3.97,6.51,8.05,9.82,12.02,2.65.66,5.4,1.32,8.05,1.99,8.16,2.1,16.32,4.3,24.49,6.62.88.22,1.76.55,2.54.77v20.74c-1.1-.33-2.32-.66-3.42-.99-6.73-1.99-13.46-3.75-20.18-5.51-1.1-.33-2.32-.55-3.42-.88v-10.92c-6.07-1.54-12.13-2.98-18.2-4.3v13.35h0c2.1,4.19,4.19,8.38,6.4,12.57,1.54.33,3.2.77,4.74,1.1.55.11.99.22,1.54.33,13.24,3.2,26.36,6.73,39.38,10.81,1.65.44,3.2.99,4.74,1.43,2.1-3.09,6.29-9.38,6.29-9.38.33.33.33-17.98.33-27.13" style="stroke-width:0px"/>
  <path d="m134.12,44.67c-.55.11-.99.11-1.54.22-17.21,1.99-34.3,4.63-51.29,7.83v82.28c6.07-1.21,12.24-2.32,18.42-3.31v-28.68c10.92-1.76,21.95-3.31,32.87-4.63.55-.11.99-.11,1.54-.22,1.65-.22,3.31-.33,4.96-.55,2.32-4.3,4.63-8.49,7.06-12.79v-29.56c-2.32-3.75-4.63-7.61-7.06-11.36-1.65.33-3.31.55-4.96.77m-6.51,17.98v23.27c-1.43.22-2.76.33-4.19.55-7.94.99-15.88,2.21-23.71,3.42v-27.46c7.94-1.32,15.77-2.43,23.71-3.42,1.43-.22,2.76-.33,4.19-.55v4.19Z" style="stroke-width:0px"/>
  <path d="m331.99,95.07c2.21-.88,4.3-1.65,6.51-2.54v-28.46c-3.86-4.52-7.72-9.04-11.58-13.57-17.87-3.09-35.74-5.51-53.71-7.17v82.28c6.18.55,12.35,1.21,18.53,1.99v-32.21c4.74.55,9.49,1.21,14.23,1.87,1.54.22,3.2.44,4.74.66,3.2.44,6.29.99,9.49,1.43v32.21c.33,0,.66.11.99.11,5.85.99,11.58,1.99,17.43,3.09v-34.96c-2.32-1.54-4.41-3.09-6.62-4.74m-16.21-9.26c-8.05-1.21-16.1-2.43-24.15-3.31v-24.26c8.16.99,16.21,2.1,24.38,3.42,1.32.22,2.76.44,4.08.66v24.26c-1.43-.33-2.87-.55-4.3-.77" style="stroke-width:0px"/>
  <path d="m77.54,23.05c-2.65.44-5.18.99-7.72,1.54-.33.11-.55.11-.88.22v-6.51c.33-.11.77-.11,1.1-.22,2.1-.44,4.19-.77,6.4-1.21.33-.11.77-.11,1.1-.22v3.53c1.99-.33,3.97-.77,5.96-1.1v-4.3c-.66-1.1-1.32-2.1-2.1-3.2-.55.11-.99.22-1.54.22h-.11c-4.19.77-8.38,1.54-12.57,2.43-.11,0-.33.11-.44.11-.55.11-1.1.22-1.54.33-.66,1.43-1.43,2.76-2.1,4.19v8.71c1.1.88,2.1,1.65,3.2,2.54.88-.22,1.76-.33,2.65-.55,2.65-.55,5.29-.99,7.94-1.54.33,0,.55-.11.88-.11v6.62c-.33.11-.77.11-1.1.22-2.21.44-4.41.88-6.62,1.21-.33.11-.77.11-1.1.22v-3.53c-1.99.44-3.97.77-5.85,1.21v4.3h0c.66,1.1,1.32,2.1,2.1,3.2.55-.11.99-.22,1.54-.33.22,0,.33-.11.55-.11,4.3-.88,8.49-1.65,12.79-2.43.55-.11,1.1-.22,1.54-.33.66-1.32,1.43-2.65,2.1-4.08h0v-8.93c-1.1-.88-2.1-1.76-3.2-2.65-.99.22-1.99.33-2.98.55" style="stroke-width:0px"/>
  <path d="m98.05,8.71c-2.43,9.26-4.85,18.53-7.39,27.79,1.87-.33,3.75-.66,5.62-.88.55-2.1.99-4.19,1.54-6.18,2.87-.44,5.74-.88,8.71-1.32.55,1.87.99,3.86,1.54,5.74,1.99-.33,4.08-.55,6.07-.88-2.43-8.6-4.85-17.1-7.39-25.59-2.98.44-5.85.88-8.71,1.32m.88,15.99c1.1-4.41,2.21-8.82,3.2-13.35,1.1,4.08,2.1,8.27,3.2,12.35-2.1.33-4.3.66-6.4.99" style="stroke-width:0px"/>
  <path d="m136.76,21.4c-3.09-5.63-6.29-11.14-9.38-16.76-2.1.22-4.19.44-6.29.77v26.69c1.76-.22,3.53-.44,5.29-.66V13.57c3.09,5.63,6.18,11.25,9.26,16.88,2.1-.22,4.19-.44,6.4-.66V3.09c-1.76.22-3.53.33-5.29.55v17.76Z" style="stroke-width:0px"/>
  <path d="m168.64,1.21c-2.43,9.04-4.96,18.09-7.39,27.13,1.87-.11,3.75-.22,5.74-.33.55-1.99.99-4.08,1.54-6.07,2.87-.22,5.85-.33,8.71-.44.55,1.99.99,3.97,1.54,5.96,2.1-.11,4.08-.22,6.18-.22-2.43-8.82-4.96-17.54-7.39-26.36-3.09,0-6.07.11-8.93.33m.88,16.1c1.1-4.3,2.21-8.71,3.31-13.01,1.1,4.19,2.1,8.49,3.2,12.68-2.21.11-4.3.22-6.51.33" style="stroke-width:0px"/>
  <path d="m209.23,17.76c-3.09-5.96-6.29-11.8-9.38-17.65-2.1,0-4.19.11-6.29.11v26.69c1.76,0,3.53-.11,5.29-.11V8.82c3.09,5.96,6.18,11.8,9.26,17.76h6.4V0h-5.29v17.76Z" style="stroke-width:0px"/>
  <path d="m223.24,4.96c2.43,0,4.85.11,7.28.22v21.84c1.99.11,3.97.11,5.96.22V5.4c2.43.11,4.85.22,7.28.33V.99c-6.84-.33-13.68-.55-20.51-.66v4.63Z" style="stroke-width:0px"/>
  <path d="m298.24,23.16c-3.09-6.29-6.18-12.57-9.38-18.86-2.1-.22-4.19-.44-6.29-.66v26.69c1.76.22,3.53.33,5.29.55V13.01c3.09,6.29,6.18,12.57,9.26,18.97,2.1.22,4.19.55,6.29.77V6.07c-1.76-.22-3.53-.44-5.29-.66v17.76h.11Z" style="stroke-width:0px"/>
  <path d="m312.13,11.36c1.54.22,2.98.44,4.52.66v18.42c-1.54-.22-2.98-.44-4.52-.66v4.08c4.96.66,9.93,1.43,14.89,2.32v-4.08c-1.54-.22-2.98-.44-4.52-.77V12.9c1.54.22,2.98.44,4.52.77v-4.08c-4.96-.77-9.93-1.54-14.89-2.32v4.08" style="stroke-width:0px"/>
  <path d="m271.54,2.65c-.55,0-1.1-.11-1.65-.11h0c-4.3-.33-8.49-.66-12.79-.99h-.55c-.55,0-1.1-.11-1.65-.11-.77,1.21-1.54,2.54-2.32,3.75v18.75c.77,1.32,1.54,2.76,2.32,4.08.55,0,1.1.11,1.65.11h.55c4.3.33,8.49.55,12.79.99h0c.55,0,1.1.11,1.65.11.77-1.21,1.54-2.54,2.32-3.75V6.73c-.77-1.32-1.54-2.65-2.32-4.08m-3.64,5.74v16.21c-.55,0-.99-.11-1.54-.11-2.1-.22-4.19-.33-6.29-.44-.55,0-.99-.11-1.54-.11V6.18c.55,0,.99.11,1.54.11,2.1.11,4.19.33,6.29.44.55,0,.99.11,1.54.11v1.54Z" style="stroke-width:0px"/>
  <path d="m356.8,18.97c-.77-1.43-1.54-2.98-2.21-4.41-.55-.11-1.1-.22-1.65-.33h0c-4.19-.88-8.38-1.65-12.68-2.43-.22,0-.44-.11-.55-.11-.55-.11-1.1-.22-1.65-.33-.77,1.21-1.54,2.32-2.21,3.53v18.75c.77,1.43,1.54,2.87,2.21,4.3.55.11,1.1.22,1.65.33.22,0,.44.11.55.11,4.19.77,8.49,1.54,12.68,2.43h0c.55.11,1.1.22,1.65.33.77-1.21,1.54-2.32,2.21-3.53v-18.64Zm-5.85.88v16.21c-.55-.11-.99-.22-1.54-.33-2.1-.44-4.19-.77-6.29-1.21-.55-.11-.99-.22-1.54-.33v-17.76c.55.11.99.22,1.54.33,2.1.44,4.19.77,6.29,1.21.55.11.99.22,1.54.33v1.54" style="stroke-width:0px"/>
  <g>
    <path d="m178.12,70.48l-21.73,38.6,3.64,9.04h13.46l-6.18,15.55-11.47-12.46,1.32,18.31-19.96.88,15.88,11.14-11.25,16.88,18.2-5.96,7.5,18.09,5.74-19.74,20.29,5.18-13.12-15.11,16.1-13.35-16.65.99,18.09-20.4h23.71l26.25-46.54v-28.35h-14.78l-8.49,15.11-1.43,12.13-15.22,27.13h-19.96l14.89-26.25v-28.01h-15.44l-8.16,15-1.21,12.13Z" style="stroke-width:0px"/>
    <polygon points="242.43 47.43 235.48 47.43 230.18 56.8 237.35 56.8 242.43 47.43" style="stroke-width:0px;fill:#c4ced4"/>
    <polygon points="197.54 47.43 190.15 47.43 184.85 56.8 192.68 56.8 197.54 47.43" style="stroke-width:0px;fill:#c4ced4"/>
    <path d="m183.53,107.1l-15.44,35.29-6.95-7.5.66,9.49-10.37.44,8.27,5.85-5.85,8.71,9.49-3.09,3.86,9.38,2.98-10.26,10.59,2.76-6.84-7.94,8.38-6.95-11.8.77h-.77l24.38-36.84h21.18l18.75-33.53h-7.28l-15.77,27.68h-37.83l15.77-27.68h-7.39l-19.08,33.53h21.07v-.11Z" style="stroke-width:0px;fill:#c4ced4"/>
    <polygon points="190.7 60.66 183.86 60.66 182.98 68.71 190.04 68.71 190.7 60.66" style="stroke-width:0px;fill:#c4ced4"/>
    <polygon points="235.81 60.66 229.08 60.66 228.2 68.71 235.15 68.71 235.81 60.66" style="stroke-width:0px;fill:#c4ced4"/>
    <path d="m164.78,152.87c1.76,0,3.09-1.32,3.09-3.09s-1.43-3.09-3.09-3.09c-1.76,0-3.09,1.43-3.09,3.09s1.32,3.09,3.09,3.09" style="stroke-width:0px"/>
  </g>
</svg>
