<?xml version="1.0" encoding="UTF-8"?>
<svg id="Layer" xmlns="http://www.w3.org/2000/svg" viewBox="0 0 420 514.7">
  <defs/>
  <path d="m420,210c0,115.92-94.08,210-210,210S0,325.92,0,210,94.08,0,210,0s210,94.08,210,210" style="stroke-width:0px;fill:#fff"/>
  <path d="m210,409.08c-52.78,0-102.34-20.44-139.86-57.54-37.52-37.1-58.52-86.66-59.08-139.44-.56-53.2,19.6-103.46,56.7-141.4C105,32.62,154.7,11.48,207.9,10.78h2.24c52.78,0,102.34,20.44,139.86,57.54,37.52,37.1,58.52,86.66,59.08,139.44.56,53.2-19.6,103.46-56.7,141.4-37.24,38.08-86.94,59.22-140.14,59.92-.84,0-1.54,0-2.24,0" style="stroke-width:0px"/>
  <g>
    <path d="m229.6,73.36l-6.86,7h-19.46l-7-7v-38.5l7-7h19.32l7,7v38.5Zm-20.16-34.16l-2.1,2.1v25.34l2.1,2.1h7.14l2.1-2.1v-25.34l-2.1-2.1h-7.14Z" style="stroke-width:0px;fill:#fff"/>
    <path d="m341.88,163.94l-9.24-3.22-8.4-17.5,3.22-9.24,34.72-16.66,9.24,3.22,8.4,17.5-3.22,9.24-34.72,16.66Zm22.12-32.9l-2.8-.98-22.82,10.92-.98,2.8,3.08,6.44,2.8.98,22.96-10.92.98-2.8-3.22-6.44Z" style="stroke-width:0px;fill:#fff"/>
    <path d="m126.7,102.34l.14,9.8-13.58,13.86-9.8.14-27.58-26.74-.14-9.8,13.44-13.86,9.8-.14,27.72,26.74Zm-38.5-9.24v2.94l18.2,17.64h2.94l4.9-5.04v-2.94l-18.2-17.64h-2.94l-4.9,5.04Z" style="stroke-width:0px;fill:#fff"/>
    <polygon points="300.86 50.12 280.56 98.28 272.16 94.64 269.92 60.48 258.02 88.62 248.78 84.84 269.22 36.68 280.56 41.44 280.7 71.4 291.48 46.06 300.86 50.12" style="stroke-width:0px;fill:#fff"/>
    <path d="m166.32,61.04l-2.38,8.12,14.56,14.42-10.22,4.48-13.58-13.02-4.9,2.24,6.86,15.82-9.38,4.06-20.58-48.16,22.4-9.8,9.52,3.78,7.7,18.06Zm-21.42,4.76l8.26-3.64c.14,0,1.12-2.66,1.12-2.66l-2.8-6.58-2.8-1.12-8.26,3.64,4.48,10.36Z" style="stroke-width:0px;fill:#fff"/>
    <polygon points="341.88 97.02 335.02 90.3 306.18 119.56 298.48 111.86 327.32 82.6 320.46 75.88 328.3 67.9 349.72 88.9 341.88 97.02" style="stroke-width:0px;fill:#fff"/>
    <polygon points="62.72 126.84 58.8 135.52 96.32 152.32 91.84 162.4 54.32 145.6 50.4 154.28 40.04 149.66 52.36 122.22 62.72 126.84" style="stroke-width:0px;fill:#fff"/>
    <path d="m349.58,260.4l-5.18,9.8-3.64-1.96-.98,1.96-3.22,6.16.84,2.8,5.18,2.66-.7-.42,2.8-.84,6.16-11.76,9.66-2.94,15.68,8.26,2.94,9.38-8.96,17.22s-9.52,2.94-9.52,2.8l-7.84-4.2,5.18-9.8,3.92,2.1,4.2-8.12-.84-2.8-4.2-2.24-2.8.84-6.02,11.48-9.8,2.94h0l-15.68-8.26-3.08-9.66,8.96-17.22,9.52-2.8,7.42,4.62Z" style="stroke-width:0px;fill:#fff"/>
    <path d="m80.64,296.52l-8.26-1.82-13.3,15.54-5.18-9.8,12.04-14.42-2.52-4.76-15.4,7.98-4.76-8.96,46.48-24.08,11.34,21.7-3.22,9.66-17.22,8.96Zm-6.3-21l4.2,7.98,2.8.84,6.3-3.36.84-2.8-4.2-7.98-9.94,5.32Z" style="stroke-width:0px;fill:#fff"/>
    <path d="m149.1,359.8l-7.56,18.06-9.1-3.78,20.16-48.44,22.12,9.24,3.64,9.52-7.28,17.64-7.28,3.92-14.7-6.16Zm3.92-9.38l7.42,3.08,2.66-1.12,2.8-6.58-1.12-2.66-7.42-3.08-4.34,10.36Z" style="stroke-width:0px;fill:#fff"/>
    <polygon points="228.48 350.7 218.96 350.84 219.38 392 208.46 392.14 208.04 350.98 198.52 351.12 198.38 339.78 228.48 339.5 228.48 350.7" style="stroke-width:0px;fill:#fff"/>
    <path d="m289.38,367.92l-3.92,8.96-18.2,6.86-8.96-4.06-13.58-35.98,4.06-8.96,18.06-6.86,8.96,4.06,13.58,35.98Zm-30.94-24.78l-1.26,2.66,8.96,23.8,2.66,1.26,6.58-2.52,1.26-2.66-8.96-23.66-2.66-1.26-6.58,2.38Z" style="stroke-width:0px;fill:#fff"/>
    <path d="m327.74,317.24l.14,8.4,18.2,9.52-8.4,7.14-16.8-8.54-4.06,3.5,11.2,13.16-7.7,6.58-33.88-39.9,18.62-15.82,10.22.98,12.46,14.98Zm-19.04,10.64l6.86-5.88.28-2.94-4.62-5.46-2.94-.28-6.86,5.88,7.28,8.68Z" style="stroke-width:0px;fill:#fff"/>
    <path d="m105.84,360.22l-8.12-7.56,3.78-7.7-11.2-10.36-7.42,4.48-8.26-7.56,47.32-28.42,8.26,7.56-24.36,49.56Zm.28-24.92l7.14-14.56-13.86,8.26,6.72,6.3Z" style="stroke-width:0px;fill:#fff"/>
  </g>
  <g>
    <path d="m250.74,315.28c.14.28.28.42.42.42.56,0,1.82-.28,1.82-.28l1.12-.56,3.36-1.26,8.26-3.92,1.4-.7.7-.28.84-.56,1.4-.84,1.68-.98,2.24-1.4,3.92-2.8,1.96-1.54,2.66-1.96,2.52-1.82,1.12-.84,1.68-1.54,1.68-1.68,2.8-2.94,3.22-3.08,3.64-4.2,1.96-2.66.7-.98,2.24-2.66,4.2-6.16,1.12-1.96,2.8-5.6,1.54-3.08,2.8-5.6,1.54-3.36,1.68-5.18s1.96-6.86,2.94-10.5c.14-.42.14-.84-.14-1.12-.56-.84-.98-1.82-1.54-2.8-.28-.42-.7-.98-.98-1.4s-.98-1.26-1.26-1.68c-.28-.28-.7-.7-.98-.98-.84-.84-1.68-1.68-2.38-2.24-.42-.14-.7-.42-.98-.7-2.38-1.82-4.62-3.22-7.28-4.34-1.12-.42-2.24-.84-3.36-1.26-.84-.28-2.1-.56-2.94-.7-.42-.14-.84-.14-1.26.14-.42.28-.42.84-.42,1.4-.14,1.4-.14,2.94-.28,4.48-.14,1.54-.28,2.94-.42,4.48-.14,1.4-.14,2.66-.28,4.06-.14,1.82-.42,3.5-.84,5.32-.56,3.22-1.26,6.58-1.96,9.8-.14.84-.28,1.82-.7,2.66-.56,1.4-.98,2.8-1.26,4.34-.56,3.08-1.68,6.02-2.8,8.96-.84,2.38-1.68,4.76-3.08,7-.14.14-.14.28-.14.42-.7,1.54-1.26,3.08-1.96,4.48-.42.98-1.12,1.82-1.4,2.8-.56,1.26-1.26,2.38-1.96,3.5-1.12,1.82-2.38,3.5-3.36,5.32-.7,1.26-1.54,2.52-2.38,3.64-.28.28-.42.56-.56.98-.7.98-1.26,2.1-2.1,2.94-1.4,1.82-2.94,3.64-4.48,5.46-.98,1.12-1.96,2.1-2.94,3.22-.84.98-1.82,1.96-2.8,2.94-.14.14-.42.42-.7.56-.56.42-1.12.84-1.68,1.4-1.12,1.12-2.38,2.38-3.78,3.22-.56.42-1.26.84-1.82,1.26-1.12.98-2.8,1.96-4.76,2.94" style="stroke-width:0px;fill:#bd1b21"/>
    <path d="m324.38,227.22s.14-.14.14-.28c0-.28.14-.84.14-.84l.84-7.14.42-6.72v-7.56l-.84-7.56s-.98-6.86-1.68-10.22c-.28-1.26-.98-1.82-1.96-2.38-.28-.14-.7-.28-1.12-.42-.7-.28-1.54-.56-2.24-.84-1.68-.42-3.36-.98-5.04-1.26-2.1-.28-4.06-.56-6.16-.7-1.68-.14-3.36-.28-5.04-.28h-3.5c-.7,0-1.54,0-1.82.42-.28.42-.14,1.26,0,2.1.28,1.68.56,2.52.84,4.06.84,4.9,1.68,9.66,1.82,14.56.14,2.24.28,4.48.28,6.58v1.68c0,.42.14.84.28,1.12s.56.42.84.42c.42.14.84.14,1.26.28.42.14,1.26.28,1.68.42,1.96.7,4.06,1.4,5.88,2.1,1.4.56,2.66,1.26,3.92,1.96.14.14.28.14.42.28.7.56,1.54,1.12,2.24,1.68,1.82,1.26,3.64,2.52,5.04,4.34.28.28.56.7.84.98.56.42,1.4,2.24,2.1,2.94.28.14.28.28.42.28" style="stroke-width:0px;fill:#bd1b21"/>
    <path d="m273.84,146.72c.7,0,1.26,0,1.82-.14.42,0,.7,0,.98-.42.14-.42-.14-.84-.28-.98-.14-.28-1.4-2.66-1.4-2.66l-1.26-1.96-5.32-7.7-1.12-1.26-.98-1.4-1.68-1.96-4.34-4.76-1.82-1.82-6.72-6.16-5.46-4.2-1.96-.98-6.44-3.92-4.48-2.38-.84-.42-3.64-1.4-5.46-1.96-.42-.14-1.68-.42-.42-.14-1.54-.42-3.22-.56h-1.54l-2.94-.56-3.5-.28-1.26-.14h-2.1l-3.64.14-3.5.42h-2.8l-2.38.28-2.52.56-1.96.56-3.08.56h-.7l-2.94.98-1.68.42-.98.56-2.52.7-1.26.7-1.54.56-3.78,1.54-4.76,1.82-1.54.7-3.36,1.82-2.94,1.96-2.66,1.4-.98.56-2.94,1.54-.42.28-3.36,2.66-2.8,1.82-.56.42-3.08,2.52-1.12.98s-1.68,1.4-1.68,1.68l1.12-.42s2.1-.84,2.24-.84h.42l3.08-1.26h.42l3.36-1.4,1.82-.56,1.82-.7,2.52-.84,6.16-2.38h.56l3.08-1.12,2.52-.98.28.28,4.76.14,3.08.28h.14l6.16.42h0l8.54.42v.14l3.08,2.66h.28l3.08,2.94.28-.14,4.2.14.14-.14,10.64.56v.28l4.76,2.8h.14l8.4,4.06v.42l4.76-1.82,7,2.38,1.12,1.96,2.52.14,2.52,2.8h.28l1.96,2.24v.14h.28l5.46,1.26,2.1,3.08,5.04,1.82s5.46,1.4,8.26,1.68c3.22.84,6.16.7,8.12.56" style="stroke-width:0px;fill:#bd1b21"/>
    <path d="m321.44,179.06c-.14-.84-.7-2.52-.7-2.52l-.28-.84-.28-1.12-.84-2.66-.84-2.38-2.66-5.88-1.12-2.8-1.54-3.36-1.82-2.94-.42-.84-1.26-2.38-1.12-1.82-.42-.56-7.7-10.36s-.7-.84-1.12-1.26c-.14-.28-.28-.42-.42-.42h0s-2.38,3.78-3.36,4.9c-.98,1.12-2.94,2.94-2.94,2.94,0,0-1.68,1.4-1.96,1.54-.28.28-1.54.98-1.54.98l-1.68.98s-1.26.56-1.54.7c-.28.14-.42.14-.56.28s-.14.28-.14.56.14.42.28.7c.7,1.54,1.4,2.94,2.1,4.48,1.12,2.1,1.96,4.48,2.8,6.72.28.7.7,1.54.84,2.24.7,1.96,1.26,3.92,1.82,5.88.28.84.56,1.68.84,2.66.28.84.42,1.82.7,2.66.14.56.56.84,1.12.84h1.68c2.1,0,4.06-.14,6.16-.14.56,0,4.62.42,4.62.42,0,0,1.4.14,2.1.28,1.54.28,3.08.7,4.62.98,1.26.28,2.66.7,3.78,1.26.56.28,1.26.42,1.82.56.14,0,.56.14.56.14.28-.14.42-.28.42-.42" style="stroke-width:0px;fill:#bd1b21"/>
    <path d="m294.7,133.56c0-.28-.56-1.12-.56-1.12l-.42-.7-1.12-1.26-.7-1.12-1.4-1.4s-.28-.28-.42-.42c-2.38-1.96-7.28-5.88-7.28-5.88l-1.4-1.12-2.52-2.24-12.6-7.56-9.94-4.76-5.32-2.1-1.96-.7-6.58-2.24-4.62-1.12-4.48-.98h-.7l-.42.42.14.14s.42.28.7.28c1.4.56,2.8,1.12,4.2,1.68.84.42,1.82.84,2.66,1.12.7.14,1.26.42,1.82.7,2.1,1.26,4.2,2.52,6.3,3.78,1.26.7,2.38,1.68,3.5,2.66.84.7,1.68,1.54,2.66,1.96.42.28.84.7,1.26.98.28.14.42.42.7.56,1.26.98,2.52,1.96,3.64,3.08,1.12,1.26,2.38,2.52,3.64,3.64,1.12,1.12,2.38,2.24,3.36,3.64.84,1.12,1.68,2.1,2.66,3.08,1.82,1.82,3.22,3.92,4.9,5.88.14.28.28.56.56.84,1.12,1.68,2.1,3.5,3.36,5.04.84,1.12,1.68,2.24,2.38,3.5.42.7.84,1.54,1.4,2.24.28.42.7.56.98.56s.7-.28.7-.28l.84-.42s1.12-.56,1.54-.7,1.12-.56,1.54-.84c.28-.28,1.54-1.12,2.1-1.68.7-.56,1.96-2.24,1.96-2.24l.98-1.26,1.68-2.8s.28-.56.28-.84" style="stroke-width:0px;fill:#bd1b21"/>
    <path d="m289.38,175.56c-.7-2.1-1.26-4.06-1.96-6.16-.56-1.68-1.12-3.5-1.82-5.04-.42-.98-.7-2.1-1.12-3.08-.14-.56-.42-.98-.56-1.54-.98-2.66-2.24-4.76-3.5-7.28,0-.14-.14-.28-.28-.42-.14-.28-.28-.42-.56-.56-.28-.14-.56,0-1.12,0-1.12.14-2.38.28-2.94.28s-2.66.14-4.34.28l-.42-.14h-2.1l-5.46-.7c-1.96-.28-6.58-1.4-6.58-1.4l-3.36-1.12-4.06-1.4-.28.14-6.44-.56-.14.14-3.64-2.8h-.42l-2.24-2.1-.14-.42-2.52-.42-.28.14-2.1-.7-.28-.28-4.76.28-4.34-1.68-14.84.84-.28-.14-2.8.14-.28.28-7.28.56-.14-.14-10.36,6.02-.14.42-.42.42-.28-.14-5.18-.56-.28.14h-9.24l-.14-.14-2.66-.14-.84-.42-9.66,7.56v.14l-3.36,2.66-3.78-1.82-.28.14-1.4-.42s-7,1.82-6.86,1.82l-6.58-.98-.42-.42-1.26,1.26-2.66,1.26v.28l-5.18,3.92-7.42,5.32-8.4,6.16-3.78,2.8-.14,1.54-1.54,3.64-.7,3.08-.98,6.3-.56,2.8-.28,3.36-.84,6.86-.42,15.12.42.84.28,4.2s0,.7.28.7h0l18.48-19.04,6.02-2.38,5.04-.28,3.08-3.5.28-.7.42.14,8.26-.98.42-.28h3.08l.42.14.98-1.26,3.78-2.24,3.92-2.8,11.2.14.14.28,4.34.42,3.36-.7,6.3-6.44h.14l5.04-4.76,7.42-.98.28-.14.28.28,3.92,1.82.28-.28,3.5-.42.14-.14,3.22-.56.28-.14,3.5,2.94.14-.28,7.28-.14.56-.42,5.74.28.28.14.84-.28.14-.28,2.38-.98h.28l2.66-1.26.28-.28,2.8-1.12.14-.28,7.84-3.08v-.14l1.4-.42.28-.28.42.42,2.24,1.12h.7l2.52,1.4.14-.28.84-.42h.14l1.26-.56v-.14l1.82-.42,4.76,1.26.98-.28.84.56,3.5.56,3.36,1.26,1.96-.14.7.42.56-.28s6.72-.84,10.08-1.12c2.24-.14,4.34-.42,6.58-.56,1.26-.14,2.52-.28,3.64-.42.84.7,1.12.42.84-.42" style="stroke-width:0px;fill:#bd1b21"/>
    <path d="m294.28,209.86c0-.42-.14-.7-.14-1.26-.14-1.26-.14-2.52-.14-3.92,0-.42-.14-.84-.14-1.26-.14-1.54-.14-3.22-.28-4.76-.14-2.1-.56-4.06-.84-6.02-.28-1.54-.56-3.08-.84-4.62-.28-1.68-.56-3.08-.98-4.76-.42-1.68-.7-1.82-2.38-1.68-.14,0-.28,0-.42.14-.56.14-1.54.14-2.1.28-3.22.42-6.3.56-9.66.98l-9.38,3.22-13.58-.42-1.54-.42v.28l-4.06,2.94h-.56l-3.22,2.94-.14.42-8.12,1.12-7.42,5.74h-.84l-3.92,2.38-1.54.14-1.54,1.26-.42-.28-7.56-.56-1.26,1.54v.28l-6.58,7.14-.14.42h-.28l-8.4,9.52h-2.24l-.14.28-6.86,1.12h-.56l-.14.28-11.34,6.3-5.04-.56-1.12.42-5.04-.28-5.04,5.46-2.94.56-1.68-.14-1.82.7-1.12-.14v.28l-6.16,4.76-.56.14-9.66,7.56.14.42-6.02,14.56.28.56-9.94.84-3.22,2.8-.28,1.12,4.48,6.16,3.22,5.04,2.8,3.64,4.62,5.04s0,.28.14.42c.14,0,.56,0,.56.14l2.8.98,3.36,1.12s0,.14.14.14h.28l5.6,2.24h.42l.28.42h.56l1.26.84,2.38-1.26h.14l1.12-.7,8.54,2.1,6.3-3.22,13.86-1.4,5.74-9.1,2.52-2.52h.28l1.96-1.82v-.28l3.5-3.22,1.68-1.68.42-.28,1.96-1.96,1.54-1.54.42-.14-.42-1.4,1.54-5.88,3.08-.98.14-.14.98-.14v-.56l4.2-6.72.42-.14,1.68-3.36,2.8-1.54.42-.42.56.14,1.68-.98h.14l3.08-1.4.28-.42,10.22-4.62h.56l.14-.56.42-.28.98-3.5,3.22-1.4,3.78-.42,3.36-2.38,4.76.14.42.42.28-.28,6.72-2.94v-.84l1.68-3.08,3.36-.84.14-.28,4.48-.98,1.68-2.1h.28s.98-.98,1.12-.98l3.08.42.14.14,1.68.28,1.12.14s4.62-2.1,6.44-2.94c.84-.28,1.54-.56,2.38-.84,1.12-.42,2.1-.7,3.22-1.12.56-.14,1.12-.28,1.54-.42l2.1-.42,2.52-.42,1.54-.14s.7-.14.98-.14.7,0,.98-.28.28-.56.42-.84c-.28-.98-.28-1.12-.28-1.54" style="stroke-width:0px;fill:#bd1b21"/>
    <path d="m294.14,218.82c0-.42,0-.98-.28-1.26s-.7-.42-.84-.42c-.28,0-1.4.14-1.4.14l-1.96.28c-.28,0-.42,0-.7.14-1.12.28-2.38.56-3.5.84-1.26.42-2.66.7-3.78,1.26-1.26.56-2.8.98-4.06,1.68-.42.28-4.9,2.38-6.86,3.36l-2.52,2.66-.14.56-.28-.14-1.54.14-.14.14-5.18,1.68v.56l-.56.56v.28l-2.38,4.2h-.28v.42s-.56.84-.98,1.68l-10.92,7h-.28l-1.68,1.4-1.12,4.62-1.12.98-4.2,15.82.56,1.82-6.3,3.08h-.98l-1.26,5.46-.14.14-1.54,5.04.14.28-.7,4.34-.28.28.14.42-6.02,9.66-.42.14-1.54,2.38v.42l-5.18,7.28-5.46,3.22.28.42-.28,2.24.42.84-.84.28-3.92,2.38-.42-.14-5.88,3.5-.7,1.12c0,.14,2.24.28,2.24.28l3.78.28,2.52.14h8.82l8.12-.98,4.9-.84,3.64-.98,3.92-1.12,5.04-1.96.42-.28,1.4-.84s4.06-2.1,5.88-3.5c3.08-2.38,6.3-4.76,9.24-7.42.98-.98,1.96-1.82,2.94-2.8.98-.84,1.82-1.82,2.8-2.8.14-.14.42-.28.42-.56.28-.7.84-1.26,1.4-1.82.42-.42.84-.84,1.12-1.26.56-.98,1.54-1.68,2.38-2.52.7-.7,1.26-1.4,1.82-2.1.98-1.4,1.82-2.8,2.8-4.2,1.26-1.82,2.52-3.64,3.64-5.6,1.12-2.1,2.24-4.2,3.36-6.16.98-1.68,1.96-3.5,2.8-5.32,1.26-3.08,2.66-6.02,3.78-9.24,1.26-3.22,2.24-6.58,3.08-10.08.7-2.52,1.12-5.18,1.96-7.56.14-.28.14-.7.28-.98.42-2.1.7-4.2.98-6.16s.56-3.92.84-5.88c.14-1.4.42-2.66.56-4.06.14-1.82.28-3.78.28-5.6v-.56s-.14-.42-.14-.7" style="stroke-width:0px;fill:#bd1b21"/>
  </g>
</svg>
