<?xml version="1.0" encoding="UTF-8"?>
<svg id="Layer" xmlns="http://www.w3.org/2000/svg" viewBox="0 0 420 510.23">
  <defs/>
  <path d="m131.58,332.09h-16.19l-19.4,77.86h13.67l4.19-17.58h19.26l4.33,17.58h13.67l-19.53-77.86Zm-14.37,46.6l6.42-26.23,6.28,26.23h-12.7Z" style="stroke-width:0px"/>
  <polygon points="201.91 332.09 201.91 409.81 188.37 409.81 188.37 377.16 170.65 377.16 170.65 409.81 157.12 409.81 157.12 332.09 170.65 332.09 170.65 363.49 188.37 363.49 188.37 332.09 201.91 332.09" style="stroke-width:0px"/>
  <polygon points="101.16 345.63 86.23 345.63 86.23 409.81 72.7 409.81 72.7 345.63 57.91 345.63 57.91 332.09 101.16 332.09 101.16 345.63" style="stroke-width:0px"/>
  <path d="m51.77,332.09v61.67c0,4.6-1.67,8.93-4.88,12.14-3.21,3.07-7.4,4.88-12.14,4.88h-11.86c-4.6,0-8.93-1.67-12.14-4.88s-4.88-7.4-4.88-12.14v-61.67h13.67v65.02h18.56v-65.02h13.67Z" style="stroke-width:0px"/>
  <path d="m266.65,332.37v61.67c0,4.6-1.67,8.93-4.88,12.14-3.21,3.21-7.4,4.88-12.14,4.88h-11.86c-4.6,0-8.93-1.67-12.14-4.88s-4.88-7.4-4.88-12.14v-15.49h13.67v18.98h18.56v-65.16h13.67Z" style="stroke-width:0px"/>
  <path d="m306.56,332.37h-16.19l-19.4,77.86h13.67l4.19-17.58h19.26l4.33,17.58h13.67l-19.53-77.86Zm-1.67,46.74h-12.7l6.42-26.23,6.28,26.23Z" style="stroke-width:0px"/>
  <polygon points="370.33 345.77 345.21 396.56 370.33 396.56 370.33 410.23 329.86 410.23 329.86 396.98 330 396.84 355.12 346.05 329.86 346.05 329.86 332.37 370.33 332.37 370.33 345.63 370.33 345.77" style="stroke-width:0px"/>
  <polygon points="417.49 345.77 392.37 396.56 417.63 396.56 417.63 410.23 377.02 410.23 377.02 396.98 377.16 396.84 402.28 346.05 377.02 346.05 377.02 332.37 417.63 332.37 417.63 345.63 417.49 345.77" style="stroke-width:0px"/>
  <path d="m420,.14l-41.02,88.05h-164.51l-51.77,111.07h-46.47c.42-5.58,1.53-11.02,3.21-16.47,4.47-13.4,12.84-24.42,23.3-32.37,2.79,3.21,5.3,6.56,7.53,10.19.42.56,1.12.56,1.26,0h0L226.47,0h193.53v.14Z" style="stroke-width:0px"/>
  <path d="m39.21,233.72c-4.74,9.35-11.44,17.3-19.53,23.44-6.84-7.81-12.14-17.16-15.63-27.63-2.37-6.98-3.63-14.09-4.05-21.21h46.19c-.56,8.79-2.93,17.3-6.98,25.4" style="stroke-width:0px"/>
  <path d="m76.74,208.33v76.88c-18.84-1.12-36.84-8.79-50.51-21.49,8.79-6.84,16.05-15.63,21.21-25.95,4.74-9.35,7.4-19.26,7.95-29.44h21.35Z" style="stroke-width:0px"/>
  <path d="m42.84,182.79c1.81,5.44,2.93,11.02,3.21,16.47H0c.98-18,8.09-35.16,19.67-48.7,10.47,7.81,18.84,18.84,23.16,32.23" style="stroke-width:0px"/>
  <path d="m76.74,122.51v76.74h-21.49c-.42-6.56-1.67-12.98-3.77-19.4-4.88-14.79-13.95-27.07-25.4-36,8.23-7.67,18.28-13.67,29.58-17.44,6.98-2.23,13.95-3.49,21.07-3.91" style="stroke-width:0px"/>
  <path d="m107.16,199.26h-21.35v-76.74c18.98.98,36.84,8.65,50.65,21.35-11.86,9.07-20.79,21.49-25.53,36-2.09,6.42-3.35,12.98-3.77,19.4" style="stroke-width:0px"/>
  <path d="m136.47,263.86c-8.23,7.53-18.14,13.53-29.44,17.3-7.12,2.37-14.23,3.63-21.35,4.05v-76.88h21.35c.7,10.19,3.35,20.09,7.95,29.44,5.3,10.33,12.56,19.26,21.49,26.09" style="stroke-width:0px"/>
  <path d="m162.7,208.33c-.98,18.14-8.09,35.3-19.81,48.84-8.23-6.14-14.93-14.09-19.67-23.58-4.05-8.09-6.42-16.6-6.98-25.4h46.47v.14Z" style="stroke-width:0px"/>
</svg>
