<?xml version="1.0" encoding="UTF-8"?>
<svg id="Layer" xmlns="http://www.w3.org/2000/svg" viewBox="0 0 420 514.7">
  <defs/>
  <path d="m210,0C93.94,0,0,93.94,0,210s93.94,210,210,210,210-93.94,210-210S326.06,0,210,0" style="stroke-width:0px;fill:#8b8d8d"/>
  <path d="m412.16,209.16c0-108.64-92.96-202.16-201.6-202.16S7.7,101.08,7.7,209.72c0,99.82,79.24,187.88,176.26,201.6,8.12.98,16.52,1.54,24.92,1.54h.28c18.34,0,36.26-2.52,53.2-7.14,84.98-24.22,149.8-105.7,149.8-196.56Z" style="stroke-width:0px;fill:#cf0a2c"/>
  <path d="m412.02,199.5H8.12c-.14,3.36-.28,7-.28,10.36,0,18.34,2.8,36.54,7.7,53.62h388.92c5.04-17.36,7.7-35.56,7.7-54.04,0-3.36,0-6.72-.14-9.94Z" style="fill:#fff;stroke-width:0px"/>
  <path d="m184.1,411.32c8.12.98,16.52,1.54,24.92,1.54h.28c18.34,0,36.26-2.52,53.2-7.14,53.06-15.26,98.28-52.92,124.88-101.22H32.62c30.94,56.14,87.36,97.72,151.48,106.82Z" style="stroke-width:0px;fill:#0d2240"/>
  <g>
    <path d="m209.02,52.22s-1.54-28.42-1.54-29.82,1.4-2.66,1.4-2.66c-1.12,0-5.04.28-9.1.42-1.12.28-2.94.28-2.52,4.48l1.68,31.5,10.08-.56.84-.28c.14.14-.56-1.12-.84-3.08" style="fill:#fff;stroke-width:0px"/>
    <path d="m311.08,57.82l3.64-6.44-14.98-8.68-.14-.14-8.54-4.9c-1.12-.7-2.1.28-2.38.7-.28.56-3.36,5.88-3.36,5.88h0l-1.26,2.38s2.1-1.96,4.48-.7l5.32,3.08-13.72,23.8,9.52,5.46s0-1.54.98-3.22c0,0,7.42-13.02,11.9-20.58l4.06,2.38c2.38,1.26,2.24,5.18,2.24,5.18l2.24-4.2Z" style="fill:#fff;stroke-width:0px"/>
    <path d="m281.82,33.6l-13.86-4.9c-4.48-1.54-7.7-1.96-9.52-1.26s-3.5,3.08-4.9,7l-5.18,14.84c-.7,1.68-1.12,3.22-1.12,4.34-.28,2.38.28,4.06,1.54,5.32s3.78,2.52,7.42,3.78l6.3,2.24c4.62,1.54,7.7,1.96,9.66,1.26,1.82-.84,3.5-3.08,4.9-7,0,0,2.52-7,2.8-7.98.56-1.96-.84-3.22-1.68-3.36l-11.76-4.06c-1.4-.56-2.24.56-2.8,1.4s-2.24,5.88-2.24,5.88l-.7,1.54s1.26-1.26,3.22-.7l4.34,1.54c-.7,1.54-1.4,2.52-2.1,2.8s-2.1,0-4.34-.84c0,0-1.54-.56-1.96-.84-1.12-.7-1.54-1.54-1.26-2.66.14-.7.28-1.54.7-2.66l2.94-8.12c.84-2.24,1.54-3.36,2.38-3.64.84-.28,2.24,0,4.48.84l10.78,3.64c1.96.7,2.38,3.22,2.38,3.22l.84-2.1,1.96-5.46c-.14-2.24-1.4-3.36-3.22-4.06" style="fill:#fff;stroke-width:0px"/>
    <path d="m174.86,23.38s3.08,1.12,3.78,3.5v.14l1.82,8.96-7.14,1.4c-2.1.42-2.52,2.52-2.52,2.52l-3.08-15.12-12.18,2.52s2.52,1.12,3.08,3.64v.14l6.44,30.8,7.14-1.4c1.4-.28,2.38-.7,2.66-1.68l-2.66-12.32,9.8-2.1,2.8,13.58,7.14-1.4c1.4-.28,2.38-.7,2.66-1.68l-7.14-34.02-12.6,2.52Z" style="fill:#fff;stroke-width:0px"/>
    <path d="m339.22,78.26c1.12-2.1,1.12-3.92.14-5.6-.84-1.54-2.66-3.5-5.6-5.88l-5.32-4.06c-3.78-2.94-6.72-4.34-8.68-4.34s-4.34,1.68-6.86,5.04l-9.52,12.32c-1.12,1.4-1.96,2.8-2.52,3.78-1.12,2.1-1.12,3.92-.28,5.46.84,1.54,2.8,3.5,5.74,5.88l5.32,4.06c3.78,3.08,6.72,4.48,8.68,4.34,1.96,0,4.34-1.68,6.86-5.04l9.66-12.32c1.12-1.26,1.96-2.66,2.38-3.64m-12.6.28l-5.32,6.86c-1.4,1.82-2.66,2.8-3.5,2.8-.7,0-1.96-.7-3.78-2.1l.84.7c-1.26-1.12-2.1-1.68-2.38-2.1-.84-.98-.98-1.96-.42-3.08.28-.56.84-1.26,1.54-2.24l5.32-6.86c1.4-1.82,2.66-2.8,3.36-2.8s2.24.84,4.06,2.24l-.84-.56c1.26,1.12,2.1,1.68,2.38,2.1.84.98.98,1.96.42,3.08-.28.14-.84.98-1.68,1.96" style="fill:#fff;stroke-width:0px"/>
    <path d="m158.34,48.72c-2.38-4.48-7.14-5.88-12.04-3.92l-5.46,2.38c-1.96.84-3.36.7-4.2-.42l-.28-.56c-.28-.84-.98-2.24,2.1-3.5l9.94-4.2c2.1-.98,5.32,1.12,5.32,1.12,0,0-1.96-4.76-3.08-7.56-.7-1.68-2.94-2.8-4.62-2.1l-12.18,5.18c-4.48,1.82-7.14,3.64-7.98,5.32-.98,1.82-.56,4.62,1.12,8.54l1.4,3.22c.28.56.56.98.84,1.4,1.12,1.54,2.66,2.8,4.76,3.22,2.38.7,5.18.28,8.26-1.12l4.76-1.96c1.82-.84,3.22-.56,3.92.7.28.28.28.7.42,1.12,0,0,.56,1.68-3.22,3.22l-9.52,3.92c-2.1.84-5.32-1.26-5.32-1.26,0,0,1.96,4.76,3.22,7.56.7,1.68,2.94,2.8,4.62,1.96l.98-.42,6.58-2.8,4.76-1.96c4.48-1.82,7.14-3.64,7.98-5.32.98-1.82.56-4.48-1.12-8.26-.28.14-1.68-2.8-1.96-3.5" style="fill:#fff;stroke-width:0px"/>
    <path d="m362.18,98.28l-1.68-2.1s.56,3.22-1.4,4.76h0l-10.64,8.26,6.86-18.76c.14-.56.14-.98-.28-1.4-.84-1.12-5.32-6.86-5.32-6.86l-1.82-2.38s.56,3.36-1.4,4.9l-24.92,19.46,4.48,5.74c.98,1.12,1.54,1.82,2.8,1.54,0,0,6.3-4.9,13.3-10.36l-6.3,16.38c-1.12,2.66-2.94,1.12-2.94,1.12l1.26,1.68h0l4.48,5.6c.98,1.12,1.54,1.82,2.66,1.54l27.3-21.42-6.44-7.7Z" style="fill:#fff;stroke-width:0px"/>
    <path d="m237.44,22.12l-2.8-.28s2.52,1.82,2.24,4.34v-.14l-1.54,13.44-8.54-18.06c-.28-.42-.7-.7-1.12-.84-1.26-.14-8.54-.98-8.54-.98l-3.08-.28s2.8,1.96,2.52,4.48l-3.5,31.36,7.28.84c1.4.14,2.52.14,3.08-.84,0,0,.98-7.84,1.82-16.8l7.28,15.96c1.12,2.66-1.26,2.8-1.26,2.8l2.1.28h0l7.28.84c1.4.14,2.52.14,3.08-.84l3.78-34.58-10.08-.7Z" style="fill:#fff;stroke-width:0px"/>
    <path d="m86.38,62.44l-1.12,1.26-5.6,6.44-.14.14c-.84.98-1.26,1.54-1.12,2.38l14.28,22.12-20.16-10.92c-2.66-1.12-1.4-3.78-1.4-3.78l-1.96,2.24-4.2,4.76-.14.14c-1.12,1.12-1.54,2.38-1.12,3.64l14.42,20.3-20.3-10.36c-2.66-1.26-1.4-4.34-1.4-4.34l-2.1,2.38-4.76,5.32-.14.14c-1.12,1.12-1.26,3.08-.28,3.92.14.14,0,.14,0,.14l31.5,14.7,7.42-8.4c1.12-1.12,1.26-1.68.84-2.94l-5.88-11.06,12.18,6.02,7.84-8.96c.98-1.12,1.12-2.66.7-3.78l-16.66-28c-1.26-1.82-.7-3.5-.7-3.5" style="fill:#fff;stroke-width:0px"/>
    <path d="m103.74,52.22l-6.02,4.2c-1.12.84-1.68,1.68-1.54,2.94l10.08,30.66c.7,1.96-1.68,5.32-1.68,5.32l10.5-7.42c.98-.7,1.12-1.82.84-2.94l-1.4-4.34,7.98-5.6,3.08,1.96c1.82,1.4.56,3.22.56,3.22l11.62-8.12-34.02-19.88Zm7.42,20.3l-1.96-5.32,4.9,3.22-2.94,2.1Z" style="fill:#fff;stroke-width:0px"/>
    <polygon points="45.78 135.66 50.54 150.22 65.94 150.22 53.48 159.32 58.24 173.88 45.78 164.92 33.46 173.88 38.22 159.32 25.76 150.22 41.02 150.22 45.78 135.66" style="fill:#fff;stroke-width:0px"/>
    <polygon points="374.22 137.62 369.46 152.32 354.06 152.32 366.52 161.28 361.76 175.84 374.22 166.88 386.54 175.84 381.78 161.28 394.24 152.32 378.98 152.32 374.22 137.62" style="fill:#fff;stroke-width:0px"/>
  </g>
  <g>
    <path d="m211.12,363.58h-7.42c-1.4,0-2.38.42-3.08,1.4l-9.38,30.94c-.56,1.96-4.48,3.36-4.48,3.36h12.88c1.12,0,1.96-.84,2.38-1.82l1.26-4.48h9.66l1.4,3.36c.7,2.24-1.4,2.94-1.4,2.94h14l-15.82-35.7Zm-5.18,21l1.54-5.32,1.96,5.32h-3.5Z" style="fill:#fff;stroke-width:0px"/>
    <path d="m262.22,389.9l-7.7-8.54c1.82-.42,3.22-1.4,3.78-2.24.98-1.4.98-4.2.14-8.26,0,0-1.4-7.14-1.68-8.26-.56-2.1-1.68-3.36-3.08-3.92-1.26-.56-3.22-.56-6.02,0l-25.34,4.76s3.08,1.12,3.78,3.5l5.6,30.94,7.14-1.26c1.4-.28,2.38-.56,2.66-1.54l-1.96-10.5,5.04-1.12,8.54,10.36,12.6-2.38c0,.28-2.24-.28-3.5-1.54m-13.72-20.72c.28.84.7,3.22.42,4.06-.28.7-.7.98-1.4,1.12l-5.88,1.12c-1.26.28-2.38,1.54-3.22,3.22l-1.82-9.1,9.52-1.82c1.12-.28,1.96.28,2.38,1.4" style="fill:#fff;stroke-width:0px"/>
    <path d="m290.78,347.34c-1.12-1.96-2.52-3.08-3.78-3.22-1.26-.28-3.22.28-5.88,1.26l-23.94,10.36s3.22.7,4.48,2.8l11.06,25.62c.56,1.82-.14,3.78-.56,4.2l23.24-9.94c3.22-1.26,5.04-2.94,5.46-4.48.56-1.54,0-4.34-1.68-8.12l-7-15.12c-.56-1.82-.98-2.38-1.4-3.36m-6.72,8.26c.42.7,6.3,13.86,6.3,14.56s-.42,1.12-.98,1.54l-9.24,3.92-5.32-12.32c-.42-.84-1.12-2.66-2.1-4.9l8.96-3.92c.84-.42,1.68,0,2.38,1.12" style="fill:#fff;stroke-width:0px"/>
    <path d="m191.1,370.72l1.4-6.86s-26.46-5.74-26.88-5.88c-2.24-.28-3.08,1.12-3.5,2.94l-1.12,4.76h0l-.56,1.96s1.96-1.4,4.06-1.12l12.18,2.8-20.3,17.08-1.12,5.74,26.6,5.88c1.68.42,2.94.42,3.5-1.26l1.96-8.82s-1.96,1.96-4.2,1.54l-12.88-2.94,20.86-15.82Z" style="fill:#fff;stroke-width:0px"/>
    <path d="m147.84,386.26s9.38-27.02,9.8-28.28c.56-1.12,2.38-1.82,2.38-1.82-.98-.42-4.76-1.54-8.54-3.08-1.12-.14-2.8-.84-3.92,3.22l-10.36,29.82,9.52,3.22.84.14c-.14.14-.28-1.26.28-3.22" style="fill:#fff;stroke-width:0px"/>
    <path d="m146.02,352.24l-1.4-.84-7.28-4.62h-.14c-.98-.7-1.82-1.12-2.66-.84l-15.82,15.4,5.74-18.62c.42-1.82,3.22-1.82,3.22-1.82l-2.66-1.54-5.32-3.36h-.14c-1.26-.84-2.66-1.12-3.78-.42l-16.24,15.12,7.14-18.06c.98-2.8,3.92-2.1,3.92-2.1l-2.8-1.68-6.02-3.78h-.14c-1.4-.98-3.22-.98-3.92.28l-.14.14-11.2,32.34,9.52,5.88c1.26.84,1.96,1.12,3.08.42l9.94-7.56-3.92,13.02,10.08,6.3c1.12.84,2.8.7,3.92.14l23.38-21.98c1.96-1.96,3.64-1.82,3.64-1.82" style="fill:#fff;stroke-width:0px"/>
    <path d="m327.88,339.5c-3.22-3.78-8.26-4.34-12.6-1.26l-5.04,3.36c-1.82,1.12-3.22,1.26-4.2.42,0,0-.42-.42-.42-.56-.42-.84-1.26-1.96,1.26-3.78l8.96-6.16c1.96-1.26,5.46.14,5.46.14,0,0-2.94-4.2-4.76-6.72-1.12-1.4-3.36-2.1-5.04-.98l-10.92,7.42c-3.92,2.8-6.16,5.04-6.72,7s.42,4.62,2.8,8.12l2.1,2.94c.28.42.7.84.98,1.12,1.4,1.26,3.22,2.1,5.32,2.24,2.52.14,5.18-.84,7.84-2.8l4.2-2.94c1.54-1.12,3.08-1.12,3.92-.28.28.28.42.56.56.98,0,0,.98,1.54-2.52,3.78l-8.54,5.88c-1.96,1.12-5.32-.14-5.32-.14,0,0,2.94,4.2,4.76,6.72.98,1.4,3.36,2.1,5.04.98l.84-.56,5.88-4.06,4.2-2.94c3.92-2.8,6.16-5.04,6.72-7s-.42-4.48-2.8-7.84c.42.28-1.4-2.24-1.96-3.08" style="fill:#fff;stroke-width:0px"/>
  </g>
  <path d="m333.9,142.94c-8.68-15.96-20.3-30.1-34.16-41.44-2.66-2.1-5.32-4.2-7.98-6.16-22.96-16.38-51.1-26.04-81.34-26.18h-.28c-75.18,0-136.78,59.08-140.7,133.28-.14,2.38-.14,4.9-.28,7.28v.28c0,19.46,3.92,37.94,11.06,54.74.98,2.1,1.82,4.2,2.8,6.3,7.84,16.38,18.9,31.08,32.2,43.12,3.22,3.08,6.86,5.88,10.36,8.68,23.52,17.64,52.64,28,84.14,28.14h.28c17.08,0,33.32-3.08,48.44-8.54,53.9-19.74,92.4-71.4,92.4-132.16v-.14h0v-.14c0-19.46-3.92-37.94-11.06-54.74-1.82-4.2-3.78-8.4-5.88-12.32" style="stroke-width:0px;fill:#8b8d8d"/>
  <path d="m336.28,156.66c-1.68-4.06-3.64-8.12-5.74-11.9-8.4-15.54-19.88-29.26-33.32-40.46-2.52-2.1-5.18-4.06-7.84-6.02-22.26-15.82-49.56-25.34-79.1-25.48h-.28c-73.22,0-133.14,57.54-136.92,129.78-.14,2.38-.14,4.76-.14,7.14v.28c0,18.9,3.78,36.82,10.78,53.34.98,2.1,1.82,4.06,2.8,6.02,7.7,15.96,18.34,30.24,31.36,42,3.22,3.08,6.58,5.74,10.08,8.4,22.82,17.08,51.24,27.3,81.9,27.3h.28c16.52,0,32.48-2.94,47.18-8.26,52.5-19.18,89.88-69.58,89.88-128.66v-.14h0v-.14c-.14-18.76-3.92-36.68-10.92-53.2Z" style="fill:#fff;stroke-width:0px"/>
  <path d="m184.38,147.14l3.22-11.62.84-2.8-14.56-8.12s-8.54-5.88-27.58,5.18c-22.26,13.16-40.46,30.24-49.7,48.16-5.32,9.94-9.38,21.56-11.48,34.58.7,24.64,8.54,47.6,21.56,66.78-3.64-35.7,30.66-74.62,57.82-101.36,13.86-14.14,19.88-30.8,19.88-30.8" style="stroke-width:0px;fill:#0d2240"/>
  <path d="m273.98,129.92c-19.04-11.06-27.58-5.18-27.58-5.18l-14.56,8.12.84,2.8,3.08,11.62s6.02,16.66,20.16,30.8c26.88,26.6,61.18,65.52,57.82,101.08,13.16-19.46,20.86-42.7,21.28-67.62-2.24-12.6-6.16-23.8-11.34-33.46-9.38-18.06-27.44-35-49.7-48.16" style="stroke-width:0px;fill:#0d2240"/>
  <path d="m228.2,108.5c49.98,5.6,82.88,34.02,99.82,59.22-12.74-36.4-41.86-64.96-78.4-77.14-8.12,2.38-17.08,7.28-21.42,17.92" style="stroke-width:0px;fill:#cf0a2c"/>
  <path d="m192.08,108.5c-4.48-10.64-13.58-15.68-21.56-17.92-36.82,12.18-66.08,41.16-78.68,77.84,16.66-25.48,49.84-54.18,100.24-59.92" style="stroke-width:0px;fill:#cf0a2c"/>
  <path d="m200.2,107.1l9.94-14.56,9.94,14.56c3.92-10.92,10.22-16.94,16.52-20.16-8.54-1.82-17.36-2.94-26.46-2.94s-17.92,1.12-26.6,2.94c6.3,3.22,12.6,9.24,16.66,20.16" style="stroke-width:0px;fill:#cf0a2c"/>
  <path d="m210.14,149.52c-1.4,1.12-47.6,34.3-68.04,67.2-27.44,44.38-23.94,70-16.8,84.7,17.78,16.24,40.04,27.44,64.82,31.36l10.64-151.76,8.96-8.96.14-.14h0l.14.14,8.96,8.96,10.78,151.62-.14.14c25.06-3.92,47.46-15.26,65.38-31.78,7-14.7,10.36-40.18-16.94-84.28-20.44-32.9-66.5-66.22-67.9-67.2" style="stroke-width:0px;fill:#0d2240"/>
  <polygon points="219.1 181.16 210.14 172.2 210.14 343.7 229.74 332.78 229.74 332.78 229.88 332.64 219.1 181.16" style="stroke-width:0px;fill:#8b8d8d"/>
  <path d="m236.74,117.32c-5.32-.98-10.92-1.68-16.38-1.96l-3.92-.28-.14-.14-.14-.14-1.54-3.22-.14-.28h0l-4.48-9.1-1.4,3.08-2.94,5.88h0l-.14.28-.14.28-1.54,3.22-.14.28h0l-3.92.28c-5.46.42-11.06,1.12-16.38,1.96-2.38.42-4.9.84-7.28,1.26h0l7.56,4.06,7.56,4.2,2.38,1.26,2.38,1.26-1.4,5.32-.14.28-.7,2.38-4.34,15.54h0l9.66-7.28,6.58-4.9,1.96-1.4,1.96-1.4h0v-.14h0v.14h0l1.96,1.4,1.96,1.4,16.66,12.04-4.34-15.54-.42-1.26-.42-1.26-1.4-5.32,1.54-.84,3.08-1.68,10.36-5.6,5.04-2.66h0c-1.96-.56-4.48-.84-6.86-1.4" style="stroke-width:0px;fill:#8b8d8d"/>
</svg>
